<svg width="78" height="58" viewBox="0 0 78 58" fill="none" xmlns="http://www.w3.org/2000/svg">
<g clip-path="url(#clip0_184_285)">
<g opacity="0.75">
<path fill-rule="evenodd" clip-rule="evenodd" d="M58.9902 8.14419C59.1074 8.25861 59.2227 8.37287 59.3371 8.48828C59.4516 8.60369 59.5649 8.71992 59.6784 8.83811L58.9902 8.14419ZM18.6628 49.5005C17.5404 48.3687 17.5404 46.531 18.6629 45.3993C19.7853 44.2675 21.6078 44.2675 22.7303 45.3993C31.7098 54.4534 46.2902 54.4534 55.2697 45.3993L59.3371 49.5005C48.1128 60.8181 29.8872 60.8181 18.6628 49.5005Z" fill="url(#paint0_radial_184_285)"/>
<path fill-rule="evenodd" clip-rule="evenodd" d="M18.3216 8.83812C18.4351 8.71992 18.5484 8.60369 18.6629 8.48828C18.7773 8.37287 18.8926 8.25862 19.0098 8.14419L18.3216 8.83812ZM59.3372 49.5005C58.2147 50.6323 56.3922 50.6323 55.2697 49.5005C54.1473 48.3687 54.1473 46.531 55.2697 45.3993C64.2492 36.3452 64.2492 21.6436 55.2697 12.5895L59.3372 8.48828C70.5616 19.8059 70.5616 38.1828 59.3372 49.5005Z" fill="url(#paint1_radial_184_285)"/>
<path fill-rule="evenodd" clip-rule="evenodd" d="M19.0098 49.8446C18.8926 49.7302 18.7773 49.6159 18.6629 49.5005C18.5484 49.3851 18.4351 49.2689 18.3216 49.1507L19.0098 49.8446ZM59.3372 8.48828C60.4596 9.62005 60.4596 11.4577 59.3371 12.5895C58.2147 13.7213 56.3922 13.7213 55.2697 12.5895C46.2902 3.5354 31.7098 3.5354 22.7303 12.5895L18.6629 8.48828C29.8872 -2.82937 48.1128 -2.82937 59.3372 8.48828Z" fill="url(#paint2_radial_184_285)"/>
<path fill-rule="evenodd" clip-rule="evenodd" d="M59.6784 49.1507C59.5649 49.2688 59.4516 49.3851 59.3371 49.5005C59.2227 49.6159 59.1074 49.7302 58.9902 49.8446L59.6784 49.1507ZM18.6628 8.48828C19.7853 7.35651 21.6078 7.35651 22.7303 8.48828C23.8527 9.62005 23.8527 11.4577 22.7303 12.5895C13.7508 21.6436 13.7508 36.3452 22.7303 45.3993L18.6628 49.5005C7.43843 38.1828 7.43843 19.8059 18.6628 8.48828Z" fill="url(#paint3_radial_184_285)"/>
</g>
<path fill-rule="evenodd" clip-rule="evenodd" d="M78 28.9423C78 27.3414 76.7109 26.0416 75.1232 26.0416H72.2478V31.8416H75.1499C76.7229 31.8416 78 30.5539 78 28.9678V28.9423ZM77.1947 28.9408C77.1947 27.6609 76.164 26.6216 74.8946 26.6216H73.0531V31.2616H74.893C76.1633 31.2616 77.1947 30.2217 77.1947 28.9408Z" fill="#01002A"/>
<path fill-rule="evenodd" clip-rule="evenodd" d="M61.8938 26.0416V31.8416H67.646C67.646 31.5215 67.3883 31.2616 67.0708 31.2616H62.8142V29.2896H65.9203V28.7096H62.8142V26.6216H67.0708C67.3883 26.6216 67.646 26.3618 67.646 26.0416H61.8938Z" fill="#01002A"/>
<path fill-rule="evenodd" clip-rule="evenodd" d="M57.3495 29.5216C57.0827 30.8447 55.9214 31.8416 54.531 31.8416C52.9436 31.8416 51.6549 30.5422 51.6549 28.9416C51.6549 27.3411 52.9436 26.0416 54.531 26.0416C55.9214 26.0416 57.0827 27.0385 57.3495 28.3616H56.5207C56.2713 27.491 55.4744 26.8536 54.531 26.8536C53.3882 26.8536 52.4602 27.7893 52.4602 28.9416C52.4602 30.094 53.3882 31.0296 54.531 31.0296C55.4744 31.0296 56.2713 30.3922 56.5207 29.5216H57.3495Z" fill="#01002A"/>
<path fill-rule="evenodd" clip-rule="evenodd" d="M46.2478 30.6795L42.1062 26.0416L42.0883 26.0579H41.3009V31.8579C41.7453 31.8579 42.1062 31.494 42.1062 31.0459V27.2551L46.2478 31.893L46.2866 31.8579H47.0531V26.0579C46.6087 26.0579 46.2478 26.4218 46.2478 26.8699V30.6795Z" fill="#01002A"/>
<path fill-rule="evenodd" clip-rule="evenodd" d="M30.9469 31.947L33.8034 26.0416L34.2483 26.9613L34.2474 26.9631L36.6582 31.947H35.7622L35.4816 31.367H32.1172L31.8367 31.947H30.9469ZM32.3977 30.787H35.2011L33.7994 27.8893L32.3977 30.787Z" fill="#01002A"/>
<path fill-rule="evenodd" clip-rule="evenodd" d="M20.5929 31.8416H26.3451C26.3451 31.5215 26.0874 31.2616 25.7699 31.2616H21.3982V26.8536C21.3982 26.4055 21.0373 26.0416 20.5929 26.0416V31.8416Z" fill="#01002A"/>
<path fill-rule="evenodd" clip-rule="evenodd" d="M10.3539 31.947L13.2104 26.0416L13.6553 26.9613L13.6544 26.9631L16.0651 31.947H15.1692L14.8886 31.367H11.5242L11.2436 31.947H10.3539ZM11.8047 30.787H14.6081L13.2064 27.8893L11.8047 30.787Z" fill="#01002A"/>
<path fill-rule="evenodd" clip-rule="evenodd" d="M4.32083 28.9419H4.30829C5.1052 28.9419 5.75221 28.2895 5.75221 27.486V27.4851C5.75221 26.6886 5.11084 26.0419 4.32083 26.0419H0V31.8419H4.30829C5.1052 31.8419 5.75221 31.1895 5.75221 30.386V30.3851C5.75221 29.5886 5.11084 28.9419 4.32083 28.9419ZM4.9469 30.2789C4.9469 29.733 4.50743 29.2899 3.96604 29.2899H0.80531V31.2619H3.97202C4.51008 31.2619 4.9469 30.8214 4.9469 30.2789ZM4.9469 27.669C4.9469 27.0911 4.48155 26.6219 3.9084 26.6219H0.80531V28.7099H3.91461C4.48431 28.7099 4.9469 28.2434 4.9469 27.669Z" fill="#01002A"/>
</g>
<defs>
<radialGradient id="paint0_radial_184_285" cx="0" cy="0" r="1" gradientUnits="userSpaceOnUse" gradientTransform="translate(20.6966 47.4499) scale(36.6069 36.911)">
<stop stop-color="#01002A"/>
<stop offset="1" stop-color="white" stop-opacity="0"/>
</radialGradient>
<radialGradient id="paint1_radial_184_285" cx="0" cy="0" r="1" gradientUnits="userSpaceOnUse" gradientTransform="translate(57.3035 47.4499) rotate(-90) scale(36.911 36.6069)">
<stop stop-color="#01002A"/>
<stop offset="1" stop-color="white" stop-opacity="0"/>
</radialGradient>
<radialGradient id="paint2_radial_184_285" cx="0" cy="0" r="1" gradientUnits="userSpaceOnUse" gradientTransform="translate(57.3034 10.5389) rotate(-180) scale(36.6069 36.911)">
<stop stop-color="#01002A"/>
<stop offset="1" stop-color="white" stop-opacity="0"/>
</radialGradient>
<radialGradient id="paint3_radial_184_285" cx="0" cy="0" r="1" gradientUnits="userSpaceOnUse" gradientTransform="translate(20.6965 10.5389) rotate(90) scale(36.911 36.6069)">
<stop stop-color="#01002A"/>
<stop offset="1" stop-color="white" stop-opacity="0"/>
</radialGradient>
<clipPath id="clip0_184_285">
<rect width="78" height="58" fill="white"/>
</clipPath>
</defs>
</svg>
