<svg width="270" height="45" viewBox="0 0 270 45" fill="none" xmlns="http://www.w3.org/2000/svg">
<path d="M13.6429 30.7002L27.2858 22.6371L13.6429 0L0 22.6371L13.6429 30.7002Z" fill="white"/>
<path d="M13.6429 44.4466L27.2932 25.2239L13.6429 33.2795L0 25.2239L13.6429 44.4466Z" fill="white"/>
<mask id="mask0_202_426" style="mask-type:luminance" maskUnits="userSpaceOnUse" x="49" y="3" width="40" height="39">
<path d="M88.2936 3.05249H49.9521V41.394H88.2936V3.05249Z" fill="white"/>
</mask>
<g mask="url(#mask0_202_426)">
<path d="M54.5996 9.68108C54.8392 9.38393 55.0884 9.09637 55.3376 8.80884C55.3472 8.79926 55.376 8.78967 55.3855 8.78009C55.4047 8.75133 55.4431 8.73216 55.4718 8.7034L55.491 8.67465C55.6635 8.5117 55.8552 8.33916 56.0661 8.17621C56.8329 7.60109 57.6189 7.16016 58.4528 6.86302C61.1367 5.92366 64.1177 6.49878 66.4565 8.71299C69.7251 11.7707 69.428 16.7071 66.8207 19.9852C63.5235 24.8737 57.8681 31.6888 65.6993 37.7947C67.1083 38.8969 68.1531 39.798 72.5911 41.0824C69.6867 41.6192 66.9933 41.4467 64.0027 40.6894C61.8844 39.4912 58.5487 36.932 57.4176 33.4717C55.7019 28.2286 60.437 20.3782 62.7183 17.3589C65.8527 13.1797 60.782 8.65548 57.0342 13.7069C55.098 16.3428 51.6761 23.7906 52.8646 29.3213C53.5548 32.4557 54.4846 34.737 58.1557 37.8809C57.4752 37.4783 56.8138 37.0278 56.1715 36.5102C47.6502 28.5641 48.6375 16.2757 54.5996 9.68108Z" fill="white"/>
<path d="M83.6429 34.7752C83.4032 35.0723 83.154 35.3599 82.9048 35.6474C82.8952 35.657 82.8665 35.6666 82.8569 35.6762C82.8377 35.7049 82.7994 35.7241 82.7706 35.7529L82.7514 35.7816C82.5789 35.9445 82.3872 36.1171 82.1763 36.2704C81.4095 36.8456 80.6235 37.2865 79.7896 37.5836C77.1057 38.523 74.1247 37.9479 71.7859 35.7337C68.5173 32.676 68.8145 27.7396 71.4217 24.4614C74.719 19.5729 80.3743 12.7578 72.5432 6.652C71.1341 5.5497 70.0893 4.64868 65.6513 3.36426C68.5557 2.82748 71.2491 3.00002 74.2397 3.75725C76.3581 4.95541 79.6937 7.51468 80.8248 10.975C82.5406 16.2181 77.8054 24.0684 75.5242 27.0878C72.3898 31.267 77.4604 35.7912 81.2082 30.7398C83.1636 28.1038 86.5855 20.6561 85.397 15.1254C84.7068 11.991 83.7771 9.70969 80.1059 6.56573C80.7865 6.96831 81.4479 7.41882 82.09 7.93643C90.5922 15.8922 89.6049 28.1805 83.6429 34.7752Z" fill="white"/>
</g>
<path d="M133.921 36.6203V41.5068L129.629 44.0107L125.458 41.5068V36.6203L129.629 39.1241L133.921 36.6203ZM110.953 19.7194L115.123 22.2232V30.603L122.305 34.8636V39.7501L110.953 33.1068V19.7194ZM148.284 19.7194V33.1271L136.81 39.7703V34.8838L143.992 30.6232V22.2434L148.284 19.7194ZM136.81 13.0761L141.103 15.58V20.4665L133.921 24.7271V33.2482L129.751 35.7521L125.58 33.2482V24.7271L118.134 20.4665V15.58L122.427 13.0761L129.608 17.3367L136.81 13.0761ZM118.134 23.9799L122.305 26.4838V31.3703L118.134 28.8665V23.9799ZM141.103 23.9799V28.8665L136.932 31.3703V26.4838L141.103 23.9799ZM115.123 8.81559L119.416 11.3194L115.123 13.8434V18.73L110.953 16.2059V11.3194L115.123 8.81559ZM144.134 8.81559L148.427 11.3194V16.2059L144.134 18.7098V13.8434L139.964 11.3396L144.134 8.81559ZM129.629 8.81559L133.921 11.3194L129.629 13.8434L125.458 11.3194L129.629 8.81559ZM129.629 0.435791L141.103 7.07904L136.932 9.5829L129.751 5.32232L122.427 9.5829L118.276 7.07904L129.629 0.435791Z" fill="white"/>
<mask id="mask1_202_426" style="mask-type:luminance" maskUnits="userSpaceOnUse" x="171" y="3" width="39" height="39">
<path d="M209.432 3.05029H171.086V41.3962H209.432V3.05029Z" fill="white"/>
</mask>
<g mask="url(#mask1_202_426)">
<path d="M171.086 22.3766C171.086 11.7029 179.67 3.05029 190.259 3.05029C200.848 3.05029 209.432 11.7029 209.432 22.3766V41.377C209.421 30.7968 200.841 22.2232 190.259 22.2232C179.67 22.2232 171.086 30.8071 171.086 41.3962L171.086 22.3766Z" fill="white"/>
</g>
<g clip-path="url(#clip0_202_426)">
<mask id="mask2_202_426" style="mask-type:luminance" maskUnits="userSpaceOnUse" x="232" y="3" width="38" height="38">
<path d="M269.565 3.48608H232.091V40.9605H269.565V3.48608Z" fill="white"/>
</mask>
<g mask="url(#mask2_202_426)">
<path d="M251.236 12.1375C252.423 17.1152 248.737 23.7494 240.773 22.6829L240.656 22.6659C240.699 24.6853 241.337 26.6477 242.489 28.3093C243.641 29.9708 245.258 31.2585 247.138 32.0123C249.018 32.7662 251.078 32.953 253.064 32.5496C255.05 32.1462 256.873 31.1704 258.307 29.7433C259.741 28.3162 260.723 26.5007 261.131 24.5221C261.539 22.5436 261.355 20.4891 260.602 18.6139C259.849 16.7386 258.56 15.1252 256.895 13.9738C255.23 12.8224 253.262 12.1839 251.236 12.1375Z" fill="white"/>
<path d="M242.556 21.1418C246.561 21.1418 249.809 17.9049 249.809 13.9121C249.809 9.91923 246.561 6.68237 242.556 6.68237C238.55 6.68237 235.303 9.91923 235.303 13.9121C235.303 17.9049 238.55 21.1418 242.556 21.1418Z" fill="white"/>
<path d="M262.177 11.6609C260.737 11.6595 259.331 12.0924 258.142 12.9029C259.375 13.8287 264.744 18.4146 262.227 26.3558C266.21 26.3283 269.43 23.0501 269.43 19.0087C269.427 14.9504 266.18 11.6609 262.177 11.6609ZM253.527 37.8561C254.344 36.6744 254.784 35.274 254.788 33.8388C253.324 34.3254 246.487 36.1339 241.356 29.5633C239.119 32.8486 240.002 37.3518 243.343 39.644C246.695 41.9433 251.255 41.1429 253.527 37.8561Z" fill="white"/>
<path d="M266.491 26.8518C265.715 29.4355 264.307 31.7863 262.394 33.6928C260.48 35.5992 258.121 37.0015 255.528 37.7734C254.868 38.9921 253.933 40.0414 252.797 40.8388C261.631 39.9454 268.655 32.952 269.565 24.1507C268.764 25.2758 267.712 26.2004 266.491 26.8518ZM247.135 6.40316C249.696 5.80321 252.364 5.82934 254.912 6.47934C257.461 7.12933 259.814 8.38391 261.771 10.1361C261.944 10.1262 262.118 10.1199 262.293 10.1199C263.5 10.1196 264.694 10.3641 265.803 10.8384C263.22 7.47313 259.568 5.07985 255.445 4.04905C251.321 3.01825 246.969 3.41079 243.098 5.16261C244.524 5.24593 245.909 5.67152 247.135 6.40316ZM238.632 33.5864C238.632 33.37 238.643 33.1556 238.658 32.9435C236.964 31.0263 235.747 28.738 235.106 26.2641C234.465 23.7903 234.418 21.2007 234.969 18.7054C234.216 17.4943 233.768 16.1197 233.663 14.6987C231.994 18.5068 231.642 22.7597 232.663 26.7889C233.683 30.818 236.018 34.3949 239.3 36.9572C238.857 35.8882 238.63 34.7428 238.632 33.5864Z" fill="white"/>
</g>
</g>
<defs>
<clipPath id="clip0_202_426">
<rect width="37.4744" height="37.4744" fill="white" transform="translate(232.091 3.48608)"/>
</clipPath>
</defs>
</svg>
