<svg width="212" height="28" viewBox="0 0 212 28" fill="none" xmlns="http://www.w3.org/2000/svg">
<path d="M65.1047 6.77869C65.1047 11.8068 65.1047 16.6859 65.1047 21.6768C64.2108 21.6768 63.3541 21.6768 62.3113 21.6768C62.3113 19.74 62.3113 17.8778 62.3113 15.8665C59.1082 15.8665 56.0913 15.8665 52.8882 15.8665C52.8882 17.8405 52.8882 19.74 52.8882 21.714C51.8826 21.714 51.1004 21.714 50.1693 21.714C50.1693 16.7604 50.1693 11.844 50.1693 6.77869C55.1229 6.77869 60.0393 6.77869 65.1047 6.77869ZM53 12.6634C56.1286 12.6634 59.1082 12.6634 62.1995 12.6634C62.1995 11.5833 62.1995 10.6522 62.1995 9.60933C59.0709 9.60933 56.0913 9.60933 53 9.60933C53 10.6149 53 11.5088 53 12.6634Z" fill="white"/>
<path d="M175.351 21.714C170.248 21.714 165.369 21.714 160.378 21.714C160.378 16.6859 160.378 11.7696 160.378 6.74146C165.369 6.74146 170.323 6.74146 175.351 6.74146C175.351 11.7323 175.351 16.6487 175.351 21.714ZM163.358 9.57209C163.358 12.7752 163.358 15.7548 163.358 18.7344C166.449 18.7344 169.391 18.7344 172.334 18.7344C172.334 15.6058 172.334 12.589 172.334 9.57209C169.28 9.57209 166.375 9.57209 163.358 9.57209Z" fill="white"/>
<path d="M178.777 21.6767C178.777 16.6486 178.777 11.695 178.777 6.7041C183.768 6.7041 188.647 6.7041 193.638 6.7041C193.638 11.695 193.638 16.6113 193.638 21.6767C188.684 21.6767 183.805 21.6767 178.777 21.6767ZM181.608 18.7343C184.774 18.7343 187.753 18.7343 190.696 18.7343C190.696 15.5685 190.696 12.5889 190.696 9.64648C187.604 9.64648 184.662 9.64648 181.608 9.64648C181.608 12.7006 181.608 15.6057 181.608 18.7343Z" fill="white"/>
<path d="M108.16 16.0155C108.16 16.9467 108.16 17.7661 108.16 18.8462C112.183 18.8462 116.131 18.8462 120.19 18.8462C120.19 19.889 120.19 20.7457 120.19 21.6768C115.274 21.6768 110.32 21.6768 105.255 21.6768C105.255 16.7232 105.255 11.8068 105.255 6.74146C110.246 6.74146 115.162 6.74146 120.19 6.74146C120.19 7.63534 120.19 8.49198 120.19 9.4976C116.168 9.4976 112.22 9.4976 108.309 9.4976C107.676 12.7007 107.751 12.7752 110.693 12.7752C111.326 12.7752 111.922 12.8124 112.555 12.7752C113.635 12.7007 114.268 12.9242 114.268 14.265C114.268 15.6058 113.673 15.7921 112.555 15.7548C111.252 15.7176 109.948 15.7548 108.644 15.7921C108.57 15.7921 108.458 15.9038 108.16 16.0155Z" fill="white"/>
<path d="M135.536 18.8834C134.679 18.8089 133.822 18.6972 132.779 18.6227C132.705 17.7661 132.668 16.8722 132.593 15.8665C130.545 15.8665 128.608 15.8665 126.41 15.8665C126.41 17.8405 126.41 19.74 126.41 21.6768C125.368 21.6768 124.623 21.6768 123.692 21.6768C123.692 16.6859 123.692 11.7696 123.692 6.74146C128.608 6.74146 133.45 6.74146 138.403 6.74146C138.403 9.64658 138.403 12.5517 138.403 15.6431C137.584 15.7176 136.765 15.7921 135.759 15.8665C135.647 16.9094 135.573 17.915 135.461 18.9579L135.536 18.8834ZM135.647 9.64658C132.519 9.64658 129.576 9.64658 125.963 9.64658C126.485 10.8757 126.783 12.589 127.267 12.6262C129.986 12.8869 132.779 12.7379 135.647 12.7379C135.647 11.6206 135.647 10.7267 135.647 9.64658Z" fill="white"/>
<path d="M31.8447 6.7041C32.8503 6.7041 33.6697 6.7041 34.6381 6.7041C34.6381 8.6781 34.6381 10.5776 34.6381 12.7378C37.5805 12.7378 40.3366 12.7751 43.13 12.6633C43.428 12.6633 43.8749 11.8067 43.9122 11.3225C44.0239 9.8327 43.9494 8.38014 43.9494 6.74135C45.0295 6.74135 45.8862 6.74135 46.8918 6.74135C46.8918 11.7322 46.8918 16.6486 46.8918 21.6767C45.9607 21.6767 45.104 21.6767 43.9867 21.6767C43.9867 19.7399 43.9867 17.8404 43.9867 15.8664C40.7836 15.8664 37.8412 15.8664 34.7126 15.8664C34.7126 17.8404 34.7126 19.7027 34.7126 21.6767C33.6697 21.6767 32.8503 21.6767 31.882 21.6767C31.8447 16.6858 31.8447 11.7695 31.8447 6.7041Z" fill="white"/>
<path d="M154.195 9.60934C150.881 9.60934 147.975 9.60934 144.884 9.60934C144.884 13.6318 144.884 17.5798 144.884 21.6396C143.878 21.6396 143.059 21.6396 142.091 21.6396C142.091 16.7232 142.091 11.8068 142.091 6.74146C147.007 6.74146 151.886 6.74146 156.914 6.74146C156.914 11.6578 156.914 16.5742 156.914 21.6396C156.095 21.6396 155.276 21.6396 154.158 21.6396C154.195 17.6916 154.195 13.7063 154.195 9.60934Z" fill="white"/>
<path d="M209.281 9.60933C206.078 9.60933 203.136 9.60933 199.933 9.60933C199.933 13.6691 199.933 17.6543 199.933 21.714C198.89 21.714 198.108 21.714 197.214 21.714C197.214 16.7232 197.214 11.8068 197.214 6.77869C202.13 6.77869 206.972 6.77869 212 6.77869C212 11.7323 212 16.7232 212 21.7513C211.143 21.7513 210.324 21.7513 209.281 21.7513C209.281 17.6543 209.281 13.6691 209.281 9.60933Z" fill="white"/>
<path d="M68.4941 21.6395C68.4941 16.9094 68.4568 12.2537 68.5313 7.63529C68.5313 7.30009 69.2762 6.66692 69.6487 6.66692C74.1553 6.59243 78.6993 6.62967 83.4294 6.62967C83.4666 7.5608 83.5411 8.3802 83.5784 9.42307C79.4814 9.42307 75.5707 9.42307 71.4364 9.42307C71.4364 12.6262 71.4364 15.6058 71.4364 18.8089C75.3844 18.8089 79.2952 18.8089 83.3922 18.8089C83.3922 19.8517 83.3922 20.6711 83.3922 21.6395C78.5503 21.6395 73.7084 21.6395 68.4941 21.6395Z" fill="white"/>
<path d="M87.0049 6.74146C87.8988 6.74146 88.7182 6.74146 89.7238 6.74146C89.7238 8.7527 89.7238 10.6522 89.7238 12.7752C91.8095 12.7752 93.6718 12.7752 95.683 12.7752C95.683 13.8553 95.683 14.6747 95.683 15.7548C93.709 15.7548 91.8468 15.7548 89.7238 15.7548C89.7238 17.8405 89.7238 19.74 89.7238 21.714C88.7182 21.714 87.936 21.714 86.9677 21.714C87.0049 16.7604 87.0049 11.7696 87.0049 6.74146Z" fill="white"/>
<path d="M99.1841 6.7041C100.115 6.7041 100.897 6.7041 101.866 6.7041C101.866 7.5235 101.866 8.34289 101.866 9.34851C101.084 9.34851 100.227 9.34851 99.1841 9.34851C99.1841 8.52912 99.1841 7.70972 99.1841 6.7041Z" fill="white"/>
<path d="M99.1841 21.6768C99.1841 20.7456 99.1841 19.9262 99.1841 18.9951C100.152 18.9951 100.972 18.9951 101.94 18.9951C101.94 19.889 101.94 20.7084 101.94 21.6768C101.046 21.6768 100.227 21.6768 99.1841 21.6768Z" fill="white"/>
<path d="M135.498 18.9578C136.467 18.9578 137.435 18.9578 138.515 18.9578C138.515 19.9262 138.515 20.7828 138.515 21.714C137.621 21.714 136.802 21.714 135.945 21.714C135.796 20.7084 135.685 19.8145 135.573 18.9206C135.536 18.8833 135.498 18.9578 135.498 18.9578Z" fill="white"/>
<path d="M98.7372 9.7583C98.7372 10.6894 98.7372 11.4716 98.7372 12.4027C97.8805 12.4027 97.0984 12.4027 96.1672 12.4027C96.1672 11.5088 96.1672 10.6894 96.1672 9.7583C96.9866 9.7583 97.7688 9.7583 98.7372 9.7583Z" fill="white"/>
<path d="M96.2045 15.9781C97.0984 15.9781 97.806 15.9781 98.6999 15.9781C98.6999 16.872 98.6999 17.6914 98.6999 18.6226C97.9178 18.6226 97.1356 18.6226 96.2045 18.6226C96.2045 17.7659 96.2045 16.9465 96.2045 15.9781Z" fill="white"/>
<path d="M3.65004 0V7.22558H7.30007V5.40056H9.12509V14.4884H10.9501V5.40056H12.7751V7.22558H16.4252V0H3.65004ZM16.4624 7.22558V10.8756H18.2874V7.22558H16.4624ZM18.2874 10.8756V16.3507H20.1124V14.5257H21.9375V12.6634H20.1124V10.8384H18.2874V10.8756ZM18.2874 16.3134H16.4624V19.9635H18.2874V16.3134ZM16.4624 19.9635H12.8124V21.7885H7.30007V19.9635H3.65004V27.8595H16.4252L16.4624 19.9635ZM3.65004 19.9635V16.3134H1.82502V19.9635H3.65004ZM1.82502 16.3134V10.8756H0V16.3507L1.82502 16.3134ZM1.82502 10.8756H3.65004V7.22558H1.82502V10.8756Z" fill="white"/>
</svg>
