<?xml version="1.0" encoding="utf-8"?>
<!-- Generator: Adobe Illustrator 26.1.0, SVG Export Plug-In . SVG Version: 6.00 Build 0)  -->
<svg version="1.1" id="Layer_1" xmlns="http://www.w3.org/2000/svg" xmlns:xlink="http://www.w3.org/1999/xlink" x="0px" y="0px"
	 viewBox="0 0 431.55 431.67" style="enable-background:new 0 0 431.55 431.67;" xml:space="preserve">
<style type="text/css">
	.st0{fill:#34B8BB;}
</style>
<path class="st0" d="M389.48,0.03c23.61,0.39,42.44,19.84,42.06,43.45c0,0.19-0.01,0.37-0.01,0.56
	c-0.86,23.82-20.87,42.42-44.68,41.56c-23.07-0.84-41.39-19.67-41.59-42.75C345.13,19.32,364.1,0.13,387.63,0
	C388.25,0,388.87,0.01,389.48,0.03z"/>
<path class="st0" d="M353.94,110.92c57.88,76.34,42.91,185.15-33.43,243.02c-61.95,46.97-147.6,46.98-209.56,0.03l46.91-46.91
	c50.42,31.98,117.22,17.03,149.2-33.39c22.42-35.35,22.42-80.46,0-115.81L353.94,110.92z"/>
<path class="st0" d="M318.79,76.24l-47.03,47.06c-51.12-30.89-117.6-14.49-148.49,36.62c-20.78,34.39-20.78,77.47,0,111.86
	l-47.06,47.06c-56.92-77.05-40.61-185.67,36.45-242.59C173.92,31,257.53,31,318.79,76.24z"/>
<path class="st0" d="M43.54,345.43c23.81,0.23,42.93,19.73,42.69,43.54C86,412.79,66.51,431.9,42.7,431.67
	C18.88,431.43-0.23,411.94,0,388.13c0-0.09,0-0.17,0-0.26c0.06-23.5,19.16-42.5,42.66-42.44C42.96,345.42,43.25,345.43,43.54,345.43
	z"/>
</svg>
