<?xml version="1.0" encoding="utf-8"?>
<!-- Generator: Adobe Illustrator 23.0.1, SVG Export Plug-In . SVG Version: 6.00 Build 0)  -->
<svg version="1.1" id="Capa_1" xmlns="http://www.w3.org/2000/svg" xmlns:xlink="http://www.w3.org/1999/xlink" x="0px" y="0px"
	 viewBox="0 0 372 136" style="enable-background:new 0 0 372 136;" xml:space="preserve">
<style type="text/css">
	.st0{fill:#FFFFFF;}
	.st1{fill:#CDEDEE;}
	.st2{fill:#C7EDF0;}
	.st3{fill:#91D6D8;}
	.st4{fill:#CEEEF0;}
	.st5{fill:#5CFFE4;}
	.st6{opacity:0.6;fill:#5CFFE4;}
</style>
<g>
	<g>
		<g>
			<g>
				<polygon class="st0" points="14.3,41.5 14.3,58 0.7,64.1 				"/>
				<polygon class="st1" points="14.3,58 14.3,72.4 0.7,64.1 				"/>
				<polygon class="st0" points="14.3,75.4 14.3,86.4 0.7,67.3 				"/>
			</g>
			<g>
				<polygon class="st2" points="14.3,41.5 14.3,58 27.9,64.1 				"/>
				<polygon class="st3" points="14.3,58 14.3,72.4 27.9,64.1 				"/>
				<polygon class="st4" points="14.3,75.4 14.3,86.4 27.9,67.3 				"/>
			</g>
		</g>
	</g>
</g>
<path id="binancedex" class="st0" d="M156.5,77.3v4.5l-4,2.3l-3.9-2.3v-4.5l3.9,2.3L156.5,77.3z M135.3,61.6l3.9,2.3v7.8l6.6,4v4.5
	L135.3,74V61.6z M169.8,61.6v12.5l-10.6,6.2v-4.5l6.6-4v-7.8L169.8,61.6z M159.2,55.4l4,2.3l0,0v4.5l-6.6,4v7.9l-3.9,2.3l-3.8-2.3
	v-7.9l-6.9-4v-4.5l4-2.3l6.6,4L159.2,55.4z M141.9,65.5l3.9,2.3v4.5l-3.9-2.3V65.5z M163.1,65.5v4.5l-3.9,2.3v-4.5L163.1,65.5z
	 M139.1,51.4l4,2.3l-4,2.3v4.5l-3.9-2.3v-4.5L139.1,51.4z M165.9,51.4l4,2.3v4.5l-4,2.3v-4.5l-3.9-2.3L165.9,51.4z M152.5,51.4
	l4,2.3l-4,2.3l-3.9-2.3L152.5,51.4z M152.5,43.7l10.6,6.2l-3.9,2.3l-6.6-4l-6.8,4l-3.9-2.3L152.5,43.7z"/>
<g>
	<g>
		<g>
			<path class="st0" d="M296.5,43.7c2.2,0,4,1.9,3.9,4.1c0,2.2-1.8,4-4.1,4c-2.3,0-4-1.8-4-4.1C292.3,45.4,294.2,43.6,296.5,43.7z"
				/>
		</g>
		<g>
			<path class="st0" d="M293.1,54.1c2.1,2.7,3.3,6.1,3.3,9.8c0,9-7.3,16.3-16.3,16.3c-3.7,0-7.1-1.2-9.8-3.3l4.4-4.4
				c1.6,1,3.4,1.6,5.4,1.6c5.6,0,10.1-4.5,10.1-10.1c0-2-0.6-3.9-1.6-5.4L293.1,54.1z"/>
		</g>
		<g>
			<path class="st0" d="M280.1,53.8c-5.6,0-10.1,4.5-10.1,10.1c0,1.9,0.5,3.7,1.5,5.2l-4.4,4.4c-2-2.7-3.2-6-3.2-9.7
				c0-9,7.3-16.3,16.3-16.3c3.6,0,7,1.2,9.7,3.2l-4.4,4.4C283.8,54.4,282,53.8,280.1,53.8z"/>
		</g>
		<g>
			<path class="st0" d="M264,76.1c2.3,0,4,1.8,4,4.1c0,2.3-1.8,4-4,4c-2.3,0-4.1-1.8-4.1-4.1C259.9,77.8,261.7,76.1,264,76.1z"/>
		</g>
	</g>
</g>
<g>
	<path class="st5" d="M15.3,35.6h-2v-10c0-6.5,5.3-11.8,11.8-11.8h43.5v2H25.1c-5.4,0-9.8,4.4-9.8,9.8V35.6z"/>
</g>
<g>
	<path class="st5" d="M149.6,35.6h-2v-10c0-5.4-4.4-9.8-9.8-9.8h-33v-2h33c6.5,0,11.8,5.3,11.8,11.8V35.6z"/>
</g>
<g>
	<path class="st5" d="M272.8,123h-101v-2h101c5.4,0,9.8-4.4,9.8-9.8v-10h2v10C284.6,117.7,279.3,123,272.8,123z"/>
</g>
<g>
	<path class="st5" d="M135.5,123H25.1c-6.5,0-11.8-5.3-11.8-11.8v-10h2v10c0,5.4,4.4,9.8,9.8,9.8h110.4V123z"/>
</g>
<g>
	<g>
		<path class="st5" d="M86.7,25.2c-5.7,0-10.4-4.7-10.4-10.4S81,4.5,86.7,4.5c5.7,0,10.4,4.7,10.4,10.4S92.4,25.2,86.7,25.2z
			 M86.7,5c-5.4,0-9.8,4.4-9.8,9.8s4.4,9.8,9.8,9.8c5.4,0,9.8-4.4,9.8-9.8S92.1,5,86.7,5z"/>
	</g>
	<path class="st5" d="M94.2,1.4c-0.4,0.2-0.8,0.5-1.3,0.9C92.1,3,91,4.1,89.8,5.4c-2.4,2.6-5.3,6.1-7.7,9.4c-2.4,3.2-4.1,5.9-5.1,8
		c-0.5,1.1-0.8,1.9-1,2.6c-0.1,0.4-0.1,0.7-0.1,1c0,0.3,0.2,0.5,0.4,0.7c0.3,0.3,0.7,0.6,1.1,0.8c0.7,0.5,1.7,0.5,2.4,0.1
		c0,0,0,0,0,0c0.6-0.3,1.3-0.9,1.9-1.5l-2.2-1.1c0.8-1.9,2.5-4.7,5.4-8.6c2.1-2.9,4.6-5.9,6.7-8.3c1.4-1.6,2.7-3,3.6-3.8l1.7,0.9
		c0.2-0.5,0.4-1.1,0.5-1.6c0,0,0,0,0,0c0.2-0.7-0.1-1.5-0.7-2c-0.4-0.3-0.9-0.6-1.3-0.9c-0.2-0.1-0.4-0.1-0.6-0.1
		C94.6,1.2,94.4,1.3,94.2,1.4z"/>
	<path class="st5" d="M79.1,1.4c0.4,0.2,0.8,0.5,1.3,0.9c0.8,0.7,1.9,1.8,3.2,3.1c2.4,2.6,5.3,6.1,7.7,9.4c2.4,3.2,4.1,5.9,5.1,8
		c0.5,1.1,0.8,1.9,1,2.6c0.1,0.4,0.1,0.7,0.1,1c0,0.3-0.2,0.5-0.4,0.7c-0.3,0.3-0.7,0.6-1.1,0.8c-0.7,0.5-1.7,0.5-2.4,0.1
		c0,0,0,0,0,0c-0.6-0.3-1.3-0.9-1.9-1.5l2.2-1.1c-0.8-1.9-2.5-4.7-5.4-8.6c-2.1-2.9-4.6-5.9-6.7-8.3c-1.4-1.6-2.7-3-3.6-3.8
		l-1.7,0.9c-0.2-0.5-0.4-1.1-0.5-1.6c0,0,0,0,0,0c-0.2-0.7,0.1-1.5,0.7-2c0.4-0.3,0.9-0.6,1.3-0.9c0.2-0.1,0.4-0.1,0.6-0.1
		C78.7,1.2,78.9,1.3,79.1,1.4z"/>
	<path class="st6" d="M99,6.8L87,0.7c-0.2-0.1-0.5-0.1-0.7,0l-12,6.2C74.1,7,74,7.2,74,7.5v14.7c0,0.3,0.2,0.5,0.4,0.7l12,6.2
		c0.1,0.1,0.2,0.1,0.3,0.1c0.1,0,0.2,0,0.3-0.1l12-6.2c0.3-0.1,0.4-0.4,0.4-0.7V7.5C99.4,7.2,99.2,7,99,6.8z M87.5,27.1l-0.7-5.4
		c0-0.2-0.3-0.2-0.3,0l-0.7,5.4l-10.4-5.3V8.8l5.5,1.8c0.2,0.1,0.3-0.2,0.1-0.3l-4.6-3l10.1-5.2l10.1,5.2l-4.6,3
		c-0.1,0.1,0,0.3,0.1,0.3l5.6-1.8v12.9L87.5,27.1z"/>
	<path class="st5" d="M85.5,16c1-1.2,1.2-1.2,2.2,0c0.3,0-1.1-2.8-1.1-2.8S85.4,16,85.5,16z"/>
</g>
<g>
	<path class="st5" d="M156.3,35.6h-2v-10c0-6.5,5.3-11.8,11.8-11.8h35.5v2h-35.5c-5.4,0-9.8,4.4-9.8,9.8V35.6z"/>
</g>
<g>
	<path class="st5" d="M284.6,35.6h-2v-10c0-5.4-4.4-9.8-9.8-9.8h-35v-2h35c6.5,0,11.8,5.3,11.8,11.8V35.6z"/>
</g>
<g>
	<g>
		<path class="st5" d="M219.7,25.2c-5.7,0-10.4-4.7-10.4-10.4S214,4.5,219.7,4.5c5.7,0,10.4,4.7,10.4,10.4S225.4,25.2,219.7,25.2z
			 M219.7,5c-5.4,0-9.8,4.4-9.8,9.8s4.4,9.8,9.8,9.8s9.8-4.4,9.8-9.8S225.1,5,219.7,5z"/>
	</g>
	<path class="st5" d="M227.2,1.4c-0.4,0.2-0.8,0.5-1.3,0.9c-0.8,0.7-1.9,1.8-3.2,3.1c-2.4,2.6-5.3,6.1-7.7,9.4
		c-2.4,3.2-4.1,5.9-5.1,8c-0.5,1.1-0.8,1.9-1,2.6c-0.1,0.4-0.1,0.7-0.1,1c0,0.3,0.2,0.5,0.4,0.7c0.3,0.3,0.7,0.6,1.1,0.8
		c0.7,0.5,1.7,0.5,2.4,0.1c0,0,0,0,0,0c0.6-0.3,1.3-0.9,1.9-1.5l-2.2-1.1c0.8-1.9,2.5-4.7,5.4-8.6c2.1-2.9,4.6-5.9,6.7-8.3
		c1.4-1.6,2.7-3,3.6-3.8l1.7,0.9c0.2-0.5,0.4-1.1,0.5-1.6c0,0,0,0,0,0c0.2-0.7-0.1-1.5-0.7-2c-0.4-0.3-0.9-0.6-1.3-0.9
		c-0.2-0.1-0.4-0.1-0.6-0.1C227.6,1.2,227.4,1.3,227.2,1.4z"/>
	<path class="st5" d="M212.1,1.4c0.4,0.2,0.8,0.5,1.3,0.9c0.8,0.7,1.9,1.8,3.2,3.1c2.4,2.6,5.3,6.1,7.7,9.4c2.4,3.2,4.1,5.9,5.1,8
		c0.5,1.1,0.8,1.9,1,2.6c0.1,0.4,0.1,0.7,0.1,1c0,0.3-0.2,0.5-0.4,0.7c-0.3,0.3-0.7,0.6-1.1,0.8c-0.7,0.5-1.7,0.5-2.4,0.1
		c0,0,0,0,0,0c-0.6-0.3-1.3-0.9-1.9-1.5l2.2-1.1c-0.8-1.9-2.5-4.7-5.4-8.6c-2.1-2.9-4.6-5.9-6.7-8.3c-1.4-1.6-2.7-3-3.6-3.8
		l-1.7,0.9c-0.2-0.5-0.4-1.1-0.5-1.6c0,0,0,0,0,0c-0.2-0.7,0.1-1.5,0.7-2c0.4-0.3,0.9-0.6,1.3-0.9c0.2-0.1,0.4-0.1,0.6-0.1
		C211.7,1.2,211.9,1.3,212.1,1.4z"/>
	<path class="st6" d="M232,6.8l-12-6.2c-0.2-0.1-0.5-0.1-0.7,0l-12,6.2C207.1,7,207,7.2,207,7.5v14.7c0,0.3,0.2,0.5,0.4,0.7l12,6.2
		c0.1,0.1,0.2,0.1,0.3,0.1c0.1,0,0.2,0,0.3-0.1l12-6.2c0.3-0.1,0.4-0.4,0.4-0.7V7.5C232.4,7.2,232.2,7,232,6.8z M220.5,27.1
		l-0.7-5.4c0-0.2-0.3-0.2-0.3,0l-0.7,5.4l-10.4-5.3V8.8l5.5,1.8c0.2,0.1,0.3-0.2,0.1-0.3l-4.6-3l10.1-5.2l10.1,5.2l-4.6,3
		c-0.1,0.1,0,0.3,0.1,0.3l5.6-1.8v12.9L220.5,27.1z"/>
	<path class="st5" d="M218.5,16c1-1.2,1.2-1.2,2.2,0c0.3,0-1.1-2.8-1.1-2.8S218.4,16,218.5,16z"/>
</g>
<g>
	<g>
		<path class="st5" d="M153.6,131.2c-5.7,0-10.4-4.7-10.4-10.4s4.7-10.4,10.4-10.4c5.7,0,10.4,4.7,10.4,10.4
			S159.4,131.2,153.6,131.2z M153.6,111c-5.4,0-9.8,4.4-9.8,9.8s4.4,9.8,9.8,9.8c5.4,0,9.8-4.4,9.8-9.8S159.1,111,153.6,111z"/>
	</g>
	<path class="st5" d="M161.2,107.3c-0.4,0.2-0.8,0.5-1.3,0.9c-0.8,0.7-1.9,1.8-3.2,3.1c-2.4,2.6-5.3,6.1-7.7,9.4
		c-2.4,3.2-4.1,5.9-5.1,8c-0.5,1.1-0.8,1.9-1,2.6c-0.1,0.4-0.1,0.7-0.1,1c0,0.3,0.2,0.5,0.4,0.7c0.3,0.3,0.7,0.6,1.1,0.8
		c0.7,0.5,1.7,0.5,2.4,0.1c0,0,0,0,0,0c0.6-0.3,1.3-0.9,1.9-1.5l-2.2-1.1c0.8-1.9,2.5-4.7,5.4-8.6c2.1-2.9,4.6-5.9,6.7-8.3
		c1.4-1.6,2.7-3,3.6-3.8l1.7,0.9c0.2-0.5,0.4-1.1,0.5-1.6c0,0,0,0,0,0c0.2-0.7-0.1-1.5-0.7-2c-0.4-0.3-0.9-0.6-1.3-0.9
		c-0.2-0.1-0.4-0.1-0.6-0.1C161.6,107.1,161.4,107.2,161.2,107.3z"/>
	<path class="st5" d="M146,107.3c0.4,0.2,0.8,0.5,1.3,0.9c0.8,0.7,1.9,1.8,3.2,3.1c2.4,2.6,5.3,6.1,7.7,9.4c2.4,3.2,4.1,5.9,5.1,8
		c0.5,1.1,0.8,1.9,1,2.6c0.1,0.4,0.1,0.7,0.1,1c0,0.3-0.2,0.5-0.4,0.7c-0.3,0.3-0.7,0.6-1.1,0.8c-0.7,0.5-1.7,0.5-2.4,0.1
		c0,0,0,0,0,0c-0.6-0.3-1.3-0.9-1.9-1.5l2.2-1.1c-0.8-1.9-2.5-4.7-5.4-8.6c-2.1-2.9-4.6-5.9-6.7-8.3c-1.4-1.6-2.7-3-3.6-3.8
		l-1.7,0.9c-0.2-0.5-0.4-1.1-0.5-1.6c0,0,0,0,0,0c-0.2-0.7,0.1-1.5,0.7-2c0.4-0.3,0.9-0.6,1.3-0.9c0.2-0.1,0.4-0.1,0.6-0.1
		C145.6,107.1,145.8,107.2,146,107.3z"/>
	<path class="st6" d="M165.9,112.8l-12-6.2c-0.2-0.1-0.5-0.1-0.7,0l-12,6.2c-0.3,0.1-0.4,0.4-0.4,0.7v14.7c0,0.3,0.2,0.5,0.4,0.7
		l12,6.2c0.1,0.1,0.2,0.1,0.3,0.1c0.1,0,0.2,0,0.3-0.1l12-6.2c0.3-0.1,0.4-0.4,0.4-0.7v-14.7C166.3,113.1,166.2,112.9,165.9,112.8z
		 M154.5,133l-0.7-5.4c0-0.2-0.3-0.2-0.3,0l-0.7,5.4l-10.4-5.3v-12.9l5.5,1.8c0.2,0.1,0.3-0.2,0.1-0.3l-4.6-3l10.1-5.2l10.1,5.2
		l-4.6,3c-0.1,0.1,0,0.3,0.1,0.3l5.6-1.8v12.9L154.5,133z"/>
	<path class="st5" d="M152.5,121.9c1-1.2,1.2-1.2,2.2,0c0.3,0-1.1-2.8-1.1-2.8S152.3,121.9,152.5,121.9z"/>
</g>
<g>
	<g>
		<path class="st0" d="M43,59.9c-0.8-0.2-1.5-0.6-2-0.9l0.9-2c0.5,0.4,1.1,0.6,1.7,0.8s1.3,0.3,2,0.3c0.7,0,1.3-0.1,1.6-0.3
			c0.4-0.2,0.5-0.5,0.5-0.9c0-0.3-0.1-0.5-0.3-0.7c-0.2-0.2-0.5-0.3-0.8-0.4c-0.3-0.1-0.8-0.2-1.3-0.4c-0.9-0.2-1.6-0.4-2.1-0.6
			c-0.5-0.2-1-0.5-1.4-1c-0.4-0.4-0.6-1-0.6-1.8c0-0.7,0.2-1.2,0.5-1.8c0.4-0.5,0.9-0.9,1.6-1.3c0.7-0.3,1.6-0.5,2.6-0.5
			c0.7,0,1.4,0.1,2.1,0.3c0.7,0.2,1.3,0.4,1.8,0.7l-0.8,2C48,51,47,50.7,46,50.7c-0.7,0-1.3,0.1-1.6,0.4c-0.3,0.2-0.5,0.5-0.5,0.9
			c0,0.4,0.2,0.7,0.6,0.9c0.4,0.2,1,0.4,1.8,0.6c0.9,0.2,1.6,0.4,2.1,0.6c0.5,0.2,1,0.5,1.4,1c0.4,0.4,0.6,1,0.6,1.8
			c0,0.6-0.2,1.2-0.5,1.8c-0.4,0.5-0.9,0.9-1.6,1.3c-0.7,0.3-1.6,0.5-2.6,0.5C44.7,60.2,43.8,60.1,43,59.9z"/>
		<path class="st0" d="M60.3,56.4h-6.5c0.1,0.5,0.4,1,0.8,1.3c0.4,0.3,1,0.5,1.6,0.5c0.4,0,0.8-0.1,1.2-0.2s0.7-0.3,1-0.6l1.3,1.4
			c-0.8,0.9-2,1.4-3.6,1.4c-1,0-1.8-0.2-2.6-0.6c-0.7-0.4-1.3-0.9-1.7-1.6s-0.6-1.4-0.6-2.3c0-0.8,0.2-1.6,0.6-2.3
			c0.4-0.7,0.9-1.2,1.6-1.6c0.7-0.4,1.5-0.6,2.3-0.6c0.8,0,1.6,0.2,2.3,0.5s1.2,0.9,1.6,1.6s0.6,1.5,0.6,2.4
			C60.4,55.8,60.4,56,60.3,56.4z M54.5,53.7c-0.4,0.3-0.6,0.8-0.7,1.3H58c-0.1-0.5-0.3-1-0.7-1.3c-0.4-0.3-0.9-0.5-1.4-0.5
			C55.3,53.2,54.9,53.3,54.5,53.7z"/>
		<path class="st0" d="M69.3,51.8c0.7,0.4,1.2,0.9,1.5,1.6s0.6,1.4,0.6,2.3c0,0.9-0.2,1.7-0.6,2.3c-0.4,0.7-0.9,1.2-1.5,1.6
			c-0.7,0.4-1.4,0.6-2.2,0.6c-1.1,0-2-0.3-2.6-1v4H62V51.4h2.4v1c0.6-0.7,1.5-1.1,2.7-1.1C67.9,51.3,68.7,51.5,69.3,51.8z
			 M68.3,57.5c0.4-0.4,0.6-1,0.6-1.7c0-0.7-0.2-1.3-0.6-1.7c-0.4-0.4-0.9-0.6-1.6-0.6c-0.6,0-1.2,0.2-1.6,0.6
			c-0.4,0.4-0.6,1-0.6,1.7c0,0.7,0.2,1.3,0.6,1.7c0.4,0.4,0.9,0.6,1.6,0.6C67.3,58.1,67.9,57.9,68.3,57.5z"/>
		<path class="st0" d="M74.7,59.6C74,59.2,73.5,58.7,73,58s-0.6-1.4-0.6-2.3c0-0.9,0.2-1.6,0.6-2.3c0.4-0.7,1-1.2,1.7-1.6
			c0.7-0.4,1.5-0.6,2.4-0.6c0.9,0,1.7,0.2,2.4,0.6c0.7,0.4,1.3,0.9,1.7,1.6c0.4,0.7,0.6,1.4,0.6,2.3c0,0.9-0.2,1.6-0.6,2.3
			c-0.4,0.7-1,1.2-1.7,1.6c-0.7,0.4-1.5,0.6-2.4,0.6C76.3,60.2,75.5,60,74.7,59.6z M78.8,57.5c0.4-0.4,0.6-1,0.6-1.7
			c0-0.7-0.2-1.3-0.6-1.7c-0.4-0.4-0.9-0.6-1.6-0.6S76,53.6,75.6,54S75,55,75,55.7c0,0.7,0.2,1.3,0.6,1.7c0.4,0.4,0.9,0.6,1.6,0.6
			S78.3,57.9,78.8,57.5z"/>
		<path class="st0" d="M83.6,48.2h2.5V60h-2.5V48.2z"/>
		<path class="st0" d="M88.5,49.8c-0.3-0.3-0.4-0.6-0.4-1c0-0.4,0.1-0.7,0.4-1s0.7-0.4,1.1-0.4c0.5,0,0.8,0.1,1.1,0.4
			c0.3,0.3,0.4,0.6,0.4,1c0,0.4-0.1,0.8-0.4,1c-0.3,0.3-0.7,0.4-1.1,0.4C89.2,50.2,88.8,50.1,88.5,49.8z M88.4,51.4h2.5V60h-2.5
			V51.4z"/>
		<path class="st0" d="M99.7,52.2c0.7,0.6,1.1,1.6,1.1,2.9V60h-2.3V59c-0.5,0.8-1.3,1.2-2.6,1.2c-0.7,0-1.2-0.1-1.7-0.3
			s-0.9-0.5-1.1-0.9c-0.3-0.4-0.4-0.8-0.4-1.3c0-0.8,0.3-1.4,0.9-1.9c0.6-0.5,1.5-0.7,2.8-0.7h2c0-0.5-0.2-1-0.5-1.3
			c-0.3-0.3-0.8-0.4-1.5-0.4c-0.5,0-0.9,0.1-1.4,0.2c-0.4,0.1-0.8,0.3-1.1,0.6l-0.9-1.7c0.5-0.3,1-0.6,1.7-0.8
			c0.7-0.2,1.3-0.3,2-0.3C98,51.3,99,51.6,99.7,52.2z M97.6,58.2c0.3-0.2,0.6-0.5,0.7-0.9v-0.9h-1.7c-1,0-1.5,0.3-1.5,1
			c0,0.3,0.1,0.6,0.4,0.8c0.3,0.2,0.6,0.3,1,0.3C96.9,58.5,97.3,58.4,97.6,58.2z"/>
		<path class="st0" d="M44.7,68.8h-4V68h8.9v0.7h-4v10.5h-0.8V68.8z"/>
		<path class="st0" d="M57.5,75.2h-7.2c0,0.7,0.2,1.2,0.5,1.7c0.3,0.5,0.7,0.9,1.3,1.2c0.5,0.3,1.1,0.4,1.8,0.4c0.5,0,1-0.1,1.5-0.3
			c0.5-0.2,0.9-0.5,1.2-0.9l0.5,0.5c-0.4,0.4-0.8,0.8-1.4,1c-0.5,0.2-1.1,0.4-1.8,0.4c-0.8,0-1.6-0.2-2.2-0.5
			c-0.7-0.4-1.2-0.9-1.5-1.5c-0.4-0.6-0.6-1.4-0.6-2.2c0-0.8,0.2-1.5,0.5-2.2s0.8-1.1,1.4-1.5c0.6-0.4,1.3-0.5,2-0.5
			c0.8,0,1.4,0.2,2,0.5s1.1,0.9,1.4,1.5s0.5,1.4,0.5,2.2L57.5,75.2z M51.9,71.9c-0.5,0.3-0.8,0.6-1.1,1.1c-0.3,0.5-0.4,1-0.5,1.6
			h6.4c0-0.6-0.2-1.1-0.5-1.6c-0.3-0.5-0.7-0.8-1.1-1.1c-0.5-0.3-1-0.4-1.6-0.4C52.9,71.5,52.4,71.6,51.9,71.9z"/>
		<path class="st0" d="M60.1,79c-0.6-0.2-1.1-0.5-1.4-0.8l0.4-0.6c0.3,0.3,0.8,0.5,1.3,0.7c0.5,0.2,1.1,0.3,1.7,0.3
			c0.8,0,1.5-0.1,1.9-0.4c0.4-0.3,0.6-0.7,0.6-1.2c0-0.4-0.1-0.6-0.3-0.8c-0.2-0.2-0.5-0.4-0.8-0.4c-0.3-0.1-0.8-0.2-1.3-0.3
			c-0.7-0.1-1.2-0.2-1.6-0.4s-0.8-0.4-1-0.7S59,73.6,59,73.1c0-0.7,0.3-1.2,0.8-1.6c0.5-0.4,1.3-0.6,2.3-0.6c0.5,0,1.1,0.1,1.6,0.2
			c0.5,0.1,1,0.3,1.3,0.6l-0.4,0.6c-0.3-0.2-0.7-0.4-1.2-0.6s-0.9-0.2-1.3-0.2c-0.8,0-1.4,0.1-1.8,0.4c-0.4,0.3-0.6,0.7-0.6,1.1
			c0,0.4,0.1,0.7,0.3,0.9c0.2,0.2,0.5,0.4,0.8,0.5c0.3,0.1,0.8,0.2,1.4,0.3c0.7,0.1,1.2,0.2,1.6,0.4c0.4,0.1,0.7,0.3,1,0.6
			c0.3,0.3,0.4,0.7,0.4,1.2c0,0.7-0.3,1.2-0.9,1.7s-1.4,0.6-2.4,0.6C61.4,79.3,60.8,79.2,60.1,79z"/>
		<path class="st0" d="M71.7,78.7c-0.2,0.2-0.5,0.3-0.8,0.4s-0.6,0.2-1,0.2c-0.7,0-1.3-0.2-1.7-0.6c-0.4-0.4-0.6-1-0.6-1.7v-5.5
			h-1.5v-0.7h1.5V69h0.8v1.8h2.7v0.7h-2.7v5.4c0,0.5,0.1,1,0.4,1.2c0.3,0.3,0.6,0.4,1.2,0.4c0.5,0,1-0.2,1.3-0.5L71.7,78.7z"/>
		<path class="st0" d="M80.5,71.7c0.6,0.6,0.9,1.5,0.9,2.6v4.9h-0.8v-4.8c0-0.9-0.2-1.7-0.7-2.1c-0.5-0.5-1.1-0.7-2-0.7
			c-1,0-1.8,0.3-2.3,0.9c-0.6,0.6-0.8,1.4-0.8,2.4v4.4H74v-8.4h0.8v1.8c0.3-0.6,0.7-1,1.3-1.4c0.6-0.3,1.2-0.5,2-0.5
			C79.1,70.8,79.9,71.1,80.5,71.7z"/>
		<path class="st0" d="M91.8,75.2h-7.2c0,0.7,0.2,1.2,0.5,1.7c0.3,0.5,0.7,0.9,1.3,1.2c0.5,0.3,1.1,0.4,1.8,0.4c0.5,0,1-0.1,1.5-0.3
			c0.5-0.2,0.9-0.5,1.2-0.9l0.5,0.5c-0.4,0.4-0.8,0.8-1.4,1c-0.5,0.2-1.1,0.4-1.8,0.4c-0.8,0-1.6-0.2-2.2-0.5
			c-0.7-0.4-1.2-0.9-1.5-1.5c-0.4-0.6-0.6-1.4-0.6-2.2c0-0.8,0.2-1.5,0.5-2.2s0.8-1.1,1.4-1.5c0.6-0.4,1.3-0.5,2-0.5
			c0.8,0,1.4,0.2,2,0.5s1.1,0.9,1.4,1.5s0.5,1.4,0.5,2.2L91.8,75.2z M86.3,71.9c-0.5,0.3-0.8,0.6-1.1,1.1c-0.3,0.5-0.4,1-0.5,1.6H91
			c0-0.6-0.2-1.1-0.5-1.6c-0.3-0.5-0.7-0.8-1.1-1.1c-0.5-0.3-1-0.4-1.6-0.4C87.3,71.5,86.7,71.6,86.3,71.9z"/>
		<path class="st0" d="M98.5,78.7c-0.2,0.2-0.5,0.3-0.8,0.4s-0.6,0.2-1,0.2c-0.7,0-1.3-0.2-1.7-0.6c-0.4-0.4-0.6-1-0.6-1.7v-5.5
			h-1.5v-0.7h1.5V69h0.8v1.8h2.7v0.7h-2.7v5.4c0,0.5,0.1,1,0.4,1.2c0.3,0.3,0.6,0.4,1.2,0.4c0.5,0,1-0.2,1.3-0.5L98.5,78.7z"/>
	</g>
</g>
<g>
	<g>
		<path class="st0" d="M321.1,55.2c0.4,0.5,0.5,1.1,0.5,1.8c0,1-0.4,1.7-1.1,2.3s-1.9,0.8-3.3,0.8h-5.8V48.8h5.5
			c1.4,0,2.4,0.3,3.1,0.8c0.7,0.5,1.1,1.2,1.1,2.1c0,0.5-0.1,1-0.4,1.5c-0.3,0.4-0.6,0.8-1.1,1C320.3,54.4,320.8,54.7,321.1,55.2z
			 M314,50.8v2.6h2.6c0.6,0,1.1-0.1,1.5-0.3c0.3-0.2,0.5-0.6,0.5-1c0-0.4-0.2-0.8-0.5-1c-0.3-0.2-0.8-0.3-1.5-0.3H314z M318.6,57.7
			c0.3-0.2,0.5-0.6,0.5-1c0-0.9-0.7-1.4-2.1-1.4h-3v2.8h3C317.7,58.1,318.2,58,318.6,57.7z"/>
		<path class="st0" d="M331.9,56.4h-6.5c0.1,0.5,0.4,1,0.8,1.3c0.4,0.3,1,0.5,1.6,0.5c0.4,0,0.8-0.1,1.2-0.2s0.7-0.3,1-0.6l1.3,1.4
			c-0.8,0.9-2,1.4-3.6,1.4c-1,0-1.8-0.2-2.6-0.6c-0.7-0.4-1.3-0.9-1.7-1.6s-0.6-1.4-0.6-2.3c0-0.8,0.2-1.6,0.6-2.3
			c0.4-0.7,0.9-1.2,1.6-1.6c0.7-0.4,1.5-0.6,2.3-0.6c0.8,0,1.6,0.2,2.3,0.5s1.2,0.9,1.6,1.6s0.6,1.5,0.6,2.4
			C331.9,55.8,331.9,56,331.9,56.4z M326,53.7c-0.4,0.3-0.6,0.8-0.7,1.3h4.2c-0.1-0.5-0.3-1-0.7-1.3c-0.4-0.3-0.9-0.5-1.4-0.5
			C326.9,53.2,326.4,53.3,326,53.7z"/>
		<path class="st0" d="M337.2,51.6c0.5-0.2,1.1-0.3,1.8-0.3v2.3c-0.3,0-0.5,0-0.6,0c-0.7,0-1.3,0.2-1.7,0.6c-0.4,0.4-0.6,1-0.6,1.8
			V60h-2.5v-8.6h2.4v1.1C336.3,52.1,336.7,51.8,337.2,51.6z"/>
		<path class="st0" d="M340.4,48.2h2.5V60h-2.5V48.2z"/>
		<path class="st0" d="M345.3,49.8c-0.3-0.3-0.4-0.6-0.4-1c0-0.4,0.1-0.7,0.4-1s0.7-0.4,1.1-0.4c0.5,0,0.8,0.1,1.1,0.4
			c0.3,0.3,0.4,0.6,0.4,1c0,0.4-0.1,0.8-0.4,1c-0.3,0.3-0.7,0.4-1.1,0.4C346,50.2,345.6,50.1,345.3,49.8z M345.2,51.4h2.5V60h-2.5
			V51.4z"/>
		<path class="st0" d="M357.8,52.3c0.7,0.6,1,1.6,1,2.8V60h-2.5v-4.5c0-0.7-0.1-1.2-0.4-1.5c-0.3-0.3-0.7-0.5-1.3-0.5
			c-0.6,0-1.1,0.2-1.5,0.6c-0.4,0.4-0.6,1-0.6,1.7V60H350v-8.6h2.4v1c0.3-0.4,0.7-0.6,1.2-0.8c0.5-0.2,1-0.3,1.6-0.3
			C356.3,51.3,357.2,51.6,357.8,52.3z"/>
		<path class="st0" d="M314.2,68.8h-4V68h8.9v0.7h-4v10.5h-0.8V68.8z"/>
		<path class="st0" d="M327,75.2h-7.2c0,0.7,0.2,1.2,0.5,1.7c0.3,0.5,0.7,0.9,1.3,1.2c0.5,0.3,1.1,0.4,1.8,0.4c0.5,0,1-0.1,1.5-0.3
			c0.5-0.2,0.9-0.5,1.2-0.9l0.5,0.5c-0.4,0.4-0.8,0.8-1.4,1c-0.5,0.2-1.1,0.4-1.8,0.4c-0.8,0-1.6-0.2-2.2-0.5
			c-0.7-0.4-1.2-0.9-1.5-1.5c-0.4-0.6-0.6-1.4-0.6-2.2c0-0.8,0.2-1.5,0.5-2.2s0.8-1.1,1.4-1.5c0.6-0.4,1.3-0.5,2-0.5
			c0.8,0,1.4,0.2,2,0.5s1.1,0.9,1.4,1.5s0.5,1.4,0.5,2.2L327,75.2z M321.4,71.9c-0.5,0.3-0.8,0.6-1.1,1.1c-0.3,0.5-0.4,1-0.5,1.6
			h6.4c0-0.6-0.2-1.1-0.5-1.6c-0.3-0.5-0.7-0.8-1.1-1.1c-0.5-0.3-1-0.4-1.6-0.4C322.4,71.5,321.9,71.6,321.4,71.9z"/>
		<path class="st0" d="M329.6,79c-0.6-0.2-1.1-0.5-1.4-0.8l0.4-0.6c0.3,0.3,0.8,0.5,1.3,0.7c0.5,0.2,1.1,0.3,1.7,0.3
			c0.8,0,1.5-0.1,1.9-0.4c0.4-0.3,0.6-0.7,0.6-1.2c0-0.4-0.1-0.6-0.3-0.8c-0.2-0.2-0.5-0.4-0.8-0.4c-0.3-0.1-0.8-0.2-1.3-0.3
			c-0.7-0.1-1.2-0.2-1.6-0.4s-0.8-0.4-1-0.7s-0.4-0.7-0.4-1.3c0-0.7,0.3-1.2,0.8-1.6c0.5-0.4,1.3-0.6,2.3-0.6c0.5,0,1.1,0.1,1.6,0.2
			c0.5,0.1,1,0.3,1.3,0.6l-0.4,0.6c-0.3-0.2-0.7-0.4-1.2-0.6s-0.9-0.2-1.3-0.2c-0.8,0-1.4,0.1-1.8,0.4c-0.4,0.3-0.6,0.7-0.6,1.1
			c0,0.4,0.1,0.7,0.3,0.9c0.2,0.2,0.5,0.4,0.8,0.5c0.3,0.1,0.8,0.2,1.4,0.3c0.7,0.1,1.2,0.2,1.6,0.4c0.4,0.1,0.7,0.3,1,0.6
			c0.3,0.3,0.4,0.7,0.4,1.2c0,0.7-0.3,1.2-0.9,1.7s-1.4,0.6-2.4,0.6C330.9,79.3,330.3,79.2,329.6,79z"/>
		<path class="st0" d="M341.2,78.7c-0.2,0.2-0.5,0.3-0.8,0.4s-0.6,0.2-1,0.2c-0.7,0-1.3-0.2-1.7-0.6c-0.4-0.4-0.6-1-0.6-1.7v-5.5
			h-1.5v-0.7h1.5V69h0.8v1.8h2.7v0.7h-2.7v5.4c0,0.5,0.1,1,0.4,1.2c0.3,0.3,0.6,0.4,1.2,0.4c0.5,0,1-0.2,1.3-0.5L341.2,78.7z"/>
		<path class="st0" d="M350,71.7c0.6,0.6,0.9,1.5,0.9,2.6v4.9h-0.8v-4.8c0-0.9-0.2-1.7-0.7-2.1c-0.5-0.5-1.1-0.7-2-0.7
			c-1,0-1.8,0.3-2.3,0.9c-0.6,0.6-0.8,1.4-0.8,2.4v4.4h-0.8v-8.4h0.8v1.8c0.3-0.6,0.7-1,1.3-1.4c0.6-0.3,1.2-0.5,2-0.5
			C348.6,70.8,349.4,71.1,350,71.7z"/>
		<path class="st0" d="M361.3,75.2h-7.2c0,0.7,0.2,1.2,0.5,1.7c0.3,0.5,0.7,0.9,1.3,1.2c0.5,0.3,1.1,0.4,1.8,0.4
			c0.5,0,1-0.1,1.5-0.3c0.5-0.2,0.9-0.5,1.2-0.9l0.5,0.5c-0.4,0.4-0.8,0.8-1.4,1c-0.5,0.2-1.1,0.4-1.8,0.4c-0.8,0-1.6-0.2-2.2-0.5
			c-0.7-0.4-1.2-0.9-1.5-1.5c-0.4-0.6-0.6-1.4-0.6-2.2c0-0.8,0.2-1.5,0.5-2.2s0.8-1.1,1.4-1.5c0.6-0.4,1.3-0.5,2-0.5
			c0.8,0,1.4,0.2,2,0.5s1.1,0.9,1.4,1.5s0.5,1.4,0.5,2.2L361.3,75.2z M355.8,71.9c-0.5,0.3-0.8,0.6-1.1,1.1c-0.3,0.5-0.4,1-0.5,1.6
			h6.4c0-0.6-0.2-1.1-0.5-1.6c-0.3-0.5-0.7-0.8-1.1-1.1c-0.5-0.3-1-0.4-1.6-0.4C356.8,71.5,356.2,71.6,355.8,71.9z"/>
		<path class="st0" d="M368,78.7c-0.2,0.2-0.5,0.3-0.8,0.4s-0.6,0.2-1,0.2c-0.7,0-1.3-0.2-1.7-0.6c-0.4-0.4-0.6-1-0.6-1.7v-5.5h-1.5
			v-0.7h1.5V69h0.8v1.8h2.7v0.7h-2.7v5.4c0,0.5,0.1,1,0.4,1.2c0.3,0.3,0.6,0.4,1.2,0.4c0.5,0,1-0.2,1.3-0.5L368,78.7z"/>
	</g>
</g>
<g>
	<g>
		<path class="st0" d="M192.1,55.2c0.4,0.5,0.5,1.1,0.5,1.8c0,1-0.4,1.7-1.1,2.3s-1.9,0.8-3.3,0.8h-5.8V48.8h5.5
			c1.4,0,2.4,0.3,3.1,0.8c0.7,0.5,1.1,1.2,1.1,2.1c0,0.5-0.1,1-0.4,1.5c-0.3,0.4-0.6,0.8-1.1,1C191.3,54.4,191.8,54.7,192.1,55.2z
			 M185,50.8v2.6h2.6c0.6,0,1.1-0.1,1.5-0.3c0.3-0.2,0.5-0.6,0.5-1c0-0.4-0.2-0.8-0.5-1c-0.3-0.2-0.8-0.3-1.5-0.3H185z M189.5,57.7
			c0.3-0.2,0.5-0.6,0.5-1c0-0.9-0.7-1.4-2.1-1.4h-3v2.8h3C188.7,58.1,189.2,58,189.5,57.7z"/>
		<path class="st0" d="M195.7,59.9c-0.8-0.2-1.5-0.6-2-0.9l0.9-2c0.5,0.4,1.1,0.6,1.7,0.8s1.3,0.3,2,0.3c0.7,0,1.3-0.1,1.6-0.3
			c0.4-0.2,0.5-0.5,0.5-0.9c0-0.3-0.1-0.5-0.3-0.7c-0.2-0.2-0.5-0.3-0.8-0.4c-0.3-0.1-0.8-0.2-1.3-0.4c-0.9-0.2-1.6-0.4-2.1-0.6
			c-0.5-0.2-1-0.5-1.4-1c-0.4-0.4-0.6-1-0.6-1.8c0-0.7,0.2-1.2,0.5-1.8c0.4-0.5,0.9-0.9,1.6-1.3c0.7-0.3,1.6-0.5,2.6-0.5
			c0.7,0,1.4,0.1,2.1,0.3c0.7,0.2,1.3,0.4,1.8,0.7l-0.8,2c-1-0.6-2.1-0.9-3.1-0.9c-0.7,0-1.3,0.1-1.6,0.4c-0.3,0.2-0.5,0.5-0.5,0.9
			c0,0.4,0.2,0.7,0.6,0.9c0.4,0.2,1,0.4,1.8,0.6c0.9,0.2,1.6,0.4,2.1,0.6c0.5,0.2,1,0.5,1.4,1c0.4,0.4,0.6,1,0.6,1.8
			c0,0.6-0.2,1.2-0.5,1.8c-0.4,0.5-0.9,0.9-1.6,1.3c-0.7,0.3-1.6,0.5-2.6,0.5C197.4,60.2,196.6,60.1,195.7,59.9z"/>
		<path class="st0" d="M207.1,59.5c-0.9-0.5-1.6-1.2-2.2-2.1c-0.5-0.9-0.8-1.9-0.8-3s0.3-2.1,0.8-3s1.3-1.6,2.2-2.1s2-0.7,3.1-0.7
			c1,0,1.8,0.2,2.6,0.5s1.4,0.8,2,1.5l-1.7,1.5c-0.8-0.9-1.7-1.3-2.8-1.3c-0.7,0-1.3,0.2-1.9,0.5s-1,0.7-1.3,1.3s-0.5,1.2-0.5,1.9
			s0.2,1.3,0.5,1.9s0.7,1,1.3,1.3c0.5,0.3,1.2,0.5,1.9,0.5c1.1,0,2.1-0.4,2.8-1.3l1.7,1.5c-0.5,0.7-1.2,1.1-2,1.5
			c-0.8,0.3-1.7,0.5-2.6,0.5C209.1,60.2,208,60,207.1,59.5z"/>
		<path class="st0" d="M185.2,68.8h-4V68h8.9v0.7h-4v10.5h-0.8V68.8z"/>
		<path class="st0" d="M197.9,75.2h-7.2c0,0.7,0.2,1.2,0.5,1.7c0.3,0.5,0.7,0.9,1.3,1.2c0.5,0.3,1.1,0.4,1.8,0.4
			c0.5,0,1-0.1,1.5-0.3c0.5-0.2,0.9-0.5,1.2-0.9l0.5,0.5c-0.4,0.4-0.8,0.8-1.4,1c-0.5,0.2-1.1,0.4-1.8,0.4c-0.8,0-1.6-0.2-2.2-0.5
			c-0.7-0.4-1.2-0.9-1.5-1.5c-0.4-0.6-0.6-1.4-0.6-2.2c0-0.8,0.2-1.5,0.5-2.2s0.8-1.1,1.4-1.5c0.6-0.4,1.3-0.5,2-0.5
			c0.8,0,1.4,0.2,2,0.5s1.1,0.9,1.4,1.5s0.5,1.4,0.5,2.2L197.9,75.2z M192.4,71.9c-0.5,0.3-0.8,0.6-1.1,1.1c-0.3,0.5-0.4,1-0.5,1.6
			h6.4c0-0.6-0.2-1.1-0.5-1.6c-0.3-0.5-0.7-0.8-1.1-1.1c-0.5-0.3-1-0.4-1.6-0.4C193.4,71.5,192.9,71.6,192.4,71.9z"/>
		<path class="st0" d="M200.6,79c-0.6-0.2-1.1-0.5-1.4-0.8l0.4-0.6c0.3,0.3,0.8,0.5,1.3,0.7c0.5,0.2,1.1,0.3,1.7,0.3
			c0.8,0,1.5-0.1,1.9-0.4c0.4-0.3,0.6-0.7,0.6-1.2c0-0.4-0.1-0.6-0.3-0.8c-0.2-0.2-0.5-0.4-0.8-0.4c-0.3-0.1-0.8-0.2-1.3-0.3
			c-0.7-0.1-1.2-0.2-1.6-0.4s-0.8-0.4-1-0.7s-0.4-0.7-0.4-1.3c0-0.7,0.3-1.2,0.8-1.6c0.5-0.4,1.3-0.6,2.3-0.6c0.5,0,1.1,0.1,1.6,0.2
			c0.5,0.1,1,0.3,1.3,0.6l-0.4,0.6c-0.3-0.2-0.7-0.4-1.2-0.6s-0.9-0.2-1.3-0.2c-0.8,0-1.4,0.1-1.8,0.4c-0.4,0.3-0.6,0.7-0.6,1.1
			c0,0.4,0.1,0.7,0.3,0.9c0.2,0.2,0.5,0.4,0.8,0.5c0.3,0.1,0.8,0.2,1.4,0.3c0.7,0.1,1.2,0.2,1.6,0.4c0.4,0.1,0.7,0.3,1,0.6
			c0.3,0.3,0.4,0.7,0.4,1.2c0,0.7-0.3,1.2-0.9,1.7s-1.4,0.6-2.4,0.6C201.9,79.3,201.2,79.2,200.6,79z"/>
		<path class="st0" d="M212.2,78.7c-0.2,0.2-0.5,0.3-0.8,0.4s-0.6,0.2-1,0.2c-0.7,0-1.3-0.2-1.7-0.6c-0.4-0.4-0.6-1-0.6-1.7v-5.5
			h-1.5v-0.7h1.5V69h0.8v1.8h2.7v0.7H209v5.4c0,0.5,0.1,1,0.4,1.2c0.3,0.3,0.6,0.4,1.2,0.4c0.5,0,1-0.2,1.3-0.5L212.2,78.7z"/>
		<path class="st0" d="M221,71.7c0.6,0.6,0.9,1.5,0.9,2.6v4.9h-0.8v-4.8c0-0.9-0.2-1.7-0.7-2.1c-0.5-0.5-1.1-0.7-2-0.7
			c-1,0-1.8,0.3-2.3,0.9c-0.6,0.6-0.8,1.4-0.8,2.4v4.4h-0.8v-8.4h0.8v1.8c0.3-0.6,0.7-1,1.3-1.4c0.6-0.3,1.2-0.5,2-0.5
			C219.6,70.8,220.4,71.1,221,71.7z"/>
		<path class="st0" d="M232.3,75.2h-7.2c0,0.7,0.2,1.2,0.5,1.7c0.3,0.5,0.7,0.9,1.3,1.2c0.5,0.3,1.1,0.4,1.8,0.4
			c0.5,0,1-0.1,1.5-0.3c0.5-0.2,0.9-0.5,1.2-0.9l0.5,0.5c-0.4,0.4-0.8,0.8-1.4,1c-0.5,0.2-1.1,0.4-1.8,0.4c-0.8,0-1.6-0.2-2.2-0.5
			c-0.7-0.4-1.2-0.9-1.5-1.5c-0.4-0.6-0.6-1.4-0.6-2.2c0-0.8,0.2-1.5,0.5-2.2s0.8-1.1,1.4-1.5c0.6-0.4,1.3-0.5,2-0.5
			c0.8,0,1.4,0.2,2,0.5s1.1,0.9,1.4,1.5s0.5,1.4,0.5,2.2L232.3,75.2z M226.7,71.9c-0.5,0.3-0.8,0.6-1.1,1.1c-0.3,0.5-0.4,1-0.5,1.6
			h6.4c0-0.6-0.2-1.1-0.5-1.6c-0.3-0.5-0.7-0.8-1.1-1.1c-0.5-0.3-1-0.4-1.6-0.4C227.7,71.5,227.2,71.6,226.7,71.9z"/>
		<path class="st0" d="M238.9,78.7c-0.2,0.2-0.5,0.3-0.8,0.4s-0.6,0.2-1,0.2c-0.7,0-1.3-0.2-1.7-0.6c-0.4-0.4-0.6-1-0.6-1.7v-5.5
			h-1.5v-0.7h1.5V69h0.8v1.8h2.7v0.7h-2.7v5.4c0,0.5,0.1,1,0.4,1.2c0.3,0.3,0.6,0.4,1.2,0.4c0.5,0,1-0.2,1.3-0.5L238.9,78.7z"/>
	</g>
</g>
</svg>
