<?xml version="1.0" encoding="utf-8"?>
<!-- Generator: Adobe Illustrator 23.0.1, SVG Export Plug-In . SVG Version: 6.00 Build 0)  -->
<svg version="1.1" id="Capa_1" xmlns="http://www.w3.org/2000/svg" xmlns:xlink="http://www.w3.org/1999/xlink" x="0px" y="0px"
	 viewBox="0 0 378 22" style="enable-background:new 0 0 378 22;" xml:space="preserve">
<style type="text/css">
	.st0{fill:#5CFFE4;}
</style>
<g>
	<path class="st0" d="M9,15c-0.6-0.2-1.1-0.5-1.5-0.8l0.5-1c0.3,0.3,0.8,0.5,1.3,0.7c0.5,0.2,1.1,0.3,1.6,0.3c0.7,0,1.3-0.1,1.6-0.4
		c0.4-0.2,0.5-0.6,0.5-1c0-0.3-0.1-0.5-0.3-0.7c-0.2-0.2-0.4-0.3-0.7-0.4c-0.3-0.1-0.7-0.2-1.2-0.3c-0.7-0.2-1.2-0.3-1.6-0.5
		c-0.4-0.2-0.8-0.4-1-0.7C7.9,9.9,7.8,9.4,7.8,8.9c0-0.5,0.1-0.9,0.4-1.3c0.2-0.4,0.6-0.7,1.1-0.9c0.5-0.2,1.1-0.3,1.9-0.3
		c0.5,0,1,0.1,1.5,0.2c0.5,0.1,0.9,0.3,1.3,0.6l-0.4,1c-0.4-0.2-0.8-0.4-1.2-0.5c-0.4-0.1-0.8-0.2-1.2-0.2c-0.7,0-1.2,0.1-1.6,0.4
		C9.2,8.1,9,8.4,9,8.8c0,0.3,0.1,0.5,0.3,0.7C9.5,9.7,9.7,9.9,10,10c0.3,0.1,0.7,0.2,1.2,0.3c0.7,0.2,1.2,0.3,1.6,0.5
		c0.4,0.2,0.7,0.4,1,0.7c0.3,0.3,0.4,0.8,0.4,1.3c0,0.5-0.1,0.9-0.4,1.3c-0.3,0.4-0.6,0.7-1.1,0.9c-0.5,0.2-1.1,0.3-1.9,0.3
		C10.2,15.3,9.6,15.2,9,15z"/>
	<path class="st0" d="M21.8,14.3c-0.7-0.7-1-1.6-1-2.9v-5h1.3v5c0,1.9,0.8,2.8,2.5,2.8c0.8,0,1.4-0.2,1.8-0.7
		c0.4-0.5,0.6-1.2,0.6-2.1v-5h1.2v5c0,1.3-0.3,2.2-1,2.9c-0.7,0.7-1.6,1-2.7,1C23.4,15.3,22.5,15,21.8,14.3z"/>
	<path class="st0" d="M41.7,7.3c0.7,0.5,1,1.3,1,2.2c0,1-0.3,1.7-1,2.2c-0.7,0.5-1.5,0.8-2.7,0.8h-2.2v2.7h-1.3V6.5h3.4
		C40.2,6.5,41.1,6.7,41.7,7.3z M40.8,11c0.4-0.3,0.6-0.8,0.6-1.5c0-0.6-0.2-1.1-0.6-1.5c-0.4-0.3-1-0.5-1.8-0.5h-2.1v3.9H39
		C39.8,11.5,40.4,11.3,40.8,11z"/>
	<path class="st0" d="M55.5,7.3c0.7,0.5,1,1.3,1,2.2c0,1-0.3,1.7-1,2.2c-0.7,0.5-1.5,0.8-2.7,0.8h-2.2v2.7h-1.3V6.5h3.4
		C53.9,6.5,54.8,6.7,55.5,7.3z M54.6,11c0.4-0.3,0.6-0.8,0.6-1.5c0-0.6-0.2-1.1-0.6-1.5c-0.4-0.3-1-0.5-1.8-0.5h-2.1v3.9h2.1
		C53.5,11.5,54.1,11.3,54.6,11z"/>
	<path class="st0" d="M64.8,14.8c-0.7-0.4-1.3-0.9-1.7-1.6c-0.4-0.7-0.6-1.5-0.6-2.3c0-0.8,0.2-1.6,0.6-2.3c0.4-0.7,1-1.2,1.7-1.6
		c0.7-0.4,1.5-0.6,2.4-0.6c0.9,0,1.7,0.2,2.4,0.6c0.7,0.4,1.3,0.9,1.7,1.6c0.4,0.7,0.6,1.5,0.6,2.3c0,0.9-0.2,1.6-0.6,2.3
		c-0.4,0.7-1,1.2-1.7,1.6c-0.7,0.4-1.5,0.6-2.4,0.6C66.3,15.3,65.5,15.2,64.8,14.8z M68.9,13.8c0.5-0.3,0.9-0.7,1.2-1.2
		c0.3-0.5,0.4-1.1,0.4-1.7c0-0.6-0.1-1.2-0.4-1.7c-0.3-0.5-0.7-0.9-1.2-1.2c-0.5-0.3-1.1-0.4-1.7-0.4c-0.6,0-1.2,0.1-1.8,0.4
		c-0.5,0.3-0.9,0.7-1.2,1.2c-0.3,0.5-0.4,1.1-0.4,1.7c0,0.6,0.1,1.2,0.4,1.7c0.3,0.5,0.7,0.9,1.2,1.2c0.5,0.3,1.1,0.4,1.8,0.4
		C67.8,14.2,68.4,14.1,68.9,13.8z"/>
	<path class="st0" d="M84.4,15.2l-1.9-2.7c-0.2,0-0.4,0-0.6,0h-2.2v2.7h-1.3V6.5H82c1.1,0,2,0.3,2.7,0.8c0.7,0.5,1,1.3,1,2.2
		c0,0.7-0.2,1.3-0.5,1.7c-0.3,0.5-0.8,0.8-1.4,1l2.1,3H84.4z M83.7,11c0.4-0.3,0.6-0.8,0.6-1.5c0-0.6-0.2-1.1-0.6-1.5
		c-0.4-0.3-1-0.5-1.8-0.5h-2.1v4h2.1C82.7,11.5,83.3,11.3,83.7,11z"/>
	<path class="st0" d="M94.1,7.5h-3V6.5h7.3v1.1h-3v7.7h-1.2V7.5z"/>
	<path class="st0" d="M110.8,14.2v1.1h-6.4V6.5h6.2v1.1h-5v2.7h4.4v1.1h-4.4v2.8H110.8z"/>
	<path class="st0" d="M117.6,6.5h3.7c0.9,0,1.8,0.2,2.5,0.6c0.7,0.4,1.3,0.9,1.7,1.6c0.4,0.7,0.6,1.4,0.6,2.3c0,0.9-0.2,1.6-0.6,2.3
		c-0.4,0.7-1,1.2-1.7,1.6c-0.7,0.4-1.5,0.6-2.5,0.6h-3.7V6.5z M121.3,14.2c0.7,0,1.3-0.1,1.9-0.4c0.5-0.3,1-0.7,1.3-1.2
		c0.3-0.5,0.4-1.1,0.4-1.7s-0.1-1.2-0.4-1.7c-0.3-0.5-0.7-0.9-1.3-1.2c-0.5-0.3-1.2-0.4-1.9-0.4h-2.4v6.6H121.3z"/>
	<path class="st0" d="M148.1,11.5c0.3,0.4,0.4,0.8,0.4,1.4c0,0.8-0.3,1.3-0.9,1.8c-0.6,0.4-1.4,0.6-2.5,0.6H141V6.5h3.9
		c1,0,1.8,0.2,2.3,0.6c0.5,0.4,0.8,1,0.8,1.7c0,0.5-0.1,0.9-0.3,1.2c-0.2,0.3-0.5,0.6-0.9,0.8C147.4,10.8,147.8,11.1,148.1,11.5z
		 M142.2,7.5v2.8h2.6c0.6,0,1.1-0.1,1.5-0.4c0.3-0.2,0.5-0.6,0.5-1s-0.2-0.8-0.5-1c-0.3-0.2-0.8-0.4-1.5-0.4H142.2z M146.7,13.9
		c0.4-0.2,0.5-0.6,0.5-1.1c0-1-0.7-1.5-2.1-1.5h-2.9v2.9h2.9C145.8,14.2,146.3,14.1,146.7,13.9z"/>
	<path class="st0" d="M158.4,12.2v3h-1.2v-3.1l-3.5-5.7h1.3l2.8,4.6l2.8-4.6h1.2L158.4,12.2z"/>
	<path class="st0" d="M176.1,6.5h1.3v8.8h-1.3V6.5z"/>
	<path class="st0" d="M186.3,14.8c-0.7-0.4-1.3-0.9-1.7-1.6c-0.4-0.7-0.6-1.5-0.6-2.3c0-0.9,0.2-1.6,0.6-2.3c0.4-0.7,1-1.2,1.7-1.6
		c0.7-0.4,1.5-0.6,2.4-0.6c0.7,0,1.3,0.1,1.9,0.3c0.6,0.2,1.1,0.6,1.5,1l-0.8,0.8c-0.7-0.7-1.5-1-2.5-1c-0.7,0-1.2,0.1-1.8,0.4
		c-0.5,0.3-0.9,0.7-1.2,1.2c-0.3,0.5-0.4,1.1-0.4,1.7c0,0.6,0.1,1.2,0.4,1.7c0.3,0.5,0.7,0.9,1.2,1.2c0.5,0.3,1.1,0.4,1.8,0.4
		c1,0,1.8-0.4,2.5-1.1l0.8,0.8c-0.4,0.5-0.9,0.8-1.5,1c-0.6,0.2-1.2,0.4-1.9,0.4C187.8,15.3,187,15.2,186.3,14.8z"/>
	<path class="st0" d="M221.3,6.5v8.8h-1L215,8.7v6.6h-1.3V6.5h1l5.3,6.6V6.5H221.3z"/>
	<path class="st0" d="M238.2,7.5v3.1h4.4v1.1h-4.4v3.6h-1.3V6.5h6.2v1.1H238.2z"/>
	<path class="st0" d="M251.1,14.8c-0.7-0.4-1.3-0.9-1.7-1.6c-0.4-0.7-0.6-1.5-0.6-2.3c0-0.8,0.2-1.6,0.6-2.3c0.4-0.7,1-1.2,1.7-1.6
		c0.7-0.4,1.5-0.6,2.4-0.6c0.9,0,1.7,0.2,2.4,0.6c0.7,0.4,1.3,0.9,1.7,1.6c0.4,0.7,0.6,1.5,0.6,2.3c0,0.9-0.2,1.6-0.6,2.3
		c-0.4,0.7-1,1.2-1.7,1.6c-0.7,0.4-1.5,0.6-2.4,0.6C252.6,15.3,251.8,15.2,251.1,14.8z M255.3,13.8c0.5-0.3,0.9-0.7,1.2-1.2
		c0.3-0.5,0.4-1.1,0.4-1.7c0-0.6-0.1-1.2-0.4-1.7c-0.3-0.5-0.7-0.9-1.2-1.2c-0.5-0.3-1.1-0.4-1.7-0.4c-0.6,0-1.2,0.1-1.8,0.4
		c-0.5,0.3-0.9,0.7-1.2,1.2c-0.3,0.5-0.4,1.1-0.4,1.7c0,0.6,0.1,1.2,0.4,1.7c0.3,0.5,0.7,0.9,1.2,1.2c0.5,0.3,1.1,0.4,1.8,0.4
		C254.2,14.2,254.8,14.1,255.3,13.8z"/>
	<path class="st0" d="M265.8,14.3c-0.7-0.7-1-1.6-1-2.9v-5h1.3v5c0,1.9,0.8,2.8,2.5,2.8c0.8,0,1.4-0.2,1.8-0.7
		c0.4-0.5,0.6-1.2,0.6-2.1v-5h1.2v5c0,1.3-0.3,2.2-1,2.9c-0.7,0.7-1.6,1-2.7,1C267.4,15.3,266.4,15,265.8,14.3z"/>
	<path class="st0" d="M287.2,6.5v8.8h-1l-5.3-6.6v6.6h-1.3V6.5h1l5.3,6.6V6.5H287.2z"/>
	<path class="st0" d="M294.6,6.5h3.7c0.9,0,1.8,0.2,2.5,0.6c0.7,0.4,1.3,0.9,1.7,1.6c0.4,0.7,0.6,1.4,0.6,2.3c0,0.9-0.2,1.6-0.6,2.3
		c-0.4,0.7-1,1.2-1.7,1.6c-0.7,0.4-1.5,0.6-2.5,0.6h-3.7V6.5z M298.2,14.2c0.7,0,1.3-0.1,1.9-0.4c0.5-0.3,1-0.7,1.2-1.2
		c0.3-0.5,0.4-1.1,0.4-1.7s-0.1-1.2-0.4-1.7c-0.3-0.5-0.7-0.9-1.2-1.2s-1.2-0.4-1.9-0.4h-2.4v6.6H298.2z"/>
	<path class="st0" d="M315.2,13h-4.7l-1,2.2h-1.3l4-8.8h1.2l4,8.8h-1.3L315.2,13z M314.8,12l-1.9-4.3L311,12H314.8z"/>
	<path class="st0" d="M324.9,7.5h-3V6.5h7.3v1.1h-3v7.7h-1.2V7.5z"/>
	<path class="st0" d="M335.3,6.5h1.3v8.8h-1.3V6.5z"/>
	<path class="st0" d="M345.5,14.8c-0.7-0.4-1.3-0.9-1.7-1.6c-0.4-0.7-0.6-1.5-0.6-2.3c0-0.8,0.2-1.6,0.6-2.3c0.4-0.7,1-1.2,1.7-1.6
		c0.7-0.4,1.5-0.6,2.4-0.6c0.9,0,1.7,0.2,2.4,0.6c0.7,0.4,1.3,0.9,1.7,1.6c0.4,0.7,0.6,1.5,0.6,2.3c0,0.9-0.2,1.6-0.6,2.3
		c-0.4,0.7-1,1.2-1.7,1.6c-0.7,0.4-1.5,0.6-2.4,0.6C347,15.3,346.2,15.2,345.5,14.8z M349.7,13.8c0.5-0.3,0.9-0.7,1.2-1.2
		c0.3-0.5,0.4-1.1,0.4-1.7c0-0.6-0.1-1.2-0.4-1.7c-0.3-0.5-0.7-0.9-1.2-1.2c-0.5-0.3-1.1-0.4-1.7-0.4c-0.6,0-1.2,0.1-1.8,0.4
		c-0.5,0.3-0.9,0.7-1.2,1.2c-0.3,0.5-0.4,1.1-0.4,1.7c0,0.6,0.1,1.2,0.4,1.7c0.3,0.5,0.7,0.9,1.2,1.2c0.5,0.3,1.1,0.4,1.8,0.4
		C348.6,14.2,349.1,14.1,349.7,13.8z"/>
	<path class="st0" d="M366.8,6.5v8.8h-1l-5.3-6.6v6.6h-1.3V6.5h1l5.3,6.6V6.5H366.8z"/>
	<g>
		<path class="st0" d="M207,5.1c0.6,0,1.1,0.5,1.1,1.2c0,0.6-0.5,1.1-1.2,1.1c-0.6,0-1.1-0.5-1.1-1.1C205.9,5.6,206.4,5.1,207,5.1z"
			/>
		<path class="st0" d="M206.1,8l-0.9,0.9c0.4,0.5,0.6,1.2,0.6,1.9c0,1.9-1.5,3.4-3.4,3.4c-0.7,0-1.4-0.2-1.9-0.6l-0.9,0.9
			c0.8,0.6,1.7,0.9,2.8,0.9c2.5,0,4.6-2.1,4.6-4.6C207,9.8,206.7,8.8,206.1,8z"/>
		<path class="st0" d="M199.1,10.8c0-1.9,1.5-3.4,3.4-3.4c0.7,0,1.3,0.2,1.8,0.5l0.9-0.9c-0.8-0.6-1.7-0.9-2.7-0.9
			c-2.5,0-4.6,2.1-4.6,4.6c0,1,0.3,2,0.9,2.7l0.9-0.9C199.3,12.1,199.1,11.5,199.1,10.8z"/>
		<path class="st0" d="M197.9,14.2c0.6,0,1.1,0.5,1.1,1.1c0,0.6-0.5,1.1-1.1,1.1c-0.6,0-1.1-0.5-1.1-1.2
			C196.7,14.7,197.3,14.2,197.9,14.2z"/>
	</g>
</g>
</svg>
