<svg width="126" height="40" viewBox="0 0 126 40" fill="none" xmlns="http://www.w3.org/2000/svg">
<path fill-rule="evenodd" clip-rule="evenodd" d="M126 29.8792C126 30.4909 125.492 30.9972 124.878 30.9972H122.656C122.042 30.9972 121.534 30.4909 121.534 29.8792V19.9015C121.534 16.231 118.55 13.2567 114.867 13.2567C111.184 13.2567 108.2 16.231 108.2 19.9015V29.8792C108.2 30.4909 107.692 30.9972 107.078 30.9972H104.856C104.242 30.9972 103.734 30.4909 103.734 29.8792V19.9015C103.734 13.7841 108.708 8.82683 114.846 8.82683C120.984 8.82683 125.958 13.7841 125.958 19.9015V29.8792H126Z" fill="#5A6B80"/>
<path fill-rule="evenodd" clip-rule="evenodd" d="M67.2874 13.2567C63.6047 13.2567 60.6204 16.2311 60.6204 19.9015C60.6204 23.572 63.6047 26.5463 67.2874 26.5463H72.8539C73.4677 26.5463 73.9757 27.0526 73.9757 27.6643V29.8793C73.9757 30.491 73.4677 30.9973 72.8539 30.9973H67.2874C61.1495 30.9973 56.1756 26.04 56.1756 19.9226C56.1756 13.8052 61.1495 8.84798 67.2874 8.84798H72.8539C73.4677 8.84798 73.9757 9.35425 73.9757 9.96599V12.1809C73.9757 12.7927 73.4677 13.2989 72.8539 13.2989H67.2874V13.2567Z" fill="#5A6B80"/>
<path fill-rule="evenodd" clip-rule="evenodd" d="M51.7308 9.94484C51.7308 9.3331 51.2228 8.82683 50.6091 8.82683H48.3867C47.7729 8.82683 47.2649 9.3331 47.2649 9.94484V29.8792C47.2649 30.4909 47.7729 30.9972 48.3867 30.9972H50.6091C51.2228 30.9972 51.7308 30.4909 51.7308 29.8792V9.94484Z" fill="#5A6B80"/>
<path d="M88.1987 8.72137C81.9761 8.72137 76.9176 13.763 76.9176 19.9648C76.9176 26.1666 81.9761 31.2082 88.1987 31.2082C94.4213 31.2082 99.4798 26.1666 99.4798 19.9648C99.4798 13.763 94.4213 8.72137 88.1987 8.72137ZM88.9183 26.9893C84.4313 27.4323 80.685 23.6985 81.1295 19.2265C81.4682 15.9146 84.135 13.2356 87.4579 12.9192C91.945 12.4762 95.6912 16.2099 95.2468 20.682C94.9293 23.9938 92.2413 26.6518 88.9183 26.9893Z" fill="#5A6B80"/>
<g clip-path="url(#clip0_315_67)">
<path d="M3.19439 39.0167C4.94906 39.0167 6.38879 37.5547 6.38879 35.7729C6.38879 33.9911 4.94906 32.5291 3.19439 32.5291C1.43973 32.5291 0 33.9911 0 35.7729C0 37.5547 1.43973 39.0167 3.19439 39.0167Z" fill="url(#paint0_linear_315_67)"/>
<path d="M35.3633 6.48755C37.118 6.48755 38.5577 5.02557 38.5577 3.24378C38.5577 1.46198 37.118 0 35.3633 0C33.6086 0 32.1689 1.46198 32.1689 3.24378C32.1239 5.02557 33.5636 6.48755 35.3633 6.48755Z" fill="url(#paint1_linear_315_67)"/>
<path d="M10.0331 25.3106C10.1681 25.1735 10.2131 24.9451 10.1231 24.7624C9.17826 22.9806 8.77334 20.879 8.9533 18.686C9.44821 13.6604 13.4524 9.63996 18.4015 9.13741C20.5611 8.90897 22.5857 9.36584 24.3854 10.2796C24.5653 10.371 24.7903 10.3253 24.9253 10.1882L28.2996 6.76168C28.4796 6.57894 28.4796 6.21344 28.2096 6.07638C25.6451 4.47733 22.6757 3.51791 19.4813 3.51791C10.573 3.51791 3.41935 10.7821 3.41935 19.7825C3.41935 23.0263 4.36417 26.0873 6.02886 28.6458C6.16383 28.8742 6.52376 28.9199 6.70373 28.6914L10.0331 25.3106Z" fill="url(#paint2_linear_315_67)"/>
<path d="M28.6146 13.7061C28.4796 13.8432 28.4346 14.0716 28.5696 14.2544C29.6944 16.1732 30.2793 18.4119 30.0093 20.879C29.5144 25.9045 25.5102 29.925 20.5611 30.4275C18.1766 30.656 15.927 30.1077 14.0373 28.9656C13.8574 28.8742 13.6324 28.8742 13.4974 29.0112L10.2131 32.3464C10.0331 32.5292 10.0331 32.8946 10.2581 33.0317C12.8676 34.9049 16.062 35.9557 19.4813 35.9557C28.3446 36.047 35.5433 28.7371 35.5433 19.7825C35.5433 16.3103 34.4635 13.0665 32.6188 10.4166C32.4388 10.1882 32.1239 10.1882 31.9439 10.371L28.6146 13.7061Z" fill="url(#paint3_linear_315_67)"/>
</g>
<defs>
<linearGradient id="paint0_linear_315_67" x1="1.75237" y1="37.2187" x2="38.3837" y2="2.13939" gradientUnits="userSpaceOnUse">
<stop stop-color="#19B7CB"/>
<stop offset="1" stop-color="#55C0D3"/>
</linearGradient>
<linearGradient id="paint1_linear_315_67" x1="1.36321" y1="36.8123" x2="37.9945" y2="1.73301" gradientUnits="userSpaceOnUse">
<stop stop-color="#19B7CB"/>
<stop offset="1" stop-color="#55C0D3"/>
</linearGradient>
<linearGradient id="paint2_linear_315_67" x1="3.40419" y1="16.1671" x2="28.3605" y2="16.1671" gradientUnits="userSpaceOnUse">
<stop stop-color="#19B7CB"/>
<stop offset="1" stop-color="#55C0D3"/>
</linearGradient>
<linearGradient id="paint3_linear_315_67" x1="10.0726" y1="23.1251" x2="35.5309" y2="23.1251" gradientUnits="userSpaceOnUse">
<stop stop-color="#19B7CB"/>
<stop offset="1" stop-color="#55C0D3"/>
</linearGradient>
<clipPath id="clip0_315_67">
<rect width="38.5577" height="39.0167" fill="white"/>
</clipPath>
</defs>
</svg>
