<?xml version="1.0" encoding="utf-8"?>
<!-- Generator: Adobe Illustrator 23.0.1, SVG Export Plug-In . SVG Version: 6.00 Build 0)  -->
<svg version="1.1" id="Capa_1" xmlns="http://www.w3.org/2000/svg" xmlns:xlink="http://www.w3.org/1999/xlink" x="0px" y="0px"
	 viewBox="0 0 796.7 253.1" style="enable-background:new 0 0 796.7 253.1;" xml:space="preserve">
<style type="text/css">
	.st0{fill:#FFFFFF;}
	.st1{fill:#CDEDEE;}
	.st2{fill:#C7EDF0;}
	.st3{fill:#91D6D8;}
	.st4{fill:#CEEEF0;}
	.st5{fill:none;stroke:#5CFFE4;stroke-width:2;stroke-miterlimit:10;}
	.st6{fill:#5CFFE4;}
	.st7{opacity:0.6;}
	.st8{opacity:0.2;}
</style>
<g>
	<g>
		<g>
			<path class="st0" d="M69,114.3v2.6H58.1v-14h10.6v2.6h-7.4v3h6.5v2.5h-6.5v3.2H69z"/>
			<path class="st0" d="M78.1,116.4c-0.3,0.2-0.7,0.4-1.1,0.5s-0.9,0.2-1.4,0.2c-1.3,0-2.3-0.3-3-1c-0.7-0.7-1.1-1.6-1.1-2.9v-4.4
				h-1.7v-2.4h1.7v-2.6h3.1v2.6h2.7v2.4h-2.7v4.4c0,0.5,0.1,0.8,0.4,1c0.2,0.2,0.6,0.4,1,0.4c0.5,0,0.9-0.1,1.3-0.4L78.1,116.4z"/>
			<path class="st0" d="M89.7,107.2c0.8,0.8,1.2,2,1.2,3.6v6.2h-3.1v-5.7c0-0.9-0.2-1.5-0.6-1.9c-0.4-0.4-0.9-0.6-1.6-0.6
				c-0.8,0-1.4,0.2-1.9,0.7c-0.5,0.5-0.7,1.2-0.7,2.2v5.3h-3.1v-14.8H83v5.2c0.4-0.4,0.9-0.7,1.5-1c0.6-0.2,1.2-0.3,1.9-0.3
				C87.8,106,88.8,106.4,89.7,107.2z"/>
			<path class="st0" d="M104.3,112.4h-8.1c0.1,0.7,0.5,1.2,1,1.6s1.2,0.6,2,0.6c0.6,0,1.1-0.1,1.5-0.3c0.4-0.2,0.8-0.4,1.2-0.8
				l1.7,1.8c-1,1.2-2.5,1.7-4.4,1.7c-1.2,0-2.3-0.2-3.2-0.7c-0.9-0.5-1.7-1.1-2.2-2c-0.5-0.8-0.8-1.8-0.8-2.9c0-1.1,0.3-2,0.8-2.9
				c0.5-0.8,1.2-1.5,2.1-2c0.9-0.5,1.8-0.7,2.9-0.7c1.1,0,2,0.2,2.9,0.7c0.9,0.5,1.5,1.1,2,2c0.5,0.8,0.7,1.8,0.7,3
				C104.4,111.6,104.4,111.9,104.3,112.4z M97,109c-0.5,0.4-0.8,0.9-0.9,1.6h5.3c-0.1-0.7-0.4-1.2-0.9-1.6c-0.5-0.4-1.1-0.6-1.8-0.6
				C98.1,108.4,97.5,108.6,97,109z"/>
			<path class="st0" d="M110.9,106.4c0.6-0.3,1.4-0.4,2.2-0.4v2.9c-0.3,0-0.6,0-0.7,0c-0.9,0-1.6,0.3-2.1,0.8s-0.8,1.3-0.8,2.3v5.1
				h-3.1v-10.8h3v1.4C109.8,107.1,110.3,106.7,110.9,106.4z"/>
			<path class="st0" d="M125.4,112.4h-8.1c0.1,0.7,0.5,1.2,1,1.6s1.2,0.6,2,0.6c0.6,0,1.1-0.1,1.5-0.3c0.4-0.2,0.8-0.4,1.2-0.8
				l1.7,1.8c-1,1.2-2.5,1.7-4.4,1.7c-1.2,0-2.3-0.2-3.2-0.7c-0.9-0.5-1.7-1.1-2.2-2c-0.5-0.8-0.8-1.8-0.8-2.9c0-1.1,0.3-2,0.8-2.9
				c0.5-0.8,1.2-1.5,2.1-2c0.9-0.5,1.8-0.7,2.9-0.7c1.1,0,2,0.2,2.9,0.7c0.9,0.5,1.5,1.1,2,2c0.5,0.8,0.7,1.8,0.7,3
				C125.4,111.6,125.4,111.9,125.4,112.4z M118.1,109c-0.5,0.4-0.8,0.9-0.9,1.6h5.3c-0.1-0.7-0.4-1.2-0.9-1.6
				c-0.5-0.4-1.1-0.6-1.8-0.6C119.1,108.4,118.6,108.6,118.1,109z"/>
			<path class="st0" d="M138.4,106.2v10.8h-3v-1.3c-0.4,0.5-0.9,0.8-1.5,1.1c-0.6,0.2-1.2,0.4-1.9,0.4c-1.4,0-2.5-0.4-3.4-1.2
				c-0.8-0.8-1.2-2-1.2-3.6v-6.1h3.1v5.6c0,1.7,0.7,2.6,2.2,2.6c0.7,0,1.3-0.2,1.8-0.7c0.5-0.5,0.7-1.2,0.7-2.2v-5.3H138.4z"/>
			<path class="st0" d="M158.2,107.2c0.8,0.8,1.2,2,1.2,3.6v6.2h-3.1v-5.7c0-0.9-0.2-1.5-0.5-1.9c-0.4-0.4-0.9-0.6-1.5-0.6
				c-0.7,0-1.3,0.2-1.7,0.7c-0.4,0.5-0.6,1.2-0.6,2.1v5.4h-3.1v-5.7c0-1.7-0.7-2.5-2-2.5c-0.7,0-1.3,0.2-1.7,0.7
				c-0.4,0.5-0.6,1.2-0.6,2.1v5.4h-3.1v-10.8h3v1.2c0.4-0.5,0.9-0.8,1.5-1c0.6-0.2,1.2-0.4,1.9-0.4c0.8,0,1.4,0.2,2.1,0.5
				s1.1,0.7,1.5,1.3c0.4-0.6,1-1,1.7-1.3s1.4-0.5,2.2-0.5C156.4,106,157.4,106.4,158.2,107.2z"/>
			<path class="st0" d="M59.3,138.1c-0.8-0.3-1.5-0.7-2-1.2l0.4-0.7c0.4,0.5,1,0.8,1.8,1.1s1.5,0.4,2.4,0.4c1.2,0,2.1-0.2,2.7-0.7
				s0.9-1,0.9-1.8c0-0.6-0.2-1-0.5-1.4c-0.3-0.3-0.7-0.6-1.2-0.8c-0.5-0.2-1.1-0.4-1.9-0.6c-0.9-0.2-1.7-0.5-2.2-0.7s-1-0.5-1.4-1
				c-0.4-0.5-0.6-1.1-0.6-1.8c0-0.6,0.2-1.2,0.5-1.7c0.3-0.5,0.8-0.9,1.5-1.2c0.7-0.3,1.5-0.5,2.5-0.5c0.7,0,1.4,0.1,2.1,0.3
				s1.3,0.5,1.7,0.8l-0.3,0.7c-0.5-0.3-1.1-0.6-1.7-0.8c-0.6-0.2-1.2-0.3-1.8-0.3c-1.2,0-2,0.2-2.6,0.7c-0.6,0.5-0.9,1.1-0.9,1.8
				c0,0.6,0.2,1,0.5,1.4c0.3,0.3,0.7,0.6,1.2,0.8c0.5,0.2,1.1,0.4,2,0.6c0.9,0.2,1.7,0.5,2.2,0.7s1,0.5,1.4,1c0.4,0.4,0.6,1,0.6,1.8
				c0,0.6-0.2,1.2-0.5,1.7c-0.3,0.5-0.8,0.9-1.5,1.2c-0.7,0.3-1.5,0.5-2.5,0.5C61.1,138.6,60.2,138.4,59.3,138.1z"/>
			<path class="st0" d="M77.3,134h-8.1c0,0.7,0.2,1.4,0.6,2c0.3,0.6,0.8,1,1.4,1.3c0.6,0.3,1.3,0.5,2,0.5c0.6,0,1.2-0.1,1.7-0.3
				c0.5-0.2,1-0.5,1.3-1l0.5,0.6c-0.4,0.5-0.9,0.9-1.5,1.1c-0.6,0.3-1.3,0.4-2,0.4c-0.9,0-1.8-0.2-2.5-0.6c-0.7-0.4-1.3-1-1.7-1.7
				c-0.4-0.7-0.6-1.5-0.6-2.5c0-0.9,0.2-1.7,0.6-2.5c0.4-0.7,0.9-1.3,1.6-1.7c0.7-0.4,1.5-0.6,2.3-0.6s1.6,0.2,2.3,0.6
				c0.7,0.4,1.2,1,1.6,1.7c0.4,0.7,0.6,1.5,0.6,2.4L77.3,134z M71,130.3c-0.5,0.3-1,0.7-1.3,1.2c-0.3,0.5-0.5,1.1-0.5,1.8h7.2
				c0-0.7-0.2-1.3-0.5-1.8c-0.3-0.5-0.8-0.9-1.3-1.2c-0.5-0.3-1.1-0.5-1.8-0.5S71.6,130,71,130.3z"/>
			<path class="st0" d="M87.2,129.7c0.7,0.4,1.3,1,1.7,1.7c0.4,0.7,0.6,1.5,0.6,2.5c0,0.9-0.2,1.7-0.6,2.5c-0.4,0.7-1,1.3-1.7,1.7
				c-0.7,0.4-1.5,0.6-2.4,0.6c-0.8,0-1.6-0.2-2.3-0.6c-0.7-0.4-1.2-0.9-1.6-1.6v5.6h-0.9v-12.9H81v2.2c0.4-0.7,0.9-1.3,1.6-1.7
				c0.7-0.4,1.4-0.6,2.3-0.6C85.7,129,86.5,129.3,87.2,129.7z M86.7,137.3c0.6-0.3,1-0.8,1.4-1.4c0.3-0.6,0.5-1.3,0.5-2.1
				c0-0.8-0.2-1.5-0.5-2.1c-0.3-0.6-0.8-1.1-1.4-1.4c-0.6-0.3-1.2-0.5-1.9-0.5c-0.7,0-1.4,0.2-1.9,0.5s-1,0.8-1.3,1.4
				c-0.3,0.6-0.5,1.3-0.5,2.1c0,0.8,0.2,1.5,0.5,2.1c0.3,0.6,0.8,1.1,1.3,1.4s1.2,0.5,1.9,0.5C85.5,137.8,86.1,137.6,86.7,137.3z"/>
			<path class="st0" d="M93.5,138c-0.7-0.4-1.3-1-1.7-1.7c-0.4-0.7-0.6-1.5-0.6-2.5c0-0.9,0.2-1.7,0.6-2.5c0.4-0.7,1-1.3,1.7-1.7
				c0.7-0.4,1.5-0.6,2.4-0.6c0.9,0,1.7,0.2,2.4,0.6c0.7,0.4,1.3,1,1.7,1.7c0.4,0.7,0.6,1.5,0.6,2.5c0,0.9-0.2,1.7-0.6,2.5
				c-0.4,0.7-1,1.3-1.7,1.7s-1.5,0.6-2.4,0.6C95,138.6,94.2,138.4,93.5,138z M97.8,137.3c0.6-0.3,1-0.8,1.4-1.4
				c0.3-0.6,0.5-1.3,0.5-2.1c0-0.8-0.2-1.5-0.5-2.1c-0.3-0.6-0.8-1.1-1.4-1.4c-0.6-0.3-1.2-0.5-1.9-0.5c-0.7,0-1.4,0.2-1.9,0.5
				c-0.6,0.3-1,0.8-1.4,1.4c-0.3,0.6-0.5,1.3-0.5,2.1c0,0.8,0.2,1.5,0.5,2.1c0.3,0.6,0.8,1.1,1.4,1.4c0.6,0.3,1.2,0.5,1.9,0.5
				C96.6,137.8,97.3,137.6,97.8,137.3z"/>
			<path class="st0" d="M103.4,125.2h0.9v13.4h-0.9V125.2z"/>
			<path class="st0" d="M108,126.6c-0.1-0.1-0.2-0.3-0.2-0.5c0-0.2,0.1-0.4,0.2-0.5c0.1-0.1,0.3-0.2,0.5-0.2s0.4,0.1,0.5,0.2
				c0.1,0.1,0.2,0.3,0.2,0.5s-0.1,0.4-0.2,0.5c-0.1,0.1-0.3,0.2-0.5,0.2S108.2,126.8,108,126.6z M108.1,129.1h0.9v9.4h-0.9V129.1z"
				/>
			<path class="st0" d="M118.6,129.9c0.6,0.6,0.9,1.5,0.9,2.6v6h-0.9v-1.7c-0.3,0.6-0.7,1-1.3,1.3c-0.6,0.3-1.3,0.5-2.1,0.5
				c-1,0-1.9-0.2-2.5-0.7c-0.6-0.5-0.9-1.1-0.9-1.9c0-0.8,0.3-1.4,0.8-1.9c0.6-0.5,1.4-0.7,2.7-0.7h3.2v-0.8c0-0.9-0.2-1.5-0.7-2
				s-1.2-0.7-2.1-0.7c-0.6,0-1.2,0.1-1.8,0.3c-0.6,0.2-1.1,0.5-1.4,0.9l-0.5-0.6c0.5-0.4,1-0.7,1.7-1c0.7-0.2,1.4-0.4,2.1-0.4
				C117.1,129,118,129.3,118.6,129.9z M117.4,137.3c0.5-0.4,1-0.9,1.2-1.6V134h-3.2c-0.9,0-1.6,0.2-2,0.5s-0.6,0.8-0.6,1.4
				c0,0.6,0.2,1.1,0.7,1.4c0.5,0.4,1.1,0.5,1.9,0.5C116.2,137.8,116.9,137.7,117.4,137.3z"/>
		</g>
	</g>
	<g>
		<g>
			<path class="st0" d="M280,102.9h3.2v14H280V102.9z"/>
			<path class="st0" d="M289.3,116.2c-1.2-0.6-2.1-1.5-2.7-2.6c-0.7-1.1-1-2.3-1-3.7s0.3-2.6,1-3.7c0.7-1.1,1.6-2,2.7-2.6
				c1.2-0.6,2.5-0.9,3.9-0.9c1.2,0,2.3,0.2,3.3,0.6c1,0.4,1.8,1,2.5,1.8l-2.1,1.9c-0.9-1.1-2.1-1.6-3.5-1.6c-0.9,0-1.6,0.2-2.3,0.6
				c-0.7,0.4-1.2,0.9-1.6,1.6c-0.4,0.7-0.6,1.5-0.6,2.3c0,0.9,0.2,1.6,0.6,2.3c0.4,0.7,0.9,1.2,1.6,1.6c0.7,0.4,1.5,0.6,2.3,0.6
				c1.4,0,2.6-0.6,3.5-1.7l2.1,1.9c-0.7,0.8-1.5,1.4-2.5,1.9c-1,0.4-2.1,0.6-3.3,0.6C291.8,117.2,290.5,116.8,289.3,116.2z"/>
			<path class="st0" d="M303.7,116.2c-1.2-0.6-2.1-1.5-2.7-2.6c-0.7-1.1-1-2.3-1-3.7s0.3-2.6,1-3.7c0.7-1.1,1.6-2,2.7-2.6
				s2.5-0.9,3.9-0.9c1.5,0,2.8,0.3,3.9,0.9c1.2,0.6,2.1,1.5,2.7,2.6c0.7,1.1,1,2.3,1,3.7s-0.3,2.6-1,3.7c-0.7,1.1-1.6,2-2.7,2.6
				c-1.2,0.6-2.5,0.9-3.9,0.9C306.2,117.2,304.9,116.8,303.7,116.2z M309.9,113.8c0.7-0.4,1.2-0.9,1.6-1.6c0.4-0.7,0.6-1.5,0.6-2.3
				c0-0.9-0.2-1.6-0.6-2.3c-0.4-0.7-0.9-1.2-1.6-1.6s-1.4-0.6-2.2-0.6c-0.8,0-1.6,0.2-2.2,0.6c-0.7,0.4-1.2,0.9-1.6,1.6
				c-0.4,0.7-0.6,1.5-0.6,2.3c0,0.9,0.2,1.6,0.6,2.3c0.4,0.7,0.9,1.2,1.6,1.6c0.7,0.4,1.4,0.6,2.2,0.6
				C308.5,114.4,309.2,114.2,309.9,113.8z"/>
			<path class="st0" d="M330.6,102.9v14h-2.7l-7-8.5v8.5h-3.2v-14h2.7l7,8.5v-8.5H330.6z"/>
			<path class="st0" d="M290,133.1c0.5,0.5,0.7,1.2,0.7,2.1c0,1.1-0.4,1.9-1.2,2.5c-0.8,0.6-1.9,0.9-3.5,0.9h-5.6v-12.6h5.3
				c1.4,0,2.4,0.3,3.2,0.8c0.8,0.6,1.1,1.4,1.1,2.4c0,0.7-0.2,1.3-0.6,1.8s-0.9,0.8-1.5,1.1C288.9,132.2,289.6,132.5,290,133.1z
				 M281.4,126.7v5h4.3c1.1,0,2-0.2,2.5-0.6s0.9-1.1,0.9-1.9c0-0.8-0.3-1.4-0.9-1.9s-1.4-0.6-2.5-0.6H281.4z M288.9,137.1
				c0.6-0.4,0.9-1.1,0.9-2c0-0.9-0.3-1.5-0.9-2c-0.6-0.4-1.6-0.6-2.8-0.6h-4.7v5.2h4.7C287.3,137.7,288.3,137.5,288.9,137.1z"/>
			<path class="st0" d="M301.7,134h-8.1c0,0.7,0.2,1.4,0.6,2c0.3,0.6,0.8,1,1.4,1.3c0.6,0.3,1.3,0.5,2,0.5c0.6,0,1.2-0.1,1.7-0.3
				c0.5-0.2,1-0.5,1.3-1l0.5,0.6c-0.4,0.5-0.9,0.9-1.5,1.1c-0.6,0.3-1.3,0.4-2,0.4c-0.9,0-1.8-0.2-2.5-0.6c-0.7-0.4-1.3-1-1.7-1.7
				c-0.4-0.7-0.6-1.5-0.6-2.5c0-0.9,0.2-1.7,0.6-2.5c0.4-0.7,0.9-1.3,1.6-1.7c0.7-0.4,1.5-0.6,2.3-0.6c0.9,0,1.6,0.2,2.3,0.6
				c0.7,0.4,1.2,1,1.6,1.7c0.4,0.7,0.6,1.5,0.6,2.4L301.7,134z M295.4,130.3c-0.5,0.3-1,0.7-1.3,1.2c-0.3,0.5-0.5,1.1-0.5,1.8h7.2
				c0-0.7-0.2-1.3-0.5-1.8c-0.3-0.5-0.8-0.9-1.3-1.2s-1.1-0.5-1.8-0.5S296,130,295.4,130.3z"/>
			<path class="st0" d="M306.7,129.6c0.6-0.4,1.4-0.5,2.2-0.5v0.9l-0.2,0c-1,0-1.9,0.3-2.4,1c-0.6,0.7-0.9,1.6-0.9,2.7v4.9h-0.9
				v-9.4h0.9v2.1C305.6,130.5,306.1,130,306.7,129.6z"/>
			<path class="st0" d="M311.4,125.2h0.9v13.4h-0.9V125.2z"/>
			<path class="st0" d="M316,126.6c-0.1-0.1-0.2-0.3-0.2-0.5c0-0.2,0.1-0.4,0.2-0.5c0.1-0.1,0.3-0.2,0.5-0.2c0.2,0,0.4,0.1,0.5,0.2
				c0.1,0.1,0.2,0.3,0.2,0.5s-0.1,0.4-0.2,0.5c-0.1,0.1-0.3,0.2-0.5,0.2C316.4,126.8,316.2,126.8,316,126.6z M316.1,129.1h0.9v9.4
				h-0.9V129.1z"/>
			<path class="st0" d="M328.2,130.1c0.7,0.7,1,1.7,1,3v5.5h-0.9v-5.4c0-1.1-0.3-1.9-0.8-2.4c-0.5-0.6-1.3-0.8-2.2-0.8
				c-1.1,0-2,0.3-2.6,1s-1,1.5-1,2.7v5h-0.9v-9.4h0.9v2c0.3-0.7,0.8-1.2,1.4-1.5c0.6-0.4,1.4-0.6,2.3-0.6
				C326.6,129,327.5,129.4,328.2,130.1z"/>
		</g>
	</g>
	<g>
		<g>
			<path class="st0" d="M695.8,102.9v14h-3.2v-5.7h-6.4v5.7H683v-14h3.2v5.5h6.4v-5.5H695.8z"/>
			<path class="st0" d="M708.4,113.9h-6.5l-1.2,3h-3.3l6.2-14h3.2l6.3,14h-3.4L708.4,113.9z M707.4,111.5l-2.2-5.4l-2.2,5.4H707.4z"
				/>
			<path class="st0" d="M727.2,102.9l-6.1,14h-3.2l-6-14h3.5l4.3,10l4.3-10H727.2z"/>
			<path class="st0" d="M737.1,113.9h-6.5l-1.2,3H726l6.2-14h3.2l6.3,14h-3.4L737.1,113.9z M736.1,111.5l-2.2-5.4l-2.2,5.4H736.1z"
				/>
			<path class="st0" d="M756,102.9v14h-3.2v-5.7h-6.4v5.7h-3.2v-14h3.2v5.5h6.4v-5.5H756z"/>
			<path class="st0" d="M684.2,138.1c-0.8-0.3-1.5-0.7-2-1.2l0.4-0.7c0.4,0.5,1,0.8,1.8,1.1s1.5,0.4,2.4,0.4c1.2,0,2.1-0.2,2.7-0.7
				s0.9-1,0.9-1.8c0-0.6-0.2-1-0.5-1.4c-0.3-0.3-0.7-0.6-1.2-0.8c-0.5-0.2-1.1-0.4-1.9-0.6c-0.9-0.2-1.7-0.5-2.2-0.7
				c-0.6-0.2-1-0.5-1.4-1s-0.6-1.1-0.6-1.8c0-0.6,0.2-1.2,0.5-1.7c0.3-0.5,0.8-0.9,1.5-1.2c0.7-0.3,1.5-0.5,2.5-0.5
				c0.7,0,1.4,0.1,2.1,0.3c0.7,0.2,1.3,0.5,1.7,0.8l-0.3,0.7c-0.5-0.3-1.1-0.6-1.7-0.8c-0.6-0.2-1.2-0.3-1.8-0.3
				c-1.2,0-2,0.2-2.6,0.7c-0.6,0.5-0.9,1.1-0.9,1.8c0,0.6,0.2,1,0.5,1.4s0.7,0.6,1.2,0.8c0.5,0.2,1.1,0.4,2,0.6
				c0.9,0.2,1.7,0.5,2.2,0.7s1,0.5,1.4,1c0.4,0.4,0.6,1,0.6,1.8c0,0.6-0.2,1.2-0.5,1.7c-0.3,0.5-0.8,0.9-1.5,1.2
				c-0.7,0.3-1.5,0.5-2.5,0.5C685.9,138.6,685.1,138.4,684.2,138.1z"/>
			<path class="st0" d="M695.5,138c-0.7-0.4-1.3-1-1.7-1.7c-0.4-0.7-0.6-1.5-0.6-2.5c0-0.9,0.2-1.7,0.6-2.5c0.4-0.7,1-1.3,1.7-1.7
				c0.7-0.4,1.5-0.6,2.4-0.6c0.9,0,1.7,0.2,2.4,0.6c0.7,0.4,1.3,1,1.7,1.7c0.4,0.7,0.6,1.5,0.6,2.5c0,0.9-0.2,1.7-0.6,2.5
				c-0.4,0.7-1,1.3-1.7,1.7c-0.7,0.4-1.5,0.6-2.4,0.6C697,138.6,696.2,138.4,695.5,138z M699.8,137.3c0.6-0.3,1-0.8,1.4-1.4
				c0.3-0.6,0.5-1.3,0.5-2.1c0-0.8-0.2-1.5-0.5-2.1c-0.3-0.6-0.8-1.1-1.4-1.4c-0.6-0.3-1.2-0.5-1.9-0.5s-1.4,0.2-1.9,0.5
				c-0.6,0.3-1,0.8-1.3,1.4c-0.3,0.6-0.5,1.3-0.5,2.1c0,0.8,0.2,1.5,0.5,2.1c0.3,0.6,0.8,1.1,1.3,1.4c0.6,0.3,1.2,0.5,1.9,0.5
				S699.3,137.6,699.8,137.3z"/>
			<path class="st0" d="M706.6,138c-0.7-0.4-1.3-1-1.7-1.7c-0.4-0.7-0.6-1.5-0.6-2.5c0-0.9,0.2-1.7,0.6-2.5c0.4-0.7,1-1.3,1.7-1.7
				c0.7-0.4,1.5-0.6,2.4-0.6c0.9,0,1.7,0.2,2.4,0.6c0.7,0.4,1.3,1,1.7,1.7c0.4,0.7,0.6,1.5,0.6,2.5c0,0.9-0.2,1.7-0.6,2.5
				c-0.4,0.7-1,1.3-1.7,1.7c-0.7,0.4-1.5,0.6-2.4,0.6C708.2,138.6,707.4,138.4,706.6,138z M711,137.3c0.6-0.3,1-0.8,1.4-1.4
				c0.3-0.6,0.5-1.3,0.5-2.1c0-0.8-0.2-1.5-0.5-2.1c-0.3-0.6-0.8-1.1-1.4-1.4c-0.6-0.3-1.2-0.5-1.9-0.5s-1.4,0.2-1.9,0.5
				c-0.6,0.3-1,0.8-1.3,1.4c-0.3,0.6-0.5,1.3-0.5,2.1c0,0.8,0.2,1.5,0.5,2.1c0.3,0.6,0.8,1.1,1.3,1.4c0.6,0.3,1.2,0.5,1.9,0.5
				S710.4,137.6,711,137.3z"/>
			<path class="st0" d="M723.9,130.1c0.7,0.7,1,1.7,1,3v5.5H724v-5.4c0-1.1-0.3-1.9-0.8-2.4c-0.5-0.6-1.3-0.8-2.2-0.8
				c-1.1,0-2,0.3-2.6,1s-1,1.5-1,2.7v5h-0.9v-9.4h0.9v2c0.3-0.7,0.8-1.2,1.4-1.5c0.6-0.4,1.4-0.6,2.3-0.6
				C722.3,129,723.2,129.4,723.9,130.1z"/>
		</g>
	</g>
	<g>
		<g>
			<g>
				<g>
					<polygon class="st0" points="21,87.2 21,112.4 0.3,121.7 					"/>
					<polygon class="st1" points="21,112.4 21,134.3 0.3,121.7 					"/>
					<polygon class="st0" points="21,138.8 21,155.7 0.3,126.5 					"/>
				</g>
				<g>
					<polygon class="st2" points="21,87.2 21,112.4 41.7,121.7 					"/>
					<polygon class="st3" points="21,112.4 21,134.3 41.7,121.7 					"/>
					<polygon class="st4" points="21,138.8 21,155.7 41.7,126.5 					"/>
				</g>
			</g>
		</g>
	</g>
	<g>
		<g>
			<g>
				<path class="st0" d="M257.6,90.4c3.4,0.1,6.1,2.8,6,6.3c0,3.4-2.8,6.1-6.3,6.1c-3.4,0-6.1-2.8-6.1-6.2
					C251.2,93,254,90.4,257.6,90.4z"/>
			</g>
			<g>
				<path class="st0" d="M252.4,106.4c3.2,4.2,5,9.4,5,15c0,13.7-11.1,24.8-24.8,24.8c-5.6,0-10.8-1.9-15-5l6.7-6.7
					c2.4,1.5,5.2,2.4,8.3,2.4c8.5,0,15.5-6.9,15.5-15.5c0-3-0.9-5.9-2.4-8.3L252.4,106.4z"/>
			</g>
			<g>
				<path class="st0" d="M232.6,105.9c-8.5,0-15.5,6.9-15.5,15.5c0,2.9,0.8,5.7,2.2,8l-6.7,6.7c-3-4.1-4.9-9.2-4.9-14.7
					c0-13.7,11.1-24.8,24.8-24.8c5.5,0,10.6,1.8,14.7,4.9l-6.7,6.7C238.3,106.8,235.5,105.9,232.6,105.9z"/>
			</g>
			<g>
				<path class="st0" d="M208,139.9c3.4,0,6.1,2.7,6.1,6.2c0,3.5-2.7,6.2-6.2,6.2c-3.5,0-6.2-2.7-6.2-6.3
					C201.8,142.5,204.5,139.9,208,139.9z"/>
			</g>
		</g>
	</g>
	<path class="st5" d="M103.7,46.5H37.4c-9.1,0-16.4,7.4-16.4,16.4v15.3"/>
	<path class="st5" d="M225.8,78.2V62.9c0-9.1-7.4-16.4-16.4-16.4H159"/>
	<path class="st5" d="M260.1,209.9h155.1c9.1,0,16.4-7.4,16.4-16.4v-15.3"/>
	<path class="st5" d="M21,178.2v15.3c0,9.1,7.4,16.4,16.4,16.4h167.4"/>
	<g>
		<g>
			<g>
				<path class="st6" d="M131.4,62.3c-8.7,0-15.8-7.1-15.8-15.8s7.1-15.8,15.8-15.8s15.8,7.1,15.8,15.8S140.1,62.3,131.4,62.3z
					 M131.4,31.5c-8.3,0-15,6.7-15,15s6.7,15,15,15s15-6.7,15-15S139.6,31.5,131.4,31.5z"/>
			</g>
			<path class="st6" d="M142.9,26c-0.6,0.3-1.2,0.8-2,1.4c-1.3,1.1-2.9,2.7-4.8,4.8c-3.6,3.9-8,9.3-11.8,14.3
				c-3.7,4.9-6.3,9-7.8,12.2c-0.8,1.6-1.3,2.9-1.5,4c-0.1,0.6-0.1,1.1-0.1,1.6c0,0.4,0.2,0.8,0.5,1c0.5,0.5,1.1,0.9,1.6,1.3
				c1.1,0.8,2.5,0.8,3.7,0.1c0,0,0,0,0,0c0.9-0.5,2-1.4,2.9-2.3l-3.3-1.7c1.2-2.9,3.8-7.1,8.2-13c3.2-4.3,7-9,10.2-12.6
				c2.2-2.4,4.1-4.6,5.5-5.8l2.6,1.3c0.3-0.7,0.7-1.7,0.8-2.4c0,0,0,0,0,0c0.3-1.1-0.2-2.3-1.1-3c-0.6-0.5-1.3-1-2-1.4
				c-0.3-0.2-0.6-0.2-0.9-0.1C143.5,25.7,143.2,25.8,142.9,26z"/>
			<path class="st6" d="M119.8,26c0.6,0.3,1.2,0.8,2,1.4c1.3,1.1,2.9,2.7,4.8,4.8c3.6,3.9,8,9.3,11.8,14.3c3.7,4.9,6.3,9,7.8,12.2
				c0.8,1.6,1.3,2.9,1.5,4c0.1,0.6,0.1,1.1,0.1,1.6c0,0.4-0.2,0.8-0.5,1c-0.5,0.5-1.1,0.9-1.6,1.3c-1.1,0.8-2.5,0.8-3.7,0.1
				c0,0,0,0,0,0c-0.9-0.5-2-1.4-2.9-2.3l3.3-1.7c-1.2-2.9-3.8-7.1-8.2-13c-3.2-4.3-7-9-10.2-12.6c-2.2-2.4-4.1-4.6-5.5-5.8l-2.6,1.3
				c-0.3-0.7-0.7-1.7-0.8-2.4c0,0,0,0,0,0c-0.3-1.1,0.2-2.3,1.1-3c0.6-0.5,1.3-1,2-1.4c0.3-0.2,0.6-0.2,0.9-0.1
				C119.2,25.7,119.5,25.8,119.8,26z"/>
			<g class="st7">
				<g>
					<path class="st6" d="M150.1,34.3l-18.2-9.4c-0.3-0.2-0.7-0.2-1.1,0l-18.2,9.4c-0.4,0.2-0.6,0.6-0.6,1v22.4c0,0.4,0.2,0.8,0.6,1
						l18.2,9.4c0.2,0.1,0.3,0.1,0.5,0.1c0.2,0,0.4,0,0.5-0.1l18.2-9.4c0.4-0.2,0.6-0.6,0.6-1V35.3C150.8,34.9,150.5,34.5,150.1,34.3
						z M132.7,65.2l-1.1-8.3c0-0.3-0.4-0.3-0.5,0l-1.1,8.3L114.3,57V37.3l8.5,2.8c0.3,0.1,0.4-0.3,0.2-0.4l-7-4.5l15.4-8l15.4,7.9
						l-7.1,4.6c-0.2,0.1-0.1,0.5,0.2,0.4l8.5-2.8V57L132.7,65.2z"/>
				</g>
			</g>
			<path class="st6" d="M129.6,48.2c1.6-1.9,1.9-1.9,3.4,0c0.5,0-1.7-4.3-1.7-4.3S129.4,48.2,129.6,48.2z"/>
		</g>
	</g>
	<path class="st5" d="M306.6,46.5h-54.1c-9.1,0-16.4,7.4-16.4,16.4v15.3"/>
	<path class="st5" d="M431.7,78.2V62.9c0-9.1-7.4-16.4-16.4-16.4h-53.4"/>
	<g>
		<g>
			<g>
				<path class="st6" d="M334.2,62.3c-8.7,0-15.8-7.1-15.8-15.8s7.1-15.8,15.8-15.8c8.7,0,15.8,7.1,15.8,15.8S343,62.3,334.2,62.3z
					 M334.2,31.5c-8.3,0-15,6.7-15,15s6.7,15,15,15c8.3,0,15-6.7,15-15S342.5,31.5,334.2,31.5z"/>
			</g>
			<path class="st6" d="M345.7,26c-0.6,0.3-1.2,0.8-2,1.4c-1.3,1.1-2.9,2.7-4.8,4.8c-3.6,3.9-8,9.3-11.8,14.3
				c-3.7,4.9-6.3,9-7.8,12.2c-0.8,1.6-1.3,2.9-1.5,4c-0.1,0.6-0.1,1.1-0.1,1.6c0,0.4,0.2,0.8,0.5,1c0.5,0.5,1.1,0.9,1.6,1.3
				c1.1,0.8,2.5,0.8,3.7,0.1c0,0,0,0,0,0c0.9-0.5,2-1.4,2.9-2.3l-3.3-1.7c1.2-2.9,3.8-7.1,8.2-13c3.2-4.3,7-9,10.2-12.6
				c2.2-2.4,4.1-4.6,5.5-5.8l2.6,1.3c0.3-0.7,0.7-1.7,0.8-2.4c0,0,0,0,0,0c0.3-1.1-0.2-2.3-1.1-3c-0.6-0.5-1.3-1-2-1.4
				c-0.3-0.2-0.6-0.2-0.9-0.1C346.3,25.7,346,25.8,345.7,26z"/>
			<path class="st6" d="M322.6,26c0.6,0.3,1.2,0.8,2,1.4c1.3,1.1,2.9,2.7,4.8,4.8c3.6,3.9,8,9.3,11.8,14.3c3.7,4.9,6.3,9,7.8,12.2
				c0.8,1.6,1.3,2.9,1.5,4c0.1,0.6,0.1,1.1,0.1,1.6c0,0.4-0.2,0.8-0.5,1c-0.5,0.5-1.1,0.9-1.6,1.3c-1.1,0.8-2.5,0.8-3.7,0.1
				c0,0,0,0,0,0c-0.9-0.5-2-1.4-2.9-2.3l3.3-1.7c-1.2-2.9-3.8-7.1-8.2-13c-3.2-4.3-7-9-10.2-12.6c-2.2-2.4-4.1-4.6-5.5-5.8l-2.6,1.3
				c-0.3-0.7-0.7-1.7-0.8-2.4c0,0,0,0,0,0c-0.3-1.1,0.2-2.3,1.1-3c0.6-0.5,1.3-1,2-1.4c0.3-0.2,0.6-0.2,0.9-0.1
				C322,25.7,322.3,25.8,322.6,26z"/>
			<g class="st7">
				<g>
					<path class="st6" d="M353,34.3l-18.2-9.4c-0.3-0.2-0.7-0.2-1.1,0l-18.2,9.4c-0.4,0.2-0.6,0.6-0.6,1v22.4c0,0.4,0.2,0.8,0.6,1
						l18.2,9.4c0.2,0.1,0.3,0.1,0.5,0.1c0.2,0,0.4,0,0.5-0.1l18.2-9.4c0.4-0.2,0.6-0.6,0.6-1V35.3C353.6,34.9,353.4,34.5,353,34.3z
						 M335.5,65.2l-1.1-8.3c0-0.3-0.4-0.3-0.5,0l-1.1,8.3L317.1,57V37.3l8.5,2.8c0.3,0.1,0.4-0.3,0.2-0.4l-7-4.5l15.4-8l15.4,7.9
						l-7.1,4.6c-0.2,0.1-0.1,0.5,0.2,0.4l8.5-2.8V57L335.5,65.2z"/>
				</g>
			</g>
			<path class="st6" d="M332.5,48.2c1.6-1.9,1.9-1.9,3.4,0c0.5,0-1.7-4.3-1.7-4.3S332.2,48.2,332.5,48.2z"/>
		</g>
	</g>
	<g>
		<g>
			<g>
				<path class="st6" d="M232.5,223.9c-8.7,0-15.8-7.1-15.8-15.8s7.1-15.8,15.8-15.8c8.7,0,15.8,7.1,15.8,15.8
					S241.2,223.9,232.5,223.9z M232.5,193.1c-8.3,0-15,6.7-15,15s6.7,15,15,15c8.3,0,15-6.7,15-15S240.7,193.1,232.5,193.1z"/>
			</g>
			<path class="st6" d="M244,187.5c-0.6,0.3-1.2,0.8-2,1.4c-1.3,1.1-2.9,2.7-4.8,4.8c-3.6,3.9-8,9.3-11.8,14.3
				c-3.7,4.9-6.3,9-7.8,12.2c-0.8,1.6-1.3,2.9-1.5,4c-0.1,0.6-0.1,1.1-0.1,1.6c0,0.4,0.2,0.8,0.5,1c0.5,0.5,1.1,0.9,1.6,1.3
				c1.1,0.8,2.5,0.8,3.7,0.1c0,0,0,0,0,0c0.9-0.5,2-1.4,2.9-2.3l-3.3-1.7c1.2-2.9,3.8-7.1,8.2-13c3.2-4.3,7-9,10.2-12.6
				c2.2-2.4,4.1-4.6,5.5-5.8l2.6,1.3c0.3-0.7,0.7-1.7,0.8-2.4c0,0,0,0,0,0c0.3-1.1-0.2-2.3-1.1-3c-0.6-0.5-1.3-1-2-1.4
				c-0.3-0.2-0.6-0.2-0.9-0.1C244.6,187.2,244.3,187.3,244,187.5z"/>
			<path class="st6" d="M220.9,187.5c0.6,0.3,1.2,0.8,2,1.4c1.3,1.1,2.9,2.7,4.8,4.8c3.6,3.9,8,9.3,11.8,14.3
				c3.7,4.9,6.3,9,7.8,12.2c0.8,1.6,1.3,2.9,1.5,4c0.1,0.6,0.1,1.1,0.1,1.6c0,0.4-0.2,0.8-0.5,1c-0.5,0.5-1.1,0.9-1.6,1.3
				c-1.1,0.8-2.5,0.8-3.7,0.1c0,0,0,0,0,0c-0.9-0.5-2-1.4-2.9-2.3l3.3-1.7c-1.2-2.9-3.8-7.1-8.2-13c-3.2-4.3-7-9-10.2-12.6
				c-2.2-2.4-4.1-4.6-5.5-5.8l-2.6,1.3c-0.3-0.7-0.7-1.7-0.8-2.4c0,0,0,0,0,0c-0.3-1.1,0.2-2.3,1.1-3c0.6-0.5,1.3-1,2-1.4
				c0.3-0.2,0.6-0.2,0.9-0.1C220.3,187.2,220.6,187.3,220.9,187.5z"/>
			<g class="st7">
				<g>
					<path class="st6" d="M251.2,195.8l-18.2-9.4c-0.3-0.2-0.7-0.2-1.1,0l-18.2,9.4c-0.4,0.2-0.6,0.6-0.6,1v22.4
						c0,0.4,0.2,0.8,0.6,1l18.2,9.4c0.2,0.1,0.3,0.1,0.5,0.1c0.2,0,0.4,0,0.5-0.1l18.2-9.4c0.4-0.2,0.6-0.6,0.6-1v-22.4
						C251.9,196.4,251.6,196,251.2,195.8z M233.8,226.7l-1.1-8.3c0-0.3-0.4-0.3-0.5,0l-1.1,8.3l-15.8-8.1v-19.7l8.5,2.8
						c0.3,0.1,0.4-0.3,0.2-0.4l-7-4.5l15.4-8l15.4,7.9l-7.1,4.6c-0.2,0.1-0.1,0.5,0.2,0.4l8.5-2.8v19.7L233.8,226.7z"/>
				</g>
			</g>
			<path class="st6" d="M230.7,209.8c1.6-1.9,1.9-1.9,3.4,0c0.5,0-1.7-4.3-1.7-4.3S230.5,209.8,230.7,209.8z"/>
		</g>
	</g>
	<g>
		<g class="st8">
			<path class="st0" d="M628.7,80.8l-34,19.7v39.3l34,19.7l34-19.7l0-39.3L628.7,80.8z M657.3,133.5l-8-4.6c-0.1,0.3-0.2,0.7-0.4,1
				c-0.3,0.4-0.7,0.6-1.1,0.8c-0.5,0.1-0.9,0.2-1.4,0.2c-0.9,0-1.8-0.2-2.6-0.6c0.1,0.3,0.1,0.5,0.2,0.8l0,0
				c0.1,0.4,0.2,0.8,0.3,1.2l10.4,6l-23.2,13.4v-12.5c-0.3,0.5-0.5,0.9-0.7,1.3c-0.9,1.8-1.3,3.8-1.2,5.7l0,0l0,0l0,0
				c0,0.5-0.2,1.1-0.5,1.5c-0.4,0.4-0.8,0.7-1.4,0.7l0,0l0,0l0,0c-0.1,0-0.2,0-0.3,0c-0.5,0-0.9-0.2-1.3-0.5v3.6l-23.2-13.4l5.1-3
				c0.5-0.9,1-1.7,1.6-2.4c0.7-0.8,1.4-1.5,2.3-2.1l0.1-0.1c0.7-0.5,1.3-1,2-1.4c-0.7-0.1-1.4-0.2-2-0.2c-0.5,0-0.9,0.1-1.3,0.2
				c-0.3,0.1-0.6,0.2-0.9,0.2c-0.3,0-0.7-0.1-1-0.2c-0.2-0.1-0.4-0.2-0.5-0.3l-8.2,4.7v-26.8l8,4.6c0.1-0.3,0.2-0.7,0.4-1
				c0.3-0.4,0.7-0.6,1.1-0.8c0.5-0.1,0.9-0.2,1.4-0.2c0.9,0,1.8,0.2,2.6,0.6c-0.1-0.3-0.1-0.5-0.2-0.8l0,0l0,0l0,0l0,0
				c-0.1-0.4-0.2-0.8-0.3-1.2l-10.4-6L626,88.6v12.5c0.3-0.5,0.5-0.9,0.7-1.4c0.9-1.8,1.3-3.8,1.2-5.7l0,0l0,0l0,0v0l0,0
				c0-0.5,0.2-1.1,0.5-1.5c0.4-0.4,0.8-0.7,1.4-0.7l0,0l0,0l0,0c0.1,0,0.2,0,0.3,0c0.5,0,0.9,0.2,1.3,0.4v-3.5l23.2,13.4l-5.1,3
				c-0.5,0.9-1,1.7-1.6,2.4c-0.7,0.8-1.4,1.5-2.3,2.1l-0.1,0.1c-0.7,0.5-1.3,0.9-2,1.4c0.7,0.1,1.4,0.2,2,0.2c0.5,0,0.9-0.1,1.3-0.2
				c0.3-0.1,0.6-0.2,0.9-0.2c0.3,0,0.7,0.1,1,0.2c0.2,0.1,0.4,0.2,0.5,0.4l8.2-4.7L657.3,133.5L657.3,133.5z"/>
		</g>
		<path class="st0" d="M655.1,121.5c0-0.1-0.1-0.2-0.2-0.2h0l0,0c-0.3,0-0.5,0-0.8,0c-2,0-4-0.5-5.9-1.4c-0.7-0.3-1.4-0.7-2.1-1.1
			c-0.8-0.5-1.6-0.9-2.4-1.3c-1-0.4-1.9-0.7-2.7-0.8c-0.2,0-0.3,0-0.4,0c-0.2,0-0.4,0-0.6,0c-0.2,0-0.3,0.1-0.5,0.1
			c0.7-0.9,1.6-1.2,2.7-1.4c0.3,0,0.7-0.1,1-0.1c0.1,0,0.2,0,0.3,0c0.5-0.1,1-0.1,1.5-0.2c1-0.2,2.3-0.9,2.9-2l0,0
			c0-0.1,0-0.2,0-0.2c0,0,0,0-0.1,0c0,0-0.1,0-0.1,0c0,0-0.1,0-0.1,0c-0.4,0.2-0.9,0.3-1.4,0.3c-0.2,0-0.4,0-0.6,0
			c-0.8,0-1.7-0.1-2.6-0.3c-0.2,0-0.4-0.1-0.5-0.1c-0.8-0.1-1.6-0.2-2.4-0.2c-1,0-1.9,0.2-2.6,0.7c0.8-1.6,2.1-2.3,3.3-3
			c1.4-0.7,2.5-1.5,3.7-2.4l0.1-0.1c0.2-0.1,0.3-0.3,0.5-0.4c0.5-0.4,1-0.9,1.4-1.4c0.8-1,1.5-2.2,2-3.5c0-0.1,0-0.2-0.1-0.2l0,0
			c0,0-0.1,0-0.1,0c-0.1,0-0.1,0-0.1,0.1l0,0c-1.5,1.7-3.5,3-5.7,3.7c-0.7,0.3-1.5,0.5-2.3,0.6c-0.9,0.2-1.8,0.5-2.6,0.8
			c-1.7,0.6-2.9,1.5-3.5,2.6c-0.2-1.5,0.7-2.5,1.6-3.7c0.4-0.5,0.8-0.9,1.1-1.5c0.5-0.9,1-2.2,0.7-3.4c0-0.1-0.1-0.2-0.2-0.2h0
			c-0.1,0-0.2,0.1-0.2,0.1c-0.5,1.4-1.9,2.4-3.2,3.4c-0.1,0.1-0.3,0.2-0.4,0.3c-0.4,0.3-0.9,0.7-1.3,1.1c-0.2,0.2-0.3,0.3-0.5,0.5
			c-0.7,0.7-1.2,1.5-1.3,2.4c-0.5-1.7-0.2-3.1,0.3-4.4c0.5-1.5,0.7-2.8,1-4.3l0-0.1c0-0.3,0.1-0.6,0.1-0.9c0-0.5,0-0.9,0-1.4
			c-0.1-1.4-0.5-2.8-1.1-4.2c0-0.1-0.1-0.1-0.2-0.1c0,0,0,0,0,0l0,0c-0.1,0-0.2,0.1-0.2,0.2l0,0c0.1,2.2-0.3,4.6-1.4,6.7
			c-0.3,0.7-0.7,1.4-1.1,2.1c-0.5,0.8-0.9,1.6-1.3,2.4c0,0,0,0.1-0.1,0.1c-0.2,0.5-0.4,1-0.5,1.5c-0.2,1-0.3,1.9-0.1,2.7
			c-1.2-0.9-1.3-2.3-1.5-3.7c-0.1-0.6-0.1-1.2-0.3-1.8c-0.2-1-0.9-2.3-2-2.9l0,0c0,0-0.1,0-0.1,0c-0.1,0-0.1,0-0.2,0.1
			c-0.1,0.1-0.1,0.2,0,0.2c0.6,1.4,0.3,3,0.1,4.7c0,0.2-0.1,0.4-0.1,0.5c-0.2,1.7-0.5,3.7,0.5,5c-1.6-0.8-2.3-2.1-2.9-3.3
			c-0.7-1.4-1.5-2.5-2.4-3.7l-0.1-0.1c-1.2-1.7-3-3-5.3-3.9c0,0-0.1,0-0.1,0c-0.1,0-0.1,0-0.2,0.1l0,0c-0.1,0.1,0,0.2,0,0.3l0,0
			c1.7,1.5,3,3.5,3.7,5.7c0.3,0.7,0.5,1.5,0.6,2.3l0,0c0.1,0.2,0.1,0.5,0.2,0.7c0.2,0.6,0.4,1.3,0.6,1.9c0.6,1.7,1.5,2.9,2.6,3.5
			c-0.2,0-0.3,0-0.4,0c-1.2,0-2.2-0.8-3.2-1.6c-0.5-0.4-0.9-0.8-1.5-1.1c-0.7-0.4-1.6-0.8-2.5-0.8c-0.3,0-0.6,0-0.9,0.1
			c-0.1,0-0.2,0.1-0.2,0.2c0,0.1,0.1,0.2,0.1,0.2c1,0.4,1.7,1.2,2.5,2c0.3,0.3,0.6,0.7,0.8,1.1c0,0,0.1,0.1,0.1,0.1
			c0.1,0.1,0.2,0.3,0.3,0.4c1,1.4,2.3,3,3.9,3.2c-0.6,0.2-1.2,0.3-1.7,0.3c-1,0-1.9-0.3-2.7-0.5c-1.5-0.5-2.8-0.7-4.3-1l-0.1,0
			c-0.5-0.1-1-0.1-1.6-0.1c-1.6,0-3.2,0.4-4.9,1.1c-0.1,0-0.2,0.1-0.1,0.2l0,0c0,0.1,0.1,0.2,0.2,0.2l0,0l0,0c0.3,0,0.5,0,0.8,0
			c2,0,4,0.5,5.9,1.4c0.7,0.3,1.4,0.7,2.1,1.1c0.8,0.5,1.6,0.9,2.4,1.3c1,0.4,1.9,0.7,2.7,0.8c0.2,0,0.3,0,0.4,0c0.2,0,0.4,0,0.6,0
			c0.2,0,0.3-0.1,0.5-0.1c-0.7,0.9-1.6,1.2-2.7,1.4c-0.3,0-0.7,0.1-1,0.1c-0.1,0-0.2,0-0.3,0c-0.5,0.1-1,0.1-1.5,0.2
			c-1,0.2-2.3,0.9-2.9,2l0,0c0,0.1,0,0.2,0,0.2c0,0,0,0,0.1,0c0,0,0.1,0,0.1,0c0,0,0.1,0,0.1,0c0.4-0.2,0.9-0.3,1.4-0.3
			c0.2,0,0.4,0,0.6,0c0.8,0,1.7,0.1,2.6,0.3c0.2,0,0.4,0.1,0.5,0.1c0.8,0.1,1.6,0.2,2.4,0.2c1,0,1.9-0.2,2.6-0.7
			c-0.8,1.6-2.1,2.3-3.3,2.9c-1.4,0.7-2.5,1.5-3.7,2.4l-0.1,0.1c-0.2,0.1-0.3,0.3-0.5,0.4c-0.5,0.4-1,0.9-1.4,1.4
			c-0.8,1-1.5,2.2-2,3.5c0,0.1,0,0.2,0.1,0.2l0,0c0,0,0.1,0,0.1,0c0.1,0,0.1,0,0.1-0.1l0,0c1.5-1.7,3.5-3,5.7-3.7
			c0.7-0.3,1.5-0.5,2.3-0.6c0.9-0.2,1.8-0.5,2.6-0.8c1.7-0.6,2.9-1.5,3.5-2.6c0.2,1.5-0.7,2.5-1.6,3.7c-0.4,0.5-0.8,0.9-1.1,1.5
			c-0.5,0.9-1,2.2-0.7,3.4c0,0.1,0.1,0.2,0.2,0.2h0c0.1,0,0.2-0.1,0.2-0.1c0.5-1.4,1.9-2.4,3.2-3.4c0.1-0.1,0.3-0.2,0.4-0.3
			c0.4-0.3,0.9-0.7,1.3-1.1c0.2-0.2,0.3-0.3,0.5-0.5c0.7-0.7,1.3-1.5,1.4-2.4c0.5,1.7,0.2,3.1-0.3,4.4c-0.5,1.5-0.7,2.8-1,4.3l0,0.1
			c-0.1,0.4-0.1,0.7-0.1,1.1c0,0.3,0,0.6,0,0.9c0.1,1.4,0.4,3,1.1,4.5c0,0.1,0.1,0.1,0.2,0.1c0,0,0,0,0,0l0,0c0.1,0,0.2-0.1,0.2-0.2
			l0,0c-0.1-2.2,0.3-4.6,1.4-6.7c0.3-0.7,0.7-1.4,1.1-2.1c0.5-0.8,0.9-1.6,1.3-2.4c0,0,0-0.1,0-0.1c0.2-0.5,0.4-1,0.5-1.4
			c0.3-1,0.3-1.9,0.1-2.8c1.2,0.9,1.3,2.3,1.5,3.7c0.1,0.6,0.1,1.2,0.3,1.8c0.2,1,0.9,2.3,2,2.9l0,0c0,0,0.1,0,0.1,0
			c0.1,0,0.1,0,0.2-0.1c0.1-0.1,0.1-0.2,0-0.2c-0.6-1.4-0.3-3-0.1-4.7c0-0.2,0.1-0.4,0.1-0.5c0.2-1.7,0.5-3.7-0.5-5
			c1.6,0.8,2.3,2.1,3,3.3c0.7,1.4,1.5,2.5,2.4,3.7l0.1,0.1c1.2,1.7,3,3,5.3,3.9c0,0,0.1,0,0.1,0c0.1,0,0.1,0,0.2-0.1l0,0
			c0.1-0.1,0-0.2,0-0.3l0,0c-1.7-1.5-3-3.5-3.7-5.7c-0.3-0.7-0.5-1.5-0.6-2.3l0,0c-0.1-0.2-0.1-0.5-0.2-0.7
			c-0.2-0.6-0.4-1.3-0.6-1.9c-0.6-1.7-1.5-2.9-2.6-3.5c0.1,0,0.3,0,0.4,0c1.2,0,2.2,0.8,3.2,1.6c0.5,0.4,0.9,0.8,1.5,1.1
			c0.7,0.4,1.6,0.8,2.5,0.8h0c0.3,0,0.6,0,0.9-0.1c0.1,0,0.2-0.1,0.2-0.2c0-0.1-0.1-0.2-0.1-0.2c-1-0.4-1.7-1.2-2.5-2
			c-0.3-0.3-0.6-0.7-0.8-1.1c0,0-0.1-0.1-0.1-0.1c-0.1-0.1-0.2-0.3-0.3-0.4c-1-1.4-2.3-3-3.9-3.2c0.6-0.2,1.2-0.3,1.7-0.3
			c1,0,1.9,0.3,2.7,0.5c1.5,0.5,2.8,0.7,4.3,1l0.1,0c0.5,0.1,1,0.1,1.6,0.1h0c1.6,0,3.2-0.4,4.9-1.1
			C655.1,121.7,655.1,121.6,655.1,121.5L655.1,121.5L655.1,121.5z M635.9,128c-2,1.9-4.7,3-7.5,2.9c-2.8-0.1-5.4-1.2-7.4-3.2
			c-1.9-2-3-4.7-2.9-7.5c0-2,0.6-3.9,1.7-5.6c0.1-0.2,0.2-0.3,0.3-0.5c0,0,0.1-0.1,0.1-0.1c0.3-0.4,0.7-0.8,1-1.2
			c2-1.9,4.7-3,7.5-2.9c2.8,0.1,5.4,1.2,7.4,3.2c1.9,2,3,4.7,2.9,7.5C639,123.4,637.9,126.1,635.9,128L635.9,128z"/>
		<path class="st0" d="M626.9,121.8c0,0,0.1,0,0.1,0.1c0.4,0.1,0.7,0.2,0.9,0.2c0.1,0,0.2,0,0.3,0c0.1,0,0.1,0,0.1,0
			c0,0,0,0.1-0.1,0.1c0,0,0,0-0.1,0.1c0,0,0,0,0.1,0c0.1,0,0.3,0,0.4,0c0.3,0,0.6,0,0.8,0c0.3,0,0.5,0,0.8,0c0.5,0,1,0,1.5-0.1
			c0.2,0,0.5-0.1,0.7-0.2c0.2-0.1,0.4-0.2,0.6-0.3c0.4-0.2,0.7-0.4,1-0.7c0,0,0.1-0.1,0.1-0.1c-0.2,0.1-0.6,0.3-1.1,0.4
			c-0.4,0.1-1,0.3-1.6,0.4c-0.6,0.1-1.3,0.2-2,0.2c-0.7,0-1.4,0-2,0C627.4,121.9,627.1,121.8,626.9,121.8L626.9,121.8z"/>
		<path class="st0" d="M630.9,123.2C630.9,123.2,630.9,123.2,630.9,123.2c0,0-0.1,0-0.2,0l0,0c-0.1,0-0.2,0-0.2,0.1
			c0.1,0,0.1,0,0.1,0C630.7,123.3,630.8,123.2,630.9,123.2z"/>
		<path class="st0" d="M624.7,119.4c-0.2,0-0.4-0.1-0.6-0.1c0.2,0.1,0.3,0.1,0.5,0.2c0.1,0,0.2,0.1,0.3,0.1c0.1,0,0.1,0,0.2,0
			c0.2,0,0.5,0,0.7,0l0.3,0c0.1,0,0.2,0,0.3,0c0,0,0.1,0,0.1,0l0,0c-0.4,0-0.8,0-1.2-0.1C625,119.5,624.8,119.5,624.7,119.4
			C624.8,119.5,624.8,119.4,624.7,119.4C624.8,119.4,624.8,119.4,624.7,119.4L624.7,119.4z"/>
		<path class="st0" d="M628.7,115.2c-0.1,0-0.1,0-0.2-0.1c-0.1,0-0.1,0.1-0.2,0.1c0.2,0.1,0.4,0.3,0.5,0.4c0.1,0,0.2-0.1,0.3-0.1
			L628.7,115.2L628.7,115.2z"/>
		<path class="st0" d="M629.7,120c0.1,0,0.2-0.1,0.3-0.1c0,0,0.1,0,0.1,0c0,0,0,0-0.1,0c-0.2,0-0.4,0-0.6,0.1l0,0c0,0,0,0,0,0
			C629.5,119.9,629.6,120,629.7,120C629.6,120,629.6,120,629.7,120L629.7,120z"/>
		<path class="st0" d="M625.3,122.9c0.2,0.1,0.5,0.1,0.7,0.2l0,0c-0.2,0-0.3-0.1-0.5-0.1C625.5,123,625.4,123,625.3,122.9
			c0,0-0.1-0.1-0.2-0.1c0,0,0,0,0,0C625.1,122.9,625.2,122.9,625.3,122.9L625.3,122.9z"/>
		<path class="st0" d="M625,122.8C625,122.8,625,122.8,625,122.8C625,122.8,625,122.8,625,122.8L625,122.8z"/>
		<path class="st0" d="M626.5,121C626.6,121,626.6,121,626.5,121c-0.1,0-0.2-0.1-0.4-0.2c-0.1,0-0.3,0-0.4,0c-0.1,0-0.2,0-0.3,0
			c0,0,0.1,0.1,0.1,0.1C625.9,121,626.2,121,626.5,121z"/>
		<path class="st0" d="M629.6,123.4c0.1,0,0.1,0,0.2,0l0.1,0c0,0,0,0,0,0c0.2,0,0.4-0.1,0.6-0.1c-0.2,0-0.4,0-0.6,0c0,0-0.1,0-0.1,0
			c-0.1,0-0.3,0-0.5,0.1c0,0,0.1,0,0.1,0C629.4,123.3,629.5,123.4,629.6,123.4L629.6,123.4z"/>
		<path class="st0" d="M626.4,118.2L626.4,118.2c0,0.1,0.1,0.1,0.1,0.2c0,0,0.1,0,0.1,0C626.6,118.3,626.5,118.2,626.4,118.2z"/>
		<path class="st0" d="M626.5,115.9c-0.1,0-0.1,0.1-0.2,0.1c-0.1,0-0.1,0.1-0.2,0.1c0.3,0.1,0.5,0.1,0.8,0.2l0,0
			c0.1,0,0.1,0,0.2-0.1c0,0,0.1,0,0.1,0c-0.2-0.1-0.5-0.1-0.7-0.2C626.6,115.9,626.5,115.9,626.5,115.9L626.5,115.9z"/>
		<path class="st0" d="M626.7,112.4c0,0-0.1,0-0.1,0.1c0,0-0.1,0-0.1,0.1c0,0-0.1,0-0.2,0.1c-0.1,0-0.2,0.1-0.3,0.1c0,0-0.1,0-0.1,0
			c0,0,0.1,0,0.1,0c0.4-0.1,0.7-0.2,1-0.2c0,0,0,0,0.1,0c0,0-0.1,0-0.1,0C626.9,112.4,626.8,112.4,626.7,112.4L626.7,112.4z"/>
		<path class="st0" d="M631.1,116.1c0.1,0,0.2,0,0.3,0c0.1,0,0.1,0,0.2,0c-0.3-0.1-0.7-0.2-1-0.3c0,0-0.1,0-0.1,0l0,0
			c0.1,0.1,0.2,0.1,0.3,0.2c0.1,0,0.1,0.1,0.2,0.1C631,116.1,631,116.1,631.1,116.1L631.1,116.1z"/>
		<path class="st0" d="M625.7,117.5c-0.1,0-0.1,0-0.2,0.1c0.1,0.1,0.2,0.1,0.3,0.2c0,0,0.1,0,0.1-0.1
			C625.8,117.7,625.8,117.6,625.7,117.5z"/>
		<path class="st0" d="M625.1,122.8L625.1,122.8C625.1,122.8,625.1,122.8,625.1,122.8C625.1,122.8,625.1,122.8,625.1,122.8z"/>
		<path class="st0" d="M633,114.4c-0.2-0.1-0.4-0.2-0.5-0.2c-0.1,0-0.1-0.1-0.2-0.1c0,0,0,0-0.1,0c-0.1,0-0.1,0-0.2,0l-0.1,0h0
			c0.2,0.1,0.3,0.2,0.5,0.2c0.1,0,0.1,0.1,0.2,0.1c0,0,0,0,0,0c0.4,0.1,1,0.3,1.7,0.6c0,0,0.1,0,0.1,0.1c-0.3-0.2-0.5-0.3-0.9-0.5
			C633.3,114.5,633.2,114.5,633,114.4L633,114.4z"/>
		<path class="st0" d="M627.8,120.1c-0.3,0-0.6,0.1-0.9,0.1C627.2,120.2,627.5,120.2,627.8,120.1c0.1,0.1,0.2,0.1,0.2,0.1
			C628,120.1,627.9,120.1,627.8,120.1L627.8,120.1L627.8,120.1z"/>
		<path class="st0" d="M629,123.3L629,123.3c0.3,0,0.5,0,0.6-0.1c-0.4,0-0.8,0-1.2,0c0.1,0,0.1,0,0.2,0c0.1,0,0.1,0,0.2,0
			C628.9,123.3,628.9,123.3,629,123.3z"/>
		<path class="st0" d="M632,123.4C632,123.4,631.9,123.4,632,123.4C631.9,123.4,631.9,123.4,632,123.4L632,123.4L632,123.4z"/>
		<path class="st0" d="M632.6,123.1c0.3-0.1,0.6-0.3,0.9-0.4c0,0,0,0,0,0l-0.1,0c0,0-0.1,0-0.1,0.1c0,0,0,0-0.1,0l-0.1,0l-0.3,0.1
			c-0.3,0.1-0.7,0.2-1.1,0.3c0,0,0,0,0,0c0.2,0,0.4-0.1,0.7-0.2C632.5,123.2,632.6,123.2,632.6,123.1L632.6,123.1z"/>
		<path class="st0" d="M631.1,123.5L631.1,123.5c0.1,0,0.1,0,0.1,0l0.1,0l0.2,0c0.1,0,0.2,0,0.3,0c0,0,0,0,0,0c0,0-0.1,0-0.1,0
			C631.5,123.4,631.3,123.4,631.1,123.5L631.1,123.5L631.1,123.5z"/>
		<path class="st0" d="M631.4,123.2c-0.1,0-0.1,0-0.2,0c0,0,0,0,0,0C631.3,123.2,631.3,123.2,631.4,123.2
			C631.3,123.2,631.4,123.2,631.4,123.2L631.4,123.2z"/>
		<path class="st0" d="M631.2,123.4c0.2,0,0.3,0,0.5-0.1c0.5-0.1,0.9-0.2,1.3-0.4c0.1,0,0.2-0.1,0.3-0.1l0.1,0c0,0,0,0,0.1,0l0,0
			c0,0-0.1,0-0.1,0c0,0,0,0-0.1,0c-0.3,0.1-0.7,0.2-1.1,0.3c-0.2,0.1-0.5,0.1-0.7,0.2l0,0c0,0,0,0,0,0
			C631.3,123.3,631.2,123.3,631.2,123.4C631.2,123.3,631.2,123.3,631.2,123.4L631.2,123.4z"/>
		<path class="st0" d="M620.9,121.3c-0.1,0-0.1-0.1-0.1-0.1c0.2,0.2,0.4,0.4,0.6,0.6c0.3,0.2,0.5,0.4,0.7,0.5c0.1,0,0.1,0,0.2,0.1
			c-0.1-0.1-0.2-0.1-0.3-0.2C621.6,121.8,621.2,121.5,620.9,121.3L620.9,121.3z"/>
		<path class="st0" d="M624.6,122.8c0,0,0.1,0,0.1,0c0,0,0.1,0,0.1,0c0,0,0,0,0.1,0c0,0,0,0,0,0
			C624.8,122.8,624.7,122.8,624.6,122.8L624.6,122.8z"/>
		<path class="st0" d="M624.3,122.6c-0.1,0-0.3-0.1-0.4-0.1c-0.3-0.1-0.5-0.2-0.7-0.3c0.3,0.2,0.6,0.3,0.9,0.4
			C624.1,122.6,624.1,122.6,624.3,122.6c0.1,0.1,0.2,0.2,0.4,0.2c-0.1,0-0.1-0.1-0.2-0.1C624.4,122.6,624.4,122.6,624.3,122.6
			L624.3,122.6z"/>
		<path class="st0" d="M624.8,122.7C624.7,122.7,624.7,122.7,624.8,122.7c-0.1,0-0.2-0.1-0.2-0.1
			C624.6,122.7,624.7,122.7,624.8,122.7C624.8,122.8,624.8,122.8,624.8,122.7c0.1,0.1,0.1,0.1,0.2,0.1
			C624.9,122.8,624.8,122.7,624.8,122.7L624.8,122.7z"/>
		<path class="st0" d="M624.4,122.8C624.4,122.8,624.4,122.8,624.4,122.8L624.4,122.8c0,0-0.1-0.1-0.2-0.1c0,0-0.1,0-0.1,0
			c0,0,0.1,0.1,0.1,0.1C624.3,122.8,624.3,122.8,624.4,122.8L624.4,122.8z"/>
		<path class="st0" d="M622.8,122.3C622.8,122.3,622.8,122.3,622.8,122.3c-0.1,0-0.1,0-0.1,0c0.2,0.1,0.4,0.2,0.6,0.3
			c0.3,0.1,0.6,0.2,0.8,0.2c0,0-0.1-0.1-0.1-0.1c0,0,0,0,0,0c-0.3-0.1-0.7-0.3-1.1-0.5c-0.3-0.2-0.5-0.3-0.7-0.5
			c0,0-0.1-0.1-0.1-0.1c-0.1-0.1-0.3-0.2-0.4-0.2c-0.1-0.1-0.2-0.2-0.4-0.2c-0.2-0.2-0.4-0.3-0.7-0.5c-0.3-0.2-0.5-0.4-0.7-0.6l0,0
			c0.1,0.1,0.1,0.2,0.2,0.3c0,0,0,0,0,0c0,0,0,0,0,0c0,0,0.1,0.1,0.1,0.1c0.2,0.2,0.4,0.4,0.7,0.7c0.3,0.3,0.7,0.5,1.1,0.8
			c0.2,0.1,0.4,0.2,0.5,0.3C622.6,122.3,622.7,122.3,622.8,122.3C622.7,122.3,622.8,122.3,622.8,122.3
			C622.8,122.3,622.9,122.3,622.8,122.3c0.1,0,0.1,0,0.1,0C622.9,122.2,622.9,122.3,622.8,122.3
			C622.9,122.3,622.8,122.3,622.8,122.3L622.8,122.3z"/>
		<path class="st0" d="M628.5,123.3c-0.1,0-0.1,0-0.2-0.1c0,0-0.1,0-0.1,0c0,0,0,0,0,0c0,0-0.1,0-0.1,0c-0.8,0-1.5-0.1-2.3-0.2
			c-0.2,0-0.5-0.1-0.7-0.1h0c0,0,0,0,0,0l0.1,0c0.1,0,0.1,0,0.2,0.1c0.1,0,0.3,0.1,0.5,0.1c0.3,0.1,0.7,0.2,1.1,0.2
			c0.1,0,0.1,0,0.2,0c0.1,0,0.3,0,0.4,0c0,0,0,0-0.1,0c-0.1,0-0.2,0-0.3,0l-0.1,0l-0.1,0l-0.1,0c-0.1,0-0.3,0-0.4-0.1
			c-0.1,0-0.2,0-0.2-0.1c-0.1,0-0.1,0-0.1,0c0,0,0,0,0.1,0c0.1,0,0.1,0,0.2,0c0.1,0,0.2,0,0.4,0.1l0.1,0l0.1,0l0.1,0l0.3,0
			c0.2,0,0.4,0,0.6,0.1c0.1,0,0.2,0,0.3,0L628.5,123.3L628.5,123.3z"/>
		<path class="st0" d="M628.3,123.4c0.1,0,0.2,0,0.3,0C628.5,123.4,628.4,123.4,628.3,123.4C628.3,123.4,628.3,123.4,628.3,123.4
			C628.3,123.4,628.3,123.4,628.3,123.4L628.3,123.4z"/>
		<path class="st0" d="M624.6,123c0.1,0.1,0.3,0.1,0.5,0.1c0.4,0.1,0.8,0.2,1.3,0.3c0.1,0,0.3,0,0.5,0.1c0.3,0,0.6,0,0.8,0
			c0.1,0,0.3,0,0.4,0c-0.2,0-0.4,0-0.6-0.1c-0.2,0-0.5,0-0.8-0.1c-0.5-0.1-0.9-0.2-1.3-0.3c-0.1,0-0.2-0.1-0.3-0.1c0,0-0.1,0-0.1,0
			l0.1,0c0.1,0,0.3,0.1,0.4,0.1c0.1,0,0.1,0,0.2,0l0.1,0c0.2,0,0.2,0.1,0.2,0.1c0,0-0.1,0-0.2,0l-0.1,0c0,0-0.1,0-0.2,0
			c-0.1,0-0.2-0.1-0.4-0.1l-0.2-0.1C624.7,122.9,624.7,122.9,624.6,123c0-0.1-0.1-0.1-0.2-0.1c0,0,0,0-0.1,0c0,0,0,0,0.1,0
			C624.4,122.9,624.5,123,624.6,123L624.6,123z"/>
		<path class="st0" d="M635.9,120.1c-0.1,0-0.1,0.1-0.2,0.1c-0.1,0-0.2,0.1-0.3,0.1c-0.1,0.1-0.1,0.2-0.2,0.3
			c-0.2,0.3-0.5,0.6-0.8,0.9c-0.3,0.3-0.7,0.6-1.1,0.8c-0.2,0.1-0.4,0.2-0.7,0.3c-0.2,0.1-0.5,0.2-0.7,0.2c-0.5,0.1-1,0.2-1.6,0.2
			c-0.3,0-0.6,0-0.8,0c-0.2,0-0.4,0-0.6,0c0,0,0,0-0.1,0c-0.1,0-0.1,0-0.2,0c-0.2,0-0.5,0-0.9,0c-0.1,0-0.2,0-0.3,0c0,0-0.1,0-0.1,0
			l-0.2,0c-0.1,0-0.2,0-0.2,0c-0.1,0-0.2,0-0.2,0l-0.2,0c-0.2,0-0.3,0-0.5-0.1c0,0-0.1,0-0.1,0c0,0,0,0,0,0c0.8,0.1,1.7,0.2,2.6,0.3
			c0.8,0,1.6,0.1,2.3,0c0.4,0,0.7,0,1-0.1c0.1,0,0.1,0,0.2,0c0.1,0,0.1,0,0.1,0c0,0,0,0-0.1,0c0,0,0,0,0,0c0.3,0,0.6-0.1,0.9-0.2
			c0.1,0,0.2-0.1,0.3-0.1c0,0,0,0,0,0c0,0,0.1-0.1,0.2-0.1c0.2-0.1,0.4-0.2,0.7-0.3c0.3-0.1,0.6-0.3,0.9-0.6c0.3-0.2,0.7-0.5,1-0.9
			c0.2-0.2,0.3-0.3,0.5-0.5c-0.1,0-0.1,0-0.2,0c0,0,0-0.1,0-0.2C636,120,635.9,120.1,635.9,120.1L635.9,120.1z"/>
		<path class="st0" d="M619.5,119.5c0.1,0.1,0.1,0.1,0.2,0.2c0,0,0-0.1-0.1-0.1C619.6,119.5,619.5,119.5,619.5,119.5
			c0-0.1,0-0.1-0.1-0.2c0,0,0,0,0,0C619.5,119.4,619.5,119.5,619.5,119.5z"/>
		<path class="st0" d="M619.8,120.2c0,0.1,0.1,0.1,0.1,0.2c0,0,0,0.1,0.1,0.1c0,0,0,0.1,0.1,0.1c0,0.1,0.1,0.1,0.1,0.2
			c0-0.1-0.1-0.1-0.1-0.2C619.9,120.4,619.8,120.3,619.8,120.2C619.8,120.2,619.8,120.2,619.8,120.2L619.8,120.2z"/>
		<path class="st0" d="M619.7,119.9L619.7,119.9L619.7,119.9L619.7,119.9C619.7,119.9,619.7,119.9,619.7,119.9L619.7,119.9
			L619.7,119.9C619.7,119.8,619.7,119.9,619.7,119.9z"/>
		<path class="st0" d="M619.8,120C619.8,119.9,619.8,119.9,619.8,120L619.8,120l0.1,0.1C619.9,120,619.8,120,619.8,120L619.8,120z"
			/>
		<path class="st0" d="M620.6,118.7c0.1,0.3,0.2,0.5,0.4,0.7c0.1,0.1,0.1,0.1,0.2,0.2c0.1,0,0.1,0,0.2,0.1c0.1,0,0.2,0.1,0.2,0.1
			c-0.2-0.2-0.3-0.3-0.5-0.5c-0.1-0.1-0.2-0.2-0.2-0.3c0,0-0.1-0.1-0.1-0.1c-0.1-0.1-0.2-0.2-0.2-0.4l0,0.1
			C620.6,118.7,620.6,118.7,620.6,118.7z"/>
		<path class="st0" d="M619.8,118.8c0,0,0.1,0.1,0.1,0.1l0,0C619.9,118.9,619.9,118.8,619.8,118.8l0-0.2c0-0.1,0-0.2,0-0.3
			c0,0,0-0.1,0-0.1l0,0c0,0.1-0.1,0.2-0.1,0.2c0,0,0,0.1,0,0.1c0,0,0,0.1,0,0.1C619.8,118.7,619.8,118.7,619.8,118.8L619.8,118.8z"
			/>
		<path class="st0" d="M620.8,120.6c0.1,0.1,0.3,0.2,0.4,0.3c0,0-0.1-0.1-0.1-0.1C621,120.7,620.9,120.6,620.8,120.6
			c0-0.1,0-0.2-0.1-0.2c0,0-0.1-0.1-0.1-0.1c0,0,0,0,0,0c-0.2-0.1-0.4-0.3-0.6-0.4l-0.1-0.1c0,0-0.1-0.1-0.1-0.1c0,0,0,0,0,0
			c0,0,0,0.1,0.1,0.1C620.1,120,620.4,120.3,620.8,120.6L620.8,120.6z"/>
		<path class="st0" d="M619,120.3C619,120.3,619,120.2,619,120.3L619,120.3c0,0.1,0,0.2,0,0.3c0.1,0,0.2,0.1,0.3,0.2
			C619.2,120.6,619.1,120.4,619,120.3L619,120.3z"/>
		<path class="st0" d="M621,117.6C620.9,117.6,620.9,117.6,621,117.6C620.9,117.6,620.9,117.6,621,117.6L621,117.6L621,117.6z"/>
		<path class="st0" d="M619.8,120.5c0.2,0.3,0.4,0.6,0.5,0.8c0.1,0.1,0.3,0.2,0.5,0.3c0.2,0.1,0.4,0.2,0.7,0.4
			c-0.2-0.2-0.3-0.3-0.3-0.3c0,0,0.3,0.2,0.5,0.4c0.1,0.1,0.2,0.1,0.3,0.2c0.4,0.2,0.9,0.4,1.3,0.5c0,0,0,0,0,0c0,0,0.1,0,0.3,0.1
			c0,0,0,0,0,0c0.1,0,0.2,0.1,0.3,0.1c0.2,0.1,0.3,0.1,0.4,0.1l0,0c0.6,0.2,1.1,0.2,1.1,0.2c0,0-0.1,0-0.3,0c-0.1,0-0.1,0-0.2,0
			c0,0,0.1,0,0.1,0l0.1,0c0,0,0.1,0,0.1,0c0.1,0,0.2,0,0.3,0c0.1,0,0.3,0,0.4,0c-0.3-0.1-0.7-0.1-0.9-0.2c-0.2,0-0.3-0.1-0.5-0.2
			c-0.1,0-0.1-0.1-0.2-0.1c0,0-0.1-0.1-0.1-0.1c-0.1,0-0.2,0-0.4-0.1c-0.1,0-0.2-0.1-0.3-0.1c-0.1,0-0.2-0.1-0.3-0.1
			c-0.3-0.1-0.5-0.2-0.8-0.3c-0.1,0-0.2,0-0.4-0.1c-0.2-0.1-0.5-0.2-0.8-0.4c-0.3-0.2-0.5-0.4-0.8-0.7c-0.2-0.2-0.3-0.4-0.4-0.6l0,0
			c0-0.1-0.1-0.1-0.1-0.2c0,0-0.1,0-0.1-0.1c0,0-0.1-0.1-0.1-0.1c0.1,0.1,0.2,0.2,0.3,0.4c0.2,0.3,0.3,0.5,0.5,0.7
			c0.1,0.2,0.2,0.3,0.2,0.3c0,0-0.1-0.1-0.2-0.3c-0.1-0.1-0.2-0.2-0.3-0.4c0,0-0.1-0.1-0.3-0.3c0,0,0,0-0.1-0.1c0,0,0-0.1-0.1-0.1
			c0-0.1-0.1-0.1-0.1-0.2c-0.1-0.1-0.2-0.3-0.2-0.5c0,0,0-0.1,0-0.1c0-0.1-0.1-0.1-0.1-0.1c-0.1-0.1-0.1-0.1-0.2-0.2
			c-0.1-0.1-0.1-0.1-0.1-0.2c0,0.1,0,0.2,0,0.2c0,0.1,0.1,0.1,0.1,0.2C619.3,119.8,619.5,120.2,619.8,120.5L619.8,120.5z"/>
		<path class="st0" d="M619.4,120.8c0.1,0,0.2,0.1,0.3,0.2l0.1,0.1c0,0,0.1,0,0.1,0.1c0.1,0,0.1,0.1,0.2,0.1
			c-0.1-0.2-0.3-0.4-0.5-0.7c-0.2-0.4-0.4-0.7-0.6-0.9c0-0.1-0.1-0.1-0.1-0.2c0,0.2,0,0.5,0,0.7l0.1,0.1
			C619.2,120.4,619.3,120.6,619.4,120.8L619.4,120.8z"/>
		<path class="st0" d="M619.4,119.4c0-0.1,0-0.1,0-0.2c0,0,0,0,0,0c-0.1-0.1-0.1-0.2-0.2-0.3c0,0.1,0,0.1,0,0.2
			C619.1,119.1,619.2,119.2,619.4,119.4C619.3,119.3,619.3,119.3,619.4,119.4L619.4,119.4z"/>
		<path class="st0" d="M621.2,117.2C621.2,117.2,621.2,117.2,621.2,117.2c0.1,0.1,0.2,0.1,0.2,0.2c0,0,0,0,0,0c0,0,0,0,0,0
			c0,0,0-0.1,0-0.1c0,0,0,0,0,0c0,0,0,0,0,0.1c0,0,0,0,0,0c0.1,0,0.2,0.1,0.4,0.1c-0.1-0.1-0.1-0.1-0.2-0.2c0,0,0,0,0,0
			c0,0,0,0-0.1,0c0,0-0.1-0.1-0.1-0.1c0,0-0.1-0.1-0.1-0.1c0,0-0.1,0-0.1,0C621.3,117.1,621.2,117.1,621.2,117.2L621.2,117.2
			C621.1,117.1,621.1,117.1,621.2,117.2L621.2,117.2L621.2,117.2z"/>
		<path class="st0" d="M635,114.6c-0.2-0.2-0.4-0.4-0.6-0.6c-0.1-0.1-0.2-0.2-0.3-0.3c-0.1-0.1-0.2-0.2-0.4-0.2
			c-0.1-0.1-0.3-0.2-0.4-0.2c-0.1,0-0.1-0.1-0.2-0.1c-0.1,0-0.1-0.1-0.2-0.1c-0.1-0.1-0.3-0.1-0.5-0.2c-0.1,0-0.2-0.1-0.2-0.1
			l-0.2-0.1c-0.6-0.3-1.3-0.5-2.1-0.7c-0.1,0-0.2,0-0.3-0.1c-0.1,0-0.2,0-0.3-0.1c-0.1,0-0.2,0-0.3,0c-0.1,0-0.2,0-0.3,0
			c-0.4,0-0.8-0.1-1.2-0.1c-0.2,0-0.4,0-0.7,0c0.1,0,0.1,0,0.2,0c0.1,0,0.3,0,0.5,0.1c0.3,0,0.7,0.1,1,0.2c1.1,0.2,2,0.5,2.4,0.8
			l0.1,0.1c0.7,0.2,1.2,0.4,1.7,0.6c0.1,0,0.2,0.1,0.3,0.1c0.4,0.1,0.7,0.3,0.9,0.4c0,0,0.1,0,0.1,0.1l0,0l0,0
			c0.1,0,0.1,0.1,0.1,0.1c0.1,0.1,0.1,0.1,0.1,0.1c0,0-0.1,0-0.1,0c0.2,0.2,0.3,0.3,0.3,0.3c0,0,0,0-0.1,0c0,0,0,0,0.1,0
			c0.3,0.2,0.5,0.4,0.7,0.5c0.2,0.2,0.3,0.3,0.4,0.5c0.1,0,0.1,0.1,0.1,0.1c0.4,0.3,0.6,0.5,0.5,0.6c0,0-0.1,0-0.2,0
			c0.1,0.1,0.1,0.1,0.2,0.2c0.1,0.1,0.2,0.2,0.3,0.4c0,0.1,0.1,0.1,0.1,0.2c0,0.1,0.1,0.1,0.1,0.2c0,0.1,0.1,0.1,0.1,0.2
			c0,0,0,0.1,0,0.1c0-0.1,0-0.3,0-0.4c0,0,0,0,0-0.1l0-0.1c0,0,0-0.1-0.1-0.1c0-0.1-0.1-0.2-0.2-0.3c-0.1-0.1-0.1-0.2-0.2-0.3
			c0-0.1-0.1-0.1-0.1-0.2c-0.1-0.1-0.3-0.3-0.4-0.5c-0.1-0.2-0.3-0.3-0.5-0.5C635.4,115,635.2,114.8,635,114.6L635,114.6z"/>
		<path class="st0" d="M638,119.2C638,119.2,638,119.2,638,119.2C638,119.1,638,119.1,638,119.2c0.1-0.1,0,0,0,0.3l0,0.1
			c0,0,0,0.1,0,0.1c0,0.1-0.1,0.1-0.1,0.2c-0.1,0.1-0.1,0.3-0.2,0.4c-0.1,0.1-0.1,0.1-0.2,0.2c0,0,0,0,0,0c0,0.1-0.1,0.1-0.1,0.2
			c0,0.1-0.1,0.1-0.2,0.2c0,0.1,0,0.1,0,0.2c0,0.1-0.1,0.2-0.2,0.3c0,0.1-0.1,0.1-0.2,0.2c0,0-0.1,0.1-0.1,0.1c0,0-0.1,0.1-0.2,0.2
			c-0.1,0.1-0.3,0.3-0.5,0.5c-0.2,0.2-0.4,0.3-0.6,0.4c-0.2,0.1-0.3,0.1-0.3,0.1c0,0,0.4-0.3,0.8-0.6c0.2-0.1,0.3-0.3,0.4-0.4
			c-0.1,0.1-0.1,0.1-0.2,0.2c-0.1,0.1-0.2,0.1-0.3,0.2c0,0-0.1,0.1-0.1,0.1c0,0-0.1,0.1-0.1,0.1c-0.4,0.3-0.8,0.5-1.3,0.7
			c-0.5,0.2-1,0.4-1.4,0.5c-0.2,0.1-0.4,0.1-0.6,0.2c-0.1,0-0.2,0-0.3,0.1c0,0-0.1,0-0.1,0l-0.1,0c-0.1,0-0.2,0-0.2,0
			c-0.1,0-0.2,0-0.2,0c-0.1,0-0.1,0-0.2,0c-0.1,0-0.1,0-0.2,0c-0.2,0-0.3,0-0.3-0.1c0-0.1,0.4-0.3,1-0.5l0.1,0c0,0,0.1,0,0.1,0
			c0,0,0.1,0,0.1,0c0,0,0,0,0,0c-0.1,0-0.2,0-0.4,0.1l-0.2,0l-0.1,0c0,0,0,0-0.1,0l-0.1,0c0,0,0,0,0,0c-0.1,0.1-0.2,0.1-0.3,0.2
			c-0.1,0-0.1,0.1-0.2,0.1c-0.1,0-0.2,0-0.2,0.1c-0.2,0.1-0.4,0.1-0.6,0.1c-0.1,0-0.2,0-0.3,0.1c-0.1,0-0.1,0-0.2,0
			c-0.1,0-0.1,0-0.2,0c-0.5,0.1-1,0.1-1.5,0.1c-0.5,0-1,0-1.5-0.1c-0.2,0-0.4-0.1-0.6-0.1c-0.1,0-0.2,0-0.3-0.1c0,0-0.1,0-0.1,0
			c0,0-0.1,0-0.1,0c-0.1,0-0.2-0.1-0.2-0.1c-0.1,0-0.1-0.1-0.2-0.1c0,0-0.1,0-0.1,0c0,0,0,0-0.1,0c-0.1,0-0.2,0-0.4-0.1
			c0,0,0,0,0.1,0c0.2,0.1,0.4,0.1,0.6,0.2c0.2,0.1,0.4,0.1,0.5,0.1c0.3,0.1,0.5,0.1,0.5,0.1c0,0,0,0-0.1,0c0,0-0.1,0-0.2,0
			c-0.1,0-0.1,0-0.2,0c-0.1,0-0.3-0.1-0.5-0.1c-0.2-0.1-0.4-0.1-0.6-0.2c-0.2-0.1-0.3-0.1-0.5-0.2c0,0,0,0-0.1,0c-0.1,0-0.1,0-0.2,0
			c-0.1,0-0.1,0-0.2,0c-0.4-0.1-0.9-0.3-1.4-0.5c-0.3-0.1-0.5-0.3-0.8-0.4c0,0,0.1,0.1,0.1,0.1c0.1,0.1,0.1,0.1,0.2,0.2
			c0.2,0.1,0.3,0.2,0.5,0.4c0.2,0.1,0.4,0.2,0.6,0.3c0.1,0,0.2,0.1,0.2,0.1c0.1,0,0.2,0.1,0.2,0.1c0.3,0.1,0.4,0.2,0.4,0.2
			c0,0,0,0-0.1,0c0,0-0.1,0-0.1-0.1c-0.1,0-0.1,0-0.2-0.1c-0.1,0-0.1-0.1-0.2-0.1c-0.1,0-0.2-0.1-0.3-0.1c-0.2-0.1-0.4-0.2-0.6-0.3
			c-0.2-0.1-0.4-0.3-0.5-0.4c-0.1-0.1-0.2-0.1-0.2-0.2c-0.1-0.1-0.1-0.1-0.2-0.2c0,0-0.1-0.1-0.1-0.1c-0.1-0.1-0.2-0.1-0.3-0.2
			c0.1,0.1,0.1,0.2,0.2,0.2c0.1,0.1,0.2,0.2,0.3,0.3c0.1,0.1,0.1,0.1,0.1,0.1c0,0-0.1,0-0.1-0.1c-0.1,0-0.2-0.1-0.3-0.3
			c-0.1-0.1-0.2-0.2-0.3-0.4c-0.1-0.1-0.3-0.2-0.4-0.3c0,0-0.1-0.1-0.1-0.1c0.1,0.1,0.1,0.2,0.2,0.2c0.2,0.2,0.4,0.4,0.5,0.6
			c0.1,0.1,0.2,0.2,0.3,0.3c0,0,0.1,0.1,0.1,0.1c0,0,0.1,0.1,0.1,0.1c0.1,0.1,0.1,0.1,0.2,0.2c0.1,0.1,0.1,0.1,0.1,0.1
			c0.1,0.1,0.1,0.1,0.1,0.1c0,0-0.1,0-0.1-0.1c0,0-0.1-0.1-0.2-0.1c-0.1-0.1-0.1-0.1-0.2-0.2l-0.1-0.1c0,0-0.1-0.1-0.1-0.1
			c-0.1-0.1-0.2-0.2-0.3-0.3c-0.2-0.2-0.4-0.4-0.6-0.6c-0.1-0.2-0.3-0.3-0.4-0.5l-0.1-0.1c-0.1-0.1-0.1-0.1-0.2-0.2
			c-0.1-0.1-0.1-0.1-0.2-0.2c0,0,0,0-0.1-0.1c0.1,1.5,0.5,2.8,1.2,4c0.1,0.1,0.3,0.3,0.5,0.4c0.4,0.3,0.8,0.5,0.8,0.5
			c0,0-0.1,0-0.3-0.1c-0.1,0-0.2-0.1-0.3-0.2c-0.1-0.1-0.2-0.1-0.3-0.2c-0.1-0.1-0.2-0.2-0.3-0.3c0,0,0,0,0,0
			c0.2,0.3,0.4,0.6,0.6,0.9c0,0,0.1,0,0.1,0.1c0.3,0.3,0.7,0.4,0.6,0.5c0,0-0.3-0.1-0.6-0.3c0.5,0.6,1,1.1,1.6,1.6
			c0.4,0.2,0.9,0.5,1.5,0.7c0.3,0.1,0.6,0.3,0.9,0.4c0.1,0,0.3,0.1,0.4,0.1c0.1,0,0.1,0,0.2,0.1c0.1,0,0.1,0,0.2,0
			c0.1,0,0.2,0,0.3,0.1c0,0,0.1,0,0.1,0l0.1,0c0.1,0,0.2,0,0.2,0c0,0-0.1,0-0.2,0l-0.1,0c0,0-0.1,0-0.1,0c-0.1,0-0.2,0-0.3-0.1
			l-0.2,0c-0.1,0-0.1,0-0.2,0c-0.1,0-0.3-0.1-0.4-0.1c-0.3-0.1-0.6-0.2-1-0.4c-0.4-0.2-0.8-0.4-1.2-0.6c0.9,0.6,1.8,1.1,2.9,1.4
			c0.1,0,0.5,0.1,1,0.2c0.6,0.1,1.1,0.1,1.1,0.1c0,0-0.1,0-0.3,0c0,0-0.1,0-0.1,0c0.3,0,0.6,0.1,1,0.1c2.2,0,4.2-0.6,5.8-1.8
			c-0.2,0.1-0.3,0.1-0.5,0.2c-0.5,0.2-1,0.3-1.3,0.4c-0.2,0-0.3,0.1-0.4,0.1c-0.1,0-0.1,0-0.2,0c0,0,0.2-0.1,0.5-0.1
			c0.3-0.1,0.8-0.2,1.3-0.4c0.2-0.1,0.5-0.2,0.7-0.3c0,0,0,0,0.1,0c0.6-0.5,1.1-1,1.6-1.5c0,0,0,0,0,0c-0.2,0.2-0.4,0.4-0.5,0.6
			c-0.1,0.1-0.2,0.2-0.2,0.2c0,0,0.1-0.1,0.2-0.2c0.1-0.1,0.3-0.3,0.5-0.6c0.2-0.2,0.4-0.4,0.5-0.6l0,0c0.3-0.4,0.5-0.8,0.8-1.3
			c-0.1,0.1-0.2,0.2-0.3,0.3c-0.1,0.1-0.2,0.2-0.4,0.3c-0.1,0.1-0.2,0.2-0.3,0.2c-0.2,0.1-0.3,0.2-0.3,0.2c0,0,0.1-0.1,0.3-0.2
			c0.1-0.1,0.2-0.1,0.3-0.2c0.1-0.1,0.2-0.2,0.3-0.3c0.1-0.1,0.2-0.2,0.3-0.3c0-0.1,0.1-0.1,0.1-0.2c0.3-0.7,0.5-1.4,0.7-2.2
			c-0.1,0.1-0.1,0.2-0.2,0.3c-0.1,0.2-0.2,0.3-0.4,0.5c-0.3,0.3-0.6,0.6-0.8,0.8c-0.2,0.2-0.4,0.3-0.4,0.3c0,0,0.1-0.1,0.3-0.3
			c0.2-0.2,0.5-0.5,0.8-0.8c0.1-0.2,0.3-0.3,0.4-0.5c0.1-0.2,0.2-0.3,0.3-0.4c0,0,0,0,0,0c0-0.3,0.1-0.6,0.1-0.9
			c0,0.1,0,0.2-0.1,0.3c0,0.1-0.1,0.2-0.2,0.4c-0.1,0.1-0.2,0.3-0.3,0.4c-0.2,0.3-0.5,0.5-0.6,0.7c-0.2,0.2-0.3,0.2-0.3,0.2
			c0,0,0.1-0.1,0.3-0.3c0.2-0.2,0.4-0.4,0.6-0.7c0.2-0.3,0.4-0.6,0.5-0.8c0.1-0.2,0.1-0.4,0.1-0.4l0,0c0-0.1,0-0.3,0-0.4
			c-0.1,0.1-0.1,0.3-0.2,0.4c-0.2,0.4-0.5,0.6-0.5,0.6c0,0,0.2-0.3,0.4-0.6c0.1-0.2,0.2-0.4,0.3-0.5c0-0.1,0-0.2,0-0.3
			c0,0.1-0.1,0.1-0.1,0.2c-0.1,0.1-0.2,0.3-0.2,0.4c-0.1,0.1-0.2,0.3-0.3,0.4c-0.1,0.1-0.2,0.2-0.3,0.3c-0.2,0.2-0.3,0.3-0.3,0.3
			c0,0,0.1-0.1,0.2-0.3c0.1-0.1,0.2-0.2,0.2-0.3c0.1-0.1,0.2-0.3,0.3-0.4c0.1-0.1,0.2-0.3,0.3-0.4c0.1-0.1,0.1-0.2,0.1-0.3
			c0-0.1,0-0.2,0-0.4c0,0,0,0,0,0c0,0.1,0,0.1-0.1,0.2c0,0.1-0.1,0.3-0.2,0.4c-0.1,0.1-0.2,0.3-0.2,0.4c0,0.1-0.1,0.1-0.1,0.2
			c0,0-0.1,0.1-0.1,0.1c-0.1,0.1-0.2,0.2-0.2,0.2c0,0,0.1-0.1,0.2-0.3c0,0,0.1-0.1,0.1-0.1c0,0,0.1-0.1,0.1-0.2
			c0.1-0.1,0.2-0.2,0.2-0.4c0.1-0.1,0.1-0.3,0.2-0.4c0-0.1,0-0.1,0.1-0.2c0-0.1,0-0.1,0.1-0.2l0,0c0-0.3-0.1-0.5-0.1-0.8l0,0
			c0,0,0,0,0,0c0,0.1,0,0.1,0,0.2l0,0.1C638,119.1,638,119.2,638,119.2L638,119.2z M625.1,128.7L625.1,128.7c-0.1,0-0.2,0-0.2,0
			c-0.1,0-0.2,0-0.3-0.1l-0.1,0c-0.1,0-0.1,0-0.2-0.1c-0.1,0-0.2-0.1-0.3-0.1c-0.2-0.1-0.5-0.2-0.8-0.4c-0.3-0.1-0.5-0.3-0.7-0.4
			c-0.1-0.1-0.2-0.1-0.3-0.2c0,0-0.1-0.1-0.1-0.1l-0.1-0.1c-0.1-0.1-0.1-0.1-0.2-0.2c0,0-0.1,0-0.1-0.1l-0.1-0.1
			c-0.1-0.1-0.1-0.1-0.1-0.1c0,0,0.1,0,0.1,0.1l0.1,0.1l0.1,0.1c0.1,0,0.1,0.1,0.2,0.2c0,0,0.1,0.1,0.1,0.1c0,0,0.1,0.1,0.1,0.1
			c0.1,0.1,0.2,0.1,0.3,0.2c0.2,0.1,0.5,0.3,0.7,0.4c0.3,0.1,0.5,0.3,0.8,0.4c0.1,0,0.2,0.1,0.3,0.1c0.1,0,0.1,0,0.2,0.1l0.1,0.1
			c0.1,0,0.2,0.1,0.2,0.1L625.1,128.7C625.1,128.6,625.1,128.6,625.1,128.7c0.1,0,0.2,0,0.2,0C625.3,128.7,625.2,128.7,625.1,128.7
			L625.1,128.7z M624.7,124.3c-0.2-0.1-0.3-0.1-0.3-0.1c0,0,0.4,0.1,0.9,0.3c0.5,0.2,1,0.3,0.9,0.3c0,0-0.1,0-0.3,0
			c-0.2,0-0.4-0.1-0.7-0.2C625.1,124.5,624.8,124.4,624.7,124.3L624.7,124.3z M625.8,125.6c-0.3-0.1-0.5-0.2-0.5-0.2
			C625.3,125.4,625.6,125.4,625.8,125.6c0.3,0,0.5,0.1,0.5,0.1C626.3,125.7,626.1,125.7,625.8,125.6z M630.2,124.5
			c0.3,0,0.6,0,0.6,0C630.8,124.6,630.6,124.6,630.2,124.5c-0.3,0.1-0.6,0.1-0.6,0.1C629.6,124.6,629.9,124.6,630.2,124.5
			L630.2,124.5z M629,127.2c0,0-0.2,0-0.4,0c-0.2,0-0.4,0-0.4,0c0,0,0.2-0.1,0.4-0.1C628.9,127.1,629,127.2,629,127.2L629,127.2z
			 M626.9,124.4c0,0,0.4,0,1,0.1c0.5,0,1,0.1,1,0.1c0,0-0.1,0-0.3,0l-0.7,0c-0.3,0-0.5-0.1-0.7-0.1
			C627,124.4,626.9,124.4,626.9,124.4L626.9,124.4z M628,128.2c0.4,0.1,0.7,0.1,0.7,0.1C628.7,128.3,628.4,128.3,628,128.2
			c-0.4,0-0.7-0.1-0.7-0.1C627.4,128.1,627.7,128.1,628,128.2L628,128.2z M628.4,129.7c-0.4,0-0.8,0-0.8-0.1
			C627.6,129.6,627.9,129.6,628.4,129.7c0.4-0.1,0.8-0.1,0.8-0.1C629.1,129.6,628.8,129.7,628.4,129.7L628.4,129.7z M632.3,129.1
			c0.2,0,0.3-0.1,0.4-0.1c0.1,0,0.2,0,0.2,0c0,0-0.1,0-0.2,0.1C632.6,129.1,632.5,129.1,632.3,129.1c-0.4,0.2-0.9,0.3-1.4,0.4
			c-0.6,0.1-1.1,0.2-1.5,0.2c-0.2,0-0.3,0-0.5,0.1c-0.1,0-0.2,0-0.2,0c0,0,0.1,0,0.2,0l0.4-0.1c0.4-0.1,0.9-0.2,1.5-0.3
			C631.4,129.3,631.9,129.2,632.3,129.1z M632,124.2c-0.2,0.1-0.5,0.1-0.7,0.1c-0.2,0-0.4,0.1-0.6,0.1c-0.2,0-0.3,0-0.4,0
			c-0.1,0-0.1,0-0.1,0c0,0,0.2,0,0.5-0.1c0.2,0,0.4-0.1,0.6-0.1C631.6,124.2,631.8,124.1,632,124.2c0.2-0.1,0.5-0.2,0.7-0.2
			c0.2-0.1,0.4-0.1,0.6-0.2c0.3-0.1,0.5-0.1,0.5-0.1c0,0,0,0-0.1,0.1c-0.1,0-0.2,0.1-0.4,0.1c-0.2,0.1-0.3,0.1-0.6,0.2
			C632.5,124,632.3,124.1,632,124.2z M635.7,126.4L635.7,126.4c-0.1,0.1-0.1,0.1-0.1,0.1c0,0-0.1,0.1-0.1,0.1l-0.1,0.1
			c0,0-0.1,0.1-0.1,0.1c-0.1,0.1-0.1,0.1-0.2,0.2c-0.2,0.1-0.4,0.2-0.6,0.4c-0.2,0.1-0.4,0.2-0.6,0.3c-0.1,0-0.2,0.1-0.3,0.1
			c0,0-0.1,0-0.1,0l-0.1,0c-0.1,0-0.1,0-0.2,0c0,0-0.1,0-0.1,0l-0.1,0c-0.1,0-0.1,0-0.1,0c0,0,0,0,0.1,0l0.1,0l0.1,0
			c0.1,0,0.1,0,0.2-0.1l0.1,0c0,0,0.1,0,0.1,0c0.1,0,0.2-0.1,0.3-0.1c0.2-0.1,0.4-0.2,0.6-0.3c0.2-0.1,0.4-0.2,0.6-0.4
			c0.1-0.1,0.2-0.1,0.2-0.2c0,0,0.1-0.1,0.1-0.1l0.1-0.1c0.1,0,0.1-0.1,0.2-0.1C635.6,126.5,635.6,126.5,635.7,126.4
			C635.7,126.4,635.7,126.4,635.7,126.4c0-0.1,0.1-0.1,0.1-0.1C635.8,126.3,635.8,126.4,635.7,126.4L635.7,126.4z"/>
		<path class="st0" d="M623.3,113.2c0.2-0.1,0.3-0.2,0.5-0.3c0,0,0.1-0.1,0.1-0.1c0.1-0.1,0.2-0.1,0.3-0.2c0.2-0.1,0.5-0.3,0.8-0.4
			c0.3-0.1,0.6-0.2,0.8-0.3c0,0,0,0,0.1,0c0,0,0,0,0,0l-0.1,0c-0.1,0-0.2,0-0.3,0.1l-0.1,0c0,0-0.1,0-0.1,0c-0.4,0.1-0.7,0.2-1,0.4
			c-0.1,0-0.2,0.1-0.2,0.1c-0.1,0-0.2,0.1-0.2,0.1c-0.1,0-0.1,0.1-0.2,0.1l-0.1,0.1l-0.1,0l-0.1,0c-0.1,0-0.1,0.1-0.2,0.1
			c0,0,0,0,0,0C623.2,113.2,623.2,113.2,623.3,113.2L623.3,113.2z"/>
		<path class="st0" d="M631.3,111.2l0.2,0.1c0.1,0,0.1,0,0.2,0.1c0.1,0,0.1,0.1,0.2,0.1c0.3,0.1,0.6,0.2,0.8,0.4
			c0.3,0.1,0.6,0.3,0.8,0.4c0.1,0,0.1,0.1,0.2,0.1c-1-0.6-2.1-1.1-3.3-1.4c0.2,0,0.4,0.1,0.6,0.2L631.3,111.2L631.3,111.2z"/>
		<path class="st0" d="M626.3,111.2c0.1,0,0.2,0,0.3,0l0.1,0c0,0,0.1,0,0.1,0c0,0,0.1,0,0.1,0c0.1,0,0.2,0,0.3-0.1
			c0.1,0,0.2,0,0.3-0.1c0,0,0.1,0,0.1,0c-0.6,0.1-1.2,0.2-1.8,0.4c0.1,0,0.1,0,0.2,0C626.1,111.2,626.2,111.2,626.3,111.2
			L626.3,111.2z"/>
		<path class="st0" d="M622.4,115.9C622.4,115.9,622.5,115.9,622.4,115.9c0.3-0.2,0.5-0.3,0.8-0.4c0.1,0,0.2-0.1,0.2-0.1
			c0,0,0,0,0,0c0,0,0-0.1,0-0.1c-0.4,0.2-0.8,0.3-1.1,0.4C622.4,115.7,622.4,115.8,622.4,115.9C622.4,115.9,622.4,115.9,622.4,115.9
			z"/>
		<path class="st0" d="M623,117.5c0.1,0.1,0.1,0.1,0.2,0.2l0,0l0,0c0,0,0,0,0.1,0.1c0,0,0.1,0.1,0.1,0.1c0.1-0.1,0.2-0.1,0.3-0.2
			c-0.1-0.1-0.2-0.2-0.3-0.3c0,0-0.1-0.1-0.1-0.1c-0.1,0.1-0.1,0.1-0.2,0.1c0,0,0-0.1,0-0.1c0,0,0-0.1,0-0.1c0,0,0,0,0,0l0,0
			c-0.1,0-0.1,0-0.2,0.1c0,0,0,0.1,0,0.1C623,117.4,623,117.4,623,117.5L623,117.5L623,117.5z"/>
		<path class="st0" d="M620.8,120.4c-0.1,0-0.1-0.1-0.2-0.1l0.1,0.1C620.8,120.4,620.8,120.4,620.8,120.4c0.1,0.1,0.2,0.2,0.3,0.3
			c0,0,0.1,0.1,0.1,0.1C621.1,120.7,621,120.6,620.8,120.4C620.9,120.4,620.9,120.4,620.8,120.4L620.8,120.4z"/>
		<path class="st0" d="M621.2,120.6c-0.1,0-0.1-0.1-0.2-0.1c0.1,0.1,0.2,0.2,0.3,0.4c0.1,0.1,0.2,0.2,0.4,0.4c0,0,0,0,0.1,0
			c0.1,0.1,0.3,0.1,0.4,0.2c0.4,0.2,0.9,0.5,1.4,0.6c0,0,0,0-0.1,0l-0.1-0.1c0,0-0.1,0-0.1,0c0,0,0,0,0.1,0l0.1,0c0,0,0.1,0,0.1,0.1
			c0,0,0,0,0.1,0c0.1,0,0.1,0.1,0.2,0.1c0.5,0.2,1.1,0.3,1.7,0.4c0,0,0,0,0.1,0c0,0,0,0-0.1,0c-0.1,0-0.2,0-0.2,0l-0.2-0.1
			c-0.1,0-0.2,0-0.2-0.1l-0.1,0l-0.1,0c-0.1,0-0.2,0-0.2-0.1c-0.2-0.1-0.3-0.1-0.5-0.2c-0.3-0.1-0.6-0.2-0.9-0.4
			c-0.3-0.1-0.6-0.3-0.9-0.5c-0.3-0.2-0.6-0.4-0.9-0.6C621.3,120.7,621.2,120.6,621.2,120.6L621.2,120.6z"/>
		<path class="st0" d="M622.8,116.6c0.1,0,0.2,0,0.4,0c0,0-0.1-0.1-0.1-0.1C622.9,116.5,622.8,116.5,622.8,116.6L622.8,116.6z"/>
		<path class="st0" d="M624,115.9c-0.1,0.1-0.3,0.1-0.4,0.2c-0.1,0-0.1,0.1-0.2,0.1c0.1,0,0.1,0.1,0.2,0.1c0.2-0.1,0.3-0.2,0.5-0.2
			C624.1,116.1,624,116,624,115.9z"/>
	</g>
	<g>
		<g>
			<path class="st0" d="M485.2,110.9c0.5,0.6,0.7,1.3,0.7,2.2c0,1.2-0.5,2.2-1.4,2.8s-2.3,1-4.2,1h-7.2v-14h6.8c1.7,0,3,0.3,3.9,1
				c0.9,0.7,1.4,1.5,1.4,2.7c0,0.7-0.2,1.3-0.5,1.8c-0.3,0.5-0.8,1-1.4,1.3C484.2,109.9,484.8,110.3,485.2,110.9z M476.3,105.4v3.3
				h3.2c0.8,0,1.4-0.1,1.8-0.4c0.4-0.3,0.6-0.7,0.6-1.2s-0.2-1-0.6-1.2c-0.4-0.3-1-0.4-1.8-0.4H476.3z M482,114.1
				c0.4-0.3,0.7-0.7,0.7-1.3c0-1.2-0.9-1.7-2.6-1.7h-3.8v3.5h3.8C480.9,114.5,481.6,114.3,482,114.1z"/>
			<path class="st0" d="M489.8,116.7c-1-0.3-1.9-0.7-2.5-1.2l1.1-2.4c0.6,0.4,1.3,0.8,2.1,1.1c0.8,0.3,1.7,0.4,2.5,0.4
				c0.9,0,1.6-0.1,2-0.4c0.4-0.3,0.7-0.6,0.7-1.1c0-0.3-0.1-0.6-0.4-0.8c-0.3-0.2-0.6-0.4-1-0.5c-0.4-0.1-1-0.3-1.6-0.4
				c-1.1-0.3-1.9-0.5-2.6-0.8s-1.3-0.7-1.8-1.2c-0.5-0.6-0.7-1.3-0.7-2.2c0-0.8,0.2-1.5,0.7-2.2c0.4-0.7,1.1-1.2,2-1.6
				s2-0.6,3.3-0.6c0.9,0,1.8,0.1,2.6,0.3c0.9,0.2,1.6,0.5,2.2,0.9l-1,2.5c-1.3-0.7-2.6-1.1-3.9-1.1c-0.9,0-1.6,0.1-2,0.4
				c-0.4,0.3-0.6,0.7-0.6,1.2c0,0.5,0.3,0.8,0.8,1.1s1.3,0.5,2.3,0.7c1.1,0.3,1.9,0.5,2.6,0.8c0.7,0.3,1.3,0.7,1.8,1.2
				c0.5,0.5,0.7,1.3,0.7,2.2c0,0.8-0.2,1.5-0.7,2.2c-0.4,0.7-1.1,1.2-2,1.6c-0.9,0.4-2,0.6-3.3,0.6
				C491.9,117.2,490.8,117,489.8,116.7z"/>
			<path class="st0" d="M504,116.2c-1.2-0.6-2.1-1.5-2.7-2.6c-0.7-1.1-1-2.3-1-3.7s0.3-2.6,1-3.7c0.7-1.1,1.6-2,2.7-2.6
				c1.2-0.6,2.5-0.9,3.9-0.9c1.2,0,2.3,0.2,3.3,0.6c1,0.4,1.8,1,2.5,1.8l-2.1,1.9c-0.9-1.1-2.1-1.6-3.5-1.6c-0.9,0-1.6,0.2-2.3,0.6
				c-0.7,0.4-1.2,0.9-1.6,1.6c-0.4,0.7-0.6,1.5-0.6,2.3c0,0.9,0.2,1.6,0.6,2.3c0.4,0.7,0.9,1.2,1.6,1.6c0.7,0.4,1.5,0.6,2.3,0.6
				c1.4,0,2.6-0.6,3.5-1.7l2.1,1.9c-0.7,0.8-1.5,1.4-2.5,1.9c-1,0.4-2.1,0.6-3.3,0.6C506.4,117.2,505.1,116.8,504,116.2z"/>
			<path class="st0" d="M483.2,133.1c0.5,0.5,0.7,1.2,0.7,2.1c0,1.1-0.4,1.9-1.2,2.5s-1.9,0.9-3.5,0.9h-5.6v-12.6h5.3
				c1.4,0,2.4,0.3,3.2,0.8c0.8,0.6,1.1,1.4,1.1,2.4c0,0.7-0.2,1.3-0.6,1.8s-0.9,0.8-1.5,1.1C482,132.2,482.7,132.5,483.2,133.1z
				 M474.5,126.7v5h4.3c1.1,0,2-0.2,2.5-0.6c0.6-0.4,0.9-1.1,0.9-1.9c0-0.8-0.3-1.4-0.9-1.9c-0.6-0.4-1.4-0.6-2.5-0.6H474.5z
				 M482,137.1c0.6-0.4,0.9-1.1,0.9-2c0-0.9-0.3-1.5-0.9-2c-0.6-0.4-1.6-0.6-2.8-0.6h-4.7v5.2h4.7
				C480.5,137.7,481.4,137.5,482,137.1z"/>
			<path class="st0" d="M487.8,138.1c-0.8-0.3-1.5-0.7-2-1.2l0.4-0.7c0.4,0.5,1,0.8,1.8,1.1s1.5,0.4,2.4,0.4c1.2,0,2.1-0.2,2.7-0.7
				c0.6-0.5,0.9-1,0.9-1.8c0-0.6-0.2-1-0.5-1.4c-0.3-0.3-0.7-0.6-1.2-0.8c-0.5-0.2-1.1-0.4-1.9-0.6c-0.9-0.2-1.7-0.5-2.2-0.7
				c-0.6-0.2-1-0.5-1.4-1c-0.4-0.5-0.6-1.1-0.6-1.8c0-0.6,0.2-1.2,0.5-1.7c0.3-0.5,0.8-0.9,1.5-1.2c0.7-0.3,1.5-0.5,2.5-0.5
				c0.7,0,1.4,0.1,2.1,0.3s1.3,0.5,1.7,0.8l-0.3,0.7c-0.5-0.3-1.1-0.6-1.7-0.8c-0.6-0.2-1.2-0.3-1.8-0.3c-1.2,0-2,0.2-2.6,0.7
				c-0.6,0.5-0.9,1.1-0.9,1.8c0,0.6,0.2,1,0.5,1.4s0.7,0.6,1.2,0.8c0.5,0.2,1.1,0.4,2,0.6c0.9,0.2,1.7,0.5,2.2,0.7s1,0.5,1.4,1
				c0.4,0.4,0.6,1,0.6,1.8c0,0.6-0.2,1.2-0.5,1.7c-0.3,0.5-0.8,0.9-1.5,1.2c-0.7,0.3-1.5,0.5-2.5,0.5
				C489.5,138.6,488.7,138.4,487.8,138.1z"/>
			<path class="st0" d="M500.1,137.8c-1-0.6-1.8-1.3-2.3-2.3c-0.6-1-0.9-2.1-0.9-3.3s0.3-2.3,0.9-3.3c0.6-1,1.3-1.7,2.3-2.3
				c1-0.6,2.1-0.8,3.3-0.8c0.9,0,1.8,0.1,2.5,0.4c0.8,0.3,1.4,0.7,2,1.3l-0.6,0.6c-1-1-2.3-1.5-3.9-1.5c-1.1,0-2,0.2-2.9,0.7
				c-0.9,0.5-1.5,1.1-2,2c-0.5,0.8-0.7,1.8-0.7,2.8s0.2,2,0.7,2.8c0.5,0.8,1.2,1.5,2,2c0.9,0.5,1.8,0.7,2.9,0.7
				c1.6,0,2.8-0.5,3.9-1.5l0.6,0.6c-0.5,0.6-1.2,1-2,1.3c-0.8,0.3-1.6,0.5-2.5,0.5C502.2,138.6,501.1,138.3,500.1,137.8z"/>
		</g>
	</g>
	<path id="binancedex_1_" class="st0" d="M433.9,141.8v6.9l-6,3.6l-5.9-3.6v-6.9l5.9,3.6L433.9,141.8z M401.6,117.8l5.9,3.6v11.9
		l10.1,6v6.9l-16-9.4V117.8z M454.2,117.8v19l-16.2,9.4v-6.9l10.1-6v-11.9L454.2,117.8z M438,108.4l6,3.6l0,0v6.9l-10.1,6V137
		l-5.9,3.6l-5.8-3.6v-12.1l-10.5-6v-6.9l6-3.6l10.1,6L438,108.4z M411.7,123.8l5.9,3.6v6.9l-5.9-3.6V123.8z M444.1,123.8v6.9
		l-5.9,3.6v-6.9L444.1,123.8z M407.5,102.3l6,3.6l-6,3.6v6.9l-5.9-3.6v-6.9L407.5,102.3z M448.3,102.3l6,3.6v6.9l-6,3.6v-6.9
		l-5.9-3.6L448.3,102.3z M427.9,102.3l6,3.6l-6,3.6l-5.9-3.6L427.9,102.3z M427.9,90.4l16.2,9.4l-5.9,3.6l-10.1-6l-10.3,6l-5.9-3.6
		L427.9,90.4z"/>
</g>
</svg>
