<?xml version="1.0" encoding="utf-8"?>
<!-- Generator: Adobe Illustrator 23.0.1, SVG Export Plug-In . SVG Version: 6.00 Build 0)  -->
<svg version="1.1" id="Capa_1" xmlns="http://www.w3.org/2000/svg" xmlns:xlink="http://www.w3.org/1999/xlink" x="0px" y="0px"
	 viewBox="0 0 763 288" style="enable-background:new 0 0 763 288;" xml:space="preserve">
<style type="text/css">
	.st0{fill:#FFFFFF;}
	.st1{fill:#CDEDEE;}
	.st2{fill:#C7EDF0;}
	.st3{fill:#91D6D8;}
	.st4{fill:#CEEEF0;}
	.st5{fill:none;stroke:#5CFFE4;stroke-width:2;stroke-miterlimit:10;}
	.st6{fill:#5CFFE4;}
	.st7{opacity:0.6;}
	.st8{opacity:0.2;}
</style>
<g>
	<g>
		<g>
			<path class="st0" d="M74.6,95.1v2.6H63.8v-14h10.6v2.6H67v3h6.5v2.5H67V95h7.6V95.1z"/>
			<path class="st0" d="M83.8,97.2c-0.3,0.2-0.7,0.4-1.1,0.5s-0.9,0.2-1.4,0.2c-1.3,0-2.3-0.3-3-1s-1.1-1.6-1.1-2.9v-4.4h-1.7v-2.4
				h1.7v-2.6h3.1v2.6H83v2.4h-2.7V94c0,0.5,0.1,0.8,0.4,1c0.2,0.2,0.6,0.4,1,0.4c0.5,0,0.9-0.1,1.3-0.4L83.8,97.2z"/>
			<path class="st0" d="M95.3,88c0.8,0.8,1.2,2,1.2,3.6v6.2h-3.1V92c0-0.9-0.2-1.5-0.6-1.9s-0.9-0.6-1.6-0.6c-0.8,0-1.4,0.2-1.9,0.7
				s-0.7,1.2-0.7,2.2v5.3h-3.1V82.8h3.1V88c0.4-0.4,0.9-0.7,1.5-1c0.6-0.2,1.2-0.3,1.9-0.3C93.4,86.8,94.5,87.2,95.3,88z"/>
			<path class="st0" d="M110,93.2h-8.1c0.1,0.7,0.5,1.2,1,1.6s1.2,0.6,2,0.6c0.6,0,1.1-0.1,1.5-0.3c0.4-0.2,0.8-0.4,1.2-0.8l1.7,1.8
				c-1,1.2-2.5,1.7-4.4,1.7c-1.2,0-2.3-0.2-3.2-0.7c-0.9-0.5-1.7-1.1-2.2-2c-0.5-0.8-0.8-1.8-0.8-2.9s0.3-2,0.8-2.9
				c0.5-0.8,1.2-1.5,2.1-2s1.8-0.7,2.9-0.7s2,0.2,2.9,0.7s1.5,1.1,2,2c0.5,0.8,0.7,1.8,0.7,3C110,92.4,110,92.7,110,93.2z
				 M102.7,89.7c-0.5,0.4-0.8,0.9-0.9,1.6h5.3c-0.1-0.7-0.4-1.2-0.9-1.6s-1.1-0.6-1.8-0.6C103.7,89.1,103.1,89.3,102.7,89.7z"/>
			<path class="st0" d="M116.6,87.2c0.6-0.3,1.4-0.4,2.2-0.4v2.9c-0.3,0-0.6,0-0.7,0c-0.9,0-1.6,0.3-2.1,0.8s-0.8,1.3-0.8,2.3v5.1
				h-3.1v-11h3v1.4C115.5,87.8,116,87.4,116.6,87.2z"/>
			<path class="st0" d="M131,93.2h-8.1c0.1,0.7,0.5,1.2,1,1.6s1.2,0.6,2,0.6c0.6,0,1.1-0.1,1.5-0.3c0.4-0.2,0.8-0.4,1.2-0.8l1.7,1.8
				c-1,1.2-2.5,1.7-4.4,1.7c-1.2,0-2.3-0.2-3.2-0.7c-0.9-0.5-1.7-1.1-2.2-2c-0.5-0.8-0.8-1.8-0.8-2.9s0.3-2,0.8-2.9
				c0.5-0.8,1.2-1.5,2.1-2s1.8-0.7,2.9-0.7s2,0.2,2.9,0.7c0.9,0.5,1.5,1.1,2,2c0.5,0.8,0.7,1.8,0.7,3
				C131.1,92.4,131.1,92.7,131,93.2z M123.7,89.7c-0.5,0.4-0.8,0.9-0.9,1.6h5.3c-0.1-0.7-0.4-1.2-0.9-1.6s-1.1-0.6-1.8-0.6
				C124.8,89.1,124.2,89.3,123.7,89.7z"/>
			<path class="st0" d="M144,86.9v10.8h-3v-1.3c-0.4,0.5-0.9,0.8-1.5,1.1c-0.6,0.2-1.2,0.4-1.9,0.4c-1.4,0-2.5-0.4-3.4-1.2
				c-0.8-0.8-1.2-2-1.2-3.6V87h3.1v5.6c0,1.7,0.7,2.6,2.2,2.6c0.7,0,1.3-0.2,1.8-0.7s0.7-1.2,0.7-2.2V87h3.2V86.9z"/>
			<path class="st0" d="M163.9,88c0.8,0.8,1.2,2,1.2,3.6v6.2H162V92c0-0.9-0.2-1.5-0.5-1.9c-0.4-0.4-0.9-0.6-1.5-0.6
				c-0.7,0-1.3,0.2-1.7,0.7s-0.6,1.2-0.6,2.1v5.4h-3.1V92c0-1.7-0.7-2.5-2-2.5c-0.7,0-1.3,0.2-1.7,0.7s-0.6,1.2-0.6,2.1v5.4h-3.1
				V86.9h3v1.2c0.4-0.5,0.9-0.8,1.5-1s1.2-0.4,1.9-0.4c0.8,0,1.4,0.2,2.1,0.5s1.1,0.7,1.5,1.3c0.4-0.6,1-1,1.7-1.3s1.4-0.5,2.2-0.5
				C162,86.8,163.1,87.2,163.9,88z"/>
			<path class="st0" d="M65,118.9c-0.8-0.3-1.5-0.7-2-1.2l0.4-0.7c0.4,0.5,1,0.8,1.8,1.1s1.5,0.4,2.4,0.4c1.2,0,2.1-0.2,2.7-0.7
				s0.9-1,0.9-1.8c0-0.6-0.2-1-0.5-1.4c-0.3-0.3-0.7-0.6-1.2-0.8c-0.5-0.2-1.1-0.4-1.9-0.6c-0.9-0.2-1.7-0.5-2.2-0.7s-1-0.5-1.4-1
				s-0.6-1.1-0.6-1.8c0-0.6,0.2-1.2,0.5-1.7c0.3-0.5,0.8-0.9,1.5-1.2c0.7-0.3,1.5-0.5,2.5-0.5c0.7,0,1.4,0.1,2.1,0.3
				s1.3,0.5,1.7,0.8l-0.3,0.7c-0.5-0.3-1.1-0.6-1.7-0.8c-0.6-0.2-1.2-0.3-1.8-0.3c-1.2,0-2,0.2-2.6,0.7s-0.9,1.1-0.9,1.8
				c0,0.6,0.2,1,0.5,1.4c0.3,0.3,0.7,0.6,1.2,0.8c0.5,0.2,1.1,0.4,2,0.6s1.7,0.5,2.2,0.7s1,0.5,1.4,1c0.4,0.4,0.6,1,0.6,1.8
				c0,0.6-0.2,1.2-0.5,1.7s-0.8,0.9-1.5,1.2c-0.7,0.3-1.5,0.5-2.5,0.5C66.7,119.4,65.8,119.2,65,118.9z"/>
			<path class="st0" d="M82.9,114.8h-8.1c0,0.7,0.2,1.4,0.6,2c0.3,0.6,0.8,1,1.4,1.3s1.3,0.5,2,0.5c0.6,0,1.2-0.1,1.7-0.3
				c0.5-0.2,1-0.5,1.3-1l0.5,0.6c-0.4,0.5-0.9,0.9-1.5,1.1c-0.6,0.3-1.3,0.4-2,0.4c-0.9,0-1.8-0.2-2.5-0.6s-1.3-1-1.7-1.7
				c-0.4-0.7-0.6-1.5-0.6-2.5c0-0.9,0.2-1.7,0.6-2.5c0.4-0.7,0.9-1.3,1.6-1.7c0.7-0.4,1.5-0.6,2.3-0.6s1.6,0.2,2.3,0.6
				c0.7,0.4,1.2,1,1.6,1.7s0.6,1.5,0.6,2.4L82.9,114.8z M76.7,111c-0.5,0.3-1,0.7-1.3,1.2s-0.5,1.1-0.5,1.8h7.2
				c0-0.7-0.2-1.3-0.5-1.8s-0.8-0.9-1.3-1.2c-0.5-0.3-1.1-0.5-1.8-0.5S77.2,110.8,76.7,111z"/>
			<path class="st0" d="M92.8,110.4c0.7,0.4,1.3,1,1.7,1.7c0.4,0.7,0.6,1.5,0.6,2.5c0,0.9-0.2,1.7-0.6,2.5c-0.4,0.7-1,1.3-1.7,1.7
				c-0.7,0.4-1.5,0.6-2.4,0.6c-0.8,0-1.6-0.2-2.3-0.6c-0.7-0.4-1.2-0.9-1.6-1.6v5.6h-0.9v-12.9h0.9v2.2c0.4-0.7,0.9-1.3,1.6-1.7
				c0.7-0.4,1.4-0.6,2.3-0.6C91.3,109.8,92.1,110,92.8,110.4z M92.3,118c0.6-0.3,1-0.8,1.4-1.4c0.3-0.6,0.5-1.3,0.5-2.1
				c0-0.8-0.2-1.5-0.5-2.1s-0.8-1.1-1.4-1.4s-1.2-0.5-1.9-0.5c-0.7,0-1.4,0.2-1.9,0.5s-1,0.8-1.3,1.4s-0.5,1.3-0.5,2.1
				c0,0.8,0.2,1.5,0.5,2.1s0.8,1.1,1.3,1.4s1.2,0.5,1.9,0.5C91.1,118.5,91.8,118.4,92.3,118z"/>
			<path class="st0" d="M99.2,118.7c-0.7-0.4-1.3-1-1.7-1.7c-0.4-0.7-0.6-1.5-0.6-2.5c0-0.9,0.2-1.7,0.6-2.5c0.4-0.7,1-1.3,1.7-1.7
				c0.7-0.4,1.5-0.6,2.4-0.6s1.7,0.2,2.4,0.6c0.7,0.4,1.3,1,1.7,1.7c0.4,0.7,0.6,1.5,0.6,2.5c0,0.9-0.2,1.7-0.6,2.5
				c-0.4,0.7-1,1.3-1.7,1.7s-1.5,0.6-2.4,0.6C100.7,119.4,99.9,119.2,99.2,118.7z M103.5,118c0.6-0.3,1-0.8,1.4-1.4
				c0.3-0.6,0.5-1.3,0.5-2.1c0-0.8-0.2-1.5-0.5-2.1s-0.8-1.1-1.4-1.4s-1.2-0.5-1.9-0.5c-0.7,0-1.4,0.2-1.9,0.5
				c-0.6,0.3-1,0.8-1.4,1.4c-0.3,0.6-0.5,1.3-0.5,2.1c0,0.8,0.2,1.5,0.5,2.1s0.8,1.1,1.4,1.4s1.2,0.5,1.9,0.5S102.9,118.4,103.5,118
				z"/>
			<path class="st0" d="M109,105.9h0.9v13.4H109V105.9z"/>
			<path class="st0" d="M113.7,107.4c-0.1-0.1-0.2-0.3-0.2-0.5s0.1-0.4,0.2-0.5s0.3-0.2,0.5-0.2s0.4,0.1,0.5,0.2s0.2,0.3,0.2,0.5
				s-0.1,0.4-0.2,0.5s-0.3,0.2-0.5,0.2S113.8,107.5,113.7,107.4z M113.7,109.9h0.9v9.4h-0.9V109.9z"/>
			<path class="st0" d="M124.3,110.7c0.6,0.6,0.9,1.5,0.9,2.6v6h-0.9v-1.7c-0.3,0.6-0.7,1-1.3,1.3c-0.6,0.3-1.3,0.5-2.1,0.5
				c-1,0-1.9-0.2-2.5-0.7s-0.9-1.1-0.9-1.9s0.3-1.4,0.8-1.9c0.6-0.5,1.4-0.7,2.7-0.7h3.2v-0.8c0-0.9-0.2-1.5-0.7-2s-1.2-0.7-2.1-0.7
				c-0.6,0-1.2,0.1-1.8,0.3c-0.6,0.2-1.1,0.5-1.4,0.9l-0.5-0.6c0.5-0.4,1-0.7,1.7-1c0.7-0.2,1.4-0.4,2.1-0.4
				C122.8,109.8,123.7,110.1,124.3,110.7z M123.1,118.1c0.5-0.4,1-0.9,1.2-1.6v-1.8h-3.2c-0.9,0-1.6,0.2-2,0.5s-0.6,0.8-0.6,1.4
				s0.2,1.1,0.7,1.4c0.5,0.4,1.1,0.5,1.9,0.5C121.9,118.6,122.5,118.4,123.1,118.1z"/>
		</g>
	</g>
	<g>
		<g>
			<path class="st0" d="M285.6,83.7h3.2v14h-3.2V83.7z"/>
			<path class="st0" d="M295,97c-1.2-0.6-2.1-1.5-2.7-2.6c-0.7-1.1-1-2.3-1-3.7s0.3-2.6,1-3.7s1.6-2,2.7-2.6
				c1.2-0.6,2.5-0.9,3.9-0.9c1.2,0,2.3,0.2,3.3,0.6s1.8,1,2.5,1.8l-2.1,1.9c-0.9-1.1-2.1-1.6-3.5-1.6c-0.9,0-1.6,0.2-2.3,0.6
				c-0.7,0.4-1.2,0.9-1.6,1.6s-0.6,1.5-0.6,2.3c0,0.9,0.2,1.6,0.6,2.3c0.4,0.7,0.9,1.2,1.6,1.6s1.5,0.6,2.3,0.6
				c1.4,0,2.6-0.6,3.5-1.7l2.1,1.9c-0.7,0.8-1.5,1.4-2.5,1.9c-1,0.4-2.1,0.6-3.3,0.6C297.4,97.9,296.1,97.6,295,97z"/>
			<path class="st0" d="M309.4,97c-1.2-0.6-2.1-1.5-2.7-2.6c-0.7-1.1-1-2.3-1-3.7s0.3-2.6,1-3.7s1.6-2,2.7-2.6s2.5-0.9,3.9-0.9
				c1.5,0,2.8,0.3,3.9,0.9c1.2,0.6,2.1,1.5,2.7,2.6c0.7,1.1,1,2.3,1,3.7s-0.3,2.6-1,3.7s-1.6,2-2.7,2.6c-1.2,0.6-2.5,0.9-3.9,0.9
				S310.5,97.6,309.4,97z M315.5,94.6c0.7-0.4,1.2-0.9,1.6-1.6s0.6-1.5,0.6-2.3c0-0.9-0.2-1.6-0.6-2.3c-0.4-0.7-0.9-1.2-1.6-1.6
				s-1.4-0.6-2.2-0.6c-0.8,0-1.6,0.2-2.2,0.6c-0.7,0.4-1.2,0.9-1.6,1.6s-0.6,1.5-0.6,2.3c0,0.9,0.2,1.6,0.6,2.3
				c0.4,0.7,0.9,1.2,1.6,1.6s1.4,0.6,2.2,0.6S314.9,95,315.5,94.6z"/>
			<path class="st0" d="M336.2,83.7v14h-2.7l-7-8.5v8.5h-3.2v-14h2.7l7,8.5v-8.5H336.2z"/>
			<path class="st0" d="M295.7,113.8c0.5,0.5,0.7,1.2,0.7,2.1c0,1.1-0.4,1.9-1.2,2.5c-0.8,0.6-1.9,0.9-3.5,0.9h-5.6v-12.6h5.3
				c1.4,0,2.4,0.3,3.2,0.8c0.8,0.6,1.1,1.4,1.1,2.4c0,0.7-0.2,1.3-0.6,1.8s-0.9,0.8-1.5,1.1C294.5,113,295.2,113.3,295.7,113.8z
				 M287.1,107.5v5h4.3c1.1,0,2-0.2,2.5-0.6s0.9-1.1,0.9-1.9s-0.3-1.4-0.9-1.9s-1.4-0.6-2.5-0.6H287.1z M294.5,117.9
				c0.6-0.4,0.9-1.1,0.9-2s-0.3-1.5-0.9-2c-0.6-0.4-1.6-0.6-2.8-0.6H287v5.2h4.7C293,118.5,293.9,118.3,294.5,117.9z"/>
			<path class="st0" d="M307.3,114.8h-8.1c0,0.7,0.2,1.4,0.6,2c0.3,0.6,0.8,1,1.4,1.3s1.3,0.5,2,0.5c0.6,0,1.2-0.1,1.7-0.3
				c0.5-0.2,1-0.5,1.3-1l0.5,0.6c-0.4,0.5-0.9,0.9-1.5,1.1c-0.6,0.3-1.3,0.4-2,0.4c-0.9,0-1.8-0.2-2.5-0.6s-1.3-1-1.7-1.7
				c-0.4-0.7-0.6-1.5-0.6-2.5c0-0.9,0.2-1.7,0.6-2.5c0.4-0.7,0.9-1.3,1.6-1.7c0.7-0.4,1.5-0.6,2.3-0.6c0.9,0,1.6,0.2,2.3,0.6
				c0.7,0.4,1.2,1,1.6,1.7s0.6,1.5,0.6,2.4L307.3,114.8z M301.1,111c-0.5,0.3-1,0.7-1.3,1.2s-0.5,1.1-0.5,1.8h7.2
				c0-0.7-0.2-1.3-0.5-1.8s-0.8-0.9-1.3-1.2s-1.1-0.5-1.8-0.5S301.6,110.8,301.1,111z"/>
			<path class="st0" d="M312.4,110.4c0.6-0.4,1.4-0.5,2.2-0.5v0.9h-0.2c-1,0-1.9,0.3-2.4,1c-0.6,0.7-0.9,1.6-0.9,2.7v4.9h-0.9V110
				h0.9v2.1C311.3,111.3,311.7,110.7,312.4,110.4z"/>
			<path class="st0" d="M317.1,105.9h0.9v13.4h-0.9V105.9z"/>
			<path class="st0" d="M321.7,107.4c-0.1-0.1-0.2-0.3-0.2-0.5s0.1-0.4,0.2-0.5s0.3-0.2,0.5-0.2s0.4,0.1,0.5,0.2s0.2,0.3,0.2,0.5
				s-0.1,0.4-0.2,0.5s-0.3,0.2-0.5,0.2S321.8,107.5,321.7,107.4z M321.8,109.9h0.9v9.4h-0.9V109.9z"/>
			<path class="st0" d="M333.8,110.8c0.7,0.7,1,1.7,1,3v5.5H334v-5.4c0-1.1-0.3-1.9-0.8-2.4c-0.5-0.6-1.3-0.8-2.2-0.8
				c-1.1,0-2,0.3-2.6,1s-1,1.5-1,2.7v5h-0.9V110h0.9v2c0.3-0.7,0.8-1.2,1.4-1.5c0.6-0.4,1.4-0.6,2.3-0.6
				C332.2,109.8,333.2,110.2,333.8,110.8z"/>
		</g>
	</g>
	<g>
		<g>
			<g>
				<g>
					<polygon class="st0" points="26.6,67.9 26.6,93.1 5.9,102.4 					"/>
					<polygon class="st1" points="26.6,93.1 26.6,115.1 5.9,102.4 					"/>
					<polygon class="st0" points="26.6,119.6 26.6,136.5 5.9,107.3 					"/>
				</g>
				<g>
					<polygon class="st2" points="26.6,67.9 26.6,93.1 47.3,102.4 					"/>
					<polygon class="st3" points="26.6,93.1 26.6,115.1 47.3,102.4 					"/>
					<polygon class="st4" points="26.6,119.6 26.6,136.5 47.3,107.3 					"/>
				</g>
			</g>
		</g>
	</g>
	<g>
		<g>
			<g>
				<path class="st0" d="M263.2,71.2c3.4,0.1,6.1,2.8,6,6.3c0,3.4-2.8,6.1-6.3,6.1c-3.4,0-6.1-2.8-6.1-6.2
					C256.9,73.8,259.7,71.1,263.2,71.2z"/>
			</g>
			<g>
				<path class="st0" d="M258,87.2c3.2,4.2,5,9.4,5,15c0,13.7-11.1,24.8-24.8,24.8c-5.6,0-10.8-1.9-15-5l6.7-6.7
					c2.4,1.5,5.2,2.4,8.3,2.4c8.5,0,15.5-6.9,15.5-15.5c0-3-0.9-5.9-2.4-8.3L258,87.2z"/>
			</g>
			<g>
				<path class="st0" d="M238.3,86.7c-8.5,0-15.5,6.9-15.5,15.5c0,2.9,0.8,5.7,2.2,8l-6.7,6.7c-3-4.1-4.9-9.2-4.9-14.7
					c0-13.7,11.1-24.8,24.8-24.8c5.5,0,10.6,1.8,14.7,4.9l-6.7,6.7C243.9,87.5,241.2,86.7,238.3,86.7z"/>
			</g>
			<g>
				<path class="st0" d="M213.6,120.7c3.4,0,6.1,2.7,6.1,6.2s-2.7,6.2-6.2,6.2s-6.2-2.7-6.2-6.3
					C207.4,123.3,210.2,120.6,213.6,120.7z"/>
			</g>
		</g>
	</g>
	<path class="st5" d="M109.4,27.3H43.1c-9.1,0-16.4,7.4-16.4,16.4V59"/>
	<path class="st5" d="M231.4,59V43.7c0-9.1-7.4-16.4-16.4-16.4h-50.4"/>
	<path class="st5" d="M265.8,190.6h155.1c9.1,0,16.4-7.4,16.4-16.4V159"/>
	<path class="st5" d="M26.6,159v15.3c0,9.1,7.4,16.4,16.4,16.4h167.4"/>
	<g>
		<g>
			<g>
				<path class="st6" d="M137,43.1c-8.7,0-15.8-7.1-15.8-15.8s7.1-15.8,15.8-15.8s15.8,7.1,15.8,15.8S145.8,43.1,137,43.1z
					 M137,12.3c-8.3,0-15,6.7-15,15s6.7,15,15,15s15-6.7,15-15S145.3,12.3,137,12.3z"/>
			</g>
			<path class="st6" d="M148.5,6.7c-0.6,0.3-1.2,0.8-2,1.4c-1.3,1.1-2.9,2.7-4.8,4.8c-3.6,3.9-8,9.3-11.8,14.3
				c-3.7,4.9-6.3,9-7.8,12.2c-0.8,1.6-1.3,2.9-1.5,4c-0.1,0.6-0.1,1.1-0.1,1.6c0,0.4,0.2,0.8,0.5,1c0.5,0.5,1.1,0.9,1.6,1.3
				c1.1,0.8,2.5,0.8,3.7,0.1l0,0c0.9-0.5,2-1.4,2.9-2.3l-3.3-1.7c1.2-2.9,3.8-7.1,8.2-13c3.2-4.3,7-9,10.2-12.6
				c2.2-2.4,4.1-4.6,5.5-5.8l2.6,1.3c0.3-0.7,0.7-1.7,0.8-2.4l0,0c0.3-1.1-0.2-2.3-1.1-3c-0.6-0.5-1.3-1-2-1.4
				c-0.3-0.2-0.6-0.2-0.9-0.1C149.1,6.4,148.8,6.6,148.5,6.7z"/>
			<path class="st6" d="M125.4,6.7c0.6,0.3,1.2,0.8,2,1.4c1.3,1.1,2.9,2.7,4.8,4.8c3.6,3.9,8,9.3,11.8,14.3c3.7,4.9,6.3,9,7.8,12.2
				c0.8,1.6,1.3,2.9,1.5,4c0.1,0.6,0.1,1.1,0.1,1.6c0,0.4-0.2,0.8-0.5,1c-0.5,0.5-1.1,0.9-1.6,1.3c-1.1,0.8-2.5,0.8-3.7,0.1l0,0
				c-0.9-0.5-2-1.4-2.9-2.3l3.3-1.7c-1.2-2.9-3.8-7.1-8.2-13c-3.2-4.3-7-9-10.2-12.6c-2.2-2.4-4.1-4.6-5.5-5.8l-2.6,1.3
				c-0.3-0.7-0.7-1.7-0.8-2.4l0,0c-0.3-1.1,0.2-2.3,1.1-3c0.6-0.5,1.3-1,2-1.4c0.3-0.2,0.6-0.2,0.9-0.1
				C124.8,6.4,125.1,6.6,125.4,6.7z"/>
			<g class="st7">
				<g>
					<path class="st6" d="M155.8,15l-18.2-9.4c-0.3-0.2-0.7-0.2-1.1,0L118.3,15c-0.4,0.2-0.6,0.6-0.6,1v22.4c0,0.4,0.2,0.8,0.6,1
						l18.2,9.4c0.2,0.1,0.3,0.1,0.5,0.1s0.4,0,0.5-0.1l18.2-9.4c0.4-0.2,0.6-0.6,0.6-1V16.1C156.4,15.6,156.2,15.2,155.8,15z
						 M138.3,45.9l-1.1-8.3c0-0.3-0.4-0.3-0.5,0l-1.1,8.3L120,37.8V18.1l8.5,2.8c0.3,0.1,0.4-0.3,0.2-0.4l-7-4.5l15.4-8l15.4,7.9
						l-7.1,4.6c-0.2,0.1-0.1,0.5,0.2,0.4l8.5-2.8v19.7L138.3,45.9z"/>
				</g>
			</g>
			<path class="st6" d="M135.3,29c1.6-1.9,1.9-1.9,3.4,0c0.5,0-1.7-4.3-1.7-4.3S135.1,29,135.3,29z"/>
		</g>
	</g>
	<path class="st5" d="M312.2,27.3h-54.1c-9.1,0-16.4,7.4-16.4,16.4V59"/>
	<path class="st5" d="M427.3,59V43.7c0-9.1-7.4-16.4-16.4-16.4h-43.4"/>
	<g>
		<g>
			<g>
				<path class="st6" d="M339.9,43.1c-8.7,0-15.8-7.1-15.8-15.8s7.1-15.8,15.8-15.8c8.7,0,15.8,7.1,15.8,15.8S348.6,43.1,339.9,43.1
					z M339.9,12.3c-8.3,0-15,6.7-15,15s6.7,15,15,15s15-6.7,15-15S348.1,12.3,339.9,12.3z"/>
			</g>
			<path class="st6" d="M351.4,6.7c-0.6,0.3-1.2,0.8-2,1.4c-1.3,1.1-2.9,2.7-4.8,4.8c-3.6,3.9-8,9.3-11.8,14.3
				c-3.7,4.9-6.3,9-7.8,12.2c-0.8,1.6-1.3,2.9-1.5,4c-0.1,0.6-0.1,1.1-0.1,1.6c0,0.4,0.2,0.8,0.5,1c0.5,0.5,1.1,0.9,1.6,1.3
				c1.1,0.8,2.5,0.8,3.7,0.1l0,0c0.9-0.5,2-1.4,2.9-2.3l-3.3-1.7c1.2-2.9,3.8-7.1,8.2-13c3.2-4.3,7-9,10.2-12.6
				c2.2-2.4,4.1-4.6,5.5-5.8l2.6,1.3c0.3-0.7,0.7-1.7,0.8-2.4l0,0c0.3-1.1-0.2-2.3-1.1-3c-0.6-0.5-1.3-1-2-1.4
				c-0.3-0.2-0.6-0.2-0.9-0.1C352,6.4,351.7,6.6,351.4,6.7z"/>
			<path class="st6" d="M328.3,6.7c0.6,0.3,1.2,0.8,2,1.4c1.3,1.1,2.9,2.7,4.8,4.8c3.6,3.9,8,9.3,11.8,14.3c3.7,4.9,6.3,9,7.8,12.2
				c0.8,1.6,1.3,2.9,1.5,4c0.1,0.6,0.1,1.1,0.1,1.6c0,0.4-0.2,0.8-0.5,1c-0.5,0.5-1.1,0.9-1.6,1.3c-1.1,0.8-2.5,0.8-3.7,0.1l0,0
				c-0.9-0.5-2-1.4-2.9-2.3l3.3-1.7c-1.2-2.9-3.8-7.1-8.2-13c-3.2-4.3-7-9-10.2-12.6c-2.2-2.4-4.1-4.6-5.5-5.8l-2.6,1.3
				c-0.3-0.7-0.7-1.7-0.8-2.4l0,0c-0.3-1.1,0.2-2.3,1.1-3c0.6-0.5,1.3-1,2-1.4c0.3-0.2,0.6-0.2,0.9-0.1C327.7,6.4,328,6.6,328.3,6.7
				z"/>
			<g class="st7">
				<g>
					<path class="st6" d="M358.6,15l-18.2-9.4c-0.3-0.2-0.7-0.2-1.1,0L321.1,15c-0.4,0.2-0.6,0.6-0.6,1v22.4c0,0.4,0.2,0.8,0.6,1
						l18.2,9.4c0.2,0.1,0.3,0.1,0.5,0.1s0.4,0,0.5-0.1l18.2-9.4c0.4-0.2,0.6-0.6,0.6-1V16.1C359.3,15.6,359,15.2,358.6,15z
						 M341.2,45.9l-1.1-8.3c0-0.3-0.4-0.3-0.5,0l-1.1,8.3l-15.8-8.1V18.1l8.5,2.8c0.3,0.1,0.4-0.3,0.2-0.4l-7-4.5l15.4-8l15.4,7.9
						l-7.1,4.6c-0.2,0.1-0.1,0.5,0.2,0.4l8.5-2.8v19.7L341.2,45.9z"/>
				</g>
			</g>
			<path class="st6" d="M338.1,29c1.6-1.9,1.9-1.9,3.4,0c0.5,0-1.7-4.3-1.7-4.3S337.9,29,338.1,29z"/>
		</g>
	</g>
	<path class="st5" d="M510.2,27.3H456c-9.1,0-16.4,7.4-16.4,16.4V59"/>
	<path class="st5" d="M635.2,59V43.7c0-9.1-7.4-16.4-16.4-16.4h-53.4"/>
	<g>
		<g>
			<g>
				<path class="st6" d="M537.8,43.1c-8.7,0-15.8-7.1-15.8-15.8s7.1-15.8,15.8-15.8s15.8,7.1,15.8,15.8S546.5,43.1,537.8,43.1z
					 M537.8,12.3c-8.3,0-15,6.7-15,15s6.7,15,15,15s15-6.7,15-15S546.1,12.3,537.8,12.3z"/>
			</g>
			<path class="st6" d="M549.3,6.7c-0.6,0.3-1.2,0.8-2,1.4c-1.3,1.1-2.9,2.7-4.8,4.8c-3.6,3.9-8,9.3-11.8,14.3
				c-3.7,4.9-6.3,9-7.8,12.2c-0.8,1.6-1.3,2.9-1.5,4c-0.1,0.6-0.1,1.1-0.1,1.6c0,0.4,0.2,0.8,0.5,1c0.5,0.5,1.1,0.9,1.6,1.3
				c1.1,0.8,2.5,0.8,3.7,0.1l0,0c0.9-0.5,2-1.4,2.9-2.3l-3.3-1.7c1.2-2.9,3.8-7.1,8.2-13c3.2-4.3,7-9,10.2-12.6
				c2.2-2.4,4.1-4.6,5.5-5.8l2.6,1.3c0.3-0.7,0.7-1.7,0.8-2.4l0,0c0.3-1.1-0.2-2.3-1.1-3c-0.6-0.5-1.3-1-2-1.4
				c-0.3-0.2-0.6-0.2-0.9-0.1C549.9,6.4,549.6,6.6,549.3,6.7z"/>
			<path class="st6" d="M526.2,6.7c0.6,0.3,1.2,0.8,2,1.4c1.3,1.1,2.9,2.7,4.8,4.8c3.6,3.9,8,9.3,11.8,14.3c3.7,4.9,6.3,9,7.8,12.2
				c0.8,1.6,1.3,2.9,1.5,4c0.1,0.6,0.1,1.1,0.1,1.6c0,0.4-0.2,0.8-0.5,1c-0.5,0.5-1.1,0.9-1.6,1.3c-1.1,0.8-2.5,0.8-3.7,0.1l0,0
				c-0.9-0.5-2-1.4-2.9-2.3l3.3-1.7c-1.2-2.9-3.8-7.1-8.2-13c-3.2-4.3-7-9-10.2-12.6c-2.2-2.4-4.1-4.6-5.5-5.8l-2.6,1.3
				c-0.3-0.7-0.7-1.7-0.8-2.4l0,0c-0.3-1.1,0.2-2.3,1.1-3c0.6-0.5,1.3-1,2-1.4c0.3-0.2,0.6-0.2,0.9-0.1
				C525.6,6.4,525.9,6.6,526.2,6.7z"/>
			<g class="st7">
				<g>
					<path class="st6" d="M556.6,15l-18.2-9.4c-0.3-0.2-0.7-0.2-1.1,0L519,15c-0.4,0.2-0.6,0.6-0.6,1v22.4c0,0.4,0.2,0.8,0.6,1
						l18.2,9.4c0.2,0.1,0.3,0.1,0.5,0.1s0.4,0,0.5-0.1l18.2-9.4c0.4-0.2,0.6-0.6,0.6-1V16.1C557.2,15.6,556.9,15.2,556.6,15z
						 M539.1,45.9l-1.1-8.3c0-0.3-0.4-0.3-0.5,0l-1.1,8.3l-15.8-8.1V18.1l8.5,2.8c0.3,0.1,0.4-0.3,0.2-0.4l-7-4.5l15.4-8l15.4,7.9
						l-7.1,4.6c-0.2,0.1-0.1,0.5,0.2,0.4l8.5-2.8v19.7L539.1,45.9z"/>
				</g>
			</g>
			<path class="st6" d="M536,29c1.6-1.9,1.9-1.9,3.4,0c0.5,0-1.7-4.3-1.7-4.3S535.8,29,536,29z"/>
		</g>
	</g>
	<g>
		<g>
			<g>
				<path class="st6" d="M238.1,204.6c-8.7,0-15.8-7.1-15.8-15.8s7.1-15.8,15.8-15.8s15.8,7.1,15.8,15.8
					C254,197.5,246.9,204.6,238.1,204.6z M238.1,173.8c-8.3,0-15,6.7-15,15s6.7,15,15,15s15-6.7,15-15
					C253.1,180.6,246.4,173.8,238.1,173.8z"/>
			</g>
			<path class="st6" d="M249.6,168.3c-0.6,0.3-1.2,0.8-2,1.4c-1.3,1.1-2.9,2.7-4.8,4.8c-3.6,3.9-8,9.3-11.8,14.3
				c-3.7,4.9-6.3,9-7.8,12.2c-0.8,1.6-1.3,2.9-1.5,4c-0.1,0.6-0.1,1.1-0.1,1.6c0,0.4,0.2,0.8,0.5,1c0.5,0.5,1.1,0.9,1.6,1.3
				c1.1,0.8,2.5,0.8,3.7,0.1l0,0c0.9-0.5,2-1.4,2.9-2.3L227,205c1.2-2.9,3.8-7.1,8.2-13c3.2-4.3,7-9,10.2-12.6
				c2.2-2.4,4.1-4.6,5.5-5.8l2.6,1.3c0.3-0.7,0.7-1.7,0.8-2.4l0,0c0.3-1.1-0.2-2.3-1.1-3c-0.6-0.5-1.3-1-2-1.4
				c-0.3-0.2-0.6-0.2-0.9-0.1C250.2,168,249.9,168.1,249.6,168.3z"/>
			<path class="st6" d="M226.5,168.3c0.6,0.3,1.2,0.8,2,1.4c1.3,1.1,2.9,2.7,4.8,4.8c3.6,3.9,8,9.3,11.8,14.3
				c3.7,4.9,6.3,9,7.8,12.2c0.8,1.6,1.3,2.9,1.5,4c0.1,0.6,0.1,1.1,0.1,1.6c0,0.4-0.2,0.8-0.5,1c-0.5,0.5-1.1,0.9-1.6,1.3
				c-1.1,0.8-2.5,0.8-3.7,0.1l0,0c-0.9-0.5-2-1.4-2.9-2.3l3.3-1.7c-1.2-2.9-3.8-7.1-8.2-13c-3.2-4.3-7-9-10.2-12.6
				c-2.2-2.4-4.1-4.6-5.5-5.8l-2.6,1.3c-0.3-0.7-0.7-1.7-0.8-2.4l0,0c-0.3-1.1,0.2-2.3,1.1-3c0.6-0.5,1.3-1,2-1.4
				c0.3-0.2,0.6-0.2,0.9-0.1C225.9,168,226.2,168.1,226.5,168.3z"/>
			<g class="st7">
				<g>
					<path class="st6" d="M256.9,176.6l-18.2-9.4c-0.3-0.2-0.7-0.2-1.1,0l-18.2,9.4c-0.4,0.2-0.6,0.6-0.6,1V200c0,0.4,0.2,0.8,0.6,1
						l18.2,9.4c0.2,0.1,0.3,0.1,0.5,0.1s0.4,0,0.5-0.1l18.2-9.4c0.4-0.2,0.6-0.6,0.6-1v-22.4C257.5,177.2,257.3,176.8,256.9,176.6z
						 M239.4,207.5l-1.1-8.3c0-0.3-0.4-0.3-0.5,0l-1.1,8.3l-15.8-8.1v-19.7l8.5,2.8c0.3,0.1,0.4-0.3,0.2-0.4l-7-4.5l15.4-8l15.4,7.9
						l-7.1,4.6c-0.2,0.1-0.1,0.5,0.2,0.4l8.5-2.8v19.7L239.4,207.5z"/>
				</g>
			</g>
			<path class="st6" d="M236.4,190.6c1.6-1.9,1.9-1.9,3.4,0c0.5,0-1.7-4.3-1.7-4.3S236.2,190.6,236.4,190.6z"/>
		</g>
	</g>
	<path class="st5" d="M367.8,220.6h251.1c9.1,0,16.4-7.4,16.4-16.4V189"/>
	<path class="st5" d="M26.6,189v15.3c0,9.1,7.4,16.4,16.4,16.4h269.4"/>
	<path class="st5" d="M237.1,229.7V245c0,9.1,7.4,16.4,16.4,16.4h149"/>
	<path class="st5" d="M636,229.7V245c0,9.1-7.4,16.4-16.4,16.4h-154"/>
	<g>
		<g>
			<g>
				<path class="st6" d="M433.6,278.2c-8.7,0-15.8-7.1-15.8-15.8c0-8.7,7.1-15.8,15.8-15.8c8.7,0,15.8,7.1,15.8,15.8
					C449.4,271.1,442.3,278.2,433.6,278.2z M433.6,247.4c-8.3,0-15,6.7-15,15c0,8.3,6.7,15,15,15s15-6.7,15-15
					C448.5,254.2,441.8,247.4,433.6,247.4z"/>
			</g>
			<path class="st6" d="M445.1,241.9c-0.6,0.3-1.2,0.8-2,1.4c-1.3,1.1-2.9,2.7-4.8,4.8c-3.6,3.9-8,9.3-11.8,14.3
				c-3.7,4.9-6.3,9-7.8,12.2c-0.8,1.6-1.3,2.9-1.5,4c-0.1,0.6-0.1,1.1-0.1,1.6c0,0.4,0.2,0.8,0.5,1c0.5,0.5,1.1,0.9,1.6,1.3
				c1.1,0.8,2.5,0.8,3.7,0.1l0,0c0.9-0.5,2-1.4,2.9-2.3l-3.3-1.7c1.2-2.9,3.8-7.1,8.2-13c3.2-4.3,7-9,10.2-12.6
				c2.2-2.4,4.1-4.6,5.5-5.8l2.6,1.3c0.3-0.7,0.7-1.7,0.8-2.4l0,0c0.3-1.1-0.2-2.3-1.1-3c-0.6-0.5-1.3-1-2-1.4
				c-0.3-0.2-0.6-0.2-0.9-0.1C445.7,241.6,445.4,241.7,445.1,241.9z"/>
			<path class="st6" d="M422,241.9c0.6,0.3,1.2,0.8,2,1.4c1.3,1.1,2.9,2.7,4.8,4.8c3.6,3.9,8,9.3,11.8,14.3c3.7,4.9,6.3,9,7.8,12.2
				c0.8,1.6,1.3,2.9,1.5,4c0.1,0.6,0.1,1.1,0.1,1.6c0,0.4-0.2,0.8-0.5,1c-0.5,0.5-1.1,0.9-1.6,1.3c-1.1,0.8-2.5,0.8-3.7,0.1l0,0
				c-0.9-0.5-2-1.4-2.9-2.3l3.3-1.7c-1.2-2.9-3.8-7.1-8.2-13c-3.2-4.3-7-9-10.2-12.6c-2.2-2.4-4.1-4.6-5.5-5.8l-2.6,1.3
				c-0.3-0.7-0.7-1.7-0.8-2.4l0,0c-0.3-1.1,0.2-2.3,1.1-3c0.6-0.5,1.3-1,2-1.4c0.3-0.2,0.6-0.2,0.9-0.1
				C421.4,241.6,421.6,241.7,422,241.9z"/>
			<g class="st7">
				<g>
					<path class="st6" d="M452.3,250.2l-18.2-9.4c-0.3-0.2-0.7-0.2-1.1,0l-18.2,9.4c-0.4,0.2-0.6,0.6-0.6,1v22.4
						c0,0.4,0.2,0.8,0.6,1L433,284c0.2,0.1,0.3,0.1,0.5,0.1s0.4,0,0.5-0.1l18.2-9.4c0.4-0.2,0.6-0.6,0.6-1v-22.4
						C452.9,250.8,452.7,250.4,452.3,250.2z M434.8,281.1l-1.1-8.3c0-0.3-0.4-0.3-0.5,0l-1.1,8.3l-15.8-8.1v-19.7l8.5,2.8
						c0.3,0.1,0.4-0.3,0.2-0.4l-7-4.5l15.4-8L449,251l-7.1,4.6c-0.2,0.1-0.1,0.5,0.2,0.4l8.5-2.8v19.7L434.8,281.1z"/>
				</g>
			</g>
			<path class="st6" d="M431.8,264.2c1.6-1.9,1.9-1.9,3.4,0c0.5,0-1.7-4.3-1.7-4.3S431.6,264.2,431.8,264.2z"/>
		</g>
	</g>
	<g>
		<g>
			<g>
				<path class="st6" d="M338.1,236.5c-8.7,0-15.8-7.1-15.8-15.8s7.1-15.8,15.8-15.8c8.7,0,15.8,7.1,15.8,15.8
					S346.8,236.5,338.1,236.5z M338.1,205.7c-8.3,0-15,6.7-15,15s6.7,15,15,15s15-6.7,15-15S346.4,205.7,338.1,205.7z"/>
			</g>
			<path class="st6" d="M349.6,200.1c-0.6,0.3-1.2,0.8-2,1.4c-1.3,1.1-2.9,2.7-4.8,4.8c-3.6,3.9-8,9.3-11.8,14.3
				c-3.7,4.9-6.3,9-7.8,12.2c-0.8,1.6-1.3,2.9-1.5,4c-0.1,0.6-0.1,1.1-0.1,1.6c0,0.4,0.2,0.8,0.5,1c0.5,0.5,1.1,0.9,1.6,1.3
				c1.1,0.8,2.5,0.8,3.7,0.1l0,0c0.9-0.5,2-1.4,2.9-2.3l-3.3-1.7c1.2-2.9,3.8-7.1,8.2-13c3.2-4.3,7-9,10.2-12.6
				c2.2-2.4,4.1-4.6,5.5-5.8l2.6,1.3c0.3-0.7,0.7-1.7,0.8-2.4l0,0c0.3-1.1-0.2-2.3-1.1-3c-0.6-0.5-1.3-1-2-1.4
				c-0.3-0.2-0.6-0.2-0.9-0.1C350.2,199.8,349.9,199.9,349.6,200.1z"/>
			<path class="st6" d="M326.5,200.1c0.6,0.3,1.2,0.8,2,1.4c1.3,1.1,2.9,2.7,4.8,4.8c3.6,3.9,8,9.3,11.8,14.3
				c3.7,4.9,6.3,9,7.8,12.2c0.8,1.6,1.3,2.9,1.5,4c0.1,0.6,0.1,1.1,0.1,1.6c0,0.4-0.2,0.8-0.5,1c-0.5,0.5-1.1,0.9-1.6,1.3
				c-1.1,0.8-2.5,0.8-3.7,0.1l0,0c-0.9-0.5-2-1.4-2.9-2.3l3.3-1.7c-1.2-2.9-3.8-7.1-8.2-13c-3.2-4.3-7-9-10.2-12.6
				c-2.2-2.4-4.1-4.6-5.5-5.8l-2.6,1.3c-0.3-0.7-0.7-1.7-0.8-2.4l0,0c-0.3-1.1,0.2-2.3,1.1-3c0.6-0.5,1.3-1,2-1.4
				c0.3-0.2,0.6-0.2,0.9-0.1C325.9,199.8,326.2,199.9,326.5,200.1z"/>
			<g class="st7">
				<g>
					<path class="st6" d="M356.9,208.4l-18.2-9.4c-0.3-0.2-0.7-0.2-1.1,0l-18.2,9.4c-0.4,0.2-0.6,0.6-0.6,1v22.4
						c0,0.4,0.2,0.8,0.6,1l18.2,9.4c0.2,0.1,0.3,0.1,0.5,0.1s0.4,0,0.5-0.1l18.2-9.4c0.4-0.2,0.6-0.6,0.6-1v-22.4
						C357.5,209,357.2,208.6,356.9,208.4z M339.4,239.3l-1.1-8.3c0-0.3-0.4-0.3-0.5,0l-1.1,8.3l-15.8-8.1v-19.7l8.5,2.8
						c0.3,0.1,0.4-0.3,0.2-0.4l-7-4.5l15.4-8l15.4,7.9l-7.1,4.6c-0.2,0.1-0.1,0.5,0.2,0.4l8.5-2.8v19.7L339.4,239.3z"/>
				</g>
			</g>
			<path class="st6" d="M336.3,222.4c1.6-1.9,1.9-1.9,3.4,0c0.5,0-1.7-4.3-1.7-4.3S336.1,222.4,336.3,222.4z"/>
		</g>
	</g>
	<g>
		<g class="st8">
			<path class="st0" d="M634.3,61.6l-34,19.7v39.3l34,19.7l34-19.7V81.3L634.3,61.6z M663,114.3l-8-4.6c-0.1,0.3-0.2,0.7-0.4,1
				c-0.3,0.4-0.7,0.6-1.1,0.8c-0.5,0.1-0.9,0.2-1.4,0.2c-0.9,0-1.8-0.2-2.6-0.6c0.1,0.3,0.1,0.5,0.2,0.8l0,0
				c0.1,0.4,0.2,0.8,0.3,1.2l10.4,6L637,132.4V120c-0.3,0.5-0.5,0.9-0.7,1.3c-0.9,1.8-1.3,3.8-1.2,5.7l0,0l0,0l0,0
				c0,0.5-0.2,1.1-0.5,1.5c-0.4,0.4-0.8,0.7-1.4,0.7l0,0l0,0l0,0c-0.1,0-0.2,0-0.3,0c-0.5,0-0.9-0.2-1.3-0.5v3.6L608.4,119l5.1-3
				c0.5-0.9,1-1.7,1.6-2.4c0.7-0.8,1.4-1.5,2.3-2.1l0.1-0.1c0.7-0.5,1.3-1,2-1.4c-0.7-0.1-1.4-0.2-2-0.2c-0.5,0-0.9,0.1-1.3,0.2
				c-0.3,0.1-0.6,0.2-0.9,0.2c-0.3,0-0.7-0.1-1-0.2c-0.2-0.1-0.4-0.2-0.5-0.3l-8.2,4.7V87.5l8,4.6c0.1-0.3,0.2-0.7,0.4-1
				c0.3-0.4,0.7-0.6,1.1-0.8c0.5-0.1,0.9-0.2,1.4-0.2c0.9,0,1.8,0.2,2.6,0.6c-0.1-0.3-0.1-0.5-0.2-0.8l0,0l0,0l0,0l0,0
				c-0.1-0.4-0.2-0.8-0.3-1.2l-10.4-6l23.2-13.4v12.5c0.3-0.5,0.5-0.9,0.7-1.4c0.9-1.8,1.3-3.8,1.2-5.7l0,0l0,0l0,0l0,0l0,0
				c0-0.5,0.2-1.1,0.5-1.5c0.4-0.4,0.8-0.7,1.4-0.7l0,0l0,0l0,0c0.1,0,0.2,0,0.3,0c0.5,0,0.9,0.2,1.3,0.4v-3.5L660,82.8l-5.1,3
				c-0.5,0.9-1,1.7-1.6,2.4c-0.7,0.8-1.4,1.5-2.3,2.1l-0.1,0.1c-0.7,0.5-1.3,0.9-2,1.4c0.7,0.1,1.4,0.2,2,0.2c0.5,0,0.9-0.1,1.3-0.2
				c0.3-0.1,0.6-0.2,0.9-0.2c0.3,0,0.7,0.1,1,0.2c0.2,0.1,0.4,0.2,0.5,0.4l8.2-4.7L663,114.3L663,114.3z"/>
		</g>
		<path class="st0" d="M660.8,102.3c0-0.1-0.1-0.2-0.2-0.2l0,0l0,0c-0.3,0-0.5,0-0.8,0c-2,0-4-0.5-5.9-1.4c-0.7-0.3-1.4-0.7-2.1-1.1
			c-0.8-0.5-1.6-0.9-2.4-1.3c-1-0.4-1.9-0.7-2.7-0.8c-0.2,0-0.3,0-0.4,0c-0.2,0-0.4,0-0.6,0c-0.2,0-0.3,0.1-0.5,0.1
			c0.7-0.9,1.6-1.2,2.7-1.4c0.3,0,0.7-0.1,1-0.1c0.1,0,0.2,0,0.3,0c0.5-0.1,1-0.1,1.5-0.2c1-0.2,2.3-0.9,2.9-2l0,0
			c0-0.1,0-0.2,0-0.2s0,0-0.1,0h-0.1h-0.1c-0.4,0.2-0.9,0.3-1.4,0.3c-0.2,0-0.4,0-0.6,0c-0.8,0-1.7-0.1-2.6-0.3
			c-0.2,0-0.4-0.1-0.5-0.1c-0.8-0.1-1.6-0.2-2.4-0.2c-1,0-1.9,0.2-2.6,0.7c0.8-1.6,2.1-2.3,3.3-3c1.4-0.7,2.5-1.5,3.7-2.4l0.1-0.1
			c0.2-0.1,0.3-0.3,0.5-0.4c0.5-0.4,1-0.9,1.4-1.4c0.8-1,1.5-2.2,2-3.5c0-0.1,0-0.2-0.1-0.2l0,0H654c-0.1,0-0.1,0-0.1,0.1l0,0
			c-1.5,1.7-3.5,3-5.7,3.7c-0.7,0.3-1.5,0.5-2.3,0.6c-0.9,0.2-1.8,0.5-2.6,0.8c-1.7,0.6-2.9,1.5-3.5,2.6c-0.2-1.5,0.7-2.5,1.6-3.7
			c0.4-0.5,0.8-0.9,1.1-1.5c0.5-0.9,1-2.2,0.7-3.4c0-0.1-0.1-0.2-0.2-0.2l0,0c-0.1,0-0.2,0.1-0.2,0.1c-0.5,1.4-1.9,2.4-3.2,3.4
			c-0.1,0.1-0.3,0.2-0.4,0.3c-0.4,0.3-0.9,0.7-1.3,1.1c-0.2,0.2-0.3,0.3-0.5,0.5c-0.7,0.7-1.2,1.5-1.3,2.4c-0.5-1.7-0.2-3.1,0.3-4.4
			c0.5-1.5,0.7-2.8,1-4.3v-0.1c0-0.3,0.1-0.6,0.1-0.9c0-0.5,0-0.9,0-1.4c-0.1-1.4-0.5-2.8-1.1-4.2c0-0.1-0.1-0.1-0.2-0.1l0,0l0,0
			c-0.1,0-0.2,0.1-0.2,0.2l0,0c0.1,2.2-0.3,4.6-1.4,6.7c-0.3,0.7-0.7,1.4-1.1,2.1c-0.5,0.8-0.9,1.6-1.3,2.4c0,0,0,0.1-0.1,0.1
			c-0.2,0.5-0.4,1-0.5,1.5c-0.2,1-0.3,1.9-0.1,2.7c-1.2-0.9-1.3-2.3-1.5-3.7c-0.1-0.6-0.1-1.2-0.3-1.8c-0.2-1-0.9-2.3-2-2.9l0,0
			h-0.1c-0.1,0-0.1,0-0.2,0.1c-0.1,0.1-0.1,0.2,0,0.2c0.6,1.4,0.3,3,0.1,4.7c0,0.2-0.1,0.4-0.1,0.5c-0.2,1.7-0.5,3.7,0.5,5
			c-1.6-0.8-2.3-2.1-2.9-3.3c-0.7-1.4-1.5-2.5-2.4-3.7l-0.1-0.1c-1.2-1.7-3-3-5.3-3.9h-0.1c-0.1,0-0.1,0-0.2,0.1l0,0
			c-0.1,0.1,0,0.2,0,0.3l0,0c1.7,1.5,3,3.5,3.7,5.7c0.3,0.7,0.5,1.5,0.6,2.3l0,0c0.1,0.2,0.1,0.5,0.2,0.7c0.2,0.6,0.4,1.3,0.6,1.9
			c0.6,1.7,1.5,2.9,2.6,3.5c-0.2,0-0.3,0-0.4,0c-1.2,0-2.2-0.8-3.2-1.6c-0.5-0.4-0.9-0.8-1.5-1.1c-0.7-0.4-1.6-0.8-2.5-0.8
			c-0.3,0-0.6,0-0.9,0.1c-0.1,0-0.2,0.1-0.2,0.2s0.1,0.2,0.1,0.2c1,0.4,1.7,1.2,2.5,2c0.3,0.3,0.6,0.7,0.8,1.1l0.1,0.1
			c0.1,0.1,0.2,0.3,0.3,0.4c1,1.4,2.3,3,3.9,3.2c-0.6,0.2-1.2,0.3-1.7,0.3c-1,0-1.9-0.3-2.7-0.5c-1.5-0.5-2.8-0.7-4.3-1h-0.1
			c-0.5-0.1-1-0.1-1.6-0.1c-1.6,0-3.2,0.4-4.9,1.1c-0.1,0-0.2,0.1-0.1,0.2l0,0c0,0.1,0.1,0.2,0.2,0.2l0,0l0,0c0.3,0,0.5,0,0.8,0
			c2,0,4,0.5,5.9,1.4c0.7,0.3,1.4,0.7,2.1,1.1c0.8,0.5,1.6,0.9,2.4,1.3c1,0.4,1.9,0.7,2.7,0.8c0.2,0,0.3,0,0.4,0c0.2,0,0.4,0,0.6,0
			c0.2,0,0.3-0.1,0.5-0.1c-0.7,0.9-1.6,1.2-2.7,1.4c-0.3,0-0.7,0.1-1,0.1c-0.1,0-0.2,0-0.3,0c-0.5,0.1-1,0.1-1.5,0.2
			c-1,0.2-2.3,0.9-2.9,2l0,0c0,0.1,0,0.2,0,0.2s0,0,0.1,0h0.1h0.1c0.4-0.2,0.9-0.3,1.4-0.3c0.2,0,0.4,0,0.6,0c0.8,0,1.7,0.1,2.6,0.3
			c0.2,0,0.4,0.1,0.5,0.1c0.8,0.1,1.6,0.2,2.4,0.2c1,0,1.9-0.2,2.6-0.7c-0.8,1.6-2.1,2.3-3.3,2.9c-1.4,0.7-2.5,1.5-3.7,2.4l-0.1,0.1
			c-0.2,0.1-0.3,0.3-0.5,0.4c-0.5,0.4-1,0.9-1.4,1.4c-0.8,1-1.5,2.2-2,3.5c0,0.1,0,0.2,0.1,0.2l0,0h0.1c0.1,0,0.1,0,0.1-0.1l0,0
			c1.5-1.7,3.5-3,5.7-3.7c0.7-0.3,1.5-0.5,2.3-0.6c0.9-0.2,1.8-0.5,2.6-0.8c1.7-0.6,2.9-1.5,3.5-2.6c0.2,1.5-0.7,2.5-1.6,3.7
			c-0.4,0.5-0.8,0.9-1.1,1.5c-0.5,0.9-1,2.2-0.7,3.4c0,0.1,0.1,0.2,0.2,0.2l0,0c0.1,0,0.2-0.1,0.2-0.1c0.5-1.4,1.9-2.4,3.2-3.4
			c0.1-0.1,0.3-0.2,0.4-0.3c0.4-0.3,0.9-0.7,1.3-1.1c0.2-0.2,0.3-0.3,0.5-0.5c0.7-0.7,1.3-1.5,1.4-2.4c0.5,1.7,0.2,3.1-0.3,4.4
			c-0.5,1.5-0.7,2.8-1,4.3v0.1c-0.1,0.4-0.1,0.7-0.1,1.1c0,0.3,0,0.6,0,0.9c0.1,1.4,0.4,3,1.1,4.5c0,0.1,0.1,0.1,0.2,0.1l0,0l0,0
			c0.1,0,0.2-0.1,0.2-0.2l0,0c-0.1-2.2,0.3-4.6,1.4-6.7c0.3-0.7,0.7-1.4,1.1-2.1c0.5-0.8,0.9-1.6,1.3-2.4v-0.1
			c0.2-0.5,0.4-1,0.5-1.4c0.3-1,0.3-1.9,0.1-2.8c1.2,0.9,1.3,2.3,1.5,3.7c0.1,0.6,0.1,1.2,0.3,1.8c0.2,1,0.9,2.3,2,2.9l0,0h0.1
			c0.1,0,0.1,0,0.2-0.1c0.1-0.1,0.1-0.2,0-0.2c-0.6-1.4-0.3-3-0.1-4.7c0-0.2,0.1-0.4,0.1-0.5c0.2-1.7,0.5-3.7-0.5-5
			c1.6,0.8,2.3,2.1,3,3.3c0.7,1.4,1.5,2.5,2.4,3.7l0.1,0.1c1.2,1.7,3,3,5.3,3.9h0.1c0.1,0,0.1,0,0.2-0.1l0,0c0.1-0.1,0-0.2,0-0.3
			l0,0c-1.7-1.5-3-3.5-3.7-5.7c-0.3-0.7-0.5-1.5-0.6-2.3l0,0c-0.1-0.2-0.1-0.5-0.2-0.7c-0.2-0.6-0.4-1.3-0.6-1.9
			c-0.6-1.7-1.5-2.9-2.6-3.5c0.1,0,0.3,0,0.4,0c1.2,0,2.2,0.8,3.2,1.6c0.5,0.4,0.9,0.8,1.5,1.1c0.7,0.4,1.6,0.8,2.5,0.8l0,0
			c0.3,0,0.6,0,0.9-0.1c0.1,0,0.2-0.1,0.2-0.2s-0.1-0.2-0.1-0.2c-1-0.4-1.7-1.2-2.5-2c-0.3-0.3-0.6-0.7-0.8-1.1l-0.1-0.1
			c-0.1-0.1-0.2-0.3-0.3-0.4c-1-1.4-2.3-3-3.9-3.2c0.6-0.2,1.2-0.3,1.7-0.3c1,0,1.9,0.3,2.7,0.5c1.5,0.5,2.8,0.7,4.3,1h0.1
			c0.5,0.1,1,0.1,1.6,0.1l0,0C657.5,103.5,659.1,103.1,660.8,102.3C660.7,102.5,660.8,102.4,660.8,102.3L660.8,102.3L660.8,102.3z
			 M641.5,108.8c-2,1.9-4.7,3-7.5,2.9s-5.4-1.2-7.4-3.2s-3-4.7-2.9-7.5c0-2,0.6-3.9,1.7-5.6c0.1-0.2,0.2-0.3,0.3-0.5l0.1-0.1
			c0.3-0.4,0.7-0.8,1-1.2c2-1.9,4.7-3,7.5-2.9s5.4,1.2,7.4,3.2c1.9,2,3,4.7,2.9,7.5C644.7,104.2,643.5,106.8,641.5,108.8
			L641.5,108.8z"/>
		<path class="st0" d="M632.6,102.6C632.6,102.6,632.7,102.6,632.6,102.6c0.5,0.2,0.8,0.3,1,0.3c0.1,0,0.2,0,0.3,0s0.1,0,0.1,0
			s0,0.1-0.1,0.1c0,0,0,0-0.1,0.1c0,0,0,0,0.1,0s0.3,0,0.4,0c0.3,0,0.6,0,0.8,0c0.3,0,0.5,0,0.8,0c0.5,0,1,0,1.5-0.1
			c0.2,0,0.5-0.1,0.7-0.2s0.4-0.2,0.6-0.3c0.4-0.2,0.7-0.4,1-0.7l0.1-0.1c-0.2,0.1-0.6,0.3-1.1,0.4c-0.4,0.1-1,0.3-1.6,0.4
			s-1.3,0.2-2,0.2s-1.4,0-2,0C633,102.7,632.8,102.6,632.6,102.6L632.6,102.6z"/>
		<path class="st0" d="M636.6,104L636.6,104c0,0-0.1,0-0.2,0l0,0c-0.1,0-0.2,0-0.2,0.1c0.1,0,0.1,0,0.1,0
			C636.4,104,636.5,104,636.6,104z"/>
		<path class="st0" d="M630.4,100.2c-0.2,0-0.4-0.1-0.6-0.1C630,100.2,630.1,100.2,630.4,100.2c0,0.1,0.1,0.2,0.2,0.2s0.1,0,0.2,0
			c0.2,0,0.5,0,0.7,0h0.3c0.1,0,0.2,0,0.3,0h0.1l0,0c-0.4,0-0.8,0-1.2-0.1C630.7,100.3,630.5,100.3,630.4,100.2L630.4,100.2
			L630.4,100.2L630.4,100.2z"/>
		<path class="st0" d="M634.4,96c-0.1,0-0.1,0-0.2-0.1c-0.1,0-0.1,0.1-0.2,0.1c0.2,0.1,0.4,0.3,0.5,0.4c0.1,0,0.2-0.1,0.3-0.1
			L634.4,96L634.4,96z"/>
		<path class="st0" d="M635.3,100.7c0.1,0,0.2-0.1,0.3-0.1h0.1c0,0,0,0-0.1,0c-0.2,0-0.4,0-0.6,0.1l0,0l0,0
			C635.2,100.7,635.2,100.7,635.3,100.7C635.3,100.8,635.3,100.7,635.3,100.7L635.3,100.7z"/>
		<path class="st0" d="M630.9,103.7c0.2,0.1,0.5,0.1,0.7,0.2l0,0c-0.2,0-0.3-0.1-0.5-0.1C631.1,103.7,631,103.7,630.9,103.7
			c0,0-0.1-0.1-0.2-0.1l0,0C630.8,103.7,630.9,103.7,630.9,103.7L630.9,103.7z"/>
		<path class="st0" d="M630.7,103.6L630.7,103.6L630.7,103.6L630.7,103.6z"/>
		<path class="st0" d="M632.2,101.8C632.2,101.8,632.3,101.8,632.2,101.8s-0.2-0.1-0.4-0.2c-0.1,0-0.3,0-0.4,0c-0.1,0-0.2,0-0.3,0
			l0.1,0.1C631.5,101.8,631.9,101.8,632.2,101.8z"/>
		<path class="st0" d="M635.3,104.1c0.1,0,0.1,0,0.2,0h0.1l0,0c0.2,0,0.4-0.1,0.6-0.1c-0.2,0-0.4,0-0.6,0h-0.1c-0.1,0-0.3,0-0.5,0.1
			h0.1C635.1,104.1,635.2,104.1,635.3,104.1L635.3,104.1z"/>
		<path class="st0" d="M632.1,98.9L632.1,98.9c0,0.1,0.1,0.1,0.1,0.2h0.1C632.3,99.1,632.2,99,632.1,98.9z"/>
		<path class="st0" d="M632.2,96.7c-0.1,0-0.1,0.1-0.2,0.1c-0.1,0-0.1,0.1-0.2,0.1c0.3,0.1,0.5,0.1,0.8,0.2l0,0c0.1,0,0.1,0,0.2-0.1
			h0.1C632.7,96.9,632.4,96.9,632.2,96.7C632.2,96.7,632.2,96.7,632.2,96.7L632.2,96.7z"/>
		<path class="st0" d="M632.4,93.1C632.4,93.1,632.3,93.1,632.4,93.1c-0.1,0.1-0.2,0.1-0.2,0.2c0,0-0.1,0-0.2,0.1
			c-0.1,0-0.2,0.1-0.3,0.1h-0.1h0.1c0.4-0.1,0.7-0.2,1-0.2c0,0,0,0,0.1,0h-0.1C632.6,93.2,632.5,93.2,632.4,93.1L632.4,93.1z"/>
		<path class="st0" d="M636.7,96.8c0.1,0,0.2,0,0.3,0s0.1,0,0.2,0c-0.3-0.1-0.7-0.2-1-0.3h-0.1l0,0c0.1,0.1,0.2,0.1,0.3,0.2
			C636.5,96.7,636.5,96.8,636.7,96.8C636.6,96.9,636.7,96.9,636.7,96.8L636.7,96.8z"/>
		<path class="st0" d="M631.3,98.3c-0.1,0-0.1,0-0.2,0.1c0.1,0.1,0.2,0.1,0.3,0.2c0,0,0.1,0,0.1-0.1
			C631.5,98.4,631.4,98.4,631.3,98.3z"/>
		<path class="st0" d="M630.7,103.6L630.7,103.6L630.7,103.6L630.7,103.6z"/>
		<path class="st0" d="M638.7,95.1c-0.2-0.1-0.4-0.2-0.5-0.2s-0.1-0.1-0.2-0.1c0,0,0,0-0.1,0s-0.1,0-0.2,0h-0.1l0,0
			c0.2,0.1,0.3,0.2,0.5,0.2c0.1,0,0.1,0.1,0.2,0.1l0,0c0.4,0.1,1,0.3,1.7,0.6c0,0,0.1,0,0.1,0.1c-0.3-0.2-0.5-0.3-0.9-0.5
			C639,95.3,638.8,95.2,638.7,95.1L638.7,95.1z"/>
		<path class="st0" d="M633.5,100.8c-0.3,0-0.6,0.1-0.9,0.1C632.9,100.9,633.2,100.9,633.5,100.8c0.1,0.1,0.2,0.1,0.2,0.1
			C633.6,100.9,633.5,100.9,633.5,100.8L633.5,100.8L633.5,100.8z"/>
		<path class="st0" d="M634.6,104.1L634.6,104.1c0.3,0,0.5,0,0.6-0.1c-0.4,0-0.8,0-1.2,0c0.1,0,0.1,0,0.2,0c0.1,0,0.1,0,0.2,0
			C634.5,104.1,634.6,104.1,634.6,104.1z"/>
		<path class="st0" d="M637.6,104.2L637.6,104.2L637.6,104.2L637.6,104.2L637.6,104.2z"/>
		<path class="st0" d="M638.3,103.9c0.3-0.1,0.6-0.3,0.9-0.4l0,0h-0.1c0,0-0.1,0-0.1,0.1c0,0,0,0-0.1,0h-0.1l-0.3,0.1
			c-0.3,0.1-0.7,0.2-1.1,0.3l0,0c0.2,0,0.4-0.1,0.7-0.2C638.2,104,638.2,103.9,638.3,103.9L638.3,103.9z"/>
		<path class="st0" d="M636.7,104.2L636.7,104.2C636.8,104.2,636.8,104.2,636.7,104.2h0.2h0.2c0.1,0,0.2,0,0.3,0l0,0h-0.1
			C637.1,104.2,636.9,104.2,636.7,104.2L636.7,104.2L636.7,104.2z"/>
		<path class="st0" d="M637.1,103.9c-0.1,0-0.1,0-0.2,0l0,0C636.9,104,636.9,104,637.1,103.9C637,104,637,103.9,637.1,103.9
			L637.1,103.9z"/>
		<path class="st0" d="M636.8,104.1c0.2,0,0.3,0,0.5-0.1c0.5-0.1,0.9-0.2,1.3-0.4c0.1,0,0.2-0.1,0.3-0.1h0.1c0,0,0,0,0.1,0l0,0H639
			c0,0,0,0-0.1,0c-0.3,0.1-0.7,0.2-1.1,0.3c-0.2,0.1-0.5,0.1-0.7,0.2l0,0l0,0C636.9,104,636.9,104.1,636.8,104.1L636.8,104.1
			L636.8,104.1z"/>
		<path class="st0" d="M626.6,102C626.5,102,626.5,101.9,626.6,102c0.1,0.1,0.3,0.3,0.5,0.5c0.3,0.2,0.5,0.4,0.7,0.5
			c0.1,0,0.1,0,0.2,0.1c-0.1-0.1-0.2-0.1-0.3-0.2C627.3,102.6,626.9,102.3,626.6,102L626.6,102z"/>
		<path class="st0" d="M630.2,103.6L630.2,103.6h0.2c0,0,0,0,0.1,0l0,0C630.4,103.6,630.3,103.6,630.2,103.6L630.2,103.6z"/>
		<path class="st0" d="M629.9,103.4c-0.1,0-0.3-0.1-0.4-0.1c-0.3-0.1-0.5-0.2-0.7-0.3c0.3,0.2,0.6,0.3,0.9,0.4
			C629.7,103.4,629.8,103.4,629.9,103.4c0.1,0.1,0.2,0.2,0.4,0.2c-0.1,0-0.1-0.1-0.2-0.1C630.1,103.4,630,103.4,629.9,103.4
			L629.9,103.4z"/>
		<path class="st0" d="M630.4,103.5L630.4,103.5c-0.1,0-0.2-0.1-0.2-0.1C630.3,103.5,630.3,103.5,630.4,103.5
			C630.4,103.5,630.5,103.5,630.4,103.5c0.1,0.1,0.1,0.1,0.2,0.1C630.5,103.5,630.5,103.5,630.4,103.5L630.4,103.5z"/>
		<path class="st0" d="M630,103.6C630.1,103.6,630.1,103.6,630,103.6L630,103.6c0,0-0.1-0.1-0.2-0.1h-0.1l0.1,0.1
			C629.9,103.6,630,103.6,630,103.6L630,103.6z"/>
		<path class="st0" d="M628.5,103.1C628.4,103.1,628.4,103.1,628.5,103.1C628.4,103.1,628.4,103.1,628.5,103.1
			c0.1,0.1,0.3,0.2,0.5,0.3c0.3,0.1,0.6,0.2,0.8,0.2l-0.1-0.1l0,0c-0.3-0.1-0.7-0.3-1.1-0.5c-0.3-0.2-0.5-0.3-0.7-0.5l-0.1-0.1
			c-0.1-0.1-0.3-0.2-0.4-0.2c-0.1-0.1-0.2-0.2-0.4-0.2c-0.2-0.2-0.4-0.3-0.7-0.5s-0.5-0.4-0.7-0.6l0,0c0.1,0.1,0.1,0.2,0.2,0.3l0,0
			l0,0l0.1,0.1c0.2,0.2,0.4,0.4,0.7,0.7c0.3,0.3,0.7,0.5,1.1,0.8c0.2,0.1,0.4,0.2,0.5,0.3C628.3,103,628.3,103,628.5,103.1
			C628.4,103,628.4,103,628.5,103.1C628.5,103,628.5,103,628.5,103.1C628.6,103.1,628.6,103.1,628.5,103.1
			C628.6,103,628.6,103,628.5,103.1C628.5,103,628.5,103.1,628.5,103.1L628.5,103.1z"/>
		<path class="st0" d="M634.2,104.1c-0.1,0-0.1,0-0.2-0.1h-0.1l0,0h-0.1c-0.8,0-1.5-0.1-2.3-0.2c-0.2,0-0.5-0.1-0.7-0.1l0,0l0,0h0.1
			c0.1,0,0.1,0,0.2,0.1c0.1,0,0.3,0.1,0.5,0.1c0.3,0.1,0.7,0.2,1.1,0.2c0.1,0,0.1,0,0.2,0c0.1,0,0.3,0,0.4,0c0,0,0,0-0.1,0
			s-0.2,0-0.3,0h-0.1h-0.1h-0.1c-0.1,0-0.3,0-0.4-0.1c-0.1,0-0.2,0-0.2-0.1c-0.1,0-0.1,0-0.1,0s0,0,0.1,0s0.1,0,0.2,0
			c0.1,0,0.2,0,0.4,0.1h0.1h0.1h0.1h0.3c0.2,0,0.4,0,0.6,0.1C633.9,104.1,634,104.1,634.2,104.1L634.2,104.1L634.2,104.1z"/>
		<path class="st0" d="M634,104.2c0.1,0,0.2,0,0.3,0C634.1,104.2,634.1,104.2,634,104.2C634,104.2,633.9,104.2,634,104.2
			C633.9,104.2,633.9,104.2,634,104.2L634,104.2z"/>
		<path class="st0" d="M630.2,103.8c0.1,0.1,0.3,0.1,0.5,0.1c0.4,0.1,0.8,0.2,1.3,0.3c0.1,0,0.3,0,0.5,0.1c0.3,0,0.6,0,0.8,0
			c0.1,0,0.3,0,0.4,0c-0.2,0-0.4,0-0.6-0.1c-0.2,0-0.5,0-0.8-0.1c-0.5-0.1-0.9-0.2-1.3-0.3c-0.1,0-0.2-0.1-0.3-0.1h-0.1h0.1
			c0.1,0,0.3,0.1,0.4,0.1c0.1,0,0.1,0,0.2,0h0.1c0.2,0,0.2,0.1,0.2,0.1s-0.1,0-0.2,0h-0.1c0,0-0.1,0-0.2,0c-0.1,0-0.2-0.1-0.4-0.1
			l-0.2-0.1C630.3,103.7,630.3,103.7,630.2,103.8c0-0.1-0.1-0.1-0.2-0.1c0,0,0,0-0.1,0c0,0,0,0,0.1,0
			C630.1,103.7,630.1,103.7,630.2,103.8L630.2,103.8z"/>
		<path class="st0" d="M641.5,100.9c-0.1,0-0.1,0.1-0.2,0.1c-0.1,0-0.2,0.1-0.3,0.1c-0.1,0.1-0.1,0.2-0.2,0.3
			c-0.2,0.3-0.5,0.6-0.8,0.9s-0.7,0.6-1.1,0.8c-0.2,0.1-0.4,0.2-0.7,0.3c-0.2,0.1-0.5,0.2-0.7,0.2c-0.5,0.1-1,0.2-1.6,0.2
			c-0.3,0-0.6,0-0.8,0s-0.4,0-0.6,0c0,0,0,0-0.1,0s-0.1,0-0.2,0c-0.2,0-0.5,0-0.9,0c-0.1,0-0.2,0-0.3,0h-0.1h-0.2
			c-0.1,0-0.2,0-0.2,0c-0.1,0-0.2,0-0.2,0h-0.2c-0.2,0-0.3,0-0.5-0.1h-0.1l0,0c0.8,0.1,1.7,0.2,2.6,0.3c0.8,0,1.6,0.1,2.3,0
			c0.4,0,0.7,0,1-0.1c0.1,0,0.1,0,0.2,0c0.1,0,0.1,0,0.1,0s0,0-0.1,0l0,0c0.3,0,0.6-0.1,0.9-0.2c0.1,0,0.2-0.1,0.3-0.1l0,0
			c0,0,0.1-0.1,0.2-0.1c0.2-0.1,0.4-0.2,0.7-0.3c0.3-0.1,0.6-0.3,0.9-0.6c0.3-0.2,0.7-0.5,1-0.9c0.2-0.2,0.3-0.3,0.5-0.5
			c-0.1,0-0.1,0-0.2,0c0,0,0-0.1,0-0.2C641.6,100.8,641.6,100.9,641.5,100.9L641.5,100.9z"/>
		<path class="st0" d="M625.1,100.3c0.1,0.1,0.1,0.1,0.2,0.2c0,0,0-0.1-0.1-0.1C625.2,100.3,625.2,100.2,625.1,100.3
			c0-0.1,0-0.1-0.1-0.2l0,0C625.1,100.2,625.1,100.2,625.1,100.3z"/>
		<path class="st0" d="M625.4,101c0,0.1,0.1,0.1,0.1,0.2c0,0,0,0.1,0.1,0.1c0,0,0,0.1,0.1,0.1c0.1,0.1,0.1,0.1,0.1,0.2
			c0-0.1-0.1-0.1-0.1-0.2C625.6,101.2,625.5,101,625.4,101C625.4,100.9,625.4,101,625.4,101L625.4,101z"/>
		<path class="st0" d="M625.4,100.7L625.4,100.7L625.4,100.7L625.4,100.7C625.4,100.7,625.3,100.6,625.4,100.7L625.4,100.7
			L625.4,100.7C625.3,100.6,625.3,100.7,625.4,100.7z"/>
		<path class="st0" d="M625.5,100.7C625.5,100.7,625.4,100.7,625.5,100.7L625.5,100.7L625.5,100.7
			C625.5,100.8,625.5,100.8,625.5,100.7L625.5,100.7z"/>
		<path class="st0" d="M626.3,99.5c0.1,0.3,0.2,0.5,0.4,0.7c0.1,0.1,0.1,0.1,0.2,0.2c0.1,0,0.1,0,0.2,0.1c0.1,0,0.2,0.1,0.2,0.1
			c-0.2-0.2-0.3-0.3-0.5-0.5c-0.1-0.1-0.2-0.2-0.2-0.3l-0.1-0.1c-0.1-0.1-0.2-0.2-0.2-0.4v0.1C626.3,99.4,626.3,99.5,626.3,99.5z"/>
		<path class="st0" d="M625.5,99.6L625.5,99.6L625.5,99.6C625.6,99.6,625.6,99.6,625.5,99.6v-0.2c0-0.1,0-0.2,0-0.3V99l0,0
			c0,0.1-0.1,0.2-0.1,0.2v0.1v0.1C625.4,99.5,625.5,99.5,625.5,99.6L625.5,99.6z"/>
		<path class="st0" d="M626.4,101.3c0.1,0.1,0.3,0.2,0.4,0.3l-0.1-0.1C626.6,101.4,626.5,101.4,626.4,101.3c0-0.1,0-0.2-0.1-0.2
			l-0.1-0.1l0,0c-0.2-0.1-0.4-0.3-0.6-0.4l-0.1-0.1l-0.1-0.1l0,0c0,0,0,0.1,0.1,0.1C625.7,100.8,626.1,101.1,626.4,101.3
			L626.4,101.3z"/>
		<path class="st0" d="M624.7,101C624.6,101,624.6,101,624.7,101L624.7,101c0,0.1,0,0.2,0,0.3c0.1,0,0.2,0.1,0.3,0.2
			C624.8,101.4,624.7,101.2,624.7,101L624.7,101z"/>
		<path class="st0" d="M626.6,98.4L626.6,98.4L626.6,98.4L626.6,98.4L626.6,98.4z"/>
		<path class="st0" d="M625.4,101.3c0.2,0.3,0.4,0.6,0.5,0.8c0.1,0.1,0.3,0.2,0.5,0.3c0.2,0.1,0.4,0.2,0.7,0.4
			c-0.2-0.2-0.3-0.3-0.3-0.3s0.3,0.2,0.5,0.4c0.1,0.1,0.2,0.1,0.3,0.2c0.4,0.2,0.9,0.4,1.3,0.5l0,0c0,0,0.1,0,0.3,0.1l0,0
			c0.1,0,0.2,0.1,0.3,0.1c0.2,0.1,0.3,0.1,0.4,0.1l0,0c0.6,0.2,1.1,0.2,1.1,0.2s-0.1,0-0.3,0c-0.1,0-0.1,0-0.2,0h0.1h0.1h0.1
			c0.1,0,0.2,0,0.3,0s0.3,0,0.4,0c-0.3-0.1-0.7-0.1-0.9-0.2c-0.2,0-0.3-0.1-0.5-0.2c-0.1,0-0.1-0.1-0.2-0.1l-0.1-0.1
			c-0.1,0-0.2,0-0.4-0.1c-0.1,0-0.2-0.1-0.3-0.1s-0.2-0.1-0.3-0.1c-0.3-0.1-0.5-0.2-0.8-0.3c-0.1,0-0.2,0-0.4-0.1s-0.5-0.2-0.8-0.4
			c-0.3-0.2-0.5-0.4-0.8-0.7c-0.2-0.2-0.3-0.4-0.4-0.6l0,0c0-0.1-0.1-0.1-0.1-0.2c0,0-0.1,0-0.1-0.1l-0.1-0.1
			c0.1,0.1,0.2,0.2,0.3,0.4c0.2,0.3,0.3,0.5,0.5,0.7c0.1,0.2,0.2,0.3,0.2,0.3s-0.1-0.1-0.2-0.3c-0.1-0.1-0.2-0.2-0.3-0.4
			c0,0-0.1-0.1-0.3-0.3c0,0,0,0-0.1-0.1c0,0,0-0.1-0.1-0.1c0-0.1-0.1-0.1-0.1-0.2c-0.1-0.1-0.2-0.3-0.2-0.5v-0.1
			c0-0.1-0.1-0.1-0.1-0.1c-0.1-0.1-0.1-0.1-0.2-0.2c-0.1-0.1-0.1-0.1-0.1-0.2c0,0.1,0,0.2,0,0.2c0,0.1,0.1,0.1,0.1,0.2
			C625,100.6,625.2,100.9,625.4,101.3L625.4,101.3z"/>
		<path class="st0" d="M625.1,101.6c0.1,0,0.2,0.1,0.3,0.2l0.1,0.1c0,0,0.1,0,0.1,0.1c0.1,0,0.1,0.1,0.2,0.1
			c-0.1-0.2-0.3-0.4-0.5-0.7c-0.2-0.4-0.4-0.7-0.6-0.9c0-0.1-0.1-0.1-0.1-0.2c0,0.2,0,0.5,0,0.7l0.1,0.1
			C624.8,101.2,624.9,101.4,625.1,101.6L625.1,101.6z"/>
		<path class="st0" d="M625,100.1c0-0.1,0-0.1,0-0.2l0,0c-0.1-0.1-0.1-0.2-0.2-0.3c0,0.1,0,0.1,0,0.2
			C624.8,99.9,624.9,100,625,100.1L625,100.1L625,100.1z"/>
		<path class="st0" d="M626.8,98C626.9,98,626.9,98,626.8,98c0.1,0.1,0.2,0.1,0.2,0.2l0,0l0,0v-0.1l0,0c0,0,0,0,0,0.1l0,0
			c0.1,0,0.2,0.1,0.4,0.1c-0.1-0.1-0.1-0.1-0.2-0.2l0,0c0,0,0,0-0.1,0L627,98l-0.1-0.1L626.8,98C626.9,97.9,626.9,97.9,626.8,98
			L626.8,98C626.8,97.9,626.8,97.9,626.8,98L626.8,98L626.8,98z"/>
		<path class="st0" d="M640.7,95.4c-0.2-0.2-0.4-0.4-0.6-0.6c-0.1-0.1-0.2-0.2-0.3-0.3c-0.1-0.1-0.2-0.2-0.4-0.2
			c-0.1-0.1-0.3-0.2-0.4-0.2c-0.1,0-0.1-0.1-0.2-0.1c-0.1,0-0.1-0.1-0.2-0.1c-0.1-0.1-0.3-0.1-0.5-0.2c-0.1,0-0.2-0.1-0.2-0.1
			l-0.2-0.1c-0.6-0.3-1.3-0.5-2.1-0.7c-0.1,0-0.2,0-0.3-0.1c-0.1,0-0.2,0-0.3-0.1c-0.1,0-0.2,0-0.3,0s-0.2,0-0.3,0
			c-0.4,0-0.8-0.1-1.2-0.1c-0.2,0-0.4,0-0.7,0c0.1,0,0.1,0,0.2,0c0.1,0,0.3,0,0.5,0.1c0.3,0,0.7,0.1,1,0.2c1.1,0.2,2,0.5,2.4,0.8
			l0.1,0.1c0.7,0.2,1.2,0.4,1.7,0.6c0.1,0,0.2,0.1,0.3,0.1c0.4,0.1,0.7,0.3,0.9,0.4c0,0,0.1,0,0.1,0.1l0,0l0,0
			c0.1,0,0.1,0.1,0.1,0.1c0.1,0.1,0.1,0.1,0.1,0.1h-0.1c0.2,0.2,0.3,0.3,0.3,0.3s0,0-0.1,0c0,0,0,0,0.1,0c0.3,0.2,0.5,0.4,0.7,0.5
			c0.2,0.2,0.3,0.3,0.4,0.5c0.1,0,0.1,0.1,0.1,0.1c0.4,0.3,0.6,0.5,0.5,0.6c0,0-0.1,0-0.2,0c0.1,0.1,0.1,0.1,0.2,0.2
			c0.1,0.1,0.2,0.2,0.3,0.4c0,0.1,0.1,0.1,0.1,0.2s0.1,0.1,0.1,0.2s0.1,0.1,0.1,0.2v0.1c0-0.1,0-0.3,0-0.4c0,0,0,0,0-0.1v-0.1
			c0,0,0-0.1-0.1-0.1c0-0.1-0.1-0.2-0.2-0.3c-0.1-0.1-0.1-0.2-0.2-0.3c0-0.1-0.1-0.1-0.1-0.2c-0.1-0.1-0.3-0.3-0.4-0.5
			c-0.1-0.2-0.3-0.3-0.5-0.5C641,95.8,640.8,95.6,640.7,95.4L640.7,95.4z"/>
		<path class="st0" d="M643.7,100C643.7,100,643.6,100,643.7,100C643.7,99.9,643.7,99.9,643.7,100c0.1-0.1,0,0,0,0.3v0.1v0.1
			c0,0.1-0.1,0.1-0.1,0.2c-0.1,0.1-0.1,0.3-0.2,0.4c-0.1,0.1-0.1,0.1-0.2,0.2l0,0c0,0.1-0.1,0.1-0.1,0.2s-0.1,0.1-0.2,0.2
			c0,0.1,0,0.1,0,0.2s-0.1,0.2-0.2,0.3c0,0.1-0.1,0.1-0.2,0.2l-0.1,0.1c0,0-0.1,0.1-0.2,0.2c-0.1,0.1-0.3,0.3-0.5,0.5
			s-0.4,0.3-0.6,0.4c-0.2,0.1-0.3,0.1-0.3,0.1s0.4-0.3,0.8-0.6c0.2-0.1,0.3-0.3,0.4-0.4c-0.1,0.1-0.1,0.1-0.2,0.2
			c-0.1,0.1-0.2,0.1-0.3,0.2l-0.1,0.1l-0.1,0.1c-0.4,0.3-0.8,0.5-1.3,0.7s-1,0.4-1.4,0.5c-0.2,0.1-0.4,0.1-0.6,0.2
			c-0.1,0-0.2,0-0.3,0.1h-0.1h-0.1c-0.1,0-0.2,0-0.2,0c-0.1,0-0.2,0-0.2,0c-0.1,0-0.1,0-0.2,0c-0.1,0-0.1,0-0.2,0
			c-0.2,0-0.3,0-0.3-0.1s0.4-0.3,1-0.5h0.1h0.1h0.1l0,0c-0.1,0-0.2,0-0.4,0.1h-0.2H637c0,0,0,0-0.1,0h-0.1l0,0
			c-0.1,0.1-0.2,0.1-0.3,0.2c-0.1,0-0.1,0.1-0.2,0.1c-0.1,0-0.2,0-0.2,0.1c-0.2,0.1-0.4,0.1-0.6,0.1c-0.1,0-0.2,0-0.3,0.1
			c-0.1,0-0.1,0-0.2,0c-0.1,0-0.1,0-0.2,0c-0.5,0.1-1,0.1-1.5,0.1s-1,0-1.5-0.1c-0.2,0-0.4-0.1-0.6-0.1c-0.1,0-0.2,0-0.3-0.1h-0.1
			h-0.1c-0.1,0-0.2-0.1-0.2-0.1c-0.1,0-0.1-0.1-0.2-0.1h-0.1c0,0,0,0-0.1,0s-0.2,0-0.4-0.1c0,0,0,0,0.1,0c0.2,0.1,0.4,0.1,0.6,0.2
			c0.2,0.1,0.4,0.1,0.5,0.1c0.3,0.1,0.5,0.1,0.5,0.1s0,0-0.1,0c0,0-0.1,0-0.2,0c-0.1,0-0.1,0-0.2,0c-0.1,0-0.3-0.1-0.5-0.1
			c-0.2-0.1-0.4-0.1-0.6-0.2c-0.2-0.1-0.3-0.1-0.5-0.2c0,0,0,0-0.1,0s-0.1,0-0.2,0c-0.1,0-0.1,0-0.2,0c-0.4-0.1-0.9-0.3-1.4-0.5
			c-0.3-0.1-0.5-0.3-0.8-0.4l0.1,0.1c0.1,0.1,0.1,0.1,0.2,0.2c0.2,0.1,0.3,0.2,0.5,0.4c0.2,0.1,0.4,0.2,0.6,0.3
			c0.1,0,0.2,0.1,0.2,0.1c0.1,0,0.2,0.1,0.2,0.1c0.3,0.1,0.4,0.2,0.4,0.2s0,0-0.1,0c0,0-0.1,0-0.1-0.1c-0.1,0-0.1,0-0.2-0.1
			c-0.1,0-0.1-0.1-0.2-0.1c-0.1,0-0.2-0.1-0.3-0.1c-0.2-0.1-0.4-0.2-0.6-0.3c-0.2-0.1-0.4-0.3-0.5-0.4s-0.2-0.1-0.2-0.2
			c-0.1-0.1-0.1-0.1-0.2-0.2l-0.1-0.1c-0.1-0.1-0.2-0.1-0.3-0.2c0.1,0.1,0.1,0.2,0.2,0.2c0.1,0.1,0.2,0.2,0.3,0.3
			c0.1,0.1,0.1,0.1,0.1,0.1s-0.1,0-0.1-0.1c-0.1,0-0.2-0.1-0.3-0.3c-0.1-0.1-0.2-0.2-0.3-0.4c-0.1-0.1-0.3-0.2-0.4-0.3l-0.1-0.1
			c0.1,0.1,0.1,0.2,0.2,0.2c0.2,0.2,0.4,0.4,0.5,0.6c0.1,0.1,0.2,0.2,0.3,0.3l0.1,0.1l0.1,0.1c0.1,0.1,0.1,0.1,0.2,0.2
			c0.1,0.1,0.1,0.1,0.1,0.1c0.1,0.1,0.1,0.1,0.1,0.1s-0.1,0-0.1-0.1c0,0-0.1-0.1-0.2-0.1c-0.1-0.1-0.1-0.1-0.2-0.2l-0.1-0.1
			l-0.1-0.1c-0.1-0.1-0.2-0.2-0.3-0.3c-0.2-0.2-0.4-0.4-0.6-0.6c-0.1-0.2-0.3-0.3-0.4-0.5l-0.1-0.1c-0.1-0.1-0.1-0.1-0.2-0.2
			c-0.1-0.1-0.1-0.1-0.2-0.2c0,0,0,0-0.1-0.1c0.1,1.5,0.5,2.8,1.2,4c0.1,0.1,0.3,0.3,0.5,0.4c0.4,0.3,0.8,0.5,0.8,0.5
			s-0.1,0-0.3-0.1c-0.1,0-0.2-0.1-0.3-0.2s-0.2-0.1-0.3-0.2s-0.2-0.2-0.3-0.3l0,0c0.2,0.3,0.4,0.6,0.6,0.9c0,0,0.1,0,0.1,0.1
			c0.3,0.3,0.7,0.4,0.6,0.5c0,0-0.3-0.1-0.6-0.3c0.5,0.6,1,1.1,1.6,1.6c0.4,0.2,0.9,0.5,1.5,0.7c0.3,0.1,0.6,0.3,0.9,0.4
			c0.1,0,0.3,0.1,0.4,0.1c0.1,0,0.1,0,0.2,0.1c0.1,0,0.1,0,0.2,0c0.1,0,0.2,0,0.3,0.1h0.1h0.1c0.1,0,0.2,0,0.2,0s-0.1,0-0.2,0h-0.1
			h-0.1c-0.1,0-0.2,0-0.3-0.1H631c-0.1,0-0.1,0-0.2,0c-0.1,0-0.3-0.1-0.4-0.1c-0.3-0.1-0.6-0.2-1-0.4c-0.4-0.2-0.8-0.4-1.2-0.6
			c0.9,0.6,1.8,1.1,2.9,1.4c0.1,0,0.5,0.1,1,0.2c0.6,0.1,1.1,0.1,1.1,0.1s-0.1,0-0.3,0h-0.1c0.3,0,0.6,0.1,1,0.1
			c2.2,0,4.2-0.6,5.8-1.8c-0.2,0.1-0.3,0.1-0.5,0.2c-0.5,0.2-1,0.3-1.3,0.4c-0.2,0-0.3,0.1-0.4,0.1c-0.1,0-0.1,0-0.2,0
			c0,0,0.2-0.1,0.5-0.1c0.3-0.1,0.8-0.2,1.3-0.4c0.2-0.1,0.5-0.2,0.7-0.3c0,0,0,0,0.1,0c0.6-0.5,1.1-1,1.6-1.5l0,0
			c-0.2,0.2-0.4,0.4-0.5,0.6c-0.1,0.1-0.2,0.2-0.2,0.2s0.1-0.1,0.2-0.2c0.1-0.1,0.3-0.3,0.5-0.6c0.2-0.2,0.4-0.4,0.5-0.6l0,0
			c0.3-0.4,0.5-0.8,0.8-1.3c-0.1,0.1-0.2,0.2-0.3,0.3c-0.1,0.1-0.2,0.2-0.4,0.3c-0.1,0.1-0.2,0.2-0.3,0.2c-0.2,0.1-0.3,0.2-0.3,0.2
			s0.1-0.1,0.3-0.2c0.1-0.1,0.2-0.1,0.3-0.2s0.2-0.2,0.3-0.3c0.1-0.1,0.2-0.2,0.3-0.3c0-0.1,0.1-0.1,0.1-0.2
			c0.3-0.7,0.5-1.4,0.7-2.2c-0.1,0.1-0.1,0.2-0.2,0.3c-0.1,0.2-0.2,0.3-0.4,0.5c-0.3,0.3-0.6,0.6-0.8,0.8c-0.2,0.2-0.4,0.3-0.4,0.3
			s0.1-0.1,0.3-0.3c0.2-0.2,0.5-0.5,0.8-0.8c0.1-0.2,0.3-0.3,0.4-0.5c0.1-0.2,0.2-0.3,0.3-0.4l0,0c0-0.3,0.1-0.6,0.1-0.9
			c0,0.1,0,0.2-0.1,0.3c0,0.1-0.1,0.2-0.2,0.4c-0.1,0.1-0.2,0.3-0.3,0.4c-0.2,0.3-0.5,0.5-0.6,0.7c-0.2,0.2-0.3,0.2-0.3,0.2
			s0.1-0.1,0.3-0.3c0.2-0.2,0.4-0.4,0.6-0.7c0.2-0.3,0.4-0.6,0.5-0.8c0.1-0.2,0.1-0.4,0.1-0.4l0,0c0-0.1,0-0.3,0-0.4
			c-0.1,0.1-0.1,0.3-0.2,0.4c-0.2,0.4-0.5,0.6-0.5,0.6s0.2-0.3,0.4-0.6c0.1-0.2,0.2-0.4,0.3-0.5c0-0.1,0-0.2,0-0.3
			c0,0.1-0.1,0.1-0.1,0.2c-0.1,0.1-0.2,0.3-0.2,0.4c-0.1,0.1-0.2,0.3-0.3,0.4s-0.2,0.2-0.3,0.3c-0.2,0.2-0.3,0.3-0.3,0.3
			s0.1-0.1,0.2-0.3c0.1-0.1,0.2-0.2,0.2-0.3c0.1-0.1,0.2-0.3,0.3-0.4s0.2-0.3,0.3-0.4s0.1-0.2,0.1-0.3c0-0.1,0-0.2,0-0.4l0,0
			c0,0.1,0,0.1-0.1,0.2c0,0.1-0.1,0.3-0.2,0.4c-0.1,0.1-0.2,0.3-0.2,0.4s-0.1,0.1-0.1,0.2l-0.1,0.1c-0.1,0.1-0.2,0.2-0.2,0.2
			s0.1-0.1,0.2-0.3l0.1-0.1c0,0,0.1-0.1,0.1-0.2c0.1-0.1,0.2-0.2,0.2-0.4c0.1-0.1,0.1-0.3,0.2-0.4c0-0.1,0-0.1,0.1-0.2
			c0-0.1,0-0.1,0.1-0.2l0,0c0-0.3-0.1-0.5-0.1-0.8l0,0l0,0c0,0.1,0,0.1,0,0.2v0.1C643.7,99.9,643.7,99.9,643.7,100L643.7,100z
			 M630.8,109.4L630.8,109.4c-0.1,0-0.2,0-0.2,0c-0.1,0-0.2,0-0.3-0.1h-0.1c-0.1,0-0.1,0-0.2-0.1c-0.1,0-0.2-0.1-0.3-0.1
			c-0.2-0.1-0.5-0.2-0.8-0.4c-0.3-0.1-0.5-0.3-0.7-0.4c-0.1-0.1-0.2-0.1-0.3-0.2l-0.1-0.1l-0.1-0.1c-0.1-0.1-0.1-0.1-0.2-0.2
			c0,0-0.1,0-0.1-0.1l-0.1-0.1c-0.1-0.1-0.1-0.1-0.1-0.1s0.1,0,0.1,0.1l0.1,0.1l0.1,0.1c0.1,0,0.1,0.1,0.2,0.2l0.1,0.1l0.1,0.1
			c0.1,0.1,0.2,0.1,0.3,0.2c0.2,0.1,0.5,0.3,0.7,0.4c0.3,0.1,0.5,0.3,0.8,0.4c0.1,0,0.2,0.1,0.3,0.1s0.1,0,0.2,0.1l0.1,0.1
			c0.1,0,0.2,0.1,0.2,0.1L630.8,109.4C630.7,109.4,630.8,109.4,630.8,109.4c0.1,0,0.2,0,0.2,0C630.9,109.5,630.9,109.5,630.8,109.4
			L630.8,109.4z M630.3,105.1c-0.2-0.1-0.3-0.1-0.3-0.1s0.4,0.1,0.9,0.3c0.5,0.2,1,0.3,0.9,0.3c0,0-0.1,0-0.3,0s-0.4-0.1-0.7-0.2
			C630.7,105.3,630.5,105.2,630.3,105.1L630.3,105.1z M631.5,106.4c-0.3-0.1-0.5-0.2-0.5-0.2C631,106.1,631.2,106.2,631.5,106.4
			c0.3,0,0.5,0.1,0.5,0.1S631.7,106.4,631.5,106.4z M635.9,105.3c0.3,0,0.6,0,0.6,0S636.2,105.4,635.9,105.3
			c-0.3,0.1-0.6,0.1-0.6,0.1C635.3,105.4,635.5,105.3,635.9,105.3L635.9,105.3z M634.7,108c0,0-0.2,0-0.4,0s-0.4,0-0.4,0
			s0.2-0.1,0.4-0.1S634.7,107.9,634.7,108L634.7,108z M632.5,105.2c0,0,0.4,0,1,0.1c0.5,0,1,0.1,1,0.1s-0.1,0-0.3,0h-0.7
			c-0.3,0-0.5-0.1-0.7-0.1C632.6,105.2,632.5,105.2,632.5,105.2L632.5,105.2z M633.7,109c0.4,0.1,0.7,0.1,0.7,0.1
			S634.1,109.1,633.7,109c-0.4,0-0.7-0.1-0.7-0.1S633.3,108.9,633.7,109L633.7,109z M634,110.5c-0.4,0-0.8,0-0.8-0.1
			C633.2,110.4,633.6,110.4,634,110.5c0.4-0.1,0.8-0.1,0.8-0.1S634.4,110.5,634,110.5L634,110.5z M637.9,109.9
			c0.2,0,0.3-0.1,0.4-0.1c0.1,0,0.2,0,0.2,0s-0.1,0-0.2,0.1C638.3,109.8,638.1,109.9,637.9,109.9c-0.4,0.2-0.9,0.3-1.4,0.4
			c-0.6,0.1-1.1,0.2-1.5,0.2c-0.2,0-0.3,0-0.5,0.1c-0.1,0-0.2,0-0.2,0s0.1,0,0.2,0l0.4-0.1c0.4-0.1,0.9-0.2,1.5-0.3
			C637,110.1,637.6,110,637.9,109.9z M637.7,104.9c-0.2,0.1-0.5,0.1-0.7,0.1s-0.4,0.1-0.6,0.1c-0.2,0-0.3,0-0.4,0
			c-0.1,0-0.1,0-0.1,0s0.2,0,0.5-0.1c0.2,0,0.4-0.1,0.6-0.1C637.2,105,637.4,104.9,637.7,104.9c0.2-0.1,0.5-0.2,0.7-0.2
			c0.2-0.1,0.4-0.1,0.6-0.2c0.3-0.1,0.5-0.1,0.5-0.1s0,0-0.1,0.1c-0.1,0-0.2,0.1-0.4,0.1c-0.2,0.1-0.3,0.1-0.6,0.2
			C638.2,104.8,637.9,104.9,637.7,104.9z M641.4,107.2L641.4,107.2C641.3,107.3,641.3,107.3,641.4,107.2l-0.2,0.2l-0.1,0.1l-0.1,0.1
			c-0.1,0.1-0.1,0.1-0.2,0.2c-0.2,0.1-0.4,0.2-0.6,0.4c-0.2,0.1-0.4,0.2-0.6,0.3c-0.1,0-0.2,0.1-0.3,0.1h-0.1h-0.1
			c-0.1,0-0.1,0-0.2,0h-0.1h-0.1c-0.1,0-0.1,0-0.1,0s0,0,0.1,0h0.1h0.1c0.1,0,0.1,0,0.2-0.1h0.1h0.1c0.1,0,0.2-0.1,0.3-0.1
			c0.2-0.1,0.4-0.2,0.6-0.3c0.2-0.1,0.4-0.2,0.6-0.4c0.1-0.1,0.2-0.1,0.2-0.2l0.1-0.1l0.1-0.1C641.3,107.3,641.3,107.2,641.4,107.2
			C641.3,107.3,641.3,107.2,641.4,107.2C641.3,107.2,641.3,107.2,641.4,107.2C641.4,107.1,641.5,107.1,641.4,107.2
			C641.5,107.1,641.4,107.1,641.4,107.2L641.4,107.2z"/>
		<path class="st0" d="M628.9,94c0.2-0.1,0.3-0.2,0.5-0.3l0.1-0.1c0.1-0.1,0.2-0.1,0.3-0.2c0.2-0.1,0.5-0.3,0.8-0.4s0.6-0.2,0.8-0.3
			c0,0,0,0,0.1,0l0,0h-0.1c-0.1,0-0.2,0-0.3,0.1H631h-0.1c-0.4,0.1-0.7,0.2-1,0.4c-0.1,0-0.2,0.1-0.2,0.1c-0.1,0-0.2,0.1-0.2,0.1
			c-0.1,0-0.1,0.1-0.2,0.1l-0.1,0.1h-0.1H629c-0.1,0-0.1,0.1-0.2,0.1l0,0C628.8,93.9,628.9,93.9,628.9,94L628.9,94z"/>
		<path class="st0" d="M637,92l0.2,0.1c0.1,0,0.1,0,0.2,0.1c0.1,0,0.1,0.1,0.2,0.1c0.3,0.1,0.6,0.2,0.8,0.4c0.3,0.1,0.6,0.3,0.8,0.4
			c0.1,0,0.1,0.1,0.2,0.1c-1-0.6-2.1-1.1-3.3-1.4c0.2,0,0.4,0.1,0.6,0.2L637,92L637,92z"/>
		<path class="st0" d="M631.9,91.9c0.1,0,0.2,0,0.3,0h0.1h0.1h0.1c0.1,0,0.2,0,0.3-0.1c0.1,0,0.2,0,0.3-0.1h0.1
			c-0.6,0.1-1.2,0.2-1.8,0.4c0.1,0,0.1,0,0.2,0C631.7,92,631.8,91.9,631.9,91.9L631.9,91.9z"/>
		<path class="st0" d="M628.1,96.7L628.1,96.7c0.3-0.2,0.5-0.3,0.8-0.4c0.1,0,0.2-0.1,0.2-0.1l0,0v-0.1c-0.4,0.2-0.8,0.3-1.1,0.4
			C628,96.5,628,96.6,628.1,96.7L628.1,96.7z"/>
		<path class="st0" d="M628.7,98.3c0.1,0.1,0.1,0.1,0.2,0.2l0,0l0,0c0,0,0,0,0.1,0.1l0.1,0.1c0.1-0.1,0.2-0.1,0.3-0.2
			c-0.1-0.1-0.2-0.2-0.3-0.3l-0.1-0.1c-0.1,0.1-0.1,0.1-0.2,0.1v-0.1V98l0,0l0,0c-0.1,0-0.1,0-0.2,0.1v0.1
			C628.7,98.1,628.7,98.2,628.7,98.3L628.7,98.3L628.7,98.3z"/>
		<path class="st0" d="M626.5,101.2c-0.1,0-0.1-0.1-0.2-0.1l0.1,0.1C626.4,101.2,626.5,101.2,626.5,101.2c0.1,0.1,0.2,0.2,0.3,0.3
			l0.1,0.1C626.8,101.5,626.6,101.3,626.5,101.2L626.5,101.2L626.5,101.2z"/>
		<path class="st0" d="M626.8,101.3c-0.1,0-0.1-0.1-0.2-0.1c0.1,0.1,0.2,0.2,0.3,0.4c0.1,0.1,0.2,0.2,0.4,0.4c0,0,0,0,0.1,0
			c0.1,0.1,0.3,0.1,0.4,0.2c0.4,0.2,0.9,0.5,1.4,0.6c0,0,0,0-0.1,0l-0.1-0.1h-0.1c0,0,0,0,0.1,0h0.1c0,0,0.1,0,0.1,0.1
			c0,0,0,0,0.1,0s0.1,0.1,0.2,0.1c0.5,0.2,1.1,0.3,1.7,0.4c0,0,0,0,0.1,0c0,0,0,0-0.1,0s-0.2,0-0.2,0l-0.2-0.1c-0.1,0-0.2,0-0.2-0.1
			h-0.1h-0.1c-0.1,0-0.2,0-0.2-0.1c-0.2-0.1-0.3-0.1-0.5-0.2c-0.3-0.1-0.6-0.2-0.9-0.4c-0.3-0.1-0.6-0.3-0.9-0.5
			c-0.3-0.2-0.6-0.4-0.9-0.6C626.9,101.4,626.9,101.4,626.8,101.3L626.8,101.3z"/>
		<path class="st0" d="M628.4,97.3c0.1,0,0.2,0,0.4,0l-0.1-0.1C628.6,97.3,628.5,97.3,628.4,97.3L628.4,97.3z"/>
		<path class="st0" d="M629.6,96.7c-0.1,0.1-0.3,0.1-0.4,0.2c-0.1,0-0.1,0.1-0.2,0.1c0.1,0,0.1,0.1,0.2,0.1c0.2-0.1,0.3-0.2,0.5-0.2
			C629.7,96.8,629.7,96.8,629.6,96.7z"/>
	</g>
	<g>
		<g>
			<path class="st0" d="M490.9,91.7c0.5,0.6,0.7,1.3,0.7,2.2c0,1.2-0.5,2.2-1.4,2.8s-2.3,1-4.2,1h-7.2v-14h6.8c1.7,0,3,0.3,3.9,1
				s1.4,1.5,1.4,2.7c0,0.7-0.2,1.3-0.5,1.8s-0.8,1-1.4,1.3C489.8,90.7,490.4,91.1,490.9,91.7z M482,86.1v3.3h3.2
				c0.8,0,1.4-0.1,1.8-0.4s0.6-0.7,0.6-1.2s-0.2-1-0.6-1.2c-0.4-0.3-1-0.4-1.8-0.4H482V86.1z M487.7,94.8c0.4-0.3,0.7-0.7,0.7-1.3
				c0-1.2-0.9-1.7-2.6-1.7H482v3.5h3.8C486.6,95.2,487.2,95.1,487.7,94.8z"/>
			<path class="st0" d="M495.4,97.5c-1-0.3-1.9-0.7-2.5-1.2l1.1-2.4c0.6,0.4,1.3,0.8,2.1,1.1c0.8,0.3,1.7,0.4,2.5,0.4
				c0.9,0,1.6-0.1,2-0.4s0.7-0.6,0.7-1.1c0-0.3-0.1-0.6-0.4-0.8c-0.3-0.2-0.6-0.4-1-0.5s-1-0.3-1.7-0.4c-1.1-0.3-1.9-0.5-2.6-0.8
				s-1.3-0.7-1.8-1.2c-0.5-0.6-0.7-1.3-0.7-2.2c0-0.8,0.2-1.5,0.7-2.2c0.4-0.7,1.1-1.2,2-1.6s2-0.6,3.3-0.6c0.9,0,1.8,0.1,2.6,0.3
				s1.6,0.5,2.2,0.9l-1,2.5c-1.3-0.7-2.6-1.1-3.9-1.1c-0.9,0-1.6,0.1-2,0.4s-0.7,0.7-0.7,1.2s0.3,0.8,0.8,1.1s1.3,0.5,2.3,0.7
				c1.1,0.3,1.9,0.5,2.6,0.8s1.3,0.7,1.8,1.2s0.7,1.3,0.7,2.2c0,0.8-0.2,1.5-0.7,2.2c-0.4,0.7-1.1,1.2-2,1.6s-2,0.6-3.3,0.6
				C497.5,97.9,496.5,97.8,495.4,97.5z"/>
			<path class="st0" d="M509.6,97c-1.2-0.6-2.1-1.5-2.7-2.6c-0.7-1.1-1-2.3-1-3.7s0.3-2.6,1-3.7s1.6-2,2.7-2.6
				c1.2-0.6,2.4-0.9,3.9-0.9c1.2,0,2.3,0.2,3.3,0.6s1.8,1,2.5,1.8l-2.1,1.9c-0.9-1.1-2.1-1.6-3.5-1.6c-0.9,0-1.6,0.2-2.3,0.6
				s-1.2,0.9-1.6,1.6s-0.6,1.5-0.6,2.3c0,0.9,0.2,1.6,0.6,2.3c0.4,0.7,0.9,1.2,1.6,1.6s1.5,0.6,2.3,0.6c1.4,0,2.6-0.6,3.5-1.7
				l2.1,1.9c-0.7,0.8-1.5,1.4-2.5,1.9c-1,0.4-2.1,0.6-3.3,0.6C512.1,97.9,510.8,97.6,509.6,97z"/>
			<path class="st0" d="M488.8,113.8c0.5,0.5,0.7,1.2,0.7,2.1c0,1.1-0.4,1.9-1.2,2.5c-0.8,0.6-1.9,0.9-3.5,0.9h-5.6v-12.6h5.3
				c1.4,0,2.4,0.3,3.2,0.8c0.8,0.6,1.1,1.4,1.1,2.4c0,0.7-0.2,1.3-0.6,1.8s-0.9,0.8-1.5,1.1C487.7,113,488.3,113.3,488.8,113.8z
				 M480.2,107.5v5h4.3c1.1,0,2-0.2,2.5-0.6s0.9-1.1,0.9-1.9s-0.3-1.4-0.9-1.9s-1.4-0.6-2.5-0.6H480.2z M487.7,117.9
				c0.6-0.4,0.9-1.1,0.9-2s-0.3-1.5-0.9-2c-0.6-0.4-1.6-0.6-2.8-0.6h-4.7v5.2h4.7C486.1,118.5,487,118.3,487.7,117.9z"/>
			<path class="st0" d="M493.5,118.9c-0.8-0.3-1.5-0.7-2-1.2l0.4-0.7c0.4,0.5,1,0.8,1.8,1.1s1.5,0.4,2.4,0.4c1.2,0,2.1-0.2,2.7-0.7
				s0.9-1,0.9-1.8c0-0.6-0.2-1-0.5-1.4s-0.7-0.6-1.2-0.8c-0.5-0.2-1.1-0.4-1.9-0.6c-0.9-0.2-1.7-0.5-2.2-0.7c-0.6-0.2-1-0.5-1.4-1
				s-0.6-1.1-0.6-1.8c0-0.6,0.2-1.2,0.5-1.7s0.8-0.9,1.5-1.2c0.7-0.3,1.5-0.5,2.5-0.5c0.7,0,1.4,0.1,2.1,0.3s1.3,0.5,1.7,0.8
				l-0.3,0.7c-0.5-0.3-1.1-0.6-1.7-0.8c-0.6-0.2-1.2-0.3-1.8-0.3c-1.2,0-2,0.2-2.6,0.7s-0.9,1.1-0.9,1.8c0,0.6,0.2,1,0.5,1.4
				c0.3,0.3,0.7,0.6,1.2,0.8c0.5,0.2,1.1,0.4,2,0.6s1.7,0.5,2.2,0.7s1,0.5,1.4,1c0.4,0.4,0.6,1,0.6,1.8c0,0.6-0.2,1.2-0.5,1.7
				s-0.8,0.9-1.5,1.2c-0.7,0.3-1.5,0.5-2.5,0.5C495.2,119.4,494.3,119.2,493.5,118.9z"/>
			<path class="st0" d="M505.8,118.5c-1-0.6-1.8-1.3-2.3-2.3c-0.6-1-0.9-2.1-0.9-3.3s0.3-2.3,0.9-3.3s1.3-1.7,2.3-2.3
				c1-0.6,2.1-0.8,3.3-0.8c0.9,0,1.8,0.1,2.5,0.4c0.8,0.3,1.4,0.7,2,1.3l-0.6,0.6c-1-1-2.3-1.5-3.9-1.5c-1.1,0-2,0.2-2.9,0.7
				s-1.5,1.1-2,2c-0.5,0.8-0.7,1.8-0.7,2.8s0.2,2,0.7,2.8s1.2,1.5,2,2c0.9,0.5,1.8,0.7,2.9,0.7c1.6,0,2.8-0.5,3.9-1.5l0.6,0.6
				c-0.5,0.6-1.2,1-2,1.3s-1.6,0.5-2.5,0.5C507.9,119.4,506.7,119.1,505.8,118.5z"/>
		</g>
	</g>
	<path id="binancedex" class="st0" d="M439.6,122.5v6.9l-6,3.6l-5.9-3.6v-6.9l5.9,3.6L439.6,122.5z M407.2,98.6l5.9,3.6V114l10.1,6
		v6.9l-16-9.4V98.6z M459.9,98.6v19l-16.2,9.4v-6.9l10.1-6v-11.9L459.9,98.6z M443.7,89.1l6,3.6l0,0v6.9l-10.1,6v12.1l-5.9,3.6
		l-5.8-3.6v-12.1l-10.5-6v-6.9l6-3.6l10.1,6L443.7,89.1z M417.4,104.6l5.9,3.6v6.9l-5.9-3.6V104.6z M449.7,104.6v6.9l-5.9,3.6v-6.9
		L449.7,104.6z M413.1,83.1l6,3.6l-6,3.6v6.9l-5.9-3.6v-6.9L413.1,83.1z M454,83.1l6,3.6v6.9l-6,3.6v-6.9l-5.9-3.6L454,83.1z
		 M433.6,83.1l6,3.6l-6,3.6l-5.9-3.6L433.6,83.1z M433.6,71.2l16.2,9.4l-5.9,3.6l-10.1-6l-10.3,6l-5.9-3.6L433.6,71.2z"/>
	<g>
		<g>
			<path class="st0" d="M701.4,83.5v14h-3.2v-5.7h-6.4v5.7h-3.2v-14h3.2V89h6.4v-5.5H701.4z"/>
			<path class="st0" d="M713.9,94.5h-6.5l-1.2,3h-3.3l6.2-14h3.2l6.3,14h-3.4L713.9,94.5z M712.9,92.1l-2.2-5.4l-2.2,5.4H712.9z"/>
			<path class="st0" d="M732.7,83.5l-6.1,14h-3.2l-6-14h3.5l4.3,10l4.3-10H732.7z"/>
			<path class="st0" d="M742.7,94.5h-6.5l-1.2,3h-3.3l6.2-14h3.2l6.3,14h-3.4L742.7,94.5z M741.6,92.1l-2.2-5.4l-2.2,5.4H741.6z"/>
			<path class="st0" d="M761.6,83.5v14h-3.2v-5.7H752v5.7h-3.2v-14h3.2V89h6.4v-5.5H761.6z"/>
			<path class="st0" d="M696.9,115.6h-7.3l-1.6,3.5h-1l5.8-12.6h0.9l5.8,12.6h-1L696.9,115.6z M696.5,114.8l-3.3-7.3l-3.3,7.3H696.5
				z"/>
			<path class="st0" d="M701.5,105.8h0.9v13.4h-0.9V105.8z"/>
			<path class="st0" d="M710.7,118.5c-0.2,0.2-0.5,0.4-0.9,0.5c-0.3,0.1-0.7,0.2-1.1,0.2c-0.8,0-1.4-0.2-1.9-0.7
				c-0.4-0.5-0.7-1.1-0.7-1.9v-6.1h-1.7v-0.8h1.7v-2.1h0.9v2.1h3v0.8h-3v6c0,0.6,0.1,1.1,0.4,1.4c0.3,0.3,0.7,0.5,1.3,0.5
				c0.6,0,1.1-0.2,1.5-0.5L710.7,118.5z"/>
			<path class="st0" d="M719.1,110.5c0.6,0.6,0.9,1.5,0.9,2.6v6h-0.9v-1.7c-0.3,0.6-0.7,1-1.3,1.3c-0.6,0.3-1.3,0.5-2.1,0.5
				c-1,0-1.9-0.2-2.5-0.7c-0.6-0.5-0.9-1.1-0.9-1.9c0-0.8,0.3-1.4,0.8-1.9c0.6-0.5,1.4-0.7,2.7-0.7h3.2v-0.8c0-0.9-0.2-1.5-0.7-2
				c-0.5-0.5-1.2-0.7-2.1-0.7c-0.6,0-1.2,0.1-1.8,0.3c-0.6,0.2-1.1,0.5-1.4,0.9l-0.4-0.6c0.5-0.4,1-0.7,1.7-1
				c0.7-0.2,1.4-0.4,2.1-0.4C717.6,109.6,718.5,109.9,719.1,110.5z M717.9,117.9c0.5-0.4,1-0.9,1.2-1.6v-1.8h-3.2
				c-0.9,0-1.6,0.2-2,0.5s-0.6,0.8-0.6,1.4c0,0.6,0.2,1.1,0.7,1.4c0.5,0.4,1.1,0.5,1.9,0.5C716.7,118.4,717.3,118.3,717.9,117.9z"/>
			<path class="st0" d="M723.7,107.2c-0.1-0.1-0.2-0.3-0.2-0.5c0-0.2,0.1-0.4,0.2-0.5c0.1-0.1,0.3-0.2,0.5-0.2
				c0.2,0,0.4,0.1,0.5,0.2c0.1,0.1,0.2,0.3,0.2,0.5s-0.1,0.4-0.2,0.5c-0.1,0.1-0.3,0.2-0.5,0.2C724,107.4,723.8,107.4,723.7,107.2z
				 M723.7,109.7h0.9v9.4h-0.9V109.7z"/>
			<path class="st0" d="M730.6,110.2c0.6-0.4,1.4-0.5,2.2-0.5v0.9l-0.2,0c-1,0-1.9,0.3-2.4,1c-0.6,0.7-0.9,1.6-0.9,2.7v4.9h-0.9
				v-9.4h0.9v2.1C729.6,111.1,730,110.6,730.6,110.2z"/>
		</g>
	</g>
</g>
</svg>
