<?xml version="1.0" encoding="utf-8"?>
<!-- Generator: Adobe Illustrator 23.0.1, SVG Export Plug-In . SVG Version: 6.00 Build 0)  -->
<svg version="1.1" id="Capa_1" xmlns="http://www.w3.org/2000/svg" xmlns:xlink="http://www.w3.org/1999/xlink" x="0px" y="0px"
	 viewBox="0 0 796.7 253.1" style="enable-background:new 0 0 796.7 253.1;" xml:space="preserve">
<style type="text/css">
	.st0{fill:#FFFFFF;}
	.st1{fill:#CDEDEE;}
	.st2{fill:#C7EDF0;}
	.st3{fill:#91D6D8;}
	.st4{fill:#CEEEF0;}
	.st5{fill:none;stroke:#5CFFE4;stroke-width:2;stroke-miterlimit:10;}
	.st6{fill:#5CFFE4;}
	.st7{opacity:0.6;}
	.st8{opacity:0.2;}
</style>
<g>
	<g>
		<g>
			<path class="st0" d="M68.7,113.6v2.6H57.9v-14h10.6v2.6h-7.4v3h6.5v2.5h-6.5v3.2H68.7z"/>
			<path class="st0" d="M77.9,115.7c-0.3,0.2-0.7,0.4-1.1,0.5s-0.9,0.2-1.4,0.2c-1.3,0-2.3-0.3-3-1c-0.7-0.7-1.1-1.6-1.1-2.9v-4.4
				h-1.7v-2.4h1.7v-2.6h3.1v2.6h2.7v2.4h-2.7v4.4c0,0.5,0.1,0.8,0.4,1c0.2,0.2,0.6,0.4,1,0.4c0.5,0,0.9-0.1,1.3-0.4L77.9,115.7z"/>
			<path class="st0" d="M89.4,106.5c0.8,0.8,1.2,2,1.2,3.6v6.2h-3.1v-5.7c0-0.9-0.2-1.5-0.6-1.9c-0.4-0.4-0.9-0.6-1.6-0.6
				c-0.8,0-1.4,0.2-1.9,0.7c-0.5,0.5-0.7,1.2-0.7,2.2v5.3h-3.1v-14.8h3.1v5.2c0.4-0.4,0.9-0.7,1.5-1c0.6-0.2,1.2-0.3,1.9-0.3
				C87.5,105.3,88.6,105.7,89.4,106.5z"/>
			<path class="st0" d="M104,111.7h-8.1c0.1,0.7,0.5,1.2,1,1.6s1.2,0.6,2,0.6c0.6,0,1.1-0.1,1.5-0.3c0.4-0.2,0.8-0.4,1.2-0.8
				l1.7,1.8c-1,1.2-2.5,1.7-4.4,1.7c-1.2,0-2.3-0.2-3.2-0.7c-0.9-0.5-1.7-1.1-2.2-2c-0.5-0.8-0.8-1.8-0.8-2.9c0-1.1,0.3-2,0.8-2.9
				c0.5-0.8,1.2-1.5,2.1-2c0.9-0.5,1.8-0.7,2.9-0.7c1.1,0,2,0.2,2.9,0.7c0.9,0.5,1.5,1.1,2,2c0.5,0.8,0.7,1.8,0.7,3
				C104.1,110.9,104.1,111.2,104,111.7z M96.7,108.2c-0.5,0.4-0.8,0.9-0.9,1.6h5.3c-0.1-0.7-0.4-1.2-0.9-1.6
				c-0.5-0.4-1.1-0.6-1.8-0.6C97.8,107.6,97.2,107.8,96.7,108.2z"/>
			<path class="st0" d="M110.7,105.7c0.6-0.3,1.4-0.4,2.2-0.4v2.9c-0.3,0-0.6,0-0.7,0c-0.9,0-1.6,0.3-2.1,0.8s-0.8,1.3-0.8,2.3v5.1
				h-3.1v-10.8h3v1.4C109.5,106.3,110,106,110.7,105.7z"/>
			<path class="st0" d="M125.1,111.7H117c0.1,0.7,0.5,1.2,1,1.6s1.2,0.6,2,0.6c0.6,0,1.1-0.1,1.5-0.3c0.4-0.2,0.8-0.4,1.2-0.8
				l1.7,1.8c-1,1.2-2.5,1.7-4.4,1.7c-1.2,0-2.3-0.2-3.2-0.7c-0.9-0.5-1.7-1.1-2.2-2c-0.5-0.8-0.8-1.8-0.8-2.9c0-1.1,0.3-2,0.8-2.9
				c0.5-0.8,1.2-1.5,2.1-2c0.9-0.5,1.8-0.7,2.9-0.7c1.1,0,2,0.2,2.9,0.7c0.9,0.5,1.5,1.1,2,2c0.5,0.8,0.7,1.8,0.7,3
				C125.2,110.9,125.1,111.2,125.1,111.7z M117.8,108.2c-0.5,0.4-0.8,0.9-0.9,1.6h5.3c-0.1-0.7-0.4-1.2-0.9-1.6
				c-0.5-0.4-1.1-0.6-1.8-0.6C118.9,107.6,118.3,107.8,117.8,108.2z"/>
			<path class="st0" d="M138.1,105.4v10.8h-3v-1.3c-0.4,0.5-0.9,0.8-1.5,1.1c-0.6,0.2-1.2,0.4-1.9,0.4c-1.4,0-2.5-0.4-3.4-1.2
				c-0.8-0.8-1.2-2-1.2-3.6v-6.1h3.1v5.6c0,1.7,0.7,2.6,2.2,2.6c0.7,0,1.3-0.2,1.8-0.7c0.5-0.5,0.7-1.2,0.7-2.2v-5.3H138.1z"/>
			<path class="st0" d="M158,106.5c0.8,0.8,1.2,2,1.2,3.6v6.2H156v-5.7c0-0.9-0.2-1.5-0.5-1.9c-0.4-0.4-0.9-0.6-1.5-0.6
				c-0.7,0-1.3,0.2-1.7,0.7c-0.4,0.5-0.6,1.2-0.6,2.1v5.4h-3.1v-5.7c0-1.7-0.7-2.5-2-2.5c-0.7,0-1.3,0.2-1.7,0.7
				c-0.4,0.5-0.6,1.2-0.6,2.1v5.4H141v-10.8h3v1.2c0.4-0.5,0.9-0.8,1.5-1c0.6-0.2,1.2-0.4,1.9-0.4c0.8,0,1.4,0.2,2.1,0.5
				s1.1,0.7,1.5,1.3c0.4-0.6,1-1,1.7-1.3s1.4-0.5,2.2-0.5C156.1,105.3,157.2,105.7,158,106.5z"/>
			<path class="st0" d="M59.1,137.4c-0.8-0.3-1.5-0.7-2-1.2l0.4-0.7c0.4,0.5,1,0.8,1.8,1.1s1.5,0.4,2.4,0.4c1.2,0,2.1-0.2,2.7-0.7
				c0.6-0.5,0.9-1,0.9-1.8c0-0.6-0.2-1-0.5-1.4c-0.3-0.3-0.7-0.6-1.2-0.8c-0.5-0.2-1.1-0.4-1.9-0.6c-0.9-0.2-1.7-0.5-2.2-0.7
				s-1-0.5-1.4-1c-0.4-0.5-0.6-1.1-0.6-1.8c0-0.6,0.2-1.2,0.5-1.7c0.3-0.5,0.8-0.9,1.5-1.2c0.7-0.3,1.5-0.5,2.5-0.5
				c0.7,0,1.4,0.1,2.1,0.3c0.7,0.2,1.3,0.5,1.7,0.8l-0.3,0.7c-0.5-0.3-1.1-0.6-1.7-0.8c-0.6-0.2-1.2-0.3-1.8-0.3
				c-1.2,0-2,0.2-2.6,0.7c-0.6,0.5-0.9,1.1-0.9,1.8c0,0.6,0.2,1,0.5,1.4c0.3,0.3,0.7,0.6,1.2,0.8c0.5,0.2,1.1,0.4,2,0.6
				c0.9,0.2,1.7,0.5,2.2,0.7c0.6,0.2,1,0.5,1.4,1c0.4,0.4,0.6,1,0.6,1.8c0,0.6-0.2,1.2-0.5,1.7c-0.3,0.5-0.8,0.9-1.5,1.2
				c-0.7,0.3-1.5,0.5-2.5,0.5C60.8,137.9,59.9,137.7,59.1,137.4z"/>
			<path class="st0" d="M77,133.3h-8.1c0,0.7,0.2,1.4,0.6,2c0.3,0.6,0.8,1,1.4,1.3c0.6,0.3,1.3,0.5,2,0.5c0.6,0,1.2-0.1,1.7-0.3
				c0.5-0.2,1-0.5,1.3-1l0.5,0.6c-0.4,0.5-0.9,0.9-1.5,1.1c-0.6,0.3-1.3,0.4-2,0.4c-0.9,0-1.8-0.2-2.5-0.6c-0.7-0.4-1.3-1-1.7-1.7
				c-0.4-0.7-0.6-1.5-0.6-2.5c0-0.9,0.2-1.7,0.6-2.5c0.4-0.7,0.9-1.3,1.6-1.7c0.7-0.4,1.5-0.6,2.3-0.6s1.6,0.2,2.3,0.6
				c0.7,0.4,1.2,1,1.6,1.7c0.4,0.7,0.6,1.5,0.6,2.4L77,133.3z M70.8,129.6c-0.5,0.3-1,0.7-1.3,1.2c-0.3,0.5-0.5,1.1-0.5,1.8h7.2
				c0-0.7-0.2-1.3-0.5-1.8c-0.3-0.5-0.8-0.9-1.3-1.2c-0.5-0.3-1.1-0.5-1.8-0.5S71.3,129.3,70.8,129.6z"/>
			<path class="st0" d="M86.9,128.9c0.7,0.4,1.3,1,1.7,1.7c0.4,0.7,0.6,1.5,0.6,2.5c0,0.9-0.2,1.7-0.6,2.5c-0.4,0.7-1,1.3-1.7,1.7
				c-0.7,0.4-1.5,0.6-2.4,0.6c-0.8,0-1.6-0.2-2.3-0.6c-0.7-0.4-1.2-0.9-1.6-1.6v5.6h-0.9v-12.9h0.9v2.2c0.4-0.7,0.9-1.3,1.6-1.7
				c0.7-0.4,1.4-0.6,2.3-0.6C85.4,128.3,86.2,128.5,86.9,128.9z M86.4,136.6c0.6-0.3,1-0.8,1.4-1.4c0.3-0.6,0.5-1.3,0.5-2.1
				c0-0.8-0.2-1.5-0.5-2.1c-0.3-0.6-0.8-1.1-1.4-1.4c-0.6-0.3-1.2-0.5-1.9-0.5c-0.7,0-1.4,0.2-1.9,0.5s-1,0.8-1.3,1.4
				c-0.3,0.6-0.5,1.3-0.5,2.1c0,0.8,0.2,1.5,0.5,2.1c0.3,0.6,0.8,1.1,1.3,1.4s1.2,0.5,1.9,0.5C85.2,137.1,85.8,136.9,86.4,136.6z"/>
			<path class="st0" d="M93.2,137.3c-0.7-0.4-1.3-1-1.7-1.7c-0.4-0.7-0.6-1.5-0.6-2.5c0-0.9,0.2-1.7,0.6-2.5c0.4-0.7,1-1.3,1.7-1.7
				c0.7-0.4,1.5-0.6,2.4-0.6c0.9,0,1.7,0.2,2.4,0.6c0.7,0.4,1.3,1,1.7,1.7c0.4,0.7,0.6,1.5,0.6,2.5c0,0.9-0.2,1.7-0.6,2.5
				c-0.4,0.7-1,1.3-1.7,1.7s-1.5,0.6-2.4,0.6C94.7,137.9,93.9,137.7,93.2,137.3z M97.6,136.6c0.6-0.3,1-0.8,1.4-1.4
				c0.3-0.6,0.5-1.3,0.5-2.1c0-0.8-0.2-1.5-0.5-2.1c-0.3-0.6-0.8-1.1-1.4-1.4c-0.6-0.3-1.2-0.5-1.9-0.5c-0.7,0-1.4,0.2-1.9,0.5
				c-0.6,0.3-1,0.8-1.4,1.4c-0.3,0.6-0.5,1.3-0.5,2.1c0,0.8,0.2,1.5,0.5,2.1c0.3,0.6,0.8,1.1,1.4,1.4c0.6,0.3,1.2,0.5,1.9,0.5
				C96.4,137.1,97,136.9,97.6,136.6z"/>
			<path class="st0" d="M103.1,124.4h0.9v13.4h-0.9V124.4z"/>
			<path class="st0" d="M107.7,125.9c-0.1-0.1-0.2-0.3-0.2-0.5c0-0.2,0.1-0.4,0.2-0.5c0.1-0.1,0.3-0.2,0.5-0.2s0.4,0.1,0.5,0.2
				c0.1,0.1,0.2,0.3,0.2,0.5s-0.1,0.4-0.2,0.5c-0.1,0.1-0.3,0.2-0.5,0.2S107.9,126.1,107.7,125.9z M107.8,128.4h0.9v9.4h-0.9V128.4z
				"/>
			<path class="st0" d="M118.4,129.2c0.6,0.6,0.9,1.5,0.9,2.6v6h-0.9v-1.7c-0.3,0.6-0.7,1-1.3,1.3c-0.6,0.3-1.3,0.5-2.1,0.5
				c-1,0-1.9-0.2-2.5-0.7c-0.6-0.5-0.9-1.1-0.9-1.9c0-0.8,0.3-1.4,0.8-1.9c0.6-0.5,1.4-0.7,2.7-0.7h3.2v-0.8c0-0.9-0.2-1.5-0.7-2
				s-1.2-0.7-2.1-0.7c-0.6,0-1.2,0.1-1.8,0.3c-0.6,0.2-1.1,0.5-1.4,0.9l-0.5-0.6c0.5-0.4,1-0.7,1.7-1c0.7-0.2,1.4-0.4,2.1-0.4
				C116.8,128.3,117.7,128.6,118.4,129.2z M117.2,136.6c0.5-0.4,1-0.9,1.2-1.6v-1.8h-3.2c-0.9,0-1.6,0.2-2,0.5s-0.6,0.8-0.6,1.4
				c0,0.6,0.2,1.1,0.7,1.4c0.5,0.4,1.1,0.5,1.9,0.5C116,137.1,116.6,137,117.2,136.6z"/>
		</g>
	</g>
	<g>
		<g>
			<path class="st0" d="M473.5,102.2h3.2v14h-3.2V102.2z"/>
			<path class="st0" d="M482.9,115.5c-1.2-0.6-2.1-1.5-2.7-2.6c-0.7-1.1-1-2.3-1-3.7s0.3-2.6,1-3.7c0.7-1.1,1.6-2,2.7-2.6
				c1.2-0.6,2.5-0.9,3.9-0.9c1.2,0,2.3,0.2,3.3,0.6c1,0.4,1.8,1,2.5,1.8l-2.1,1.9c-0.9-1.1-2.1-1.6-3.5-1.6c-0.9,0-1.6,0.2-2.3,0.6
				c-0.7,0.4-1.2,0.9-1.6,1.6c-0.4,0.7-0.6,1.5-0.6,2.3c0,0.9,0.2,1.6,0.6,2.3c0.4,0.7,0.9,1.2,1.6,1.6c0.7,0.4,1.5,0.6,2.3,0.6
				c1.4,0,2.6-0.6,3.5-1.7l2.1,1.9c-0.7,0.8-1.5,1.4-2.5,1.9c-1,0.4-2.1,0.6-3.3,0.6C485.3,116.4,484,116.1,482.9,115.5z"/>
			<path class="st0" d="M497.2,115.5c-1.2-0.6-2.1-1.5-2.7-2.6c-0.7-1.1-1-2.3-1-3.7s0.3-2.6,1-3.7c0.7-1.1,1.6-2,2.7-2.6
				s2.5-0.9,3.9-0.9c1.5,0,2.8,0.3,3.9,0.9c1.2,0.6,2.1,1.5,2.7,2.6c0.7,1.1,1,2.3,1,3.7s-0.3,2.6-1,3.7c-0.7,1.1-1.6,2-2.7,2.6
				c-1.2,0.6-2.5,0.9-3.9,0.9C499.7,116.4,498.4,116.1,497.2,115.5z M503.4,113.1c0.7-0.4,1.2-0.9,1.6-1.6c0.4-0.7,0.6-1.5,0.6-2.3
				c0-0.9-0.2-1.6-0.6-2.3c-0.4-0.7-0.9-1.2-1.6-1.6s-1.4-0.6-2.2-0.6c-0.8,0-1.6,0.2-2.2,0.6c-0.7,0.4-1.2,0.9-1.6,1.6
				c-0.4,0.7-0.6,1.5-0.6,2.3c0,0.9,0.2,1.6,0.6,2.3c0.4,0.7,0.9,1.2,1.6,1.6c0.7,0.4,1.4,0.6,2.2,0.6
				C502,113.7,502.8,113.5,503.4,113.1z"/>
			<path class="st0" d="M524.1,102.2v14h-2.7l-7-8.5v8.5h-3.2v-14h2.7l7,8.5v-8.5H524.1z"/>
			<path class="st0" d="M483.6,132.4c0.5,0.5,0.7,1.2,0.7,2.1c0,1.1-0.4,1.9-1.2,2.5c-0.8,0.6-1.9,0.9-3.5,0.9H474v-12.6h5.3
				c1.4,0,2.4,0.3,3.2,0.8c0.8,0.6,1.1,1.4,1.1,2.4c0,0.7-0.2,1.3-0.6,1.8s-0.9,0.8-1.5,1.1C482.4,131.5,483.1,131.8,483.6,132.4z
				 M474.9,126v5h4.3c1.1,0,2-0.2,2.5-0.6s0.9-1.1,0.9-1.9c0-0.8-0.3-1.4-0.9-1.9s-1.4-0.6-2.5-0.6H474.9z M482.4,136.4
				c0.6-0.4,0.9-1.1,0.9-2c0-0.9-0.3-1.5-0.9-2c-0.6-0.4-1.6-0.6-2.8-0.6h-4.7v5.2h4.7C480.9,137,481.8,136.8,482.4,136.4z"/>
			<path class="st0" d="M495.2,133.3h-8.1c0,0.7,0.2,1.4,0.6,2c0.3,0.6,0.8,1,1.4,1.3c0.6,0.3,1.3,0.5,2,0.5c0.6,0,1.2-0.1,1.7-0.3
				c0.5-0.2,1-0.5,1.3-1l0.5,0.6c-0.4,0.5-0.9,0.9-1.5,1.1c-0.6,0.3-1.3,0.4-2,0.4c-0.9,0-1.8-0.2-2.5-0.6c-0.7-0.4-1.3-1-1.7-1.7
				c-0.4-0.7-0.6-1.5-0.6-2.5c0-0.9,0.2-1.7,0.6-2.5c0.4-0.7,0.9-1.3,1.6-1.7c0.7-0.4,1.5-0.6,2.3-0.6c0.9,0,1.6,0.2,2.3,0.6
				c0.7,0.4,1.2,1,1.6,1.7c0.4,0.7,0.6,1.5,0.6,2.4L495.2,133.3z M489,129.6c-0.5,0.3-1,0.7-1.3,1.2c-0.3,0.5-0.5,1.1-0.5,1.8h7.2
				c0-0.7-0.2-1.3-0.5-1.8c-0.3-0.5-0.8-0.9-1.3-1.2s-1.1-0.5-1.8-0.5S489.5,129.3,489,129.6z"/>
			<path class="st0" d="M500.2,128.9c0.6-0.4,1.4-0.5,2.2-0.5v0.9l-0.2,0c-1,0-1.9,0.3-2.4,1c-0.6,0.7-0.9,1.6-0.9,2.7v4.9H498v-9.4
				h0.9v2.1C499.2,129.8,499.6,129.3,500.2,128.9z"/>
			<path class="st0" d="M504.9,124.4h0.9v13.4h-0.9V124.4z"/>
			<path class="st0" d="M509.6,125.9c-0.1-0.1-0.2-0.3-0.2-0.5c0-0.2,0.1-0.4,0.2-0.5c0.1-0.1,0.3-0.2,0.5-0.2
				c0.2,0,0.4,0.1,0.5,0.2c0.1,0.1,0.2,0.3,0.2,0.5s-0.1,0.4-0.2,0.5c-0.1,0.1-0.3,0.2-0.5,0.2C509.9,126.1,509.7,126.1,509.6,125.9
				z M509.6,128.4h0.9v9.4h-0.9V128.4z"/>
			<path class="st0" d="M521.7,129.4c0.7,0.7,1,1.7,1,3v5.5h-0.9v-5.4c0-1.1-0.3-1.9-0.8-2.4c-0.5-0.6-1.3-0.8-2.2-0.8
				c-1.1,0-2,0.3-2.6,1s-1,1.5-1,2.7v5h-0.9v-9.4h0.9v2c0.3-0.7,0.8-1.2,1.4-1.5c0.6-0.4,1.4-0.6,2.3-0.6
				C520.1,128.3,521,128.7,521.7,129.4z"/>
		</g>
	</g>
	<g>
		<g>
			<path class="st0" d="M695.6,102.2v14h-3.2v-5.7H686v5.7h-3.2v-14h3.2v5.5h6.4v-5.5H695.6z"/>
			<path class="st0" d="M708.1,113.2h-6.5l-1.2,3h-3.3l6.2-14h3.2l6.3,14h-3.4L708.1,113.2z M707.1,110.7l-2.2-5.4l-2.2,5.4H707.1z"
				/>
			<path class="st0" d="M726.9,102.2l-6.1,14h-3.2l-6-14h3.5l4.3,10l4.3-10H726.9z"/>
			<path class="st0" d="M736.8,113.2h-6.5l-1.2,3h-3.3l6.2-14h3.2l6.3,14h-3.4L736.8,113.2z M735.8,110.7l-2.2-5.4l-2.2,5.4H735.8z"
				/>
			<path class="st0" d="M755.8,102.2v14h-3.2v-5.7h-6.4v5.7h-3.2v-14h3.2v5.5h6.4v-5.5H755.8z"/>
			<path class="st0" d="M683.9,137.4c-0.8-0.3-1.5-0.7-2-1.2l0.4-0.7c0.4,0.5,1,0.8,1.8,1.1s1.5,0.4,2.4,0.4c1.2,0,2.1-0.2,2.7-0.7
				s0.9-1,0.9-1.8c0-0.6-0.2-1-0.5-1.4c-0.3-0.3-0.7-0.6-1.2-0.8c-0.5-0.2-1.1-0.4-1.9-0.6c-0.9-0.2-1.7-0.5-2.2-0.7
				c-0.6-0.2-1-0.5-1.4-1s-0.6-1.1-0.6-1.8c0-0.6,0.2-1.2,0.5-1.7c0.3-0.5,0.8-0.9,1.5-1.2c0.7-0.3,1.5-0.5,2.5-0.5
				c0.7,0,1.4,0.1,2.1,0.3c0.7,0.2,1.3,0.5,1.7,0.8l-0.3,0.7c-0.5-0.3-1.1-0.6-1.7-0.8c-0.6-0.2-1.2-0.3-1.8-0.3
				c-1.2,0-2,0.2-2.6,0.7c-0.6,0.5-0.9,1.1-0.9,1.8c0,0.6,0.2,1,0.5,1.4s0.7,0.6,1.2,0.8c0.5,0.2,1.1,0.4,2,0.6
				c0.9,0.2,1.7,0.5,2.2,0.7s1,0.5,1.4,1c0.4,0.4,0.6,1,0.6,1.8c0,0.6-0.2,1.2-0.5,1.7c-0.3,0.5-0.8,0.9-1.5,1.2
				c-0.7,0.3-1.5,0.5-2.5,0.5C685.7,137.9,684.8,137.7,683.9,137.4z"/>
			<path class="st0" d="M695.2,137.3c-0.7-0.4-1.3-1-1.7-1.7c-0.4-0.7-0.6-1.5-0.6-2.5c0-0.9,0.2-1.7,0.6-2.5c0.4-0.7,1-1.3,1.7-1.7
				c0.7-0.4,1.5-0.6,2.4-0.6c0.9,0,1.7,0.2,2.4,0.6c0.7,0.4,1.3,1,1.7,1.7c0.4,0.7,0.6,1.5,0.6,2.5c0,0.9-0.2,1.7-0.6,2.5
				c-0.4,0.7-1,1.3-1.7,1.7c-0.7,0.4-1.5,0.6-2.4,0.6C696.7,137.9,695.9,137.7,695.2,137.3z M699.5,136.6c0.6-0.3,1-0.8,1.4-1.4
				c0.3-0.6,0.5-1.3,0.5-2.1c0-0.8-0.2-1.5-0.5-2.1c-0.3-0.6-0.8-1.1-1.4-1.4c-0.6-0.3-1.2-0.5-1.9-0.5s-1.4,0.2-1.9,0.5
				c-0.6,0.3-1,0.8-1.3,1.4c-0.3,0.6-0.5,1.3-0.5,2.1c0,0.8,0.2,1.5,0.5,2.1c0.3,0.6,0.8,1.1,1.3,1.4c0.6,0.3,1.2,0.5,1.9,0.5
				S699,136.9,699.5,136.6z"/>
			<path class="st0" d="M706.4,137.3c-0.7-0.4-1.3-1-1.7-1.7c-0.4-0.7-0.6-1.5-0.6-2.5c0-0.9,0.2-1.7,0.6-2.5c0.4-0.7,1-1.3,1.7-1.7
				c0.7-0.4,1.5-0.6,2.4-0.6c0.9,0,1.7,0.2,2.4,0.6c0.7,0.4,1.3,1,1.7,1.7c0.4,0.7,0.6,1.5,0.6,2.5c0,0.9-0.2,1.7-0.6,2.5
				c-0.4,0.7-1,1.3-1.7,1.7c-0.7,0.4-1.5,0.6-2.4,0.6C707.9,137.9,707.1,137.7,706.4,137.3z M710.7,136.6c0.6-0.3,1-0.8,1.4-1.4
				c0.3-0.6,0.5-1.3,0.5-2.1c0-0.8-0.2-1.5-0.5-2.1c-0.3-0.6-0.8-1.1-1.4-1.4c-0.6-0.3-1.2-0.5-1.9-0.5s-1.4,0.2-1.9,0.5
				c-0.6,0.3-1,0.8-1.3,1.4c-0.3,0.6-0.5,1.3-0.5,2.1c0,0.8,0.2,1.5,0.5,2.1c0.3,0.6,0.8,1.1,1.3,1.4c0.6,0.3,1.2,0.5,1.9,0.5
				S710.1,136.9,710.7,136.6z"/>
			<path class="st0" d="M723.6,129.4c0.7,0.7,1,1.7,1,3v5.5h-0.9v-5.4c0-1.1-0.3-1.9-0.8-2.4c-0.5-0.6-1.3-0.8-2.2-0.8
				c-1.1,0-2,0.3-2.6,1s-1,1.5-1,2.7v5h-0.9v-9.4h0.9v2c0.3-0.7,0.8-1.2,1.4-1.5c0.6-0.4,1.4-0.6,2.3-0.6
				C722,128.3,723,128.7,723.6,129.4z"/>
		</g>
	</g>
	<g>
		<g>
			<path class="st0" d="M288.9,110.2c0.5,0.6,0.7,1.3,0.7,2.2c0,1.2-0.5,2.2-1.4,2.8s-2.3,1-4.2,1h-7.2v-14h6.8c1.7,0,3,0.3,3.9,1
				c0.9,0.7,1.4,1.5,1.4,2.7c0,0.7-0.2,1.3-0.5,1.8c-0.3,0.5-0.8,1-1.4,1.3C287.8,109.2,288.4,109.6,288.9,110.2z M279.9,104.6v3.3
				h3.2c0.8,0,1.4-0.1,1.8-0.4c0.4-0.3,0.6-0.7,0.6-1.2s-0.2-1-0.6-1.2c-0.4-0.3-1-0.4-1.8-0.4H279.9z M285.6,113.3
				c0.4-0.3,0.7-0.7,0.7-1.3c0-1.2-0.9-1.7-2.6-1.7h-3.8v3.5h3.8C284.5,113.8,285.2,113.6,285.6,113.3z"/>
			<path class="st0" d="M293.4,116c-1-0.3-1.9-0.7-2.5-1.2l1.1-2.4c0.6,0.4,1.3,0.8,2.1,1.1s1.7,0.4,2.5,0.4c0.9,0,1.6-0.1,2-0.4
				s0.7-0.6,0.7-1.1c0-0.3-0.1-0.6-0.4-0.8c-0.3-0.2-0.6-0.4-1-0.5c-0.4-0.1-1-0.3-1.6-0.4c-1.1-0.3-1.9-0.5-2.6-0.8
				c-0.7-0.3-1.3-0.7-1.8-1.2c-0.5-0.6-0.7-1.3-0.7-2.2c0-0.8,0.2-1.5,0.7-2.2s1.1-1.2,2-1.6c0.9-0.4,2-0.6,3.3-0.6
				c0.9,0,1.8,0.1,2.6,0.3c0.9,0.2,1.6,0.5,2.2,0.9l-1,2.5c-1.3-0.7-2.6-1.1-3.9-1.1c-0.9,0-1.6,0.1-2,0.4c-0.4,0.3-0.6,0.7-0.6,1.2
				c0,0.5,0.3,0.8,0.8,1.1s1.3,0.5,2.3,0.7c1.1,0.3,1.9,0.5,2.6,0.8c0.7,0.3,1.3,0.7,1.8,1.2c0.5,0.5,0.7,1.3,0.7,2.2
				c0,0.8-0.2,1.5-0.7,2.2s-1.1,1.2-2,1.6c-0.9,0.4-2,0.6-3.3,0.6C295.5,116.4,294.4,116.3,293.4,116z"/>
			<path class="st0" d="M307.6,115.5c-1.2-0.6-2.1-1.5-2.7-2.6c-0.7-1.1-1-2.3-1-3.7s0.3-2.6,1-3.7c0.7-1.1,1.6-2,2.7-2.6
				c1.2-0.6,2.4-0.9,3.9-0.9c1.2,0,2.3,0.2,3.3,0.6s1.8,1,2.5,1.8l-2.1,1.9c-0.9-1.1-2.1-1.6-3.5-1.6c-0.9,0-1.6,0.2-2.3,0.6
				c-0.7,0.4-1.2,0.9-1.6,1.6c-0.4,0.7-0.6,1.5-0.6,2.3c0,0.9,0.2,1.6,0.6,2.3c0.4,0.7,0.9,1.2,1.6,1.6c0.7,0.4,1.5,0.6,2.3,0.6
				c1.4,0,2.6-0.6,3.5-1.7l2.1,1.9c-0.7,0.8-1.5,1.4-2.5,1.9c-1,0.4-2.1,0.6-3.3,0.6C310,116.4,308.7,116.1,307.6,115.5z"/>
			<path class="st0" d="M286.8,132.4c0.5,0.5,0.7,1.2,0.7,2.1c0,1.1-0.4,1.9-1.2,2.5c-0.8,0.6-1.9,0.9-3.5,0.9h-5.6v-12.6h5.3
				c1.4,0,2.4,0.3,3.2,0.8c0.8,0.6,1.1,1.4,1.1,2.4c0,0.7-0.2,1.3-0.6,1.8s-0.9,0.8-1.5,1.1C285.6,131.5,286.3,131.8,286.8,132.4z
				 M278.1,126v5h4.3c1.1,0,2-0.2,2.5-0.6c0.6-0.4,0.9-1.1,0.9-1.9c0-0.8-0.3-1.4-0.9-1.9c-0.6-0.4-1.4-0.6-2.5-0.6H278.1z
				 M285.6,136.4c0.6-0.4,0.9-1.1,0.9-2c0-0.9-0.3-1.5-0.9-2c-0.6-0.4-1.6-0.6-2.8-0.6h-4.7v5.2h4.7
				C284.1,137,285,136.8,285.6,136.4z"/>
			<path class="st0" d="M291.4,137.4c-0.8-0.3-1.5-0.7-2-1.2l0.4-0.7c0.4,0.5,1,0.8,1.8,1.1s1.5,0.4,2.4,0.4c1.2,0,2.1-0.2,2.7-0.7
				s0.9-1,0.9-1.8c0-0.6-0.2-1-0.5-1.4c-0.3-0.3-0.7-0.6-1.2-0.8c-0.5-0.2-1.1-0.4-1.9-0.6c-0.9-0.2-1.7-0.5-2.2-0.7s-1-0.5-1.4-1
				c-0.4-0.5-0.6-1.1-0.6-1.8c0-0.6,0.2-1.2,0.5-1.7c0.3-0.5,0.8-0.9,1.5-1.2c0.7-0.3,1.5-0.5,2.5-0.5c0.7,0,1.4,0.1,2.1,0.3
				s1.3,0.5,1.7,0.8l-0.3,0.7c-0.5-0.3-1.1-0.6-1.7-0.8c-0.6-0.2-1.2-0.3-1.8-0.3c-1.2,0-2,0.2-2.6,0.7c-0.6,0.5-0.9,1.1-0.9,1.8
				c0,0.6,0.2,1,0.5,1.4c0.3,0.3,0.7,0.6,1.2,0.8c0.5,0.2,1.1,0.4,2,0.6c0.9,0.2,1.7,0.5,2.2,0.7s1,0.5,1.4,1c0.4,0.4,0.6,1,0.6,1.8
				c0,0.6-0.2,1.2-0.5,1.7c-0.3,0.5-0.8,0.9-1.5,1.2c-0.7,0.3-1.5,0.5-2.5,0.5C293.2,137.9,292.3,137.7,291.4,137.4z"/>
			<path class="st0" d="M303.7,137.1c-1-0.6-1.8-1.3-2.3-2.3c-0.6-1-0.9-2.1-0.9-3.3s0.3-2.3,0.9-3.3c0.6-1,1.3-1.7,2.3-2.3
				c1-0.6,2.1-0.8,3.3-0.8c0.9,0,1.8,0.1,2.5,0.4s1.4,0.7,2,1.3l-0.6,0.6c-1-1-2.3-1.5-3.9-1.5c-1.1,0-2,0.2-2.9,0.7
				c-0.9,0.5-1.5,1.1-2,2c-0.5,0.8-0.7,1.8-0.7,2.8s0.2,2,0.7,2.8c0.5,0.8,1.2,1.5,2,2c0.9,0.5,1.8,0.7,2.9,0.7
				c1.6,0,2.8-0.5,3.9-1.5l0.6,0.6c-0.5,0.6-1.2,1-2,1.3c-0.8,0.3-1.6,0.5-2.5,0.5C305.8,137.9,304.7,137.6,303.7,137.1z"/>
		</g>
	</g>
	<g>
		<g>
			<g>
				<g>
					<polygon class="st0" points="20.7,86.4 20.7,111.7 0,120.9 					"/>
					<polygon class="st1" points="20.7,111.7 20.7,133.6 0,120.9 					"/>
					<polygon class="st0" points="20.7,138.1 20.7,155 0,125.8 					"/>
				</g>
				<g>
					<polygon class="st2" points="20.7,86.4 20.7,111.7 41.4,120.9 					"/>
					<polygon class="st3" points="20.7,111.7 20.7,133.6 41.4,120.9 					"/>
					<polygon class="st4" points="20.7,138.1 20.7,155 41.4,125.8 					"/>
				</g>
			</g>
		</g>
	</g>
	<path id="binancedex" class="st0" d="M237.6,141.1v6.9l-6,3.6l-5.9-3.6v-6.9l5.9,3.6L237.6,141.1z M205.2,117.1l5.9,3.6v11.9
		l10.1,6v6.9l-16-9.4V117.1z M257.8,117.1v19l-16.2,9.4v-6.9l10.1-6v-11.9L257.8,117.1z M241.6,107.6l6,3.6l0,0v6.9l-10.1,6v12.1
		l-5.9,3.6l-5.8-3.6v-12.1l-10.5-6v-6.9l6-3.6l10.1,6L241.6,107.6z M215.3,123.1l5.9,3.6v6.9l-5.9-3.6V123.1z M247.7,123.1v6.9
		l-5.9,3.6v-6.9L247.7,123.1z M211.1,101.6l6,3.6l-6,3.6v6.9l-5.9-3.6v-6.9L211.1,101.6z M251.9,101.6l6,3.6v6.9l-6,3.6v-6.9
		l-5.9-3.6L251.9,101.6z M231.5,101.6l6,3.6l-6,3.6l-5.9-3.6L231.5,101.6z M231.5,89.7l16.2,9.4l-5.9,3.6l-10.1-6l-10.3,6l-5.9-3.6
		L231.5,89.7z"/>
	<g>
		<g>
			<g>
				<path class="st0" d="M451.1,89.7c3.4,0.1,6.1,2.8,6,6.3c0,3.4-2.8,6.1-6.3,6.1c-3.4,0-6.1-2.8-6.1-6.2
					C444.8,92.3,447.5,89.6,451.1,89.7z"/>
			</g>
			<g>
				<path class="st0" d="M445.9,105.7c3.2,4.2,5,9.4,5,15c0,13.7-11.1,24.8-24.8,24.8c-5.6,0-10.8-1.9-15-5l6.7-6.7
					c2.4,1.5,5.2,2.4,8.3,2.4c8.5,0,15.5-6.9,15.5-15.5c0-3-0.9-5.9-2.4-8.3L445.9,105.7z"/>
			</g>
			<g>
				<path class="st0" d="M426.1,105.2c-8.5,0-15.5,6.9-15.5,15.5c0,2.9,0.8,5.7,2.2,8l-6.7,6.7c-3-4.1-4.9-9.2-4.9-14.7
					c0-13.7,11.1-24.8,24.8-24.8c5.5,0,10.6,1.8,14.7,4.9l-6.7,6.7C431.8,106,429.1,105.2,426.1,105.2z"/>
			</g>
			<g>
				<path class="st0" d="M401.5,139.2c3.4,0,6.1,2.7,6.1,6.2c0,3.5-2.7,6.2-6.2,6.2c-3.5,0-6.2-2.7-6.2-6.3
					C395.3,141.8,398,139.2,401.5,139.2z"/>
			</g>
		</g>
	</g>
	<path class="st5" d="M103.4,45.8H37.1c-9.1,0-16.4,7.4-16.4,16.4v15.3"/>
	<path class="st5" d="M225.5,77.5V62.2c0-9.1-7.4-16.4-16.4-16.4h-50.4"/>
	<path class="st5" d="M260.8,209.2h154.1c9.1,0,16.4-7.4,16.4-16.4v-15.3"/>
	<path class="st5" d="M20.7,177.5v15.3c0,9.1,7.4,16.4,16.4,16.4h168.4"/>
	<g>
		<g>
			<g>
				<path class="st6" d="M131.1,61.6c-8.7,0-15.8-7.1-15.8-15.8S122.4,30,131.1,30s15.8,7.1,15.8,15.8S139.8,61.6,131.1,61.6z
					 M131.1,30.8c-8.3,0-15,6.7-15,15s6.7,15,15,15s15-6.7,15-15S139.4,30.8,131.1,30.8z"/>
			</g>
			<path class="st6" d="M142.6,25.2c-0.6,0.3-1.2,0.8-2,1.4c-1.3,1.1-2.9,2.7-4.8,4.8c-3.6,3.9-8,9.3-11.8,14.3
				c-3.7,4.9-6.3,9-7.8,12.2c-0.8,1.6-1.3,2.9-1.5,4c-0.1,0.6-0.1,1.1-0.1,1.6c0,0.4,0.2,0.8,0.5,1c0.5,0.5,1.1,0.9,1.6,1.3
				c1.1,0.8,2.5,0.8,3.7,0.1c0,0,0,0,0,0c0.9-0.5,2-1.4,2.9-2.3l-3.3-1.7c1.2-2.9,3.8-7.1,8.2-13c3.2-4.3,7-9,10.2-12.6
				c2.2-2.4,4.1-4.6,5.5-5.8l2.6,1.3c0.3-0.7,0.7-1.7,0.8-2.4c0,0,0,0,0,0c0.3-1.1-0.2-2.3-1.1-3c-0.6-0.5-1.3-1-2-1.4
				c-0.3-0.2-0.6-0.2-0.9-0.1C143.2,25,142.9,25.1,142.6,25.2z"/>
			<path class="st6" d="M119.5,25.2c0.6,0.3,1.2,0.8,2,1.4c1.3,1.1,2.9,2.7,4.8,4.8c3.6,3.9,8,9.3,11.8,14.3c3.7,4.9,6.3,9,7.8,12.2
				c0.8,1.6,1.3,2.9,1.5,4c0.1,0.6,0.1,1.1,0.1,1.6c0,0.4-0.2,0.8-0.5,1c-0.5,0.5-1.1,0.9-1.6,1.3c-1.1,0.8-2.5,0.8-3.7,0.1
				c0,0,0,0,0,0c-0.9-0.5-2-1.4-2.9-2.3l3.3-1.7c-1.2-2.9-3.8-7.1-8.2-13c-3.2-4.3-7-9-10.2-12.6c-2.2-2.4-4.1-4.6-5.5-5.8l-2.6,1.3
				c-0.3-0.7-0.7-1.7-0.8-2.4c0,0,0,0,0,0c-0.3-1.1,0.2-2.3,1.1-3c0.6-0.5,1.3-1,2-1.4c0.3-0.2,0.6-0.2,0.9-0.1
				C118.9,25,119.2,25.1,119.5,25.2z"/>
			<g class="st7">
				<g>
					<path class="st6" d="M149.9,33.6l-18.2-9.4c-0.3-0.2-0.7-0.2-1.1,0l-18.2,9.4c-0.4,0.2-0.6,0.6-0.6,1V57c0,0.4,0.2,0.8,0.6,1
						l18.2,9.4c0.2,0.1,0.3,0.1,0.5,0.1c0.2,0,0.4,0,0.5-0.1l18.2-9.4c0.4-0.2,0.6-0.6,0.6-1V34.6C150.5,34.1,150.3,33.7,149.9,33.6
						z M132.4,64.4l-1.1-8.3c0-0.3-0.4-0.3-0.5,0l-1.1,8.3L114,56.3V36.6l8.5,2.8c0.3,0.1,0.4-0.3,0.2-0.4l-7-4.5l15.4-8l15.4,7.9
						l-7.1,4.6c-0.2,0.1-0.1,0.5,0.2,0.4l8.5-2.8v19.7L132.4,64.4z"/>
				</g>
			</g>
			<path class="st6" d="M129.3,47.5c1.6-1.9,1.9-1.9,3.4,0c0.5,0-1.7-4.3-1.7-4.3S129.1,47.5,129.3,47.5z"/>
		</g>
	</g>
	<path class="st5" d="M306.3,45.8h-54.1c-9.1,0-16.4,7.4-16.4,16.4v15.3"/>
	<path class="st5" d="M431.4,77.5V62.2c0-9.1-7.4-16.4-16.4-16.4h-53.4"/>
	<g>
		<g>
			<g>
				<path class="st6" d="M334,61.6c-8.7,0-15.8-7.1-15.8-15.8S325.2,30,334,30s15.8,7.1,15.8,15.8S342.7,61.6,334,61.6z M334,30.8
					c-8.3,0-15,6.7-15,15s6.7,15,15,15s15-6.7,15-15S342.2,30.8,334,30.8z"/>
			</g>
			<path class="st6" d="M345.5,25.2c-0.6,0.3-1.2,0.8-2,1.4c-1.3,1.1-2.9,2.7-4.8,4.8c-3.6,3.9-8,9.3-11.8,14.3
				c-3.7,4.9-6.3,9-7.8,12.2c-0.8,1.6-1.3,2.9-1.5,4c-0.1,0.6-0.1,1.1-0.1,1.6c0,0.4,0.2,0.8,0.5,1c0.5,0.5,1.1,0.9,1.6,1.3
				c1.1,0.8,2.5,0.8,3.7,0.1c0,0,0,0,0,0c0.9-0.5,2-1.4,2.9-2.3l-3.3-1.7c1.2-2.9,3.8-7.1,8.2-13c3.2-4.3,7-9,10.2-12.6
				c2.2-2.4,4.1-4.6,5.5-5.8l2.6,1.3c0.3-0.7,0.7-1.7,0.8-2.4c0,0,0,0,0,0c0.3-1.1-0.2-2.3-1.1-3c-0.6-0.5-1.3-1-2-1.4
				c-0.3-0.2-0.6-0.2-0.9-0.1C346.1,25,345.8,25.1,345.5,25.2z"/>
			<path class="st6" d="M322.4,25.2c0.6,0.3,1.2,0.8,2,1.4c1.3,1.1,2.9,2.7,4.8,4.8c3.6,3.9,8,9.3,11.8,14.3c3.7,4.9,6.3,9,7.8,12.2
				c0.8,1.6,1.3,2.9,1.5,4c0.1,0.6,0.1,1.1,0.1,1.6c0,0.4-0.2,0.8-0.5,1c-0.5,0.5-1.1,0.9-1.6,1.3c-1.1,0.8-2.5,0.8-3.7,0.1
				c0,0,0,0,0,0c-0.9-0.5-2-1.4-2.9-2.3l3.3-1.7c-1.2-2.9-3.8-7.1-8.2-13c-3.2-4.3-7-9-10.2-12.6c-2.2-2.4-4.1-4.6-5.5-5.8l-2.6,1.3
				c-0.3-0.7-0.7-1.7-0.8-2.4c0,0,0,0,0,0c-0.3-1.1,0.2-2.3,1.1-3c0.6-0.5,1.3-1,2-1.4c0.3-0.2,0.6-0.2,0.9-0.1
				C321.8,25,322,25.1,322.4,25.2z"/>
			<g class="st7">
				<g>
					<path class="st6" d="M352.7,33.6l-18.2-9.4c-0.3-0.2-0.7-0.2-1.1,0l-18.2,9.4c-0.4,0.2-0.6,0.6-0.6,1V57c0,0.4,0.2,0.8,0.6,1
						l18.2,9.4c0.2,0.1,0.3,0.1,0.5,0.1c0.2,0,0.4,0,0.5-0.1l18.2-9.4c0.4-0.2,0.6-0.6,0.6-1V34.6C353.3,34.1,353.1,33.7,352.7,33.6
						z M335.2,64.4l-1.1-8.3c0-0.3-0.4-0.3-0.5,0l-1.1,8.3l-15.8-8.1V36.6l8.5,2.8c0.3,0.1,0.4-0.3,0.2-0.4l-7-4.5l15.4-8l15.4,7.9
						l-7.1,4.6c-0.2,0.1-0.1,0.5,0.2,0.4l8.5-2.8v19.7L335.2,64.4z"/>
				</g>
			</g>
			<path class="st6" d="M332.2,47.5c1.6-1.9,1.9-1.9,3.4,0c0.5,0-1.7-4.3-1.7-4.3S332,47.5,332.2,47.5z"/>
		</g>
	</g>
	<g>
		<g>
			<g>
				<path class="st6" d="M233.2,223.2c-8.7,0-15.8-7.1-15.8-15.8c0-8.7,7.1-15.8,15.8-15.8c8.7,0,15.8,7.1,15.8,15.8
					C249,216.1,241.9,223.2,233.2,223.2z M233.2,192.4c-8.3,0-15,6.7-15,15c0,8.3,6.7,15,15,15c8.3,0,15-6.7,15-15
					C248.2,199.1,241.5,192.4,233.2,192.4z"/>
			</g>
			<path class="st6" d="M244.7,186.8c-0.6,0.3-1.2,0.8-2,1.4c-1.3,1.1-2.9,2.7-4.8,4.8c-3.6,3.9-8,9.3-11.8,14.3
				c-3.7,4.9-6.3,9-7.8,12.2c-0.8,1.6-1.3,2.9-1.5,4c-0.1,0.6-0.1,1.1-0.1,1.6c0,0.4,0.2,0.8,0.5,1c0.5,0.5,1.1,0.9,1.6,1.3
				c1.1,0.8,2.5,0.8,3.7,0.1c0,0,0,0,0,0c0.9-0.5,2-1.4,2.9-2.3l-3.3-1.7c1.2-2.9,3.8-7.1,8.2-13c3.2-4.3,7-9,10.2-12.6
				c2.2-2.4,4.1-4.6,5.5-5.8l2.6,1.3c0.3-0.7,0.7-1.7,0.8-2.4c0,0,0,0,0,0c0.3-1.1-0.2-2.3-1.1-3c-0.6-0.5-1.3-1-2-1.4
				c-0.3-0.2-0.6-0.2-0.9-0.1C245.3,186.5,245,186.6,244.7,186.8z"/>
			<path class="st6" d="M221.6,186.8c0.6,0.3,1.2,0.8,2,1.4c1.3,1.1,2.9,2.7,4.8,4.8c3.6,3.9,8,9.3,11.8,14.3
				c3.7,4.9,6.3,9,7.8,12.2c0.8,1.6,1.3,2.9,1.5,4c0.1,0.6,0.1,1.1,0.1,1.6c0,0.4-0.2,0.8-0.5,1c-0.5,0.5-1.1,0.9-1.6,1.3
				c-1.1,0.8-2.5,0.8-3.7,0.1c0,0,0,0,0,0c-0.9-0.5-2-1.4-2.9-2.3l3.3-1.7c-1.2-2.9-3.8-7.1-8.2-13c-3.2-4.3-7-9-10.2-12.6
				c-2.2-2.4-4.1-4.6-5.5-5.8l-2.6,1.3c-0.3-0.7-0.7-1.7-0.8-2.4c0,0,0,0,0,0c-0.3-1.1,0.2-2.3,1.1-3c0.6-0.5,1.3-1,2-1.4
				c0.3-0.2,0.6-0.2,0.9-0.1C221,186.5,221.3,186.6,221.6,186.8z"/>
			<g class="st7">
				<g>
					<path class="st6" d="M252,195.1l-18.2-9.4c-0.3-0.2-0.7-0.2-1.1,0l-18.2,9.4c-0.4,0.2-0.6,0.6-0.6,1v22.4c0,0.4,0.2,0.8,0.6,1
						l18.2,9.4c0.2,0.1,0.3,0.1,0.5,0.1c0.2,0,0.4,0,0.5-0.1l18.2-9.4c0.4-0.2,0.6-0.6,0.6-1v-22.4
						C252.6,195.7,252.3,195.3,252,195.1z M234.5,226l-1.1-8.3c0-0.3-0.4-0.3-0.5,0l-1.1,8.3l-15.8-8.1v-19.7l8.5,2.8
						c0.3,0.1,0.4-0.3,0.2-0.4l-7-4.5l15.4-8l15.4,7.9l-7.1,4.6c-0.2,0.1-0.1,0.5,0.2,0.4l8.5-2.8v19.7L234.5,226z"/>
				</g>
			</g>
			<path class="st6" d="M231.4,209.1c1.6-1.9,1.9-1.9,3.4,0c0.5,0-1.7-4.3-1.7-4.3S231.2,209.1,231.4,209.1z"/>
		</g>
	</g>
	<g>
		<g class="st8">
			<path class="st0" d="M628.4,80.1l-34,19.7v39.3l34,19.7l34-19.7l0-39.3L628.4,80.1z M657,132.8l-8-4.6c-0.1,0.3-0.2,0.7-0.4,1
				c-0.3,0.4-0.7,0.6-1.1,0.8c-0.5,0.1-0.9,0.2-1.4,0.2c-0.9,0-1.8-0.2-2.6-0.6c0.1,0.3,0.1,0.5,0.2,0.8l0,0
				c0.1,0.4,0.2,0.8,0.3,1.2l10.4,6l-23.2,13.4v-12.5c-0.3,0.5-0.5,0.9-0.7,1.3c-0.9,1.8-1.3,3.8-1.2,5.7l0,0l0,0l0,0
				c0,0.5-0.2,1.1-0.5,1.5c-0.4,0.4-0.8,0.7-1.4,0.7l0,0l0,0l0,0c-0.1,0-0.2,0-0.3,0c-0.5,0-0.9-0.2-1.3-0.5v3.6l-23.2-13.4l5.1-3
				c0.5-0.9,1-1.7,1.6-2.4c0.7-0.8,1.4-1.5,2.3-2.1l0.1-0.1c0.7-0.5,1.3-1,2-1.4c-0.7-0.1-1.4-0.2-2-0.2c-0.5,0-0.9,0.1-1.3,0.2
				c-0.3,0.1-0.6,0.2-0.9,0.2c-0.3,0-0.7-0.1-1-0.2c-0.2-0.1-0.4-0.2-0.5-0.3l-8.2,4.7V106l8,4.6c0.1-0.3,0.2-0.7,0.4-1
				c0.3-0.4,0.7-0.6,1.1-0.8c0.5-0.1,0.9-0.2,1.4-0.2c0.9,0,1.8,0.2,2.6,0.6c-0.1-0.3-0.1-0.5-0.2-0.8l0,0l0,0l0,0l0,0
				c-0.1-0.4-0.2-0.8-0.3-1.2l-10.4-6l23.2-13.4v12.5c0.3-0.5,0.5-0.9,0.7-1.4c0.9-1.8,1.3-3.8,1.2-5.7l0,0l0,0l0,0v0l0,0
				c0-0.5,0.2-1.1,0.5-1.5c0.4-0.4,0.8-0.7,1.4-0.7l0,0l0,0l0,0c0.1,0,0.2,0,0.3,0c0.5,0,0.9,0.2,1.3,0.4v-3.5l23.2,13.4l-5.1,3
				c-0.5,0.9-1,1.7-1.6,2.4c-0.7,0.8-1.4,1.5-2.3,2.1l-0.1,0.1c-0.7,0.5-1.3,0.9-2,1.4c0.7,0.1,1.4,0.2,2,0.2c0.5,0,0.9-0.1,1.3-0.2
				c0.3-0.1,0.6-0.2,0.9-0.2c0.3,0,0.7,0.1,1,0.2c0.2,0.1,0.4,0.2,0.5,0.4l8.2-4.7L657,132.8L657,132.8z"/>
		</g>
		<path class="st0" d="M654.8,120.8c0-0.1-0.1-0.2-0.2-0.2h0l0,0c-0.3,0-0.5,0-0.8,0c-2,0-4-0.5-5.9-1.4c-0.7-0.3-1.4-0.7-2.1-1.1
			c-0.8-0.5-1.6-0.9-2.4-1.3c-1-0.4-1.9-0.7-2.7-0.8c-0.2,0-0.3,0-0.4,0c-0.2,0-0.4,0-0.6,0c-0.2,0-0.3,0.1-0.5,0.1
			c0.7-0.9,1.6-1.2,2.7-1.4c0.3,0,0.7-0.1,1-0.1c0.1,0,0.2,0,0.3,0c0.5-0.1,1-0.1,1.5-0.2c1-0.2,2.3-0.9,2.9-2l0,0
			c0-0.1,0-0.2,0-0.2c0,0,0,0-0.1,0c0,0-0.1,0-0.1,0c0,0-0.1,0-0.1,0c-0.4,0.2-0.9,0.3-1.4,0.3c-0.2,0-0.4,0-0.6,0
			c-0.8,0-1.7-0.1-2.6-0.3c-0.2,0-0.4-0.1-0.5-0.1c-0.8-0.1-1.6-0.2-2.4-0.2c-1,0-1.9,0.2-2.6,0.7c0.8-1.6,2.1-2.3,3.3-3
			c1.4-0.7,2.5-1.5,3.7-2.4l0.1-0.1c0.2-0.1,0.3-0.3,0.5-0.4c0.5-0.4,1-0.9,1.4-1.4c0.8-1,1.5-2.2,2-3.5c0-0.1,0-0.2-0.1-0.2l0,0
			c0,0-0.1,0-0.1,0c-0.1,0-0.1,0-0.1,0.1l0,0c-1.5,1.7-3.5,3-5.7,3.7c-0.7,0.3-1.5,0.5-2.3,0.6c-0.9,0.2-1.8,0.5-2.6,0.8
			c-1.7,0.6-2.9,1.5-3.5,2.6c-0.2-1.5,0.7-2.5,1.6-3.7c0.4-0.5,0.8-0.9,1.1-1.5c0.5-0.9,1-2.2,0.7-3.4c0-0.1-0.1-0.2-0.2-0.2h0
			c-0.1,0-0.2,0.1-0.2,0.1c-0.5,1.4-1.9,2.4-3.2,3.4c-0.1,0.1-0.3,0.2-0.4,0.3c-0.4,0.3-0.9,0.7-1.3,1.1c-0.2,0.2-0.3,0.3-0.5,0.5
			c-0.7,0.7-1.2,1.5-1.3,2.4c-0.5-1.7-0.2-3.1,0.3-4.4c0.5-1.5,0.7-2.8,1-4.3l0-0.1c0-0.3,0.1-0.6,0.1-0.9c0-0.5,0-0.9,0-1.4
			c-0.1-1.4-0.5-2.8-1.1-4.2c0-0.1-0.1-0.1-0.2-0.1c0,0,0,0,0,0l0,0c-0.1,0-0.2,0.1-0.2,0.2l0,0c0.1,2.2-0.3,4.6-1.4,6.7
			c-0.3,0.7-0.7,1.4-1.1,2.1c-0.5,0.8-0.9,1.6-1.3,2.4c0,0,0,0.1-0.1,0.1c-0.2,0.5-0.4,1-0.5,1.5c-0.2,1-0.3,1.9-0.1,2.7
			c-1.2-0.9-1.3-2.3-1.5-3.7c-0.1-0.6-0.1-1.2-0.3-1.8c-0.2-1-0.9-2.3-2-2.9l0,0c0,0-0.1,0-0.1,0c-0.1,0-0.1,0-0.2,0.1
			c-0.1,0.1-0.1,0.2,0,0.2c0.6,1.4,0.3,3,0.1,4.7c0,0.2-0.1,0.4-0.1,0.5c-0.2,1.7-0.5,3.7,0.5,5c-1.6-0.8-2.3-2.1-2.9-3.3
			c-0.7-1.4-1.5-2.5-2.4-3.7l-0.1-0.1c-1.2-1.7-3-3-5.3-3.9c0,0-0.1,0-0.1,0c-0.1,0-0.1,0-0.2,0.1l0,0c-0.1,0.1,0,0.2,0,0.3l0,0
			c1.7,1.5,3,3.5,3.7,5.7c0.3,0.7,0.5,1.5,0.6,2.3l0,0c0.1,0.2,0.1,0.5,0.2,0.7c0.2,0.6,0.4,1.3,0.6,1.9c0.6,1.7,1.5,2.9,2.6,3.5
			c-0.2,0-0.3,0-0.4,0c-1.2,0-2.2-0.8-3.2-1.6c-0.5-0.4-0.9-0.8-1.5-1.1c-0.7-0.4-1.6-0.8-2.5-0.8c-0.3,0-0.6,0-0.9,0.1
			c-0.1,0-0.2,0.1-0.2,0.2c0,0.1,0.1,0.2,0.1,0.2c1,0.4,1.7,1.2,2.5,2c0.3,0.3,0.6,0.7,0.8,1.1c0,0,0.1,0.1,0.1,0.1
			c0.1,0.1,0.2,0.3,0.3,0.4c1,1.4,2.3,3,3.9,3.2c-0.6,0.2-1.2,0.3-1.7,0.3c-1,0-1.9-0.3-2.7-0.5c-1.5-0.5-2.8-0.7-4.3-1l-0.1,0
			c-0.5-0.1-1-0.1-1.6-0.1c-1.6,0-3.2,0.4-4.9,1.1c-0.1,0-0.2,0.1-0.1,0.2l0,0c0,0.1,0.1,0.2,0.2,0.2l0,0l0,0c0.3,0,0.5,0,0.8,0
			c2,0,4,0.5,5.9,1.4c0.7,0.3,1.4,0.7,2.1,1.1c0.8,0.5,1.6,0.9,2.4,1.3c1,0.4,1.9,0.7,2.7,0.8c0.2,0,0.3,0,0.4,0c0.2,0,0.4,0,0.6,0
			c0.2,0,0.3-0.1,0.5-0.1c-0.7,0.9-1.6,1.2-2.7,1.4c-0.3,0-0.7,0.1-1,0.1c-0.1,0-0.2,0-0.3,0c-0.5,0.1-1,0.1-1.5,0.2
			c-1,0.2-2.3,0.9-2.9,2l0,0c0,0.1,0,0.2,0,0.2c0,0,0,0,0.1,0c0,0,0.1,0,0.1,0c0,0,0.1,0,0.1,0c0.4-0.2,0.9-0.3,1.4-0.3
			c0.2,0,0.4,0,0.6,0c0.8,0,1.7,0.1,2.6,0.3c0.2,0,0.4,0.1,0.5,0.1c0.8,0.1,1.6,0.2,2.4,0.2c1,0,1.9-0.2,2.6-0.7
			c-0.8,1.6-2.1,2.3-3.3,2.9c-1.4,0.7-2.5,1.5-3.7,2.4l-0.1,0.1c-0.2,0.1-0.3,0.3-0.5,0.4c-0.5,0.4-1,0.9-1.4,1.4
			c-0.8,1-1.5,2.2-2,3.5c0,0.1,0,0.2,0.1,0.2l0,0c0,0,0.1,0,0.1,0c0.1,0,0.1,0,0.1-0.1l0,0c1.5-1.7,3.5-3,5.7-3.7
			c0.7-0.3,1.5-0.5,2.3-0.6c0.9-0.2,1.8-0.5,2.6-0.8c1.7-0.6,2.9-1.5,3.5-2.6c0.2,1.5-0.7,2.5-1.6,3.7c-0.4,0.5-0.8,0.9-1.1,1.5
			c-0.5,0.9-1,2.2-0.7,3.4c0,0.1,0.1,0.2,0.2,0.2h0c0.1,0,0.2-0.1,0.2-0.1c0.5-1.4,1.9-2.4,3.2-3.4c0.1-0.1,0.3-0.2,0.4-0.3
			c0.4-0.3,0.9-0.7,1.3-1.1c0.2-0.2,0.3-0.3,0.5-0.5c0.7-0.7,1.3-1.5,1.4-2.4c0.5,1.7,0.2,3.1-0.3,4.4c-0.5,1.5-0.7,2.8-1,4.3l0,0.1
			c-0.1,0.4-0.1,0.7-0.1,1.1c0,0.3,0,0.6,0,0.9c0.1,1.4,0.4,3,1.1,4.5c0,0.1,0.1,0.1,0.2,0.1c0,0,0,0,0,0l0,0c0.1,0,0.2-0.1,0.2-0.2
			l0,0c-0.1-2.2,0.3-4.6,1.4-6.7c0.3-0.7,0.7-1.4,1.1-2.1c0.5-0.8,0.9-1.6,1.3-2.4c0,0,0-0.1,0-0.1c0.2-0.5,0.4-1,0.5-1.4
			c0.3-1,0.3-1.9,0.1-2.8c1.2,0.9,1.3,2.3,1.5,3.7c0.1,0.6,0.1,1.2,0.3,1.8c0.2,1,0.9,2.3,2,2.9l0,0c0,0,0.1,0,0.1,0
			c0.1,0,0.1,0,0.2-0.1c0.1-0.1,0.1-0.2,0-0.2c-0.6-1.4-0.3-3-0.1-4.7c0-0.2,0.1-0.4,0.1-0.5c0.2-1.7,0.5-3.7-0.5-5
			c1.6,0.8,2.3,2.1,3,3.3c0.7,1.4,1.5,2.5,2.4,3.7l0.1,0.1c1.2,1.7,3,3,5.3,3.9c0,0,0.1,0,0.1,0c0.1,0,0.1,0,0.2-0.1l0,0
			c0.1-0.1,0-0.2,0-0.3l0,0c-1.7-1.5-3-3.5-3.7-5.7c-0.3-0.7-0.5-1.5-0.6-2.3l0,0c-0.1-0.2-0.1-0.5-0.2-0.7
			c-0.2-0.6-0.4-1.3-0.6-1.9c-0.6-1.7-1.5-2.9-2.6-3.5c0.1,0,0.3,0,0.4,0c1.2,0,2.2,0.8,3.2,1.6c0.5,0.4,0.9,0.8,1.5,1.1
			c0.7,0.4,1.6,0.8,2.5,0.8h0c0.3,0,0.6,0,0.9-0.1c0.1,0,0.2-0.1,0.2-0.2c0-0.1-0.1-0.2-0.1-0.2c-1-0.4-1.7-1.2-2.5-2
			c-0.3-0.3-0.6-0.7-0.8-1.1c0,0-0.1-0.1-0.1-0.1c-0.1-0.1-0.2-0.3-0.3-0.4c-1-1.4-2.3-3-3.9-3.2c0.6-0.2,1.2-0.3,1.7-0.3
			c1,0,1.9,0.3,2.7,0.5c1.5,0.5,2.8,0.7,4.3,1l0.1,0c0.5,0.1,1,0.1,1.6,0.1h0c1.6,0,3.2-0.4,4.9-1.1
			C654.8,121,654.9,120.9,654.8,120.8L654.8,120.8L654.8,120.8z M635.6,127.3c-2,1.9-4.7,3-7.5,2.9c-2.8-0.1-5.4-1.2-7.4-3.2
			c-1.9-2-3-4.7-2.9-7.5c0-2,0.6-3.9,1.7-5.6c0.1-0.2,0.2-0.3,0.3-0.5c0,0,0.1-0.1,0.1-0.1c0.3-0.4,0.7-0.8,1-1.2
			c2-1.9,4.7-3,7.5-2.9c2.8,0.1,5.4,1.2,7.4,3.2c1.9,2,3,4.7,2.9,7.5C638.7,122.7,637.6,125.3,635.6,127.3L635.6,127.3z"/>
		<path class="st0" d="M626.6,121.1c0,0,0.1,0,0.1,0.1c0.4,0.1,0.7,0.2,0.9,0.2c0.1,0,0.2,0,0.3,0c0.1,0,0.1,0,0.1,0
			c0,0,0,0.1-0.1,0.1c0,0,0,0-0.1,0.1c0,0,0,0,0.1,0c0.1,0,0.3,0,0.4,0c0.3,0,0.6,0,0.8,0c0.3,0,0.5,0,0.8,0c0.5,0,1,0,1.5-0.1
			c0.2,0,0.5-0.1,0.7-0.2c0.2-0.1,0.4-0.2,0.6-0.3c0.4-0.2,0.7-0.4,1-0.7c0,0,0.1-0.1,0.1-0.1c-0.2,0.1-0.6,0.3-1.1,0.4
			c-0.4,0.1-1,0.3-1.6,0.4c-0.6,0.1-1.3,0.2-2,0.2c-0.7,0-1.4,0-2,0C627.1,121.2,626.9,121.1,626.6,121.1L626.6,121.1z"/>
		<path class="st0" d="M630.6,122.5C630.7,122.5,630.7,122.5,630.6,122.5c0,0-0.1,0-0.2,0l0,0c-0.1,0-0.2,0-0.2,0.1
			c0.1,0,0.1,0,0.1,0C630.5,122.6,630.6,122.5,630.6,122.5z"/>
		<path class="st0" d="M624.5,118.7c-0.2,0-0.4-0.1-0.6-0.1c0.2,0.1,0.3,0.1,0.5,0.2c0.1,0,0.2,0.1,0.3,0.1c0.1,0,0.1,0,0.2,0
			c0.2,0,0.5,0,0.7,0l0.3,0c0.1,0,0.2,0,0.3,0c0,0,0.1,0,0.1,0l0,0c-0.4,0-0.8,0-1.2-0.1C624.8,118.8,624.5,118.8,624.5,118.7
			C624.5,118.8,624.5,118.7,624.5,118.7C624.5,118.7,624.5,118.7,624.5,118.7L624.5,118.7z"/>
		<path class="st0" d="M628.5,114.5c-0.1,0-0.1,0-0.2-0.1c-0.1,0-0.1,0.1-0.2,0.1c0.2,0.1,0.4,0.3,0.5,0.4c0.1,0,0.2-0.1,0.3-0.1
			L628.5,114.5L628.5,114.5z"/>
		<path class="st0" d="M629.4,119.2c0.1,0,0.2-0.1,0.3-0.1c0,0,0.1,0,0.1,0c0,0,0,0-0.1,0c-0.2,0-0.4,0-0.6,0.1l0,0c0,0,0,0,0,0
			C629.2,119.2,629.3,119.3,629.4,119.2C629.3,119.3,629.4,119.3,629.4,119.2L629.4,119.2z"/>
		<path class="st0" d="M625,122.2c0.2,0.1,0.5,0.1,0.7,0.2l0,0c-0.2,0-0.3-0.1-0.5-0.1C625.2,122.3,625.1,122.2,625,122.2
			c0,0-0.1-0.1-0.2-0.1c0,0,0,0,0,0C624.9,122.2,624.9,122.2,625,122.2L625,122.2z"/>
		<path class="st0" d="M624.7,122.1C624.8,122.1,624.8,122.1,624.7,122.1C624.8,122.1,624.8,122.1,624.7,122.1L624.7,122.1z"/>
		<path class="st0" d="M626.3,120.3C626.3,120.3,626.3,120.3,626.3,120.3c-0.1,0-0.2-0.1-0.4-0.2c-0.1,0-0.3,0-0.4,0
			c-0.1,0-0.2,0-0.3,0c0,0,0.1,0.1,0.1,0.1C625.6,120.3,625.9,120.3,626.3,120.3z"/>
		<path class="st0" d="M629.4,122.6c0.1,0,0.1,0,0.2,0l0.1,0c0,0,0,0,0,0c0.2,0,0.4-0.1,0.6-0.1c-0.2,0-0.4,0-0.6,0c0,0-0.1,0-0.1,0
			c-0.1,0-0.3,0-0.5,0.1c0,0,0.1,0,0.1,0C629.2,122.6,629.3,122.6,629.4,122.6L629.4,122.6z"/>
		<path class="st0" d="M626.2,117.5L626.2,117.5c0,0.1,0.1,0.1,0.1,0.2c0,0,0.1,0,0.1,0C626.3,117.6,626.3,117.5,626.2,117.5z"/>
		<path class="st0" d="M626.2,115.2c-0.1,0-0.1,0.1-0.2,0.1c-0.1,0-0.1,0.1-0.2,0.1c0.3,0.1,0.5,0.1,0.8,0.2l0,0
			c0.1,0,0.1,0,0.2-0.1c0,0,0.1,0,0.1,0c-0.2-0.1-0.5-0.1-0.7-0.2C626.3,115.2,626.3,115.2,626.2,115.2L626.2,115.2z"/>
		<path class="st0" d="M626.5,111.7c0,0-0.1,0-0.1,0.1c0,0-0.1,0-0.1,0.1c0,0-0.1,0-0.2,0.1c-0.1,0-0.2,0.1-0.3,0.1c0,0-0.1,0-0.1,0
			c0,0,0.1,0,0.1,0c0.4-0.1,0.7-0.2,1-0.2c0,0,0,0,0.1,0c0,0-0.1,0-0.1,0C626.6,111.7,626.5,111.7,626.5,111.7L626.5,111.7z"/>
		<path class="st0" d="M630.8,115.4c0.1,0,0.2,0,0.3,0c0.1,0,0.1,0,0.2,0c-0.3-0.1-0.7-0.2-1-0.3c0,0-0.1,0-0.1,0l0,0
			c0.1,0.1,0.2,0.1,0.3,0.2c0.1,0,0.1,0.1,0.2,0.1C630.7,115.4,630.8,115.4,630.8,115.4L630.8,115.4z"/>
		<path class="st0" d="M625.4,116.8c-0.1,0-0.1,0-0.2,0.1c0.1,0.1,0.2,0.1,0.3,0.2c0,0,0.1,0,0.1-0.1
			C625.6,116.9,625.5,116.9,625.4,116.8z"/>
		<path class="st0" d="M624.8,122.1L624.8,122.1C624.8,122.1,624.8,122.1,624.8,122.1C624.8,122.1,624.8,122.1,624.8,122.1z"/>
		<path class="st0" d="M632.7,113.7c-0.2-0.1-0.4-0.2-0.5-0.2c-0.1,0-0.1-0.1-0.2-0.1c0,0,0,0-0.1,0c-0.1,0-0.1,0-0.2,0l-0.1,0h0
			c0.2,0.1,0.3,0.2,0.5,0.2c0.1,0,0.1,0.1,0.2,0.1c0,0,0,0,0,0c0.4,0.1,1,0.3,1.7,0.6c0,0,0.1,0,0.1,0.1c-0.3-0.2-0.5-0.3-0.9-0.5
			C633.1,113.8,632.9,113.7,632.7,113.7L632.7,113.7z"/>
		<path class="st0" d="M627.5,119.3c-0.3,0-0.6,0.1-0.9,0.1C626.9,119.5,627.3,119.4,627.5,119.3c0.1,0.1,0.2,0.1,0.2,0.1
			C627.7,119.4,627.6,119.4,627.5,119.3L627.5,119.3L627.5,119.3z"/>
		<path class="st0" d="M628.7,122.6L628.7,122.6c0.3,0,0.5,0,0.6-0.1c-0.4,0-0.8,0-1.2,0c0.1,0,0.1,0,0.2,0c0.1,0,0.1,0,0.2,0
			C628.6,122.6,628.7,122.6,628.7,122.6z"/>
		<path class="st0" d="M631.7,122.7C631.7,122.7,631.7,122.7,631.7,122.7C631.7,122.7,631.7,122.7,631.7,122.7L631.7,122.7
			L631.7,122.7z"/>
		<path class="st0" d="M632.4,122.4c0.3-0.1,0.6-0.3,0.9-0.4c0,0,0,0,0,0l-0.1,0c0,0-0.1,0-0.1,0.1c0,0,0,0-0.1,0l-0.1,0l-0.3,0.1
			c-0.3,0.1-0.7,0.2-1.1,0.3c0,0,0,0,0,0c0.2,0,0.4-0.1,0.7-0.2C632.3,122.5,632.3,122.5,632.4,122.4L632.4,122.4z"/>
		<path class="st0" d="M630.8,122.7L630.8,122.7c0.1,0,0.1,0,0.1,0l0.1,0l0.2,0c0.1,0,0.2,0,0.3,0c0,0,0,0,0,0c0,0-0.1,0-0.1,0
			C631.2,122.7,631,122.7,630.8,122.7L630.8,122.7L630.8,122.7z"/>
		<path class="st0" d="M631.1,122.5c-0.1,0-0.1,0-0.2,0c0,0,0,0,0,0C631,122.5,631,122.5,631.1,122.5
			C631.1,122.5,631.1,122.5,631.1,122.5L631.1,122.5z"/>
		<path class="st0" d="M630.9,122.7c0.2,0,0.3,0,0.5-0.1c0.5-0.1,0.9-0.2,1.3-0.4c0.1,0,0.2-0.1,0.3-0.1l0.1,0c0,0,0,0,0.1,0l0,0
			c0,0-0.1,0-0.1,0c0,0,0,0-0.1,0c-0.3,0.1-0.7,0.2-1.1,0.3c-0.2,0.1-0.5,0.1-0.7,0.2l0,0c0,0,0,0,0,0
			C631,122.6,631,122.6,630.9,122.7C630.9,122.6,630.9,122.6,630.9,122.7L630.9,122.7z"/>
		<path class="st0" d="M620.6,120.5c-0.1,0-0.1-0.1-0.1-0.1c0.2,0.2,0.4,0.4,0.6,0.6c0.3,0.2,0.5,0.4,0.7,0.5c0.1,0,0.1,0,0.2,0.1
			c-0.1-0.1-0.2-0.1-0.3-0.2C621.3,121.1,621,120.8,620.6,120.5L620.6,120.5z"/>
		<path class="st0" d="M624.3,122.1c0,0,0.1,0,0.1,0c0,0,0.1,0,0.1,0c0,0,0,0,0.1,0c0,0,0,0,0,0
			C624.5,122.1,624.4,122.1,624.3,122.1L624.3,122.1z"/>
		<path class="st0" d="M624,121.9c-0.1,0-0.3-0.1-0.4-0.1c-0.3-0.1-0.5-0.2-0.7-0.3c0.3,0.2,0.6,0.3,0.9,0.4
			C623.8,121.9,623.8,121.9,624,121.9c0.1,0.1,0.2,0.2,0.4,0.2c-0.1,0-0.1-0.1-0.2-0.1C624.1,121.9,624.1,121.9,624,121.9L624,121.9
			z"/>
		<path class="st0" d="M624.5,122C624.5,122,624.4,122,624.5,122c-0.1,0-0.2-0.1-0.2-0.1C624.3,122,624.4,122,624.5,122
			C624.5,122,624.6,122.1,624.5,122c0.1,0.1,0.1,0.1,0.2,0.1C624.6,122.1,624.5,122,624.5,122L624.5,122z"/>
		<path class="st0" d="M624.1,122.1C624.1,122.1,624.2,122.1,624.1,122.1L624.1,122.1c0,0-0.1-0.1-0.2-0.1c0,0-0.1,0-0.1,0
			c0,0,0.1,0.1,0.1,0.1C624,122.1,624,122.1,624.1,122.1L624.1,122.1z"/>
		<path class="st0" d="M622.5,121.6C622.5,121.6,622.5,121.6,622.5,121.6c-0.1,0-0.1,0-0.1,0c0.2,0.1,0.4,0.2,0.6,0.3
			c0.3,0.1,0.6,0.2,0.8,0.2c0,0-0.1-0.1-0.1-0.1c0,0,0,0,0,0c-0.3-0.1-0.7-0.3-1.1-0.5c-0.3-0.2-0.5-0.3-0.7-0.5
			c0,0-0.1-0.1-0.1-0.1c-0.1-0.1-0.3-0.2-0.4-0.2c-0.1-0.1-0.2-0.2-0.4-0.2c-0.2-0.2-0.4-0.3-0.7-0.5c-0.3-0.2-0.5-0.4-0.7-0.6l0,0
			c0.1,0.1,0.1,0.2,0.2,0.3c0,0,0,0,0,0c0,0,0,0,0,0c0,0,0.1,0.1,0.1,0.1c0.2,0.2,0.4,0.4,0.7,0.7c0.3,0.3,0.7,0.5,1.1,0.8
			c0.2,0.1,0.4,0.2,0.5,0.3C622.4,121.6,622.4,121.6,622.5,121.6C622.5,121.6,622.5,121.6,622.5,121.6
			C622.6,121.5,622.6,121.5,622.5,121.6c0.1,0,0.1,0,0.1,0C622.7,121.5,622.6,121.5,622.5,121.6
			C622.6,121.6,622.6,121.6,622.5,121.6L622.5,121.6z"/>
		<path class="st0" d="M628.3,122.6c-0.1,0-0.1,0-0.2-0.1c0,0-0.1,0-0.1,0c0,0,0,0,0,0c0,0-0.1,0-0.1,0c-0.8,0-1.5-0.1-2.3-0.2
			c-0.2,0-0.5-0.1-0.7-0.1h0c0,0,0,0,0,0l0.1,0c0.1,0,0.1,0,0.2,0.1c0.1,0,0.3,0.1,0.5,0.1c0.3,0.1,0.7,0.2,1.1,0.2
			c0.1,0,0.1,0,0.2,0c0.1,0,0.3,0,0.4,0c0,0,0,0-0.1,0c-0.1,0-0.2,0-0.3,0l-0.1,0l-0.1,0l-0.1,0c-0.1,0-0.3,0-0.4-0.1
			c-0.1,0-0.2,0-0.2-0.1c-0.1,0-0.1,0-0.1,0c0,0,0,0,0.1,0c0.1,0,0.1,0,0.2,0c0.1,0,0.2,0,0.4,0.1l0.1,0l0.1,0l0.1,0l0.3,0
			c0.2,0,0.4,0,0.6,0.1c0.1,0,0.2,0,0.3,0L628.3,122.6L628.3,122.6z"/>
		<path class="st0" d="M628,122.7c0.1,0,0.2,0,0.3,0C628.2,122.7,628.1,122.7,628,122.7C628,122.7,628,122.7,628,122.7
			C628,122.7,628,122.7,628,122.7L628,122.7z"/>
		<path class="st0" d="M624.3,122.3c0.1,0.1,0.3,0.1,0.5,0.1c0.4,0.1,0.8,0.2,1.3,0.3c0.1,0,0.3,0,0.5,0.1c0.3,0,0.6,0,0.8,0
			c0.1,0,0.3,0,0.4,0c-0.2,0-0.4,0-0.6-0.1c-0.2,0-0.5,0-0.8-0.1c-0.5-0.1-0.9-0.2-1.3-0.3c-0.1,0-0.2-0.1-0.3-0.1c0,0-0.1,0-0.1,0
			l0.1,0c0.1,0,0.3,0.1,0.4,0.1c0.1,0,0.1,0,0.2,0l0.1,0c0.2,0,0.2,0.1,0.2,0.1c0,0-0.1,0-0.2,0l-0.1,0c0,0-0.1,0-0.2,0
			c-0.1,0-0.2-0.1-0.4-0.1l-0.2-0.1C624.4,122.2,624.4,122.2,624.3,122.3c0-0.1-0.1-0.1-0.2-0.1c0,0,0,0-0.1,0c0,0,0,0,0.1,0
			C624.2,122.2,624.2,122.3,624.3,122.3L624.3,122.3z"/>
		<path class="st0" d="M635.6,119.4c-0.1,0-0.1,0.1-0.2,0.1c-0.1,0-0.2,0.1-0.3,0.1c-0.1,0.1-0.1,0.2-0.2,0.3
			c-0.2,0.3-0.5,0.6-0.8,0.9c-0.3,0.3-0.7,0.6-1.1,0.8c-0.2,0.1-0.4,0.2-0.7,0.3c-0.2,0.1-0.5,0.2-0.7,0.2c-0.5,0.1-1,0.2-1.6,0.2
			c-0.3,0-0.6,0-0.8,0c-0.2,0-0.4,0-0.6,0c0,0,0,0-0.1,0c-0.1,0-0.1,0-0.2,0c-0.2,0-0.5,0-0.9,0c-0.1,0-0.2,0-0.3,0c0,0-0.1,0-0.1,0
			l-0.2,0c-0.1,0-0.2,0-0.2,0c-0.1,0-0.2,0-0.2,0l-0.2,0c-0.2,0-0.3,0-0.5-0.1c0,0-0.1,0-0.1,0c0,0,0,0,0,0c0.8,0.1,1.7,0.2,2.6,0.3
			c0.8,0,1.6,0.1,2.3,0c0.4,0,0.7,0,1-0.1c0.1,0,0.1,0,0.2,0c0.1,0,0.1,0,0.1,0c0,0,0,0-0.1,0c0,0,0,0,0,0c0.3,0,0.6-0.1,0.9-0.2
			c0.1,0,0.2-0.1,0.3-0.1c0,0,0,0,0,0c0,0,0.1-0.1,0.2-0.1c0.2-0.1,0.4-0.2,0.7-0.3c0.3-0.1,0.6-0.3,0.9-0.6c0.3-0.2,0.7-0.5,1-0.9
			c0.2-0.2,0.3-0.3,0.5-0.5c-0.1,0-0.1,0-0.2,0c0,0,0-0.1,0-0.2C635.7,119.3,635.7,119.4,635.6,119.4L635.6,119.4z"/>
		<path class="st0" d="M619.2,118.8c0.1,0.1,0.1,0.1,0.2,0.2c0,0,0-0.1-0.1-0.1C619.3,118.8,619.3,118.8,619.2,118.8
			c0-0.1,0-0.1-0.1-0.2c0,0,0,0,0,0C619.2,118.7,619.2,118.8,619.2,118.8z"/>
		<path class="st0" d="M619.5,119.5c0,0.1,0.1,0.1,0.1,0.2c0,0,0,0.1,0.1,0.1c0,0,0,0.1,0.1,0.1c0.1,0.1,0.1,0.1,0.1,0.2
			c0-0.1-0.1-0.1-0.1-0.2C619.6,119.7,619.6,119.6,619.5,119.5C619.5,119.5,619.5,119.5,619.5,119.5L619.5,119.5z"/>
		<path class="st0" d="M619.4,119.2L619.4,119.2L619.4,119.2L619.4,119.2C619.4,119.2,619.4,119.2,619.4,119.2L619.4,119.2
			L619.4,119.2C619.4,119.1,619.4,119.2,619.4,119.2z"/>
		<path class="st0" d="M619.5,119.3C619.5,119.2,619.5,119.2,619.5,119.3L619.5,119.3l0.1,0.1C619.6,119.3,619.6,119.3,619.5,119.3
			L619.5,119.3z"/>
		<path class="st0" d="M620.4,118c0.1,0.3,0.2,0.5,0.4,0.7c0.1,0.1,0.1,0.1,0.2,0.2c0.1,0,0.1,0,0.2,0.1c0.1,0,0.2,0.1,0.2,0.1
			c-0.2-0.2-0.3-0.3-0.5-0.5c-0.1-0.1-0.2-0.2-0.2-0.3c0,0-0.1-0.1-0.1-0.1c-0.1-0.1-0.2-0.2-0.2-0.4l0,0.1
			C620.4,117.9,620.4,118,620.4,118z"/>
		<path class="st0" d="M619.6,118.1c0,0,0.1,0.1,0.1,0.1l0,0C619.6,118.2,619.6,118.1,619.6,118.1l0-0.2c0-0.1,0-0.2,0-0.3
			c0,0,0-0.1,0-0.1l0,0c0,0.1-0.1,0.2-0.1,0.2c0,0,0,0.1,0,0.1c0,0,0,0.1,0,0.1C619.5,118,619.5,118,619.6,118.1L619.6,118.1z"/>
		<path class="st0" d="M620.5,119.9c0.1,0.1,0.3,0.2,0.4,0.3c0,0-0.1-0.1-0.1-0.1C620.7,120,620.6,119.9,620.5,119.9
			c0-0.1,0-0.2-0.1-0.2c0,0-0.1-0.1-0.1-0.1c0,0,0,0,0,0c-0.2-0.1-0.4-0.3-0.6-0.4l-0.1-0.1c0,0-0.1-0.1-0.1-0.1c0,0,0,0,0,0
			c0,0,0,0.1,0.1,0.1C619.8,119.3,620.1,119.6,620.5,119.9L620.5,119.9z"/>
		<path class="st0" d="M618.7,119.6C618.7,119.5,618.7,119.5,618.7,119.6L618.7,119.6c0,0.1,0,0.2,0,0.3c0.1,0,0.2,0.1,0.3,0.2
			C618.9,119.9,618.8,119.7,618.7,119.6L618.7,119.6z"/>
		<path class="st0" d="M620.7,116.9C620.7,116.9,620.7,116.9,620.7,116.9C620.7,116.9,620.7,116.9,620.7,116.9L620.7,116.9
			L620.7,116.9z"/>
		<path class="st0" d="M619.5,119.8c0.2,0.3,0.4,0.6,0.5,0.8c0.1,0.1,0.3,0.2,0.5,0.3c0.2,0.1,0.4,0.2,0.7,0.4
			c-0.2-0.2-0.3-0.3-0.3-0.3c0,0,0.3,0.2,0.5,0.4c0.1,0.1,0.2,0.1,0.3,0.2c0.4,0.2,0.9,0.4,1.3,0.5c0,0,0,0,0,0c0,0,0.1,0,0.3,0.1
			c0,0,0,0,0,0c0.1,0,0.2,0.1,0.3,0.1c0.2,0.1,0.3,0.1,0.4,0.1l0,0c0.6,0.2,1.1,0.2,1.1,0.2c0,0-0.1,0-0.3,0c-0.1,0-0.1,0-0.2,0
			c0,0,0.1,0,0.1,0l0.1,0c0,0,0.1,0,0.1,0c0.1,0,0.2,0,0.3,0c0.1,0,0.3,0,0.4,0c-0.3-0.1-0.7-0.1-0.9-0.2c-0.2,0-0.3-0.1-0.5-0.2
			c-0.1,0-0.1-0.1-0.2-0.1c0,0-0.1-0.1-0.1-0.1c-0.1,0-0.2,0-0.4-0.1c-0.1,0-0.2-0.1-0.3-0.1c-0.1,0-0.2-0.1-0.3-0.1
			c-0.3-0.1-0.5-0.2-0.8-0.3c-0.1,0-0.2,0-0.4-0.1c-0.2-0.1-0.5-0.2-0.8-0.4c-0.3-0.2-0.5-0.4-0.8-0.7c-0.2-0.2-0.3-0.4-0.4-0.6l0,0
			c0-0.1-0.1-0.1-0.1-0.2c0,0-0.1,0-0.1-0.1c0,0-0.1-0.1-0.1-0.1c0.1,0.1,0.2,0.2,0.3,0.4c0.2,0.3,0.3,0.5,0.5,0.7
			c0.1,0.2,0.2,0.3,0.2,0.3c0,0-0.1-0.1-0.2-0.3c-0.1-0.1-0.2-0.2-0.3-0.4c0,0-0.1-0.1-0.3-0.3c0,0,0,0-0.1-0.1c0,0,0-0.1-0.1-0.1
			c0-0.1-0.1-0.1-0.1-0.2c-0.1-0.1-0.2-0.3-0.2-0.5c0,0,0-0.1,0-0.1c0-0.1-0.1-0.1-0.1-0.1c-0.1-0.1-0.1-0.1-0.2-0.2
			c-0.1-0.1-0.1-0.1-0.1-0.2c0,0.1,0,0.2,0,0.2c0,0.1,0.1,0.1,0.1,0.2C619,119.1,619.2,119.5,619.5,119.8L619.5,119.8z"/>
		<path class="st0" d="M619.2,120.1c0.1,0,0.2,0.1,0.3,0.2l0.1,0.1c0,0,0.1,0,0.1,0.1c0.1,0,0.1,0.1,0.2,0.1
			c-0.1-0.2-0.3-0.4-0.5-0.7c-0.2-0.4-0.4-0.7-0.6-0.9c0-0.1-0.1-0.1-0.1-0.2c0,0.2,0,0.5,0,0.7l0.1,0.1
			C618.9,119.7,619,119.9,619.2,120.1L619.2,120.1z"/>
		<path class="st0" d="M619.1,118.7c0-0.1,0-0.1,0-0.2c0,0,0,0,0,0c-0.1-0.1-0.1-0.2-0.2-0.3c0,0.1,0,0.1,0,0.2
			C618.9,118.4,618.9,118.5,619.1,118.7C619,118.6,619.1,118.6,619.1,118.7L619.1,118.7z"/>
		<path class="st0" d="M620.9,116.5C620.9,116.5,620.9,116.5,620.9,116.5c0.1,0.1,0.2,0.1,0.2,0.2c0,0,0,0,0,0c0,0,0,0,0,0
			c0,0,0-0.1,0-0.1c0,0,0,0,0,0c0,0,0,0,0,0.1c0,0,0,0,0,0c0.1,0,0.2,0.1,0.4,0.1c-0.1-0.1-0.1-0.1-0.2-0.2c0,0,0,0,0,0
			c0,0,0,0-0.1,0c0,0-0.1-0.1-0.1-0.1c0,0-0.1-0.1-0.1-0.1c0,0-0.1,0-0.1,0C621,116.4,620.9,116.4,620.9,116.5L620.9,116.5
			C620.9,116.4,620.9,116.4,620.9,116.5L620.9,116.5L620.9,116.5z"/>
		<path class="st0" d="M634.7,113.9c-0.2-0.2-0.4-0.4-0.6-0.6c-0.1-0.1-0.2-0.2-0.3-0.3c-0.1-0.1-0.2-0.2-0.4-0.2
			c-0.1-0.1-0.3-0.2-0.4-0.2c-0.1,0-0.1-0.1-0.2-0.1c-0.1,0-0.1-0.1-0.2-0.1c-0.1-0.1-0.3-0.1-0.5-0.2c-0.1,0-0.2-0.1-0.2-0.1
			l-0.2-0.1c-0.6-0.3-1.3-0.5-2.1-0.7c-0.1,0-0.2,0-0.3-0.1c-0.1,0-0.2,0-0.3-0.1c-0.1,0-0.2,0-0.3,0c-0.1,0-0.2,0-0.3,0
			c-0.4,0-0.8-0.1-1.2-0.1c-0.2,0-0.4,0-0.7,0c0.1,0,0.1,0,0.2,0c0.1,0,0.3,0,0.5,0.1c0.3,0,0.7,0.1,1,0.2c1.1,0.2,2,0.5,2.4,0.8
			l0.1,0.1c0.7,0.2,1.2,0.4,1.7,0.6c0.1,0,0.2,0.1,0.3,0.1c0.4,0.1,0.7,0.3,0.9,0.4c0,0,0.1,0,0.1,0.1l0,0l0,0
			c0.1,0,0.1,0.1,0.1,0.1c0.1,0.1,0.1,0.1,0.1,0.1c0,0-0.1,0-0.1,0c0.2,0.2,0.3,0.3,0.3,0.3c0,0,0,0-0.1,0c0,0,0,0,0.1,0
			c0.3,0.2,0.5,0.4,0.7,0.5c0.2,0.2,0.3,0.3,0.4,0.5c0.1,0,0.1,0.1,0.1,0.1c0.4,0.3,0.6,0.5,0.5,0.6c0,0-0.1,0-0.2,0
			c0.1,0.1,0.1,0.1,0.2,0.2c0.1,0.1,0.2,0.2,0.3,0.4c0,0.1,0.1,0.1,0.1,0.2c0,0.1,0.1,0.1,0.1,0.2c0,0.1,0.1,0.1,0.1,0.2
			c0,0,0,0.1,0,0.1c0-0.1,0-0.3,0-0.4c0,0,0,0,0-0.1l0-0.1c0,0,0-0.1-0.1-0.1c0-0.1-0.1-0.2-0.2-0.3c-0.1-0.1-0.1-0.2-0.2-0.3
			c0-0.1-0.1-0.1-0.1-0.2c-0.1-0.1-0.3-0.3-0.4-0.5c-0.1-0.2-0.3-0.3-0.5-0.5C635.1,114.3,634.9,114.1,634.7,113.9L634.7,113.9z"/>
		<path class="st0" d="M637.7,118.5C637.7,118.5,637.7,118.5,637.7,118.5C637.8,118.4,637.8,118.4,637.7,118.5c0.1-0.1,0,0,0,0.3
			l0,0.1c0,0,0,0.1,0,0.1c0,0.1-0.1,0.1-0.1,0.2c-0.1,0.1-0.1,0.3-0.2,0.4c-0.1,0.1-0.1,0.1-0.2,0.2c0,0,0,0,0,0
			c0,0.1-0.1,0.1-0.1,0.2c0,0.1-0.1,0.1-0.2,0.2c0,0.1,0,0.1,0,0.2c0,0.1-0.1,0.2-0.2,0.3c0,0.1-0.1,0.1-0.2,0.2
			c0,0-0.1,0.1-0.1,0.1c0,0-0.1,0.1-0.2,0.2c-0.1,0.1-0.3,0.3-0.5,0.5c-0.2,0.2-0.4,0.3-0.6,0.4s-0.3,0.1-0.3,0.1
			c0,0,0.4-0.3,0.8-0.6c0.2-0.1,0.3-0.3,0.4-0.4c-0.1,0.1-0.1,0.1-0.2,0.2c-0.1,0.1-0.2,0.1-0.3,0.2c0,0-0.1,0.1-0.1,0.1
			c0,0-0.1,0.1-0.1,0.1c-0.4,0.3-0.8,0.5-1.3,0.7c-0.5,0.2-1,0.4-1.4,0.5c-0.2,0.1-0.4,0.1-0.6,0.2c-0.1,0-0.2,0-0.3,0.1
			c0,0-0.1,0-0.1,0l-0.1,0c-0.1,0-0.2,0-0.2,0c-0.1,0-0.2,0-0.2,0c-0.1,0-0.1,0-0.2,0c-0.1,0-0.1,0-0.2,0c-0.2,0-0.3,0-0.3-0.1
			c0-0.1,0.4-0.3,1-0.5l0.1,0c0,0,0.1,0,0.1,0c0,0,0.1,0,0.1,0c0,0,0,0,0,0c-0.1,0-0.2,0-0.4,0.1l-0.2,0l-0.1,0c0,0,0,0-0.1,0
			l-0.1,0c0,0,0,0,0,0c-0.1,0.1-0.2,0.1-0.3,0.2c-0.1,0-0.1,0.1-0.2,0.1c-0.1,0-0.2,0-0.2,0.1c-0.2,0.1-0.4,0.1-0.6,0.1
			c-0.1,0-0.2,0-0.3,0.1c-0.1,0-0.1,0-0.2,0c-0.1,0-0.1,0-0.2,0c-0.5,0.1-1,0.1-1.5,0.1c-0.5,0-1,0-1.5-0.1c-0.2,0-0.4-0.1-0.6-0.1
			c-0.1,0-0.2,0-0.3-0.1c0,0-0.1,0-0.1,0c0,0-0.1,0-0.1,0c-0.1,0-0.2-0.1-0.2-0.1c-0.1,0-0.1-0.1-0.2-0.1c0,0-0.1,0-0.1,0
			c0,0,0,0-0.1,0c-0.1,0-0.2,0-0.4-0.1c0,0,0,0,0.1,0c0.2,0.1,0.4,0.1,0.6,0.2c0.2,0.1,0.4,0.1,0.5,0.1c0.3,0.1,0.5,0.1,0.5,0.1
			c0,0,0,0-0.1,0c0,0-0.1,0-0.2,0c-0.1,0-0.1,0-0.2,0c-0.1,0-0.3-0.1-0.5-0.1c-0.2-0.1-0.4-0.1-0.6-0.2c-0.2-0.1-0.3-0.1-0.5-0.2
			c0,0,0,0-0.1,0c-0.1,0-0.1,0-0.2,0c-0.1,0-0.1,0-0.2,0c-0.4-0.1-0.9-0.3-1.4-0.5c-0.3-0.1-0.5-0.3-0.8-0.4c0,0,0.1,0.1,0.1,0.1
			c0.1,0.1,0.1,0.1,0.2,0.2c0.2,0.1,0.3,0.2,0.5,0.4c0.2,0.1,0.4,0.2,0.6,0.3c0.1,0,0.2,0.1,0.2,0.1c0.1,0,0.2,0.1,0.2,0.1
			c0.3,0.1,0.4,0.2,0.4,0.2c0,0,0,0-0.1,0c0,0-0.1,0-0.1-0.1c-0.1,0-0.1,0-0.2-0.1c-0.1,0-0.1-0.1-0.2-0.1c-0.1,0-0.2-0.1-0.3-0.1
			c-0.2-0.1-0.4-0.2-0.6-0.3c-0.2-0.1-0.4-0.3-0.5-0.4c-0.1-0.1-0.2-0.1-0.2-0.2c-0.1-0.1-0.1-0.1-0.2-0.2c0,0-0.1-0.1-0.1-0.1
			c-0.1-0.1-0.2-0.1-0.3-0.2c0.1,0.1,0.1,0.2,0.2,0.2c0.1,0.1,0.2,0.2,0.3,0.3c0.1,0.1,0.1,0.1,0.1,0.1c0,0-0.1,0-0.1-0.1
			c-0.1,0-0.2-0.1-0.3-0.3c-0.1-0.1-0.2-0.2-0.3-0.4c-0.1-0.1-0.3-0.2-0.4-0.3c0,0-0.1-0.1-0.1-0.1c0.1,0.1,0.1,0.2,0.2,0.2
			c0.2,0.2,0.4,0.4,0.5,0.6c0.1,0.1,0.2,0.2,0.3,0.3c0,0,0.1,0.1,0.1,0.1c0,0,0.1,0.1,0.1,0.1c0.1,0.1,0.1,0.1,0.2,0.2
			c0.1,0.1,0.1,0.1,0.1,0.1c0.1,0.1,0.1,0.1,0.1,0.1c0,0-0.1,0-0.1-0.1c0,0-0.1-0.1-0.2-0.1c-0.1-0.1-0.1-0.1-0.2-0.2l-0.1-0.1
			c0,0-0.1-0.1-0.1-0.1c-0.1-0.1-0.2-0.2-0.3-0.3c-0.2-0.2-0.4-0.4-0.6-0.6c-0.1-0.2-0.3-0.3-0.4-0.5l-0.1-0.1
			c-0.1-0.1-0.1-0.1-0.2-0.2c-0.1-0.1-0.1-0.1-0.2-0.2c0,0,0,0-0.1-0.1c0.1,1.5,0.5,2.8,1.2,4c0.1,0.1,0.3,0.3,0.5,0.4
			c0.4,0.3,0.8,0.5,0.8,0.5c0,0-0.1,0-0.3-0.1c-0.1,0-0.2-0.1-0.3-0.2c-0.1-0.1-0.2-0.1-0.3-0.2c-0.1-0.1-0.2-0.2-0.3-0.3
			c0,0,0,0,0,0c0.2,0.3,0.4,0.6,0.6,0.9c0,0,0.1,0,0.1,0.1c0.3,0.3,0.7,0.4,0.6,0.5c0,0-0.3-0.1-0.6-0.3c0.5,0.6,1,1.1,1.6,1.6
			c0.4,0.2,0.9,0.5,1.5,0.7c0.3,0.1,0.6,0.3,0.9,0.4c0.1,0,0.3,0.1,0.4,0.1c0.1,0,0.1,0,0.2,0.1c0.1,0,0.1,0,0.2,0
			c0.1,0,0.2,0,0.3,0.1c0,0,0.1,0,0.1,0l0.1,0c0.1,0,0.2,0,0.2,0c0,0-0.1,0-0.2,0l-0.1,0c0,0-0.1,0-0.1,0c-0.1,0-0.2,0-0.3-0.1
			l-0.2,0c-0.1,0-0.1,0-0.2,0c-0.1,0-0.3-0.1-0.4-0.1c-0.3-0.1-0.6-0.2-1-0.4c-0.4-0.2-0.8-0.4-1.2-0.6c0.9,0.6,1.8,1.1,2.9,1.4
			c0.1,0,0.5,0.1,1,0.2c0.6,0.1,1.1,0.1,1.1,0.1c0,0-0.1,0-0.3,0c0,0-0.1,0-0.1,0c0.3,0,0.6,0.1,1,0.1c2.2,0,4.2-0.6,5.8-1.8
			c-0.2,0.1-0.3,0.1-0.5,0.2c-0.5,0.2-1,0.3-1.3,0.4c-0.2,0-0.3,0.1-0.4,0.1c-0.1,0-0.1,0-0.2,0c0,0,0.2-0.1,0.5-0.1
			c0.3-0.1,0.8-0.2,1.3-0.4c0.2-0.1,0.5-0.2,0.7-0.3c0,0,0,0,0.1,0c0.6-0.5,1.1-1,1.6-1.5c0,0,0,0,0,0c-0.2,0.2-0.4,0.4-0.5,0.6
			s-0.2,0.2-0.2,0.2c0,0,0.1-0.1,0.2-0.2c0.1-0.1,0.3-0.3,0.5-0.6c0.2-0.2,0.4-0.4,0.5-0.6l0,0c0.3-0.4,0.5-0.8,0.8-1.3
			c-0.1,0.1-0.2,0.2-0.3,0.3c-0.1,0.1-0.2,0.2-0.4,0.3c-0.1,0.1-0.2,0.2-0.3,0.2c-0.2,0.1-0.3,0.2-0.3,0.2c0,0,0.1-0.1,0.3-0.2
			c0.1-0.1,0.2-0.1,0.3-0.2c0.1-0.1,0.2-0.2,0.3-0.3c0.1-0.1,0.2-0.2,0.3-0.3c0-0.1,0.1-0.1,0.1-0.2c0.3-0.7,0.5-1.4,0.7-2.2
			c-0.1,0.1-0.1,0.2-0.2,0.3c-0.1,0.2-0.2,0.3-0.4,0.5c-0.3,0.3-0.6,0.6-0.8,0.8c-0.2,0.2-0.4,0.3-0.4,0.3c0,0,0.1-0.1,0.3-0.3
			c0.2-0.2,0.5-0.5,0.8-0.8c0.1-0.2,0.3-0.3,0.4-0.5c0.1-0.2,0.2-0.3,0.3-0.4c0,0,0,0,0,0c0-0.3,0.1-0.6,0.1-0.9
			c0,0.1,0,0.2-0.1,0.3c0,0.1-0.1,0.2-0.2,0.4c-0.1,0.1-0.2,0.3-0.3,0.4c-0.2,0.3-0.5,0.5-0.6,0.7c-0.2,0.2-0.3,0.2-0.3,0.2
			c0,0,0.1-0.1,0.3-0.3c0.2-0.2,0.4-0.4,0.6-0.7c0.2-0.3,0.4-0.6,0.5-0.8c0.1-0.2,0.1-0.4,0.1-0.4l0,0c0-0.1,0-0.3,0-0.4
			c-0.1,0.1-0.1,0.3-0.2,0.4c-0.2,0.4-0.5,0.6-0.5,0.6c0,0,0.2-0.3,0.4-0.6c0.1-0.2,0.2-0.4,0.3-0.5c0-0.1,0-0.2,0-0.3
			c0,0.1-0.1,0.1-0.1,0.2c-0.1,0.1-0.2,0.3-0.2,0.4c-0.1,0.1-0.2,0.3-0.3,0.4c-0.1,0.1-0.2,0.2-0.3,0.3c-0.2,0.2-0.3,0.3-0.3,0.3
			c0,0,0.1-0.1,0.2-0.3c0.1-0.1,0.2-0.2,0.2-0.3c0.1-0.1,0.2-0.3,0.3-0.4c0.1-0.1,0.2-0.3,0.3-0.4c0.1-0.1,0.1-0.2,0.1-0.3
			c0-0.1,0-0.2,0-0.4c0,0,0,0,0,0c0,0.1,0,0.1-0.1,0.2c0,0.1-0.1,0.3-0.2,0.4c-0.1,0.1-0.2,0.3-0.2,0.4c0,0.1-0.1,0.1-0.1,0.2
			c0,0-0.1,0.1-0.1,0.1c-0.1,0.1-0.2,0.2-0.2,0.2c0,0,0.1-0.1,0.2-0.3c0,0,0.1-0.1,0.1-0.1c0,0,0.1-0.1,0.1-0.2
			c0.1-0.1,0.2-0.2,0.2-0.4c0.1-0.1,0.1-0.3,0.2-0.4c0-0.1,0-0.1,0.1-0.2c0-0.1,0-0.1,0.1-0.2l0,0c0-0.3-0.1-0.5-0.1-0.8l0,0
			c0,0,0,0,0,0c0,0.1,0,0.1,0,0.2l0,0.1C637.7,118.4,637.7,118.4,637.7,118.5L637.7,118.5z M624.9,128L624.9,128c-0.1,0-0.2,0-0.2,0
			c-0.1,0-0.2,0-0.3-0.1l-0.1,0c-0.1,0-0.1,0-0.2-0.1c-0.1,0-0.2-0.1-0.3-0.1c-0.2-0.1-0.5-0.2-0.8-0.4c-0.3-0.1-0.5-0.3-0.7-0.4
			c-0.1-0.1-0.2-0.1-0.3-0.2c0,0-0.1-0.1-0.1-0.1l-0.1-0.1c-0.1-0.1-0.1-0.1-0.2-0.2c0,0-0.1,0-0.1-0.1l-0.1-0.1
			c-0.1-0.1-0.1-0.1-0.1-0.1c0,0,0.1,0,0.1,0.1l0.1,0.1l0.1,0.1c0.1,0,0.1,0.1,0.2,0.2c0,0,0.1,0.1,0.1,0.1c0,0,0.1,0.1,0.1,0.1
			c0.1,0.1,0.2,0.1,0.3,0.2c0.2,0.1,0.5,0.3,0.7,0.4c0.3,0.1,0.5,0.3,0.8,0.4c0.1,0,0.2,0.1,0.3,0.1c0.1,0,0.1,0,0.2,0.1l0.1,0.1
			c0.1,0,0.2,0.1,0.2,0.1L624.9,128C624.8,127.9,624.8,127.9,624.9,128c0.1,0,0.2,0,0.2,0C625,128,625,128,624.9,128L624.9,128z
			 M624.4,123.6c-0.2-0.1-0.3-0.1-0.3-0.1c0,0,0.4,0.1,0.9,0.3c0.5,0.2,1,0.3,0.9,0.3c0,0-0.1,0-0.3,0c-0.2,0-0.4-0.1-0.7-0.2
			C624.8,123.8,624.6,123.7,624.4,123.6L624.4,123.6z M625.5,124.9c-0.3-0.1-0.5-0.2-0.5-0.2C625.1,124.6,625.3,124.7,625.5,124.9
			c0.3,0,0.5,0.1,0.5,0.1C626,125,625.8,125,625.5,124.9z M629.9,123.8c0.3,0,0.6,0,0.6,0C630.6,123.8,630.3,123.9,629.9,123.8
			c-0.3,0.1-0.6,0.1-0.6,0.1C629.3,123.9,629.6,123.9,629.9,123.8L629.9,123.8z M628.7,126.5c0,0-0.2,0-0.4,0c-0.2,0-0.4,0-0.4,0
			c0,0,0.2-0.1,0.4-0.1C628.6,126.4,628.7,126.5,628.7,126.5L628.7,126.5z M626.6,123.7c0,0,0.4,0,1,0.1c0.5,0,1,0.1,1,0.1
			c0,0-0.1,0-0.3,0l-0.7,0c-0.3,0-0.5-0.1-0.7-0.1C626.7,123.7,626.6,123.7,626.6,123.7L626.6,123.7z M627.8,127.5
			c0.4,0.1,0.7,0.1,0.7,0.1C628.5,127.6,628.1,127.6,627.8,127.5c-0.4,0-0.7-0.1-0.7-0.1C627.1,127.4,627.4,127.4,627.8,127.5
			L627.8,127.5z M628.1,129c-0.4,0-0.8,0-0.8-0.1C627.3,128.9,627.6,128.9,628.1,129c0.4-0.1,0.8-0.1,0.8-0.1
			C628.9,128.9,628.5,129,628.1,129L628.1,129z M632,128.4c0.2,0,0.3-0.1,0.4-0.1c0.1,0,0.2,0,0.2,0c0,0-0.1,0-0.2,0.1
			C632.4,128.3,632.2,128.4,632,128.4c-0.4,0.2-0.9,0.3-1.4,0.4c-0.6,0.1-1.1,0.2-1.5,0.2c-0.2,0-0.3,0-0.5,0.1c-0.1,0-0.2,0-0.2,0
			c0,0,0.1,0,0.2,0l0.4-0.1c0.4-0.1,0.9-0.2,1.5-0.3C631.1,128.6,631.6,128.5,632,128.4z M631.8,123.4c-0.2,0.1-0.5,0.1-0.7,0.1
			c-0.2,0-0.4,0.1-0.6,0.1c-0.2,0-0.3,0-0.4,0c-0.1,0-0.1,0-0.1,0c0,0,0.2,0,0.5-0.1c0.2,0,0.4-0.1,0.6-0.1
			C631.3,123.5,631.5,123.4,631.8,123.4c0.2-0.1,0.5-0.2,0.7-0.2c0.2-0.1,0.4-0.1,0.6-0.2c0.3-0.1,0.5-0.1,0.5-0.1c0,0,0,0-0.1,0.1
			c-0.1,0-0.2,0.1-0.4,0.1c-0.2,0.1-0.3,0.1-0.6,0.2C632.2,123.3,632,123.4,631.8,123.4z M635.4,125.7L635.4,125.7
			c-0.1,0.1-0.1,0.1-0.1,0.1c0,0-0.1,0.1-0.1,0.1l-0.1,0.1c0,0-0.1,0.1-0.1,0.1c-0.1,0.1-0.1,0.1-0.2,0.2c-0.2,0.1-0.4,0.2-0.6,0.4
			c-0.2,0.1-0.4,0.2-0.6,0.3c-0.1,0-0.2,0.1-0.3,0.1c0,0-0.1,0-0.1,0l-0.1,0c-0.1,0-0.1,0-0.2,0c0,0-0.1,0-0.1,0l-0.1,0
			c-0.1,0-0.1,0-0.1,0c0,0,0,0,0.1,0l0.1,0l0.1,0c0.1,0,0.1,0,0.2-0.1l0.1,0c0,0,0.1,0,0.1,0c0.1,0,0.2-0.1,0.3-0.1
			c0.2-0.1,0.4-0.2,0.6-0.3c0.2-0.1,0.4-0.2,0.6-0.4c0.1-0.1,0.2-0.1,0.2-0.2c0,0,0.1-0.1,0.1-0.1l0.1-0.1c0.1,0,0.1-0.1,0.2-0.1
			C635.3,125.8,635.3,125.8,635.4,125.7C635.4,125.7,635.4,125.7,635.4,125.7c0-0.1,0.1-0.1,0.1-0.1
			C635.5,125.6,635.5,125.6,635.4,125.7L635.4,125.7z"/>
		<path class="st0" d="M623,112.5c0.2-0.1,0.3-0.2,0.5-0.3c0,0,0.1-0.1,0.1-0.1c0.1-0.1,0.2-0.1,0.3-0.2c0.2-0.1,0.5-0.3,0.8-0.4
			c0.3-0.1,0.6-0.2,0.8-0.3c0,0,0,0,0.1,0c0,0,0,0,0,0l-0.1,0c-0.1,0-0.2,0-0.3,0.1l-0.1,0c0,0-0.1,0-0.1,0c-0.4,0.1-0.7,0.2-1,0.4
			c-0.1,0-0.2,0.1-0.2,0.1c-0.1,0-0.2,0.1-0.2,0.1c-0.1,0-0.1,0.1-0.2,0.1l-0.1,0.1l-0.1,0l-0.1,0c-0.1,0-0.1,0.1-0.2,0.1
			c0,0,0,0,0,0C622.9,112.5,623,112.5,623,112.5L623,112.5z"/>
		<path class="st0" d="M631.1,110.5l0.2,0.1c0.1,0,0.1,0,0.2,0.1c0.1,0,0.1,0.1,0.2,0.1c0.3,0.1,0.6,0.2,0.8,0.4
			c0.3,0.1,0.6,0.3,0.8,0.4c0.1,0,0.1,0.1,0.2,0.1c-1-0.6-2.1-1.1-3.3-1.4c0.2,0,0.4,0.1,0.6,0.2L631.1,110.5L631.1,110.5z"/>
		<path class="st0" d="M626,110.4c0.1,0,0.2,0,0.3,0l0.1,0c0,0,0.1,0,0.1,0c0,0,0.1,0,0.1,0c0.1,0,0.2,0,0.3-0.1
			c0.1,0,0.2,0,0.3-0.1c0,0,0.1,0,0.1,0c-0.6,0.1-1.2,0.2-1.8,0.4c0.1,0,0.1,0,0.2,0C625.8,110.5,625.9,110.5,626,110.4L626,110.4z"
			/>
		<path class="st0" d="M622.1,115.2C622.2,115.2,622.2,115.2,622.1,115.2c0.3-0.2,0.5-0.3,0.8-0.4c0.1,0,0.2-0.1,0.2-0.1
			c0,0,0,0,0,0c0,0,0-0.1,0-0.1c-0.4,0.2-0.8,0.3-1.1,0.4C622.1,115,622.1,115.1,622.1,115.2C622.1,115.2,622.1,115.2,622.1,115.2z"
			/>
		<path class="st0" d="M622.8,116.8c0.1,0.1,0.1,0.1,0.2,0.2l0,0l0,0c0,0,0,0,0.1,0.1c0,0,0.1,0.1,0.1,0.1c0.1-0.1,0.2-0.1,0.3-0.2
			c-0.1-0.1-0.2-0.2-0.3-0.3c0,0-0.1-0.1-0.1-0.1c-0.1,0.1-0.1,0.1-0.2,0.1c0,0,0-0.1,0-0.1c0,0,0-0.1,0-0.1c0,0,0,0,0,0l0,0
			c-0.1,0-0.1,0-0.2,0.1c0,0,0,0.1,0,0.1C622.8,116.7,622.8,116.7,622.8,116.8L622.8,116.8L622.8,116.8z"/>
		<path class="st0" d="M620.6,119.7c-0.1,0-0.1-0.1-0.2-0.1l0.1,0.1C620.5,119.7,620.5,119.7,620.6,119.7c0.1,0.1,0.2,0.2,0.3,0.3
			c0,0,0.1,0.1,0.1,0.1C620.8,120,620.7,119.8,620.6,119.7C620.6,119.7,620.6,119.7,620.6,119.7L620.6,119.7z"/>
		<path class="st0" d="M620.9,119.9c-0.1,0-0.1-0.1-0.2-0.1c0.1,0.1,0.2,0.2,0.3,0.4c0.1,0.1,0.2,0.2,0.4,0.4c0,0,0,0,0.1,0
			c0.1,0.1,0.3,0.1,0.4,0.2c0.4,0.2,0.9,0.5,1.4,0.6c0,0,0,0-0.1,0l-0.1-0.1c0,0-0.1,0-0.1,0c0,0,0,0,0.1,0l0.1,0c0,0,0.1,0,0.1,0.1
			c0,0,0,0,0.1,0c0.1,0,0.1,0.1,0.2,0.1c0.5,0.2,1.1,0.3,1.7,0.4c0,0,0,0,0.1,0c0,0,0,0-0.1,0c-0.1,0-0.2,0-0.2,0l-0.2-0.1
			c-0.1,0-0.2,0-0.2-0.1l-0.1,0l-0.1,0c-0.1,0-0.2,0-0.2-0.1c-0.2-0.1-0.3-0.1-0.5-0.2c-0.3-0.1-0.6-0.2-0.9-0.4
			c-0.3-0.1-0.6-0.3-0.9-0.5c-0.3-0.2-0.6-0.4-0.9-0.6C621,119.9,620.9,119.9,620.9,119.9L620.9,119.9z"/>
		<path class="st0" d="M622.5,115.9c0.1,0,0.2,0,0.4,0c0,0-0.1-0.1-0.1-0.1C622.7,115.8,622.6,115.8,622.5,115.9L622.5,115.9z"/>
		<path class="st0" d="M623.7,115.2c-0.1,0.1-0.3,0.1-0.4,0.2c-0.1,0-0.1,0.1-0.2,0.1c0.1,0,0.1,0.1,0.2,0.1
			c0.2-0.1,0.3-0.2,0.5-0.2C623.8,115.3,623.7,115.3,623.7,115.2z"/>
	</g>
</g>
</svg>
