<?xml version="1.0" encoding="utf-8"?>
<!-- Generator: Adobe Illustrator 23.0.1, SVG Export Plug-In . SVG Version: 6.00 Build 0)  -->
<svg version="1.1" id="Capa_1" xmlns="http://www.w3.org/2000/svg" xmlns:xlink="http://www.w3.org/1999/xlink" x="0px" y="0px"
	 viewBox="0 0 60 60" style="enable-background:new 0 0 60 60;" xml:space="preserve">
<style type="text/css">
	.st0{fill-rule:evenodd;clip-rule:evenodd;fill:#7D7490;}
</style>
<path class="st0" d="M37.4,2.5L6.3,4.8C3.8,5,2.9,6.6,2.9,8.6v34.1c0,1.5,0.5,2.8,1.9,4.6l7.3,9.5c1.2,1.5,2.3,1.9,4.6,1.7l36.1-2.2
	c3.1-0.2,3.9-1.6,3.9-4V14c0-1.2-0.5-1.6-1.9-2.7L44.6,4.1C42.2,2.4,41.2,2.2,37.4,2.5L37.4,2.5z M17.5,13.3
	c-2.9,0.2-3.6,0.2-5.3-1.1L7.9,8.8c-0.4-0.4-0.2-1,0.9-1.1l29.9-2.2c2.5-0.2,3.8,0.7,4.8,1.4l5.1,3.7c0.2,0.1,0.8,0.8,0.1,0.8
	l-30.9,1.9L17.5,13.3L17.5,13.3z M14.1,52V19.4c0-1.4,0.4-2.1,1.7-2.2l35.4-2.1c1.2-0.1,1.7,0.7,1.7,2.1v32.3c0,1.4-0.2,2.6-2.2,2.7
	l-33.9,2C14.9,54.4,14.1,53.7,14.1,52L14.1,52z M47.5,21.2c0.2,1,0,2-1,2.1l-1.6,0.3v24c-1.4,0.8-2.7,1.2-3.8,1.2
	c-1.7,0-2.2-0.5-3.5-2.2L26.9,29.8v16.3l3.4,0.8c0,0,0,2-2.7,2l-7.5,0.4c-0.2-0.4,0-1.5,0.8-1.7l2-0.5V25.4l-2.7-0.2
	c-0.2-1,0.3-2.4,1.9-2.5l8.1-0.5l11.1,17V24.1l-2.8-0.3c-0.2-1.2,0.7-2.1,1.7-2.2L47.5,21.2L47.5,21.2z"/>
</svg>
