<?xml version="1.0" encoding="utf-8"?>
<!-- Generator: Adobe Illustrator 23.0.1, SVG Export Plug-In . SVG Version: 6.00 Build 0)  -->
<svg version="1.1" id="Capa_1" xmlns="http://www.w3.org/2000/svg" xmlns:xlink="http://www.w3.org/1999/xlink" x="0px" y="0px"
	 viewBox="0 0 30 30" style="enable-background:new 0 0 30 30;" xml:space="preserve">
<style type="text/css">
	.st0{fill:#34B7BA;}
</style>
<g>
	<g>
		<path class="st0" d="M12.8,12.8c-1.2,0.9-2,2.1-2.3,3.7c-1.5,0-3,0-4.4,0c-0.2,0-0.4-0.3-0.6-0.6c-0.6-1.1-1.5-1.8-2.7-1.7
			c-1.3,0.1-2.2,0.8-2.7,2c-0.5,1.5,0.2,3.2,1.6,3.8c1.4,0.6,3,0.1,3.7-1.3C5.8,18.2,6.1,18,6.6,18c1.1,0,2.3,0,3.4,0
			c0.2,0,0.6,0.2,0.6,0.4c0.8,4,5.9,5.7,9,2.4c0-0.1,0.1-0.1,0.2-0.2c1.3,0.8,2.7,1.6,4,2.5c0.2,0.1,0.3,0.5,0.2,0.8
			c-0.1,1.7,1,3.2,2.7,3.4c1.4,0.2,2.9-1.1,3.1-2.6c0.2-1.2-0.3-2.2-1.3-2.9c-1-0.7-2.1-0.7-3.2,0c-0.5,0.3-0.8,0.3-1.2,0
			c-1.2-0.8-2.4-1.5-3.6-2.2c0.1-0.8,0.3-1.6,0.3-2.4c0-0.8-0.3-1.5-0.5-2.4c1.4-1.1,2.9-2.2,4.5-3.3c0.1-0.1,0.5,0,0.7,0.1
			c1.2,0.6,2.2,0.5,3.2-0.3c0.9-0.8,1.3-1.8,1-3c-0.3-1.3-1.1-2-2.3-2.3c-1.9-0.4-3.8,1.4-3.4,3.6c0.1,0.6,0,0.9-0.5,1.2
			c-1.3,0.9-2.7,1.9-4,2.9c0,0-0.1,0-0.2,0.1c-0.8-0.8-1.9-1.4-3.1-1.5c-0.5,0-1.1,0-1.6,0.1c-0.4,0.1-0.6,0-0.8-0.4
			c-0.4-1.1-0.9-2.1-1.4-3.2c-0.1-0.2,0-0.6,0.1-0.8c0.9-1.3,0.9-2.7,0-3.9c-0.9-1.1-2.3-1.5-3.5-0.9C8,3.5,7.3,5,7.6,6.3
			c0.3,1.4,1.5,2.4,2.9,2.4c0.5,0,0.7,0.2,0.9,0.6c0.4,1.1,0.9,2.2,1.4,3.2C12.8,12.6,12.8,12.7,12.8,12.8z M15.7,13.4
			c2.1,0,3.8,1.8,3.8,3.9c0,2.2-1.7,3.9-3.9,3.9c-2.1,0-3.8-1.8-3.8-3.9C11.9,15.2,13.6,13.4,15.7,13.4z M27,22.7
			c0.9,0,1.6,0.7,1.5,1.6c0,0.9-0.7,1.5-1.6,1.5c-0.9,0-1.6-0.6-1.6-1.6C25.5,23.3,26.1,22.7,27,22.7z M3,18.9
			c-0.9,0-1.6-0.6-1.6-1.6c0-0.9,0.6-1.6,1.5-1.6c0.9,0,1.6,0.6,1.6,1.5C4.5,18.2,3.9,18.9,3,18.9z M27,7.2c0.9,0,1.6,0.6,1.6,1.5
			c0,0.9-0.6,1.6-1.6,1.6c-0.9,0-1.5-0.6-1.6-1.5C25.4,7.9,26,7.2,27,7.2z M10.4,4.1c0.9,0,1.6,0.6,1.6,1.5c0,0.9-0.6,1.6-1.6,1.6
			c-0.9,0-1.5-0.6-1.6-1.5C8.9,4.8,9.5,4.1,10.4,4.1z"/>
	</g>
</g>
</svg>
