<?xml version="1.0" encoding="utf-8"?>
<!-- Generator: Adobe Illustrator 23.0.1, SVG Export Plug-In . SVG Version: 6.00 Build 0)  -->
<svg version="1.1" id="Capa_1" xmlns="http://www.w3.org/2000/svg" xmlns:xlink="http://www.w3.org/1999/xlink" x="0px" y="0px"
	 viewBox="0 0 60 60" style="enable-background:new 0 0 60 60;" xml:space="preserve">
<style type="text/css">
	.st0{fill:#7D7490;}
</style>
<path class="st0" d="M49.5,12.2c-3.7-1.7-7.6-2.9-11.6-3.6c-0.5,1-1,2-1.5,3c-4.3-0.6-8.6-0.6-12.9,0c-0.4-1-0.9-2-1.5-3
	c-4,0.7-7.9,1.9-11.6,3.6C3.1,23.1,1.1,33.7,2.1,44.2l0,0c4.3,3.2,9.1,5.6,14.2,7.2c1.2-1.6,2.2-3.2,3.1-4.9
	c-1.7-0.6-3.3-1.4-4.8-2.3c0.4-0.3,0.8-0.6,1.2-0.9c9,4.2,19.5,4.2,28.5,0c0.4,0.3,0.8,0.6,1.2,0.9c-1.5,0.9-3.1,1.7-4.8,2.3
	c0.9,1.7,1.9,3.4,3.1,4.9c5.1-1.5,10-4,14.3-7.1l0,0C59.1,32.1,55.9,21.6,49.5,12.2z M20.6,37.8c-2.8,0-5.1-2.5-5.1-5.6
	s2.2-5.6,5.1-5.6s5.1,2.5,5.1,5.6S23.5,37.8,20.6,37.8z M39.4,37.8c-2.8,0-5.1-2.5-5.1-5.6s2.2-5.6,5.1-5.6c2.9,0,5.1,2.5,5.1,5.6
	S42.2,37.8,39.4,37.8z"/>
</svg>
