<?xml version="1.0" encoding="utf-8"?>
<!-- Generator: Adobe Illustrator 23.0.1, SVG Export Plug-In . SVG Version: 6.00 Build 0)  -->
<svg version="1.1" id="Capa_1" xmlns="http://www.w3.org/2000/svg" xmlns:xlink="http://www.w3.org/1999/xlink" x="0px" y="0px"
	 viewBox="0 0 30 30" style="enable-background:new 0 0 30 30;" xml:space="preserve">
<style type="text/css">
	.st0{fill:#34B7BA;}
</style>
<g>
	<g>
		<path class="st0" d="M25.8,11.4c1.2-2.6,2.2-5.2,3.4-7.7c0.4-0.9,0.5-1.8-0.2-2.6c-0.6-0.7-1.5-0.7-2.6-0.3c-2.4,1-4.7,2-7.1,3.1
			c-0.5,0.2-0.8,0.3-0.7-0.4c0-0.4,0-0.8,0-1.2C18.5,0.7,17,0,15.7,0.8c-0.9,0.6-1.8,1.3-2.7,2c-2.6,2-5.3,3.9-7.9,5.9
			C-1.2,13.7-1,22.9,5.4,27.5C10.3,31,17.3,29.9,21,25c2.6-3.5,5.1-7.1,7.7-10.6c0.5-0.7,0.6-1.4,0.2-2.1c-0.4-0.7-1-1-1.8-1
			C26.7,11.4,26.4,11.4,25.8,11.4z M27.4,13.2c-2.8,3.8-5.4,7.7-8.2,11.2c-3.5,4.3-10.1,4.5-14.1,0.6c-4-3.9-3.9-10.5,0.3-14.1
			C8.9,8,12.7,5.4,16.3,2.6c0.5-0.4,0.5-0.1,0.5,0.3c0,0.7,0,1.3,0,2c0,1.5,0.5,1.8,1.8,1.2c2.7-1.2,5.5-2.4,8.2-3.6
			c0.2-0.1,0.5-0.4,0.8-0.2c0.3,0.3,0,0.6-0.1,0.8c-1.2,2.7-2.4,5.5-3.6,8.2c-0.6,1.3-0.3,1.8,1.1,1.8
			C25.7,13.2,26.5,13.2,27.4,13.2z"/>
		<path class="st0" d="M11.8,11c-4,0-7.2,3.2-7.2,7.2c0,4,3.2,7.2,7.3,7.2c4,0,7.2-3.2,7.2-7.2C19.1,14.2,15.8,11,11.8,11z
			 M17.3,18.2c0,3-2.5,5.4-5.6,5.4c-3,0-5.4-2.5-5.4-5.5c0-3,2.5-5.5,5.5-5.5C14.9,12.7,17.3,15.2,17.3,18.2z"/>
		<path class="st0" d="M12.2,16.4c0-0.7-0.6-1.3-1.3-1.3c-0.7,0-1.3,0.6-1.3,1.4c0,0.7,0.6,1.3,1.3,1.3
			C11.6,17.7,12.2,17.1,12.2,16.4z"/>
		<path class="st0" d="M13.2,21.3c0.5-0.1,0.8-0.3,0.9-0.9c0-0.5-0.3-0.9-0.8-0.9c-0.6,0-0.9,0.3-0.9,0.9
			C12.3,21,12.6,21.3,13.2,21.3z"/>
	</g>
</g>
</svg>
