<?xml version="1.0" encoding="utf-8"?>
<!-- Generator: Adobe Illustrator 23.0.1, SVG Export Plug-In . SVG Version: 6.00 Build 0)  -->
<svg version="1.1" id="Capa_1" xmlns="http://www.w3.org/2000/svg" xmlns:xlink="http://www.w3.org/1999/xlink" x="0px" y="0px"
	 viewBox="0 0 30 30" style="enable-background:new 0 0 30 30;" xml:space="preserve">
<style type="text/css">
	.st0{fill:#34B7BA;}
</style>
<g>
	<g>
		<path class="st0" d="M15,21.5c0.5-0.2,1-0.3,1.5-0.4c3.4-1.5,6.8-3,10.3-4.4c0.8-0.3,1.4-0.9,1.4-1.7c0-0.9-0.5-1.5-1.3-1.7
			c-3.4-1.5-6.9-3-10.3-4.5c-1-0.4-1.9-0.4-2.9,0c-3.4,1.5-6.9,3-10.3,4.5c-0.8,0.3-1.3,0.9-1.3,1.8c0,0.9,0.5,1.4,1.3,1.7
			c3.5,1.5,6.9,3,10.4,4.5C14,21.3,14.5,21.4,15,21.5z M5.2,14.9c0.3-0.2,0.3-0.3,0.4-0.3c2.9-1.2,5.8-2.5,8.7-3.8
			c0.3-0.2,1-0.1,1.3,0.1c2.8,1.1,5.6,2.4,8.4,3.6c0.2,0.1,0.3,0.2,0.6,0.3c-0.2,0.1-0.3,0.2-0.3,0.2c-3,1.3-5.8,2.5-8.8,3.8
			c-0.3,0.2-1,0.1-1.3-0.1c-2.3-1-4.5-1.9-6.8-2.9C6.8,15.6,6.1,15.3,5.2,14.9z"/>
		<path class="st0" d="M5.1,21.5c1-0.4,1.6-0.7,2.4-1c-1-0.4-1.7-0.8-2.6-1.1C4.3,19,2.4,20,2.1,20.8c-0.4,1,0,1.9,1.1,2.4
			c3.5,1.5,6.9,3,10.4,4.5c1,0.4,1.8,0.4,2.8,0c3.5-1.5,6.9-3,10.4-4.5c0.8-0.3,1.3-0.9,1.3-1.7c0-0.9-0.5-1.4-1.2-1.7
			c-1-0.5-1.8-0.6-2.7,0c-0.4,0.3-1,0.4-1.7,0.8c0.8,0.3,1.5,0.6,2.3,1c-0.3,0.2-0.4,0.3-0.6,0.3c-2.8,1.2-5.6,2.4-8.4,3.6
			c-0.3,0.2-0.9,0.3-1.1,0.1C11.5,24.3,8.5,22.9,5.1,21.5z"/>
		<path class="st0" d="M25,4.9c0-0.7,0-1.2,0-1.8s-0.3-1-1-1c-0.6,0-1,0.4-1,1s0,1.1,0,1.8c-0.5,0-1,0-1.5,0c-0.9,0-1.3,0.3-1.4,1
			c0,0.7,0.4,1,1.4,1c0.4,0,0.8,0,1.2,0c0.1,0,0.1,0,0.3,0.1c0,0.5,0,1,0,1.7s0.3,1,1,1c0.6,0,0.9-0.4,0.9-1c0-0.5,0-1.1,0-1.8
			c0.6,0,1.1,0,1.7,0c0.8,0,1.3-0.3,1.2-1c-0.1-0.8-0.6-1-1.3-1C26.1,4.9,25.7,4.9,25,4.9z"/>
	</g>
</g>
</svg>
