<?xml version="1.0" encoding="utf-8"?>
<!-- Generator: Adobe Illustrator 23.0.1, SVG Export Plug-In . SVG Version: 6.00 Build 0)  -->
<svg version="1.1" id="Capa_1" xmlns="http://www.w3.org/2000/svg" xmlns:xlink="http://www.w3.org/1999/xlink" x="0px" y="0px"
	 viewBox="0 0 64 64" style="enable-background:new 0 0 64 64;" xml:space="preserve">
<style type="text/css">
	.st0{fill-rule:evenodd;clip-rule:evenodd;fill:#7D7490;}
</style>
<path class="st0" d="M32,1.5c-16.5,0-29.8,13.4-29.8,30c0,13.3,8.5,24.5,20.3,28.4c1.5,0.3,2-0.6,2-1.4c0-0.7,0-3.1,0-5.6
	c-8.3,1.8-10-3.6-10-3.6c-1.3-3.5-3.3-4.4-3.3-4.4c-2.7-1.8,0.2-1.8,0.2-1.8c3,0.2,4.6,3.1,4.6,3.1c2.7,4.6,6.9,3.3,8.7,2.5
	c0.2-1.9,1-3.3,1.9-4C20,44,13.1,41.4,13.1,29.9c0-3.3,1.2-6,3.1-8c-0.3-0.7-1.3-3.8,0.3-7.9c0,0,2.5-0.8,8.2,3.1
	c2.4-0.7,4.9-1,7.4-1c2.5,0,5.1,0.3,7.4,1c5.7-3.9,8.2-3.1,8.2-3.1c1.6,4.1,0.6,7.2,0.3,7.9c1.9,2.1,3.1,4.8,3.1,8
	c0,11.5-6.9,14-13.6,14.8c1.1,0.9,2,2.7,2,5.6c0,4,0,7.2,0,8.2c0,0.8,0.5,1.7,2,1.4c11.8-4,20.3-15.2,20.3-28.4
	C61.8,14.9,48.4,1.5,32,1.5z"/>
</svg>
