<?xml version="1.0" encoding="utf-8"?>
<!-- Generator: Adobe Illustrator 23.0.1, SVG Export Plug-In . SVG Version: 6.00 Build 0)  -->
<svg version="1.1" id="Capa_1" xmlns="http://www.w3.org/2000/svg" xmlns:xlink="http://www.w3.org/1999/xlink" x="0px" y="0px"
	 viewBox="0 0 64 64" style="enable-background:new 0 0 64 64;" xml:space="preserve">
<style type="text/css">
	.st0{fill:#7D7490;}
</style>
<g>
	<g>
		<g>
			<path class="st0" d="M55.5,2.8c3.2,0,5.7,2.7,5.7,6c0,3.2-2.6,5.8-5.9,5.7c-3.3,0-5.8-2.6-5.8-5.9C49.6,5.2,52.2,2.7,55.5,2.8z"
				/>
		</g>
		<g>
			<path class="st0" d="M50.6,17.9c3,3.9,4.8,8.9,4.8,14.2c0,13-10.5,23.5-23.5,23.5c-5.3,0-10.2-1.8-14.2-4.8l6.3-6.3
				c2.3,1.4,5,2.3,7.8,2.3c8.1,0,14.6-6.5,14.6-14.6c0-2.9-0.8-5.6-2.3-7.8L50.6,17.9z"/>
		</g>
		<g>
			<path class="st0" d="M31.9,17.4c-8.1,0-14.6,6.5-14.6,14.6c0,2.8,0.8,5.4,2.1,7.6L13.1,46c-2.9-3.9-4.6-8.7-4.6-13.9
				c0-13,10.5-23.5,23.5-23.5c5.2,0,10,1.7,13.9,4.6l-6.4,6.4C37.3,18.2,34.7,17.4,31.9,17.4z"/>
		</g>
		<g>
			<path class="st0" d="M8.7,49.6c3.3,0,5.8,2.6,5.8,5.9c0,3.3-2.6,5.8-5.8,5.8c-3.3,0-5.9-2.6-5.9-5.9C2.8,52.1,5.4,49.5,8.7,49.6z
				"/>
		</g>
	</g>
</g>
</svg>
