<?xml version="1.0" encoding="utf-8"?>
<!-- Generator: Adobe Illustrator 23.0.1, SVG Export Plug-In . SVG Version: 6.00 Build 0)  -->
<svg version="1.1" id="Capa_1" xmlns="http://www.w3.org/2000/svg" xmlns:xlink="http://www.w3.org/1999/xlink" x="0px" y="0px"
	 viewBox="0 0 2560 1440" style="enable-background:new 0 0 2560 1440;" xml:space="preserve">
<style type="text/css">
	.st0{fill:#4A3D60;}
	.st1{opacity:0.4;}
	.st2{fill:none;stroke:#4A3D60;stroke-miterlimit:10;}
	.st3{opacity:0.7;}
	.st4{fill:#7D7490;}
</style>
<g>
	<g>
		<g>
			<path class="st0" d="M1208.4,699.4c0-5.3-0.1-10.6,0-15.9c0-1.5-0.5-2.1-1.7-2.8c-9.7-5.4-19.3-10.8-28.9-16.3
				c-0.7-0.4-1-0.4-1.7,0c-9.8,5.6-19.7,11.2-29.6,16.8c-0.7,0.4-0.8,0.8-0.8,1.5c0,11.1,0,22.3,0,33.4c0,1,0.4,1.5,1.1,1.9
				c9.8,5.6,19.6,11.1,29.4,16.7c0.6,0.4,0.9,0.3,1.5,0c9.8-5.6,19.6-11.1,29.4-16.7c1-0.6,1.3-1.3,1.3-2.4
				C1208.4,710.1,1208.5,704.7,1208.4,699.4C1208.4,699.4,1208.4,699.4,1208.4,699.4z M1148,699.4c0-5,0-10,0-15.1
				c0-1.1,0.3-1.8,1.3-2.4c8.8-4.9,17.5-9.8,26.2-14.8c1.1-0.6,1.8-0.6,2.9,0c8.8,5,17.6,10,26.4,14.9c1.1,0.6,1.3,1.3,1.3,2.4
				c0,9.9-0.1,19.8,0,29.7c0,1.3-0.4,2-1.6,2.6c-8.6,4.8-17.2,9.7-25.7,14.6c-1.4,0.8-2.5,0.8-3.8,0c-8.5-4.9-17-9.9-25.6-14.7
				c-1.1-0.6-1.5-1.3-1.5-2.5C1148,709.3,1148,704.4,1148,699.4z"/>
			<path class="st0" d="M1176.9,707.2c-2.6,0-5.2,0.1-7.9,0c-1,0-1.3,0.3-1.3,1.2c0,1,0.4,1,1.2,1c5.5,0,10.9,0,16.4,0
				c0.6,0,1.3,0.2,1.3-0.9c0-1.1-0.6-1.3-1.5-1.3C1182.4,707.2,1179.7,707.2,1176.9,707.2C1176.9,707.2,1176.9,707.2,1176.9,707.2z"
				/>
			<path class="st0" d="M1187.1,708.4c0,2.1,2,4.2,4.2,4.2c2.3,0.1,4.5-1.9,4.5-4.1c0.1-2.2-2.1-4.4-4.3-4.4
				C1189.4,704.1,1187.2,706.2,1187.1,708.4z M1191.5,706.3c1.3,0.3,2.1,1,2.1,2.2c0,1.2-1,2-2.1,1.9c-1.1-0.1-2.1-0.8-2.1-2.1
				C1189.5,707.1,1190.5,706.6,1191.5,706.3z"/>
			<path class="st0" d="M1177.1,679.2c-2.5,0-4.4,1.6-4.4,4c-0.1,2,2.2,4.3,4.3,4.3c2.1,0,4.4-2.2,4.4-4.2
				C1181.4,680.9,1179.6,679.2,1177.1,679.2z M1177.1,681.3c1.4-0.2,2,0.8,2,1.8c0,1.1-0.9,2-2.1,2c-1.2,0-2.1-1-2.1-2.1
				C1174.9,682.1,1175.6,681.1,1177.1,681.3z"/>
			<path class="st0" d="M1166.9,708.5c0-2.6-1.5-4.3-4-4.3c-2.2-0.1-4.3,2-4.3,4.2c0,2.3,2,4.1,4.3,4.1
				C1165.4,712.5,1166.9,711,1166.9,708.5z M1164.7,708.2c0.1,1.4-0.7,2.2-1.9,2.2c-1.1,0-1.9-0.7-2.1-1.8c-0.2-1.3,0.8-2.1,1.9-2.2
				C1163.7,706.3,1164.8,706.8,1164.7,708.2z"/>
			<path class="st0" d="M1180.5,687.5c-0.7,0.5-2,0.4-1.2,2c2.6,4.6,5.1,9.3,7.6,13.9c0.3,0.6,0.4,1.5,1.7,0.9
				c1.4-0.7,0.6-1.4,0.2-2c-2.4-4.5-4.9-9-7.3-13.5C1181.3,688.2,1181.2,687.5,1180.5,687.5z"/>
			<path class="st0" d="M1175.6,688.6c-0.1-0.7-0.8-0.7-1.3-1c-0.8-0.5-1,0.2-1.2,0.7c-2.1,3.8-4.1,7.6-6.2,11.4
				c-0.5,0.9-0.8,2-1.5,2.8c-0.6,0.8-0.4,1.1,0.4,1.6c0.8,0.5,1.2,0.3,1.6-0.4c2.7-4.9,5.3-9.9,8-14.8
				C1175.4,688.8,1175.5,688.7,1175.6,688.6z"/>
		</g>
	</g>
	<g class="st1">
		<g>
			<path class="st0" d="M1420.8,699.4c0,17.8-14.5,32.2-32.3,32.2c-17.7,0-32-14.5-32-32.3c0-17.7,14.5-32,32.4-32
				C1406.4,667.2,1420.8,681.7,1420.8,699.4z M1417.1,700c0-8.5-6.9-15.4-15.3-15.4c-8.4,0-15.3,6.9-15.3,15.3
				c0,8.5,6.8,15.3,15.3,15.4C1410.2,715.4,1417.1,708.5,1417.1,700z M1407.5,723.5c-6.2,4-13,5.7-20.3,4.6
				c-7.4-1-13.5-4.5-18.2-10.2c-8.4-10.1-8.8-24.7-1-35.3c4.8-6.6,11.4-10.5,19.5-11.6c8.1-1.1,15.4,1,21.9,6
				c-10.2-9.9-28.2-11.7-40.9-0.6c-13.2,11.5-14.2,31.6-1.9,44.4C1378.2,732.8,1396.3,732.7,1407.5,723.5z M1410.8,718.9
				c-10.7,9.2-26.1,8.1-35.3-1.5c-9.2-9.7-9.6-24.5-1-34.5c4.4-5,9.9-8,16.5-8.7c8.2-0.9,15.3,1.7,21.3,7.4
				c-9.1-11-26.4-13.5-38.7-3.3c-12.4,10.3-13.3,28.9-2.1,40.4C1382.8,730.3,1400.7,729.4,1410.8,718.9z M1412.6,715.3
				c-9.3,9.7-24.5,8.6-32.6-0.5c-7.9-8.8-7.8-22,0.4-30.6c4.6-4.8,10.3-7.1,17-6.9c6.7,0.2,12.1,3.1,16.4,8.1
				c-4.3-6.6-14-12.3-25.1-9.9c-10.9,2.3-19.1,12.1-19.4,23.2c-0.3,11.5,7.2,21.6,18.3,24.5C1398.1,726.1,1408,721.4,1412.6,715.3z
				 M1415.4,689.7c-3-6.4-11.6-12.9-22.3-11.2c-10.8,1.7-18.5,11.2-18.1,22.1c0.4,10.5,8.8,19.5,19.2,20.5c4,0.4,7.8-0.3,11.4-1.9
				c3.4-1.6,8.2-5.9,8.6-7.6c-7.2,9.4-21.3,9.9-29.2,1.3c-7.1-7.7-6.8-20.1,1.4-27.3C1394.9,678,1408.9,679.4,1415.4,689.7z
				 M1416,707.1c-4,7.9-12.8,10.2-19.3,7.9c-6.8-2.4-11-8.6-10.7-15.9c0.2-6.7,5.2-12.7,11.9-14.5c6.6-1.7,15.2,1.1,18.7,9.3
				c-1.7-6-8.5-12.9-18.2-12.5c-9.5,0.5-17,7.9-17.5,17.4c-0.5,9.4,6.1,17.6,15.6,19.2C1405.7,719.6,1413.5,713.6,1416,707.1z"/>
		</g>
	</g>
	<g class="st1">
		<path class="st0" d="M1611.3,667.5c-2.4,0-4.8,0.5-7,1.4c-2.2,0.9-4.2,2.3-5.9,4c-1.7,1.7-3,3.7-3.9,6c-0.9,2.2-1.4,4.6-1.4,7v6.1
			h14.8v-8.8c0-0.4,0.1-0.8,0.2-1.2c0.2-0.4,0.4-0.7,0.7-1c0.3-0.3,0.6-0.5,1-0.7c0.4-0.2,0.8-0.2,1.2-0.2h0.5
			c0.4,0,0.8,0.1,1.2,0.2c0.4,0.2,0.7,0.4,1,0.7c0.3,0.3,0.5,0.6,0.7,1c0.2,0.4,0.2,0.8,0.2,1.2V707c1.9,0,3.9-0.4,5.7-1.1
			c1.8-0.7,3.4-1.8,4.8-3.2c1.4-1.4,2.5-3,3.2-4.8c0.7-1.8,1.1-3.7,1.1-5.7V686c0-4.9-1.9-9.6-5.3-13.1c-1.7-1.7-3.7-3.1-5.9-4
			C1616.1,668,1613.7,667.5,1611.3,667.5z"/>
		<path class="st0" d="M1611.6,719h-0.5c-0.4,0-0.8-0.1-1.2-0.2c-0.4-0.2-0.7-0.4-1-0.7c-0.3-0.3-0.5-0.6-0.7-1
			c-0.2-0.4-0.2-0.8-0.2-1.2v-23.7c-1.9,0-3.9,0.4-5.7,1.1c-1.8,0.7-3.4,1.8-4.8,3.2c-1.4,1.4-2.5,3-3.2,4.8
			c-0.7,1.8-1.1,3.7-1.1,5.7v6c0,2.4,0.4,4.8,1.3,7.1s2.2,4.3,3.9,6c1.7,1.7,3.7,3.1,5.9,4c2.2,0.9,4.6,1.4,7,1.4s4.8-0.5,7-1.4
			c2.2-0.9,4.2-2.3,5.9-4c1.7-1.7,3-3.8,3.9-6c0.9-2.2,1.4-4.6,1.3-7.1v-6h-14.8v8.8c0,0.4-0.1,0.8-0.2,1.2c-0.2,0.4-0.4,0.7-0.7,1
			c-0.3,0.3-0.6,0.5-1,0.7C1612.4,718.9,1612,719,1611.6,719z"/>
	</g>
	<g>
		<g>
			<path class="st0" d="M948.9,707c1.4,0,2.3,1.2,1.7,2.3c-0.4,0.7-1.1,0.9-1.9,1c-2.4,0.2-4.7,0.1-7.1,0.1c-0.5,0-0.7,0.2-0.7,0.7
				l0,4.2c0,0.3,0.1,0.5,0.5,0.5c2.9,0,5.8,0.1,8.6-0.1c3.2-0.2,6.2-1.9,7-5.6c0.4-2.1-0.1-4-1.5-5.6c-0.3-0.4-0.3-0.5,0-0.9
				c1.9-2.5,1.9-5.5,0.2-8.1c-1.1-1.6-2.7-2.4-4.5-2.8c-1.8-0.3-3.7-0.4-5.5-0.4h-15.3c-0.5,0-0.7,0.2-0.7,0.7c0,4.4,0,8.9,0,13.3
				c0,0.5,0.1,0.6,0.6,0.6L948.9,707z M935.4,701.3c-0.4,0-0.5-0.1-0.5-0.5v-2.2c0-0.4,0.1-0.5,0.6-0.5l11.6,0c1,0,1.9,0,2.9,0.4
				c0.5,0.2,0.8,0.7,0.8,1.2c0,0.6-0.2,1.1-0.7,1.4c-0.4,0.2-0.9,0.3-1.4,0.3L935.4,701.3z"/>
			<path class="st0" d="M987.8,692.4c-0.7,0-0.9,0.2-0.8,0.9c0.1,1.4,0,2.7,0,4.1c0,0.5,0.1,0.7,0.6,0.6l17.8,0c0.8,0,1.7,0,2.5,0.2
				c0.8,0.2,1.1,0.8,1.1,1.5c0,0.7-0.5,1.2-1.2,1.4c-0.9,0.2-1.7,0.2-2.6,0.2l-17.4,0c-0.6,0-0.7,0.1-0.7,0.7c0,4.4,0,8.9,0,13.3
				c0,0.5,0.1,0.6,0.6,0.6h4.5c0.5,0,0.6-0.2,0.6-0.6l0-7.6c0-0.6,0.2-0.7,0.7-0.7l14,0c1.8,0,3.6-0.3,5.1-1.4
				c1.6-1.2,2.4-2.8,2.4-4.7c0.1-1.5,0.2-3-0.4-4.5c-0.9-2.2-2.7-3.3-5-3.7c-1.2-0.2-9.4-0.3-9.4-0.3L987.8,692.4L987.8,692.4z"/>
		</g>
		<path class="st0" d="M974,715.9h-4.9c-0.4,0-0.7-0.3-0.7-0.7v-13.8c0-0.4,0.3-0.7,0.7-0.7h4.9c0.4,0,0.7,0.3,0.7,0.7v13.8
			C974.7,715.6,974.4,715.9,974,715.9z"/>
		<path class="st0" d="M982.8,697.9h-22.4c-0.4,0-0.7-0.3-0.7-0.7v-4.1c0-0.4,0.3-0.7,0.7-0.7h22.4c0.4,0,0.7,0.3,0.7,0.7v4.1
			C983.5,697.6,983.2,697.9,982.8,697.9z"/>
	</g>
	<line class="st2" x1="839.4" y1="704.4" x2="909.5" y2="704.4"/>
	<line class="st2" x1="1648.9" y1="704.4" x2="1718.9" y2="704.4"/>
	<line class="st2" x1="1030.6" y1="704.4" x2="1131.7" y2="704.4"/>
	<line class="st2" x1="1236.5" y1="704.4" x2="1337.6" y2="704.4"/>
	<line class="st2" x1="1446.5" y1="704.4" x2="1561.9" y2="704.4"/>
	<g>
		<g>
			<path class="st0" d="M927.3,757.7h2.9v12.6h-2.9V757.7z"/>
			<path class="st0" d="M935.7,769.7c-1-0.6-1.9-1.3-2.4-2.3c-0.6-1-0.9-2.1-0.9-3.4s0.3-2.4,0.9-3.4c0.6-1,1.4-1.8,2.4-2.3
				c1-0.6,2.2-0.8,3.5-0.8c1.1,0,2.1,0.2,3,0.6c0.9,0.4,1.6,0.9,2.2,1.7l-1.9,1.7c-0.9-1-1.9-1.5-3.2-1.5c-0.8,0-1.5,0.2-2.1,0.5
				c-0.6,0.3-1.1,0.8-1.4,1.4c-0.3,0.6-0.5,1.3-0.5,2.1s0.2,1.5,0.5,2.1s0.8,1.1,1.4,1.4c0.6,0.3,1.3,0.5,2.1,0.5
				c1.3,0,2.3-0.5,3.2-1.5l1.9,1.7c-0.6,0.7-1.3,1.3-2.2,1.7c-0.9,0.4-1.9,0.6-3,0.6C937.9,770.5,936.8,770.3,935.7,769.7z"/>
			<path class="st0" d="M948.7,769.7c-1.1-0.6-1.9-1.3-2.5-2.3c-0.6-1-0.9-2.1-0.9-3.3s0.3-2.3,0.9-3.3c0.6-1,1.4-1.8,2.5-2.3
				c1-0.6,2.2-0.8,3.5-0.8c1.3,0,2.5,0.3,3.5,0.8c1,0.6,1.9,1.3,2.5,2.3c0.6,1,0.9,2.1,0.9,3.3s-0.3,2.3-0.9,3.3s-1.4,1.8-2.5,2.3
				s-2.2,0.8-3.5,0.8C950.9,770.5,949.7,770.3,948.7,769.7z M954.2,767.5c0.6-0.3,1.1-0.8,1.4-1.4c0.3-0.6,0.5-1.3,0.5-2.1
				s-0.2-1.5-0.5-2.1c-0.3-0.6-0.8-1.1-1.4-1.4c-0.6-0.3-1.3-0.5-2-0.5c-0.7,0-1.4,0.2-2,0.5c-0.6,0.3-1.1,0.8-1.4,1.4
				c-0.3,0.6-0.5,1.3-0.5,2.1s0.2,1.5,0.5,2.1s0.8,1.1,1.4,1.4c0.6,0.3,1.3,0.5,2,0.5C953,768.1,953.6,767.9,954.2,767.5z"/>
			<path class="st0" d="M972.9,757.7v12.6h-2.4l-6.3-7.7v7.7h-2.9v-12.6h2.4l6.3,7.6v-7.6H972.9z"/>
			<path class="st0" d="M991.9,764.9c0.4,0.5,0.6,1.2,0.6,2c0,1.1-0.4,2-1.3,2.5c-0.9,0.6-2.1,0.9-3.8,0.9h-6.5v-12.6h6.2
				c1.5,0,2.7,0.3,3.5,0.9c0.8,0.6,1.2,1.4,1.2,2.4c0,0.6-0.1,1.2-0.4,1.6c-0.3,0.5-0.7,0.9-1.2,1.1
				C990.9,764,991.5,764.4,991.9,764.9z M983.8,759.9v3h2.9c0.7,0,1.3-0.1,1.6-0.4c0.4-0.3,0.6-0.6,0.6-1.1s-0.2-0.9-0.6-1.1
				c-0.4-0.2-0.9-0.4-1.6-0.4H983.8z M989,767.7c0.4-0.3,0.6-0.6,0.6-1.2c0-1-0.8-1.6-2.3-1.6h-3.4v3.1h3.4
				C988,768.1,988.6,768,989,767.7z"/>
			<path class="st0" d="M997.1,760.1h-4v-2.4h11v2.4h-4v10.2h-2.9V760.1z"/>
			<path class="st0" d="M1014,758.3c0.8,0.4,1.5,0.9,1.9,1.6s0.7,1.5,0.7,2.4c0,0.9-0.2,1.7-0.7,2.4c-0.4,0.7-1.1,1.2-1.9,1.6
				c-0.8,0.4-1.8,0.5-2.9,0.5h-2.5v3.5h-2.9v-12.6h5.5C1012.2,757.7,1013.2,757.9,1014,758.3z M1013,763.9c0.5-0.4,0.7-0.9,0.7-1.6
				c0-0.7-0.2-1.3-0.7-1.6c-0.5-0.4-1.1-0.6-2-0.6h-2.4v4.4h2.4C1011.8,764.5,1012.5,764.3,1013,763.9z"/>
		</g>
	</g>
	<g>
		<path class="st0" d="M1118.9,769.7c-1-0.6-1.9-1.3-2.4-2.3c-0.6-1-0.9-2.1-0.9-3.4s0.3-2.4,0.9-3.4c0.6-1,1.4-1.8,2.4-2.3
			c1-0.6,2.2-0.8,3.5-0.8c1.1,0,2.1,0.2,3,0.6c0.9,0.4,1.6,0.9,2.2,1.7l-1.9,1.7c-0.9-1-1.9-1.5-3.2-1.5c-0.8,0-1.5,0.2-2.1,0.5
			c-0.6,0.3-1.1,0.8-1.4,1.4c-0.3,0.6-0.5,1.3-0.5,2.1s0.2,1.5,0.5,2.1s0.8,1.1,1.4,1.4c0.6,0.3,1.3,0.5,2.1,0.5
			c1.3,0,2.3-0.5,3.2-1.5l1.9,1.7c-0.6,0.7-1.3,1.3-2.2,1.7c-0.9,0.4-1.9,0.6-3,0.6C1121.1,770.5,1120,770.3,1118.9,769.7z"/>
		<path class="st0" d="M1131.9,769.7c-1.1-0.6-1.9-1.3-2.5-2.3c-0.6-1-0.9-2.1-0.9-3.3s0.3-2.3,0.9-3.3c0.6-1,1.4-1.8,2.5-2.3
			c1-0.6,2.2-0.8,3.5-0.8c1.3,0,2.5,0.3,3.5,0.8c1,0.6,1.9,1.3,2.5,2.3c0.6,1,0.9,2.1,0.9,3.3s-0.3,2.3-0.9,3.3s-1.4,1.8-2.5,2.3
			s-2.2,0.8-3.5,0.8C1134.1,770.5,1132.9,770.3,1131.9,769.7z M1137.4,767.5c0.6-0.3,1.1-0.8,1.4-1.4c0.3-0.6,0.5-1.3,0.5-2.1
			s-0.2-1.5-0.5-2.1c-0.3-0.6-0.8-1.1-1.4-1.4c-0.6-0.3-1.3-0.5-2-0.5c-0.7,0-1.4,0.2-2,0.5c-0.6,0.3-1.1,0.8-1.4,1.4
			c-0.3,0.6-0.5,1.3-0.5,2.1s0.2,1.5,0.5,2.1s0.8,1.1,1.4,1.4c0.6,0.3,1.3,0.5,2,0.5C1136.2,768.1,1136.8,767.9,1137.4,767.5z"/>
		<path class="st0" d="M1145.8,770.1c-0.9-0.3-1.7-0.6-2.2-1.1l1-2.2c0.5,0.4,1.2,0.7,1.9,1c0.7,0.2,1.5,0.4,2.2,0.4
			c0.8,0,1.4-0.1,1.8-0.4s0.6-0.6,0.6-1c0-0.3-0.1-0.5-0.4-0.7c-0.2-0.2-0.5-0.4-0.9-0.5c-0.4-0.1-0.9-0.3-1.5-0.4
			c-1-0.2-1.7-0.5-2.4-0.7c-0.6-0.2-1.1-0.6-1.6-1.1c-0.4-0.5-0.7-1.2-0.7-2c0-0.7,0.2-1.4,0.6-2s1-1.1,1.8-1.4
			c0.8-0.3,1.8-0.5,2.9-0.5c0.8,0,1.6,0.1,2.4,0.3c0.8,0.2,1.4,0.5,2,0.8l-0.9,2.2c-1.2-0.7-2.3-1-3.5-1c-0.8,0-1.4,0.1-1.8,0.4
			c-0.4,0.3-0.6,0.6-0.6,1c0,0.4,0.2,0.8,0.7,1c0.4,0.2,1.1,0.4,2.1,0.6c1,0.2,1.7,0.5,2.4,0.7c0.6,0.2,1.1,0.6,1.6,1.1
			c0.4,0.5,0.7,1.2,0.7,2c0,0.7-0.2,1.4-0.6,2c-0.4,0.6-1,1.1-1.8,1.4c-0.8,0.3-1.8,0.5-2.9,0.5
			C1147.6,770.5,1146.7,770.4,1145.8,770.1z"/>
		<path class="st0" d="M1167.5,770.3l0-7.6l-3.7,6.2h-1.3l-3.7-6.1v7.4h-2.7v-12.6h2.4l4.7,7.8l4.6-7.8h2.4l0,12.6H1167.5z"/>
		<path class="st0" d="M1175.7,769.7c-1.1-0.6-1.9-1.3-2.5-2.3c-0.6-1-0.9-2.1-0.9-3.3s0.3-2.3,0.9-3.3c0.6-1,1.4-1.8,2.5-2.3
			c1-0.6,2.2-0.8,3.5-0.8c1.3,0,2.5,0.3,3.5,0.8c1,0.6,1.9,1.3,2.5,2.3c0.6,1,0.9,2.1,0.9,3.3s-0.3,2.3-0.9,3.3s-1.4,1.8-2.5,2.3
			s-2.2,0.8-3.5,0.8C1178,770.5,1176.8,770.3,1175.7,769.7z M1181.3,767.5c0.6-0.3,1.1-0.8,1.4-1.4c0.3-0.6,0.5-1.3,0.5-2.1
			s-0.2-1.5-0.5-2.1c-0.3-0.6-0.8-1.1-1.4-1.4c-0.6-0.3-1.3-0.5-2-0.5c-0.7,0-1.4,0.2-2,0.5c-0.6,0.3-1.1,0.8-1.4,1.4
			c-0.3,0.6-0.5,1.3-0.5,2.1s0.2,1.5,0.5,2.1s0.8,1.1,1.4,1.4c0.6,0.3,1.3,0.5,2,0.5C1180,768.1,1180.7,767.9,1181.3,767.5z"/>
		<path class="st0" d="M1189.6,770.1c-0.9-0.3-1.7-0.6-2.2-1.1l1-2.2c0.5,0.4,1.2,0.7,1.9,1c0.7,0.2,1.5,0.4,2.2,0.4
			c0.8,0,1.4-0.1,1.8-0.4s0.6-0.6,0.6-1c0-0.3-0.1-0.5-0.4-0.7c-0.2-0.2-0.5-0.4-0.9-0.5c-0.4-0.1-0.9-0.3-1.5-0.4
			c-1-0.2-1.7-0.5-2.4-0.7c-0.6-0.2-1.1-0.6-1.6-1.1c-0.4-0.5-0.7-1.2-0.7-2c0-0.7,0.2-1.4,0.6-2s1-1.1,1.8-1.4
			c0.8-0.3,1.8-0.5,2.9-0.5c0.8,0,1.6,0.1,2.4,0.3c0.8,0.2,1.4,0.5,2,0.8l-0.9,2.2c-1.2-0.7-2.3-1-3.5-1c-0.8,0-1.4,0.1-1.8,0.4
			c-0.4,0.3-0.6,0.6-0.6,1c0,0.4,0.2,0.8,0.7,1c0.4,0.2,1.1,0.4,2.1,0.6c1,0.2,1.7,0.5,2.4,0.7c0.6,0.2,1.1,0.6,1.6,1.1
			c0.4,0.5,0.7,1.2,0.7,2c0,0.7-0.2,1.4-0.6,2c-0.4,0.6-1,1.1-1.8,1.4c-0.8,0.3-1.8,0.5-2.9,0.5
			C1191.5,770.5,1190.6,770.4,1189.6,770.1z"/>
		<path class="st0" d="M1204.9,757.7h2.9v12.6h-2.9V757.7z"/>
		<path class="st0" d="M1221.8,764.9c0.4,0.5,0.6,1.2,0.6,2c0,1.1-0.4,2-1.3,2.5c-0.9,0.6-2.1,0.9-3.8,0.9h-6.5v-12.6h6.2
			c1.5,0,2.7,0.3,3.5,0.9c0.8,0.6,1.2,1.4,1.2,2.4c0,0.6-0.1,1.2-0.4,1.6c-0.3,0.5-0.7,0.9-1.2,1.1
			C1220.8,764,1221.4,764.4,1221.8,764.9z M1213.8,759.9v3h2.9c0.7,0,1.3-0.1,1.6-0.4c0.4-0.3,0.6-0.6,0.6-1.1s-0.2-0.9-0.6-1.1
			c-0.4-0.2-0.9-0.4-1.6-0.4H1213.8z M1218.9,767.7c0.4-0.3,0.6-0.6,0.6-1.2c0-1-0.8-1.6-2.3-1.6h-3.4v3.1h3.4
			C1217.9,768.1,1218.5,768,1218.9,767.7z"/>
		<path class="st0" d="M1227.2,769.7c-1-0.6-1.9-1.3-2.4-2.3c-0.6-1-0.9-2.1-0.9-3.4s0.3-2.4,0.9-3.4c0.6-1,1.4-1.8,2.4-2.3
			c1-0.6,2.2-0.8,3.5-0.8c1.1,0,2.1,0.2,3,0.6c0.9,0.4,1.6,0.9,2.2,1.7l-1.9,1.7c-0.9-1-1.9-1.5-3.2-1.5c-0.8,0-1.5,0.2-2.1,0.5
			c-0.6,0.3-1.1,0.8-1.4,1.4c-0.3,0.6-0.5,1.3-0.5,2.1s0.2,1.5,0.5,2.1s0.8,1.1,1.4,1.4c0.6,0.3,1.3,0.5,2.1,0.5
			c1.3,0,2.3-0.5,3.2-1.5l1.9,1.7c-0.6,0.7-1.3,1.3-2.2,1.7c-0.9,0.4-1.9,0.6-3,0.6C1229.4,770.5,1228.2,770.3,1227.2,769.7z"/>
	</g>
	<g class="st3">
		<g>
			<path class="st4" d="M1349.2,757.7l-4.3,12.6h-1L1340,759l-3.9,11.3h-1l-4.3-12.6h1l3.8,11.3l3.9-11.3h0.9l3.9,11.4l3.9-11.4
				H1349.2z"/>
			<path class="st4" d="M1353.7,769.6c-1-0.6-1.8-1.3-2.3-2.3c-0.6-1-0.9-2.1-0.9-3.3s0.3-2.3,0.9-3.3c0.6-1,1.4-1.7,2.3-2.3
				c1-0.6,2.1-0.8,3.3-0.8c1.2,0,2.4,0.3,3.3,0.8c1,0.6,1.8,1.3,2.3,2.3c0.6,1,0.9,2.1,0.9,3.3s-0.3,2.3-0.9,3.3
				c-0.6,1-1.4,1.7-2.3,2.3c-1,0.6-2.1,0.8-3.3,0.8C1355.8,770.4,1354.7,770.1,1353.7,769.6z M1359.9,768.8c0.9-0.5,1.5-1.1,2-2
				s0.7-1.8,0.7-2.8s-0.2-2-0.7-2.8c-0.5-0.8-1.2-1.5-2-2c-0.9-0.5-1.8-0.7-2.9-0.7s-2,0.2-2.9,0.7c-0.9,0.5-1.5,1.1-2,2
				c-0.5,0.8-0.7,1.8-0.7,2.8s0.2,2,0.7,2.8c0.5,0.8,1.2,1.5,2,2c0.9,0.5,1.8,0.7,2.9,0.7S1359.1,769.3,1359.9,768.8z"/>
			<path class="st4" d="M1375.6,770.3l-3-4.2c-0.4,0.1-0.9,0.1-1.2,0.1h-3.6v4.1h-0.9v-12.6h4.5c1.6,0,2.8,0.4,3.7,1.1
				c0.9,0.8,1.3,1.8,1.3,3.1c0,1-0.3,1.8-0.8,2.5c-0.5,0.7-1.2,1.2-2.2,1.4l3.2,4.4H1375.6z M1371.3,765.4c1.3,0,2.4-0.3,3.1-0.9
				c0.7-0.6,1.1-1.4,1.1-2.5s-0.4-1.9-1.1-2.5s-1.7-0.9-3.1-0.9h-3.6v6.8H1371.3z"/>
			<path class="st4" d="M1391.7,770.3l0-10.8l-5.3,9.1h-0.5l-5.3-9.1v10.7h-0.9v-12.6h0.8l5.6,9.7l5.6-9.7h0.8l0,12.6H1391.7z"/>
			<path class="st4" d="M1407.2,757.7v12.6h-0.9v-6h-8.4v6h-0.9v-12.6h0.9v5.8h8.4v-5.8H1407.2z"/>
			<path class="st4" d="M1413.6,769.6c-1-0.6-1.8-1.3-2.3-2.3c-0.6-1-0.9-2.1-0.9-3.3s0.3-2.3,0.9-3.3c0.6-1,1.4-1.7,2.3-2.3
				c1-0.6,2.1-0.8,3.3-0.8c1.2,0,2.4,0.3,3.3,0.8c1,0.6,1.8,1.3,2.3,2.3c0.6,1,0.9,2.1,0.9,3.3s-0.3,2.3-0.9,3.3
				c-0.6,1-1.4,1.7-2.3,2.3c-1,0.6-2.1,0.8-3.3,0.8C1415.7,770.4,1414.6,770.1,1413.6,769.6z M1419.8,768.8c0.9-0.5,1.5-1.1,2-2
				s0.7-1.8,0.7-2.8s-0.2-2-0.7-2.8c-0.5-0.8-1.2-1.5-2-2c-0.9-0.5-1.8-0.7-2.9-0.7s-2,0.2-2.9,0.7c-0.9,0.5-1.5,1.1-2,2
				c-0.5,0.8-0.7,1.8-0.7,2.8s0.2,2,0.7,2.8c0.5,0.8,1.2,1.5,2,2c0.9,0.5,1.8,0.7,2.9,0.7S1419,769.3,1419.8,768.8z"/>
			<path class="st4" d="M1426.7,757.7h0.9v11.8h7.3v0.8h-8.2V757.7z"/>
			<path class="st4" d="M1445.9,769.5v0.8h-8.7v-12.6h8.4v0.8h-7.5v5h6.7v0.8h-6.7v5.2H1445.9z"/>
		</g>
	</g>
	<g class="st3">
		<g>
			<path class="st4" d="M1556.1,757.7h0.9v11.8h7.3v0.8h-8.2V757.7z"/>
			<path class="st4" d="M1574.4,766.8h-7.3l-1.6,3.5h-1l5.8-12.6h0.9l5.8,12.6h-1L1574.4,766.8z M1574.1,766l-3.3-7.3l-3.3,7.3
				H1574.1z"/>
			<path class="st4" d="M1582.5,766v4.3h-0.9V766l-5.1-8.3h1l4.6,7.4l4.6-7.4h1L1582.5,766z"/>
			<path class="st4" d="M1598.2,769.5v0.8h-8.7v-12.6h8.4v0.8h-7.5v5h6.7v0.8h-6.7v5.2H1598.2z"/>
			<path class="st4" d="M1610.3,770.3l-3-4.2c-0.4,0.1-0.9,0.1-1.2,0.1h-3.6v4.1h-0.9v-12.6h4.5c1.6,0,2.8,0.4,3.7,1.1
				c0.9,0.8,1.3,1.8,1.3,3.1c0,1-0.3,1.8-0.8,2.5c-0.5,0.7-1.2,1.2-2.2,1.4l3.2,4.4H1610.3z M1606.1,765.4c1.3,0,2.4-0.3,3.1-0.9
				c0.7-0.6,1.1-1.4,1.1-2.5s-0.4-1.9-1.1-2.5s-1.7-0.9-3.1-0.9h-3.6v6.8H1606.1z"/>
			<path class="st4" d="M1628,769.5v0.8h-10.2v-0.6l8.7-11.1h-8.6v-0.8h9.8v0.6l-8.7,11.1H1628z"/>
			<path class="st4" d="M1639.5,769.5v0.8h-8.7v-12.6h8.4v0.8h-7.5v5h6.7v0.8h-6.7v5.2H1639.5z"/>
			<path class="st4" d="M1651.6,770.3l-3-4.2c-0.4,0.1-0.9,0.1-1.2,0.1h-3.6v4.1h-0.9v-12.6h4.5c1.6,0,2.8,0.4,3.7,1.1
				c0.9,0.8,1.3,1.8,1.3,3.1c0,1-0.3,1.8-0.8,2.5c-0.5,0.7-1.2,1.2-2.2,1.4l3.2,4.4H1651.6z M1647.4,765.4c1.3,0,2.4-0.3,3.1-0.9
				c0.7-0.6,1.1-1.4,1.1-2.5s-0.4-1.9-1.1-2.5s-1.7-0.9-3.1-0.9h-3.6v6.8H1647.4z"/>
			<path class="st4" d="M1657.8,769.6c-1-0.6-1.8-1.3-2.3-2.3c-0.6-1-0.9-2.1-0.9-3.3s0.3-2.3,0.9-3.3c0.6-1,1.4-1.7,2.3-2.3
				c1-0.6,2.1-0.8,3.3-0.8c1.2,0,2.4,0.3,3.3,0.8c1,0.6,1.8,1.3,2.3,2.3c0.6,1,0.9,2.1,0.9,3.3s-0.3,2.3-0.9,3.3
				c-0.6,1-1.4,1.7-2.3,2.3c-1,0.6-2.1,0.8-3.3,0.8C1659.9,770.4,1658.8,770.1,1657.8,769.6z M1664,768.8c0.9-0.5,1.5-1.1,2-2
				s0.7-1.8,0.7-2.8s-0.2-2-0.7-2.8c-0.5-0.8-1.2-1.5-2-2c-0.9-0.5-1.8-0.7-2.9-0.7s-2,0.2-2.9,0.7c-0.9,0.5-1.5,1.1-2,2
				c-0.5,0.8-0.7,1.8-0.7,2.8s0.2,2,0.7,2.8c0.5,0.8,1.2,1.5,2,2c0.9,0.5,1.8,0.7,2.9,0.7S1663.1,769.3,1664,768.8z"/>
		</g>
	</g>
	<polygon class="st0" points="839.4,712.3 839.4,696.5 847.3,704.4 	"/>
	<polygon class="st0" points="1712.2,712.3 1712.2,696.5 1720.1,704.4 	"/>
</g>
</svg>
