<?xml version="1.0" encoding="utf-8"?>
<!-- Generator: Adobe Illustrator 23.0.1, SVG Export Plug-In . SVG Version: 6.00 Build 0)  -->
<svg version="1.1" id="Capa_1" xmlns="http://www.w3.org/2000/svg" xmlns:xlink="http://www.w3.org/1999/xlink" x="0px" y="0px"
	 viewBox="0 0 20 20" style="enable-background:new 0 0 20 20;" xml:space="preserve">
<style type="text/css">
	.st0{opacity:0.4;fill-rule:evenodd;clip-rule:evenodd;fill:#7D7490;}
</style>
<path class="st0" d="M10,0.5c-5.4,0-9.7,4.4-9.7,9.8c0,4.3,2.8,8,6.6,9.3c0.5,0.1,0.7-0.2,0.7-0.5c0-0.2,0-1,0-1.8
	c-2.7,0.6-3.3-1.2-3.3-1.2c-0.4-1.1-1.1-1.4-1.1-1.4C2.4,14,3.3,14,3.3,14c1,0.1,1.5,1,1.5,1c0.9,1.5,2.3,1.1,2.8,0.8
	c0.1-0.6,0.3-1.1,0.6-1.3c-2.2-0.2-4.4-1.1-4.4-4.8c0-1.1,0.4-1.9,1-2.6C4.7,6.9,4.4,5.9,4.9,4.5c0,0,0.8-0.3,2.7,1
	C8.4,5.3,9.2,5.2,10,5.2c0.8,0,1.7,0.1,2.4,0.3c1.8-1.3,2.7-1,2.7-1c0.5,1.3,0.2,2.3,0.1,2.6c0.6,0.7,1,1.6,1,2.6
	c0,3.8-2.3,4.6-4.4,4.8c0.4,0.3,0.7,0.9,0.7,1.8c0,1.3,0,2.4,0,2.7c0,0.3,0.2,0.6,0.7,0.5c3.9-1.3,6.6-5,6.6-9.3
	C19.7,4.8,15.4,0.5,10,0.5z"/>
</svg>
