<?xml version="1.0" encoding="utf-8"?>
<!-- Generator: Adobe Illustrator 23.0.1, SVG Export Plug-In . SVG Version: 6.00 Build 0)  -->
<svg version="1.1" id="Capa_1" xmlns="http://www.w3.org/2000/svg" xmlns:xlink="http://www.w3.org/1999/xlink" x="0px" y="0px"
	 viewBox="0 0 323.5 59.6" style="enable-background:new 0 0 323.5 59.6;" xml:space="preserve">
<style type="text/css">
	.st0{fill:#596B80;}
	.st1{fill:url(#SVGID_1_);}
	.st2{fill:url(#SVGID_2_);}
	.st3{fill:url(#SVGID_3_);}
</style>
<path class="st0" d="M129.4,48.5l-2.3-3.2c-0.2-0.3-0.6-0.6-1.1-0.6c-0.4,0-0.8,0.1-1.2,0.4c-2.9,2.6-7.6,5.7-13.9,5.7
	c-11.2,0-20.8-9.5-20.8-20.8C90.3,18.6,99.7,9,110.9,9c4.9,0,10,2.1,14,5.8c0.3,0.3,0.7,0.4,1.2,0.4c0.4,0,0.8-0.3,1.1-0.6l2.3-3.1
	c0.5-0.6,0.4-1.5-0.2-2c-5-4.8-11.6-7.6-18.1-7.6c-15.2,0-28,12.8-28,28.1c0,15.1,12.8,27.9,28,27.9c6.8,0,12.9-2.5,18.1-7.4
	C129.8,49.9,129.9,49.1,129.4,48.5z"/>
<path class="st0" d="M261.6,50.1h-24.7v-46c0-0.8-0.7-1.5-1.5-1.5h-4c-0.8,0-1.5,0.7-1.5,1.5v51.5c0,0.8,0.7,1.5,1.5,1.5h30.3
	c0.8,0,1.5-0.7,1.5-1.5v-4C263.1,50.8,262.5,50.1,261.6,50.1z"/>
<path class="st0" d="M322,50.1h-24.7v-46c0-0.8-0.7-1.5-1.5-1.5h-4c-0.8,0-1.5,0.7-1.5,1.5v51.5c0,0.8,0.7,1.5,1.5,1.5H322
	c0.8,0,1.5-0.7,1.5-1.5v-4C323.5,50.8,322.9,50.1,322,50.1z"/>
<path class="st0" d="M202.9,55L179.3,3.3c-0.2-0.5-0.8-0.9-1.4-0.9s-1.1,0.3-1.4,0.9L153.1,55c-0.2,0.5-0.2,1,0.1,1.4
	c0.3,0.4,0.8,0.7,1.3,0.7h4.3c0.6,0,1.1-0.3,1.4-0.9l17.8-40l17.8,40c0.2,0.5,0.8,0.9,1.4,0.9h4.4c0.5,0,1-0.3,1.3-0.7
	C203.1,56,203.1,55.5,202.9,55z"/>
<g>
	
		<linearGradient id="SVGID_1_" gradientUnits="userSpaceOnUse" x1="78.5359" y1="29.7876" x2="113.0186" y2="29.7876" gradientTransform="matrix(1 0 0 1 -78.5359 0)">
		<stop  offset="0" style="stop-color:#41CCDB"/>
		<stop  offset="1" style="stop-color:#00B8CC"/>
	</linearGradient>
	<path class="st1" d="M4.7,59.6c-1.2,0-2.4-0.5-3.3-1.4c-1.8-1.8-1.8-4.8,0-6.6l21.8-21.8L1.4,8c-1.8-1.8-1.8-4.8,0-6.6
		c1.8-1.8,4.8-1.8,6.6,0l25.1,25.1c0.9,0.9,1.4,2.1,1.4,3.3s-0.5,2.4-1.4,3.3L8,58.2C7.1,59.1,5.9,59.6,4.7,59.6z"/>
</g>
<g>
	
		<linearGradient id="SVGID_2_" gradientUnits="userSpaceOnUse" x1="765.8372" y1="11.2722" x2="788.3813" y2="11.2722" gradientTransform="matrix(-1 0 0 1 823.2701 0)">
		<stop  offset="0" style="stop-color:#41CCDB"/>
		<stop  offset="1" style="stop-color:#00B8CC"/>
	</linearGradient>
	<path class="st2" d="M41.5,22.5l-6.6-6.6L49.4,1.4c1.8-1.8,4.8-1.8,6.6,0c1.8,1.8,1.8,4.8,0,6.6L41.5,22.5z"/>
	
		<linearGradient id="SVGID_3_" gradientUnits="userSpaceOnUse" x1="765.8372" y1="48.3031" x2="788.3817" y2="48.3031" gradientTransform="matrix(-1 0 0 1 823.2701 0)">
		<stop  offset="0" style="stop-color:#41CCDB"/>
		<stop  offset="1" style="stop-color:#00B8CC"/>
	</linearGradient>
	<path class="st3" d="M41.5,37l14.5,14.5c1.8,1.8,1.8,4.8,0,6.6c-0.9,0.9-2.1,1.4-3.3,1.4s-2.4-0.5-3.3-1.4L34.9,43.7L41.5,37z"/>
</g>
</svg>
